{
    "id": 1,
    "name": "Olli",
    "author": "Olve",
    "loops": [
        {
            "length_beats": 16,
            "events": [
                [
                    0,
                    {
                        "note": 36,
                        "state": 1,
                        "velocity": 98
                    }
                ],
                [
                    0,
                    {
                        "note": 42,
                        "state": 1,
                        "velocity": 103
                    }
                ],
                [
                    4,
                    {
                        "note": 42,
                        "state": 0,
                        "velocity": 100
                    }
                ],
                [
                    6,
                    {
                        "note": 36,
                        "state": 0,
                        "velocity": 100
                    }
                ],
                [
                    15,
                    {
                        "note": 42,
                        "state": 1,
                        "velocity": 94
                    }
                ],
                [
                    20,
                    {
                        "note": 42,
                        "state": 0,
                        "velocity": 100
                    }
                ],
                [
                    24,
                    {
                        "note": 42,
                        "state": 1,
                        "velocity": 52
                    }
                ],
                [
                    28,
                    {
                        "note": 42,
                        "state": 0,
                        "velocity": 100
                    }
                ],
                [
                    39,
                    {
                        "note": 36,
                        "state": 1,
                        "velocity": 105
                    }
                ],
                [
                    39,
                    {
                        "note": 42,
                        "state": 1,
                        "velocity": 98
                    }
                ],
                [
                    44,
                    {
                        "note": 36,
                        "state": 0,
                        "velocity": 100
                    }
                ],
                [
                    44,
                    {
                        "note": 42,
                        "state": 0,
                        "velocity": 100
                    }
                ],
                [
                    48,
                    {
                        "note": 38,
                        "state": 1,
                        "velocity": 99
                    }
                ],
                [
                    48,
                    {
                        "note": 42,
                        "state": 1,
                        "velocity": 58
                    }
                ],
                [
                    52,
                    {
                        "note": 42,
                        "state": 0,
                        "velocity": 100
                    }
                ],
                [
                    55,
                    {
                        "note": 38,
                        "state": 0,
                        "velocity": 100
                    }
                ],
                [
                    63,
                    {
                        "note": 42,
                        "state": 1,
                        "velocity": 75
                    }
                ],
                [
                    68,
                    {
                        "note": 42,
                        "state": 0,
                        "velocity": 0
                    }
                ],
                [
                    72,
                    {
                        "note": 36,
                        "state": 1,
                        "velocity": 57
                    }
                ],
                [
                    72,
                    {
                        "note": 42,
                        "state": 1,
                        "velocity": 74
                    }
                ],
                [
                    75,
                    {
                        "note": 42,
                        "state": 0,
                        "velocity": 100
                    }
                ],
                [
                    75,
                    {
                        "note": 42,
                        "state": 1,
                        "velocity": 67
                    }
                ],
                [
                    78,
                    {
                        "note": 36,
                        "state": 0,
                        "velocity": 0
                    }
                ],
                [
                    78,
                    {
                        "note": 42,
                        "state": 0,
                        "velocity": 0
                    }
                ],
                [
                    78,
                    {
                        "note": 42,
                        "state": 1,
                        "velocity": 105
                    }
                ],
                [
                    81,
                    {
                        "note": 42,
                        "state": 0,
                        "velocity": 0
                    }
                ],
                [
                    81,
                    {
                        "note": 42,
                        "state": 1,
                        "velocity": 104
                    }
                ],
                [
                    84,
                    {
                        "note": 42,
                        "state": 0,
                        "velocity": 0
                    }
                ],
                [
                    87,
                    {
                        "note": 36,
                        "state": 1,
                        "velocity": 96
                    }
                ],
                [
                    87,
                    {
                        "note": 42,
                        "state": 1,
                        "velocity": 106
                    }
                ],
                [
                    92,
                    {
                        "note": 42,
                        "state": 0,
                        "velocity": 100
                    }
                ],
                [
                    93,
                    {
                        "note": 36,
                        "state": 0,
                        "velocity": 100
                    }
                ],
                [
                    96,
                    {
                        "note": 42,
                        "state": 1,
                        "velocity": 53
                    }
                ],
                [
                    101,
                    {
                        "note": 42,
                        "state": 0,
                        "velocity": 100
                    }
                ],
                [
                    111,
                    {
                        "note": 36,
                        "state": 1,
                        "velocity": 94
                    }
                ],
                [
                    111,
                    {
                        "note": 42,
                        "state": 1,
                        "velocity": 97
                    }
                ],
                [
                    116,
                    {
                        "note": 42,
                        "state": 0,
                        "velocity": 100
                    }
                ],
                [
                    120,
                    {
                        "note": 42,
                        "state": 1,
                        "velocity": 67
                    }
                ],
                [
                    123,
                    {
                        "note": 36,
                        "state": 0,
                        "velocity": 100
                    }
                ],
                [
                    125,
                    {
                        "note": 42,
                        "state": 0,
                        "velocity": 100
                    }
                ],
                [
                    135,
                    {
                        "note": 36,
                        "state": 1,
                        "velocity": 100
                    }
                ],
                [
                    135,
                    {
                        "note": 42,
                        "state": 1,
                        "velocity": 104
                    }
                ],
                [
                    140,
                    {
                        "note": 42,
                        "state": 0,
                        "velocity": 100
                    }
                ],
                [
                    142,
                    {
                        "note": 36,
                        "state": 0,
                        "velocity": 100
                    }
                ],
                [
                    144,
                    {
                        "note": 38,
                        "state": 1,
                        "velocity": 94
                    }
                ],
                [
                    144,
                    {
                        "note": 42,
                        "state": 1,
                        "velocity": 69
                    }
                ],
                [
                    146,
                    {
                        "note": 39,
                        "state": 1,
                        "velocity": 30
                    }
                ],
                [
                    148,
                    {
                        "note": 42,
                        "state": 0,
                        "velocity": 100
                    }
                ],
                [
                    154,
                    {
                        "note": 38,
                        "state": 0,
                        "velocity": 100
                    }
                ],
                [
                    159,
                    {
                        "note": 42,
                        "state": 1,
                        "velocity": 105
                    }
                ],
                [
                    164,
                    {
                        "note": 42,
                        "state": 0,
                        "velocity": 100
                    }
                ],
                [
                    166,
                    {
                        "note": 39,
                        "state": 0,
                        "velocity": 0
                    }
                ],
                [
                    168,
                    {
                        "note": 42,
                        "state": 1,
                        "velocity": 63
                    }
                ],
                [
                    172,
                    {
                        "note": 42,
                        "state": 0,
                        "velocity": 100
                    }
                ],
                [
                    176,
                    {
                        "note": 40,
                        "state": 1,
                        "velocity": 103
                    }
                ],
                [
                    182,
                    {
                        "note": 36,
                        "state": 1,
                        "velocity": 62
                    }
                ],
                [
                    182,
                    {
                        "note": 42,
                        "state": 1,
                        "velocity": 94
                    }
                ],
                [
                    184,
                    {
                        "note": 40,
                        "state": 0,
                        "velocity": 100
                    }
                ],
                [
                    188,
                    {
                        "note": 36,
                        "state": 0,
                        "velocity": 0
                    }
                ],
                [
                    188,
                    {
                        "note": 42,
                        "state": 0,
                        "velocity": 0
                    }
                ],
                [
                    192,
                    {
                        "note": 36,
                        "state": 1,
                        "velocity": 100
                    }
                ],
                [
                    192,
                    {
                        "note": 42,
                        "state": 1,
                        "velocity": 60
                    }
                ],
                [
                    196,
                    {
                        "note": 42,
                        "state": 0,
                        "velocity": 100
                    }
                ],
                [
                    198,
                    {
                        "note": 36,
                        "state": 0,
                        "velocity": 100
                    }
                ],
                [
                    207,
                    {
                        "note": 42,
                        "state": 1,
                        "velocity": 94
                    }
                ],
                [
                    212,
                    {
                        "note": 42,
                        "state": 0,
                        "velocity": 100
                    }
                ],
                [
                    216,
                    {
                        "note": 42,
                        "state": 1,
                        "velocity": 57
                    }
                ],
                [
                    220,
                    {
                        "note": 42,
                        "state": 0,
                        "velocity": 100
                    }
                ],
                [
                    231,
                    {
                        "note": 36,
                        "state": 1,
                        "velocity": 95
                    }
                ],
                [
                    231,
                    {
                        "note": 42,
                        "state": 1,
                        "velocity": 95
                    }
                ],
                [
                    236,
                    {
                        "note": 36,
                        "state": 0,
                        "velocity": 100
                    }
                ],
                [
                    236,
                    {
                        "note": 42,
                        "state": 0,
                        "velocity": 100
                    }
                ],
                [
                    240,
                    {
                        "note": 38,
                        "state": 1,
                        "velocity": 96
                    }
                ],
                [
                    240,
                    {
                        "note": 42,
                        "state": 1,
                        "velocity": 59
                    }
                ],
                [
                    244,
                    {
                        "note": 42,
                        "state": 0,
                        "velocity": 100
                    }
                ],
                [
                    247,
                    {
                        "note": 38,
                        "state": 0,
                        "velocity": 100
                    }
                ],
                [
                    255,
                    {
                        "note": 42,
                        "state": 1,
                        "velocity": 103
                    }
                ],
                [
                    260,
                    {
                        "note": 42,
                        "state": 0,
                        "velocity": 100
                    }
                ],
                [
                    264,
                    {
                        "note": 38,
                        "state": 1,
                        "velocity": 27
                    }
                ],
                [
                    264,
                    {
                        "note": 42,
                        "state": 1,
                        "velocity": 69
                    }
                ],
                [
                    269,
                    {
                        "note": 42,
                        "state": 0,
                        "velocity": 100
                    }
                ],
                [
                    271,
                    {
                        "note": 38,
                        "state": 0,
                        "velocity": 100
                    }
                ],
                [
                    279,
                    {
                        "note": 36,
                        "state": 1,
                        "velocity": 99
                    }
                ],
                [
                    279,
                    {
                        "note": 42,
                        "state": 1,
                        "velocity": 103
                    }
                ],
                [
                    284,
                    {
                        "note": 42,
                        "state": 0,
                        "velocity": 100
                    }
                ],
                [
                    285,
                    {
                        "note": 36,
                        "state": 0,
                        "velocity": 100
                    }
                ],
                [
                    288,
                    {
                        "note": 42,
                        "state": 1,
                        "velocity": 70
                    }
                ],
                [
                    293,
                    {
                        "note": 42,
                        "state": 0,
                        "velocity": 100
                    }
                ],
                [
                    303,
                    {
                        "note": 42,
                        "state": 1,
                        "velocity": 92
                    }
                ],
                [
                    308,
                    {
                        "note": 42,
                        "state": 0,
                        "velocity": 100
                    }
                ],
                [
                    312,
                    {
                        "note": 36,
                        "state": 1,
                        "velocity": 93
                    }
                ],
                [
                    312,
                    {
                        "note": 42,
                        "state": 1,
                        "velocity": 65
                    }
                ],
                [
                    317,
                    {
                        "note": 42,
                        "state": 0,
                        "velocity": 100
                    }
                ],
                [
                    325,
                    {
                        "note": 36,
                        "state": 0,
                        "velocity": 100
                    }
                ],
                [
                    327,
                    {
                        "note": 42,
                        "state": 1,
                        "velocity": 96
                    }
                ],
                [
                    332,
                    {
                        "note": 42,
                        "state": 0,
                        "velocity": 100
                    }
                ],
                [
                    336,
                    {
                        "note": 38,
                        "state": 1,
                        "velocity": 103
                    }
                ],
                [
                    336,
                    {
                        "note": 42,
                        "state": 1,
                        "velocity": 48
                    }
                ],
                [
                    340,
                    {
                        "note": 42,
                        "state": 0,
                        "velocity": 100
                    }
                ],
                [
                    343,
                    {
                        "note": 38,
                        "state": 0,
                        "velocity": 100
                    }
                ],
                [
                    351,
                    {
                        "note": 42,
                        "state": 1,
                        "velocity": 101
                    }
                ],
                [
                    356,
                    {
                        "note": 42,
                        "state": 0,
                        "velocity": 100
                    }
                ],
                [
                    360,
                    {
                        "note": 40,
                        "state": 1,
                        "velocity": 95
                    }
                ],
                [
                    360,
                    {
                        "note": 42,
                        "state": 1,
                        "velocity": 61
                    }
                ],
                [
                    364,
                    {
                        "note": 42,
                        "state": 0,
                        "velocity": 100
                    }
                ],
                [
                    365,
                    {
                        "note": 40,
                        "state": 0,
                        "velocity": 100
                    }
                ],
                [
                    368,
                    {
                        "note": 42,
                        "state": 1,
                        "velocity": 92
                    }
                ],
                [
                    374,
                    {
                        "note": 42,
                        "state": 0,
                        "velocity": 0
                    }
                ],
                [
                    375,
                    {
                        "note": 36,
                        "state": 1,
                        "velocity": 65
                    }
                ],
                [
                    375,
                    {
                        "note": 42,
                        "state": 1,
                        "velocity": 95
                    }
                ],
                [
                    378,
                    {
                        "note": 42,
                        "state": 0,
                        "velocity": 100
                    }
                ],
                [
                    378,
                    {
                        "note": 42,
                        "state": 1,
                        "velocity": 101
                    }
                ],
                [
                    380,
                    {
                        "note": 36,
                        "state": 0,
                        "velocity": 100
                    }
                ],
                [
                    380,
                    {
                        "note": 42,
                        "state": 0,
                        "velocity": 100
                    }
                ]
            ]
        },
        {
            "length_beats": 16,
            "events": [
                [
                    0,
                    {
                        "note": 51,
                        "state": 1,
                        "velocity": 48
                    }
                ],
                [
                    0,
                    {
                        "note": 36,
                        "state": 1,
                        "velocity": 126
                    }
                ],
                [
                    3,
                    {
                        "note": 51,
                        "state": 0,
                        "velocity": 0
                    }
                ],
                [
                    6,
                    {
                        "note": 36,
                        "state": 0,
                        "velocity": 100
                    }
                ],
                [
                    24,
                    {
                        "note": 51,
                        "state": 1,
                        "velocity": 49
                    }
                ],
                [
                    27,
                    {
                        "note": 51,
                        "state": 0,
                        "velocity": 0
                    }
                ],
                [
                    39,
                    {
                        "note": 36,
                        "state": 1,
                        "velocity": 118
                    }
                ],
                [
                    44,
                    {
                        "note": 36,
                        "state": 0,
                        "velocity": 100
                    }
                ],
                [
                    48,
                    {
                        "note": 51,
                        "state": 1,
                        "velocity": 52
                    }
                ],
                [
                    48,
                    {
                        "note": 38,
                        "state": 1,
                        "velocity": 125
                    }
                ],
                [
                    51,
                    {
                        "note": 51,
                        "state": 0,
                        "velocity": 0
                    }
                ],
                [
                    55,
                    {
                        "note": 38,
                        "state": 0,
                        "velocity": 100
                    }
                ],
                [
                    72,
                    {
                        "note": 51,
                        "state": 1,
                        "velocity": 51
                    }
                ],
                [
                    72,
                    {
                        "note": 36,
                        "state": 1,
                        "velocity": 78
                    }
                ],
                [
                    75,
                    {
                        "note": 51,
                        "state": 0,
                        "velocity": 0
                    }
                ],
                [
                    78,
                    {
                        "note": 36,
                        "state": 0,
                        "velocity": 0
                    }
                ],
                [
                    87,
                    {
                        "note": 36,
                        "state": 1,
                        "velocity": 120
                    }
                ],
                [
                    93,
                    {
                        "note": 36,
                        "state": 0,
                        "velocity": 100
                    }
                ],
                [
                    96,
                    {
                        "note": 51,
                        "state": 1,
                        "velocity": 52
                    }
                ],
                [
                    99,
                    {
                        "note": 51,
                        "state": 0,
                        "velocity": 0
                    }
                ],
                [
                    120,
                    {
                        "note": 51,
                        "state": 1,
                        "velocity": 51
                    }
                ],
                [
                    120,
                    {
                        "note": 36,
                        "state": 1,
                        "velocity": 126
                    }
                ],
                [
                    124,
                    {
                        "note": 51,
                        "state": 0,
                        "velocity": 0
                    }
                ],
                [
                    132,
                    {
                        "note": 36,
                        "state": 0,
                        "velocity": 100
                    }
                ],
                [
                    135,
                    {
                        "note": 36,
                        "state": 1,
                        "velocity": 126
                    }
                ],
                [
                    142,
                    {
                        "note": 36,
                        "state": 0,
                        "velocity": 100
                    }
                ],
                [
                    144,
                    {
                        "note": 51,
                        "state": 1,
                        "velocity": 50
                    }
                ],
                [
                    144,
                    {
                        "note": 39,
                        "state": 1,
                        "velocity": 56
                    }
                ],
                [
                    144,
                    {
                        "note": 38,
                        "state": 1,
                        "velocity": 116
                    }
                ],
                [
                    146,
                    {
                        "note": 51,
                        "state": 0,
                        "velocity": 0
                    }
                ],
                [
                    154,
                    {
                        "note": 38,
                        "state": 0,
                        "velocity": 100
                    }
                ],
                [
                    165,
                    {
                        "note": 39,
                        "state": 0,
                        "velocity": 0
                    }
                ],
                [
                    168,
                    {
                        "note": 51,
                        "state": 1,
                        "velocity": 50
                    }
                ],
                [
                    168,
                    {
                        "note": 40,
                        "state": 1,
                        "velocity": 118
                    }
                ],
                [
                    170,
                    {
                        "note": 51,
                        "state": 0,
                        "velocity": 0
                    }
                ],
                [
                    176,
                    {
                        "note": 40,
                        "state": 0,
                        "velocity": 100
                    }
                ],
                [
                    183,
                    {
                        "note": 36,
                        "state": 1,
                        "velocity": 83
                    }
                ],
                [
                    189,
                    {
                        "note": 36,
                        "state": 0,
                        "velocity": 0
                    }
                ],
                [
                    192,
                    {
                        "note": 51,
                        "state": 1,
                        "velocity": 49
                    }
                ],
                [
                    192,
                    {
                        "note": 36,
                        "state": 1,
                        "velocity": 121
                    }
                ],
                [
                    194,
                    {
                        "note": 51,
                        "state": 0,
                        "velocity": 0
                    }
                ],
                [
                    198,
                    {
                        "note": 36,
                        "state": 0,
                        "velocity": 100
                    }
                ],
                [
                    216,
                    {
                        "note": 51,
                        "state": 1,
                        "velocity": 50
                    }
                ],
                [
                    218,
                    {
                        "note": 51,
                        "state": 0,
                        "velocity": 0
                    }
                ],
                [
                    231,
                    {
                        "note": 36,
                        "state": 1,
                        "velocity": 125
                    }
                ],
                [
                    236,
                    {
                        "note": 36,
                        "state": 0,
                        "velocity": 100
                    }
                ],
                [
                    240,
                    {
                        "note": 51,
                        "state": 1,
                        "velocity": 51
                    }
                ],
                [
                    240,
                    {
                        "note": 38,
                        "state": 1,
                        "velocity": 119
                    }
                ],
                [
                    242,
                    {
                        "note": 51,
                        "state": 0,
                        "velocity": 0
                    }
                ],
                [
                    247,
                    {
                        "note": 38,
                        "state": 0,
                        "velocity": 100
                    }
                ],
                [
                    264,
                    {
                        "note": 51,
                        "state": 1,
                        "velocity": 49
                    }
                ],
                [
                    264,
                    {
                        "note": 38,
                        "state": 1,
                        "velocity": 59
                    }
                ],
                [
                    266,
                    {
                        "note": 51,
                        "state": 0,
                        "velocity": 0
                    }
                ],
                [
                    271,
                    {
                        "note": 38,
                        "state": 0,
                        "velocity": 100
                    }
                ],
                [
                    279,
                    {
                        "note": 47,
                        "state": 1,
                        "velocity": 75
                    }
                ],
                [
                    279,
                    {
                        "note": 42,
                        "state": 1,
                        "velocity": 75
                    }
                ],
                [
                    279,
                    {
                        "note": 36,
                        "state": 1,
                        "velocity": 119
                    }
                ],
                [
                    282,
                    {
                        "note": 42,
                        "state": 0,
                        "velocity": 0
                    }
                ],
                [
                    285,
                    {
                        "note": 36,
                        "state": 0,
                        "velocity": 100
                    }
                ],
                [
                    287,
                    {
                        "note": 47,
                        "state": 0,
                        "velocity": 0
                    }
                ],
                [
                    288,
                    {
                        "note": 54,
                        "state": 1,
                        "velocity": 76
                    }
                ],
                [
                    288,
                    {
                        "note": 51,
                        "state": 1,
                        "velocity": 52
                    }
                ],
                [
                    290,
                    {
                        "note": 51,
                        "state": 0,
                        "velocity": 0
                    }
                ],
                [
                    293,
                    {
                        "note": 54,
                        "state": 0,
                        "velocity": 0
                    }
                ],
                [
                    303,
                    {
                        "note": 42,
                        "state": 1,
                        "velocity": 124
                    }
                ],
                [
                    303,
                    {
                        "note": 39,
                        "state": 1,
                        "velocity": 119
                    }
                ],
                [
                    307,
                    {
                        "note": 42,
                        "state": 0,
                        "velocity": 0
                    }
                ],
                [
                    307,
                    {
                        "note": 39,
                        "state": 0,
                        "velocity": 0
                    }
                ],
                [
                    312,
                    {
                        "note": 54,
                        "state": 1,
                        "velocity": 119
                    }
                ],
                [
                    312,
                    {
                        "note": 51,
                        "state": 1,
                        "velocity": 50
                    }
                ],
                [
                    312,
                    {
                        "note": 47,
                        "state": 1,
                        "velocity": 121
                    }
                ],
                [
                    312,
                    {
                        "note": 38,
                        "state": 1,
                        "velocity": 126
                    }
                ],
                [
                    312,
                    {
                        "note": 36,
                        "state": 1,
                        "velocity": 126
                    }
                ],
                [
                    313,
                    {
                        "note": 36,
                        "state": 0,
                        "velocity": 0
                    }
                ],
                [
                    314,
                    {
                        "note": 51,
                        "state": 0,
                        "velocity": 0
                    }
                ],
                [
                    316,
                    {
                        "note": 54,
                        "state": 0,
                        "velocity": 0
                    }
                ],
                [
                    317,
                    {
                        "note": 47,
                        "state": 0,
                        "velocity": 0
                    }
                ],
                [
                    318,
                    {
                        "note": 38,
                        "state": 0,
                        "velocity": 0
                    }
                ],
                [
                    336,
                    {
                        "note": 51,
                        "state": 1,
                        "velocity": 50
                    }
                ],
                [
                    336,
                    {
                        "note": 38,
                        "state": 1,
                        "velocity": 118
                    }
                ],
                [
                    339,
                    {
                        "note": 51,
                        "state": 0,
                        "velocity": 0
                    }
                ],
                [
                    343,
                    {
                        "note": 38,
                        "state": 0,
                        "velocity": 100
                    }
                ],
                [
                    360,
                    {
                        "note": 51,
                        "state": 1,
                        "velocity": 28
                    }
                ],
                [
                    360,
                    {
                        "note": 40,
                        "state": 1,
                        "velocity": 125
                    }
                ],
                [
                    363,
                    {
                        "note": 51,
                        "state": 0,
                        "velocity": 0
                    }
                ],
                [
                    365,
                    {
                        "note": 40,
                        "state": 0,
                        "velocity": 100
                    }
                ],
                [
                    375,
                    {
                        "note": 36,
                        "state": 1,
                        "velocity": 93
                    }
                ],
                [
                    380,
                    {
                        "note": 36,
                        "state": 0,
                        "velocity": 100
                    }
                ]
            ]
        },
        {
            "length_beats": 16,
            "events": [
                [
                    0,
                    {
                        "note": 42,
                        "state": 1,
                        "velocity": 124
                    }
                ],
                [
                    0,
                    {
                        "note": 36,
                        "state": 1,
                        "velocity": 120
                    }
                ],
                [
                    2,
                    {
                        "note": 36,
                        "state": 0,
                        "velocity": 0
                    }
                ],
                [
                    2,
                    {
                        "note": 42,
                        "state": 0,
                        "velocity": 0
                    }
                ],
                [
                    16,
                    {
                        "note": 42,
                        "state": 1,
                        "velocity": 78
                    }
                ],
                [
                    18,
                    {
                        "note": 42,
                        "state": 0,
                        "velocity": 0
                    }
                ],
                [
                    32,
                    {
                        "note": 42,
                        "state": 1,
                        "velocity": 75
                    }
                ],
                [
                    32,
                    {
                        "note": 36,
                        "state": 1,
                        "velocity": 67
                    }
                ],
                [
                    34,
                    {
                        "note": 42,
                        "state": 0,
                        "velocity": 0
                    }
                ],
                [
                    34,
                    {
                        "note": 36,
                        "state": 0,
                        "velocity": 0
                    }
                ],
                [
                    40,
                    {
                        "note": 42,
                        "state": 1,
                        "velocity": 120
                    }
                ],
                [
                    40,
                    {
                        "note": 36,
                        "state": 1,
                        "velocity": 71
                    }
                ],
                [
                    42,
                    {
                        "note": 42,
                        "state": 0,
                        "velocity": 0
                    }
                ],
                [
                    43,
                    {
                        "note": 36,
                        "state": 0,
                        "velocity": 0
                    }
                ],
                [
                    48,
                    {
                        "note": 42,
                        "state": 1,
                        "velocity": 67
                    }
                ],
                [
                    48,
                    {
                        "note": 39,
                        "state": 1,
                        "velocity": 124
                    }
                ],
                [
                    48,
                    {
                        "note": 38,
                        "state": 1,
                        "velocity": 122
                    }
                ],
                [
                    50,
                    {
                        "note": 39,
                        "state": 0,
                        "velocity": 0
                    }
                ],
                [
                    50,
                    {
                        "note": 38,
                        "state": 0,
                        "velocity": 0
                    }
                ],
                [
                    50,
                    {
                        "note": 42,
                        "state": 0,
                        "velocity": 0
                    }
                ],
                [
                    64,
                    {
                        "note": 42,
                        "state": 1,
                        "velocity": 122
                    }
                ],
                [
                    66,
                    {
                        "note": 42,
                        "state": 0,
                        "velocity": 0
                    }
                ],
                [
                    80,
                    {
                        "note": 42,
                        "state": 1,
                        "velocity": 119
                    }
                ],
                [
                    82,
                    {
                        "note": 42,
                        "state": 0,
                        "velocity": 0
                    }
                ],
                [
                    88,
                    {
                        "note": 42,
                        "state": 1,
                        "velocity": 120
                    }
                ],
                [
                    90,
                    {
                        "note": 42,
                        "state": 0,
                        "velocity": 0
                    }
                ],
                [
                    96,
                    {
                        "note": 42,
                        "state": 1,
                        "velocity": 121
                    }
                ],
                [
                    99,
                    {
                        "note": 42,
                        "state": 0,
                        "velocity": 0
                    }
                ],
                [
                    112,
                    {
                        "note": 42,
                        "state": 1,
                        "velocity": 78
                    }
                ],
                [
                    112,
                    {
                        "note": 36,
                        "state": 1,
                        "velocity": 70
                    }
                ],
                [
                    115,
                    {
                        "note": 42,
                        "state": 0,
                        "velocity": 0
                    }
                ],
                [
                    116,
                    {
                        "note": 36,
                        "state": 0,
                        "velocity": 0
                    }
                ],
                [
                    120,
                    {
                        "note": 36,
                        "state": 1,
                        "velocity": 79
                    }
                ],
                [
                    122,
                    {
                        "note": 36,
                        "state": 0,
                        "velocity": 0
                    }
                ],
                [
                    128,
                    {
                        "note": 42,
                        "state": 1,
                        "velocity": 126
                    }
                ],
                [
                    128,
                    {
                        "note": 36,
                        "state": 1,
                        "velocity": 122
                    }
                ],
                [
                    131,
                    {
                        "note": 42,
                        "state": 0,
                        "velocity": 0
                    }
                ],
                [
                    132,
                    {
                        "note": 36,
                        "state": 0,
                        "velocity": 0
                    }
                ],
                [
                    144,
                    {
                        "note": 42,
                        "state": 1,
                        "velocity": 121
                    }
                ],
                [
                    144,
                    {
                        "note": 38,
                        "state": 1,
                        "velocity": 126
                    }
                ],
                [
                    146,
                    {
                        "note": 38,
                        "state": 0,
                        "velocity": 0
                    }
                ],
                [
                    148,
                    {
                        "note": 42,
                        "state": 0,
                        "velocity": 0
                    }
                ],
                [
                    160,
                    {
                        "note": 42,
                        "state": 1,
                        "velocity": 123
                    }
                ],
                [
                    164,
                    {
                        "note": 42,
                        "state": 0,
                        "velocity": 0
                    }
                ],
                [
                    176,
                    {
                        "note": 42,
                        "state": 1,
                        "velocity": 78
                    }
                ],
                [
                    176,
                    {
                        "note": 39,
                        "state": 1,
                        "velocity": 120
                    }
                ],
                [
                    178,
                    {
                        "note": 39,
                        "state": 0,
                        "velocity": 0
                    }
                ],
                [
                    180,
                    {
                        "note": 42,
                        "state": 0,
                        "velocity": 0
                    }
                ],
                [
                    192,
                    {
                        "note": 42,
                        "state": 1,
                        "velocity": 125
                    }
                ],
                [
                    192,
                    {
                        "note": 36,
                        "state": 1,
                        "velocity": 124
                    }
                ],
                [
                    194,
                    {
                        "note": 36,
                        "state": 0,
                        "velocity": 0
                    }
                ],
                [
                    195,
                    {
                        "note": 42,
                        "state": 0,
                        "velocity": 0
                    }
                ],
                [
                    208,
                    {
                        "note": 42,
                        "state": 1,
                        "velocity": 81
                    }
                ],
                [
                    212,
                    {
                        "note": 42,
                        "state": 0,
                        "velocity": 0
                    }
                ],
                [
                    224,
                    {
                        "note": 42,
                        "state": 1,
                        "velocity": 82
                    }
                ],
                [
                    224,
                    {
                        "note": 36,
                        "state": 1,
                        "velocity": 67
                    }
                ],
                [
                    226,
                    {
                        "note": 42,
                        "state": 0,
                        "velocity": 0
                    }
                ],
                [
                    227,
                    {
                        "note": 36,
                        "state": 0,
                        "velocity": 0
                    }
                ],
                [
                    232,
                    {
                        "note": 42,
                        "state": 1,
                        "velocity": 77
                    }
                ],
                [
                    232,
                    {
                        "note": 36,
                        "state": 1,
                        "velocity": 77
                    }
                ],
                [
                    234,
                    {
                        "note": 42,
                        "state": 0,
                        "velocity": 0
                    }
                ],
                [
                    235,
                    {
                        "note": 36,
                        "state": 0,
                        "velocity": 0
                    }
                ],
                [
                    240,
                    {
                        "note": 42,
                        "state": 1,
                        "velocity": 79
                    }
                ],
                [
                    240,
                    {
                        "note": 39,
                        "state": 1,
                        "velocity": 123
                    }
                ],
                [
                    240,
                    {
                        "note": 38,
                        "state": 1,
                        "velocity": 124
                    }
                ],
                [
                    242,
                    {
                        "note": 39,
                        "state": 0,
                        "velocity": 0
                    }
                ],
                [
                    242,
                    {
                        "note": 38,
                        "state": 0,
                        "velocity": 0
                    }
                ],
                [
                    244,
                    {
                        "note": 42,
                        "state": 0,
                        "velocity": 0
                    }
                ],
                [
                    256,
                    {
                        "note": 42,
                        "state": 1,
                        "velocity": 68
                    }
                ],
                [
                    259,
                    {
                        "note": 42,
                        "state": 0,
                        "velocity": 0
                    }
                ],
                [
                    272,
                    {
                        "note": 42,
                        "state": 1,
                        "velocity": 126
                    }
                ],
                [
                    274,
                    {
                        "note": 42,
                        "state": 0,
                        "velocity": 0
                    }
                ],
                [
                    280,
                    {
                        "note": 42,
                        "state": 1,
                        "velocity": 77
                    }
                ],
                [
                    282,
                    {
                        "note": 42,
                        "state": 0,
                        "velocity": 0
                    }
                ],
                [
                    288,
                    {
                        "note": 42,
                        "state": 1,
                        "velocity": 120
                    }
                ],
                [
                    292,
                    {
                        "note": 42,
                        "state": 0,
                        "velocity": 0
                    }
                ],
                [
                    304,
                    {
                        "note": 42,
                        "state": 1,
                        "velocity": 126
                    }
                ],
                [
                    306,
                    {
                        "note": 42,
                        "state": 0,
                        "velocity": 0
                    }
                ],
                [
                    312,
                    {
                        "note": 36,
                        "state": 1,
                        "velocity": 124
                    }
                ],
                [
                    315,
                    {
                        "note": 36,
                        "state": 0,
                        "velocity": 0
                    }
                ],
                [
                    320,
                    {
                        "note": 42,
                        "state": 1,
                        "velocity": 123
                    }
                ],
                [
                    322,
                    {
                        "note": 42,
                        "state": 0,
                        "velocity": 0
                    }
                ],
                [
                    336,
                    {
                        "note": 42,
                        "state": 1,
                        "velocity": 76
                    }
                ],
                [
                    336,
                    {
                        "note": 39,
                        "state": 1,
                        "velocity": 120
                    }
                ],
                [
                    336,
                    {
                        "note": 38,
                        "state": 1,
                        "velocity": 124
                    }
                ],
                [
                    338,
                    {
                        "note": 38,
                        "state": 0,
                        "velocity": 0
                    }
                ],
                [
                    339,
                    {
                        "note": 39,
                        "state": 0,
                        "velocity": 0
                    }
                ],
                [
                    340,
                    {
                        "note": 42,
                        "state": 0,
                        "velocity": 0
                    }
                ],
                [
                    352,
                    {
                        "note": 42,
                        "state": 1,
                        "velocity": 81
                    }
                ],
                [
                    356,
                    {
                        "note": 42,
                        "state": 0,
                        "velocity": 0
                    }
                ],
                [
                    368,
                    {
                        "note": 42,
                        "state": 1,
                        "velocity": 79
                    }
                ],
                [
                    368,
                    {
                        "note": 39,
                        "state": 1,
                        "velocity": 124
                    }
                ],
                [
                    370,
                    {
                        "note": 39,
                        "state": 0,
                        "velocity": 0
                    }
                ],
                [
                    371,
                    {
                        "note": 42,
                        "state": 0,
                        "velocity": 0
                    }
                ]
            ]
        },
        {
            "length_beats": 16,
            "events": [
                [
                    0,
                    {
                        "note": 42,
                        "state": 1,
                        "velocity": 68
                    }
                ],
                [
                    0,
                    {
                        "note": 36,
                        "state": 1,
                        "velocity": 76
                    }
                ],
                [
                    9,
                    {
                        "note": 36,
                        "state": 0,
                        "velocity": 0
                    }
                ],
                [
                    10,
                    {
                        "note": 42,
                        "state": 0,
                        "velocity": 0
                    }
                ],
                [
                    12,
                    {
                        "note": 50,
                        "state": 1,
                        "velocity": 87
                    }
                ],
                [
                    24,
                    {
                        "note": 42,
                        "state": 1,
                        "velocity": 119
                    }
                ],
                [
                    24,
                    {
                        "note": 38,
                        "state": 1,
                        "velocity": 121
                    }
                ],
                [
                    30,
                    {
                        "note": 38,
                        "state": 0,
                        "velocity": 0
                    }
                ],
                [
                    35,
                    {
                        "note": 42,
                        "state": 0,
                        "velocity": 0
                    }
                ],
                [
                    36,
                    {
                        "note": 36,
                        "state": 1,
                        "velocity": 125
                    }
                ],
                [
                    48,
                    {
                        "note": 42,
                        "state": 1,
                        "velocity": 74
                    }
                ],
                [
                    50,
                    {
                        "note": 36,
                        "state": 0,
                        "velocity": 0
                    }
                ],
                [
                    59,
                    {
                        "note": 42,
                        "state": 0,
                        "velocity": 0
                    }
                ],
                [
                    60,
                    {
                        "note": 38,
                        "state": 1,
                        "velocity": 69
                    }
                ],
                [
                    64,
                    {
                        "note": 50,
                        "state": 0,
                        "velocity": 0
                    }
                ],
                [
                    72,
                    {
                        "note": 50,
                        "state": 1,
                        "velocity": 35
                    }
                ],
                [
                    72,
                    {
                        "note": 42,
                        "state": 1,
                        "velocity": 124
                    }
                ],
                [
                    73,
                    {
                        "note": 38,
                        "state": 0,
                        "velocity": 0
                    }
                ],
                [
                    83,
                    {
                        "note": 42,
                        "state": 0,
                        "velocity": 0
                    }
                ],
                [
                    84,
                    {
                        "note": 36,
                        "state": 1,
                        "velocity": 124
                    }
                ],
                [
                    96,
                    {
                        "note": 42,
                        "state": 1,
                        "velocity": 121
                    }
                ],
                [
                    105,
                    {
                        "note": 36,
                        "state": 0,
                        "velocity": 0
                    }
                ],
                [
                    106,
                    {
                        "note": 42,
                        "state": 0,
                        "velocity": 0
                    }
                ],
                [
                    120,
                    {
                        "note": 42,
                        "state": 1,
                        "velocity": 119
                    }
                ],
                [
                    120,
                    {
                        "note": 38,
                        "state": 1,
                        "velocity": 119
                    }
                ],
                [
                    129,
                    {
                        "note": 38,
                        "state": 0,
                        "velocity": 0
                    }
                ],
                [
                    132,
                    {
                        "note": 42,
                        "state": 0,
                        "velocity": 0
                    }
                ],
                [
                    132,
                    {
                        "note": 36,
                        "state": 1,
                        "velocity": 123
                    }
                ],
                [
                    135,
                    {
                        "note": 50,
                        "state": 0,
                        "velocity": 0
                    }
                ],
                [
                    137,
                    {
                        "note": 36,
                        "state": 0,
                        "velocity": 0
                    }
                ],
                [
                    144,
                    {
                        "note": 42,
                        "state": 1,
                        "velocity": 69
                    }
                ],
                [
                    144,
                    {
                        "note": 36,
                        "state": 1,
                        "velocity": 73
                    }
                ],
                [
                    148,
                    {
                        "note": 36,
                        "state": 0,
                        "velocity": 0
                    }
                ],
                [
                    152,
                    {
                        "note": 42,
                        "state": 0,
                        "velocity": 0
                    }
                ],
                [
                    156,
                    {
                        "note": 36,
                        "state": 1,
                        "velocity": 80
                    }
                ],
                [
                    167,
                    {
                        "note": 36,
                        "state": 0,
                        "velocity": 0
                    }
                ],
                [
                    168,
                    {
                        "note": 42,
                        "state": 1,
                        "velocity": 121
                    }
                ],
                [
                    168,
                    {
                        "note": 38,
                        "state": 1,
                        "velocity": 122
                    }
                ],
                [
                    178,
                    {
                        "note": 42,
                        "state": 0,
                        "velocity": 0
                    }
                ],
                [
                    180,
                    {
                        "note": 36,
                        "state": 1,
                        "velocity": 78
                    }
                ],
                [
                    181,
                    {
                        "note": 38,
                        "state": 0,
                        "velocity": 0
                    }
                ],
                [
                    183,
                    {
                        "note": 36,
                        "state": 0,
                        "velocity": 0
                    }
                ],
                [
                    192,
                    {
                        "note": 42,
                        "state": 1,
                        "velocity": 123
                    }
                ],
                [
                    192,
                    {
                        "note": 36,
                        "state": 1,
                        "velocity": 122
                    }
                ],
                [
                    202,
                    {
                        "note": 42,
                        "state": 0,
                        "velocity": 0
                    }
                ],
                [
                    204,
                    {
                        "note": 50,
                        "state": 1,
                        "velocity": 97
                    }
                ],
                [
                    212,
                    {
                        "note": 36,
                        "state": 0,
                        "velocity": 0
                    }
                ],
                [
                    216,
                    {
                        "note": 42,
                        "state": 1,
                        "velocity": 119
                    }
                ],
                [
                    216,
                    {
                        "note": 38,
                        "state": 1,
                        "velocity": 124
                    }
                ],
                [
                    224,
                    {
                        "note": 38,
                        "state": 0,
                        "velocity": 0
                    }
                ],
                [
                    228,
                    {
                        "note": 42,
                        "state": 0,
                        "velocity": 0
                    }
                ],
                [
                    228,
                    {
                        "note": 36,
                        "state": 1,
                        "velocity": 78
                    }
                ],
                [
                    240,
                    {
                        "note": 42,
                        "state": 1,
                        "velocity": 121
                    }
                ],
                [
                    242,
                    {
                        "note": 36,
                        "state": 0,
                        "velocity": 0
                    }
                ],
                [
                    251,
                    {
                        "note": 42,
                        "state": 0,
                        "velocity": 0
                    }
                ],
                [
                    252,
                    {
                        "note": 38,
                        "state": 1,
                        "velocity": 122
                    }
                ],
                [
                    256,
                    {
                        "note": 50,
                        "state": 0,
                        "velocity": 0
                    }
                ],
                [
                    263,
                    {
                        "note": 38,
                        "state": 0,
                        "velocity": 0
                    }
                ],
                [
                    264,
                    {
                        "note": 50,
                        "state": 1,
                        "velocity": 44
                    }
                ],
                [
                    264,
                    {
                        "note": 42,
                        "state": 1,
                        "velocity": 82
                    }
                ],
                [
                    272,
                    {
                        "note": 42,
                        "state": 0,
                        "velocity": 0
                    }
                ],
                [
                    276,
                    {
                        "note": 36,
                        "state": 1,
                        "velocity": 121
                    }
                ],
                [
                    288,
                    {
                        "note": 42,
                        "state": 1,
                        "velocity": 125
                    }
                ],
                [
                    298,
                    {
                        "note": 42,
                        "state": 0,
                        "velocity": 0
                    }
                ],
                [
                    299,
                    {
                        "note": 36,
                        "state": 0,
                        "velocity": 0
                    }
                ],
                [
                    312,
                    {
                        "note": 42,
                        "state": 1,
                        "velocity": 126
                    }
                ],
                [
                    312,
                    {
                        "note": 38,
                        "state": 1,
                        "velocity": 124
                    }
                ],
                [
                    323,
                    {
                        "note": 42,
                        "state": 0,
                        "velocity": 0
                    }
                ],
                [
                    324,
                    {
                        "note": 38,
                        "state": 0,
                        "velocity": 0
                    }
                ],
                [
                    324,
                    {
                        "note": 36,
                        "state": 1,
                        "velocity": 82
                    }
                ],
                [
                    326,
                    {
                        "note": 36,
                        "state": 0,
                        "velocity": 0
                    }
                ],
                [
                    327,
                    {
                        "note": 50,
                        "state": 0,
                        "velocity": 0
                    }
                ],
                [
                    336,
                    {
                        "note": 42,
                        "state": 1,
                        "velocity": 123
                    }
                ],
                [
                    336,
                    {
                        "note": 36,
                        "state": 1,
                        "velocity": 123
                    }
                ],
                [
                    342,
                    {
                        "note": 36,
                        "state": 0,
                        "velocity": 0
                    }
                ],
                [
                    348,
                    {
                        "note": 36,
                        "state": 1,
                        "velocity": 69
                    }
                ],
                [
                    349,
                    {
                        "note": 42,
                        "state": 0,
                        "velocity": 0
                    }
                ],
                [
                    360,
                    {
                        "note": 42,
                        "state": 1,
                        "velocity": 119
                    }
                ],
                [
                    360,
                    {
                        "note": 38,
                        "state": 1,
                        "velocity": 80
                    }
                ],
                [
                    360,
                    {
                        "note": 36,
                        "state": 0,
                        "velocity": 0
                    }
                ],
                [
                    371,
                    {
                        "note": 42,
                        "state": 0,
                        "velocity": 0
                    }
                ],
                [
                    372,
                    {
                        "note": 50,
                        "state": 1,
                        "velocity": 34
                    }
                ],
                [
                    372,
                    {
                        "note": 36,
                        "state": 1,
                        "velocity": 78
                    }
                ],
                [
                    373,
                    {
                        "note": 38,
                        "state": 0,
                        "velocity": 0
                    }
                ],
                [
                    374,
                    {
                        "note": 36,
                        "state": 0,
                        "velocity": 0
                    }
                ],
                [
                    384,
                    {
                        "note": 50,
                        "state": 0,
                        "velocity": 0
                    }
                ]
            ]
        },
        {
            "length_beats": 16,
            "events": [
                [
                    0,
                    {
                        "note": 51,
                        "state": 1,
                        "velocity": 28
                    }
                ],
                [
                    0,
                    {
                        "note": 36,
                        "state": 1,
                        "velocity": 76
                    }
                ],
                [
                    9,
                    {
                        "note": 36,
                        "state": 0,
                        "velocity": 0
                    }
                ],
                [
                    10,
                    {
                        "note": 51,
                        "state": 0,
                        "velocity": 0
                    }
                ],
                [
                    12,
                    {
                        "note": 50,
                        "state": 1,
                        "velocity": 87
                    }
                ],
                [
                    24,
                    {
                        "note": 51,
                        "state": 1,
                        "velocity": 49
                    }
                ],
                [
                    24,
                    {
                        "note": 38,
                        "state": 1,
                        "velocity": 121
                    }
                ],
                [
                    30,
                    {
                        "note": 38,
                        "state": 0,
                        "velocity": 0
                    }
                ],
                [
                    35,
                    {
                        "note": 51,
                        "state": 0,
                        "velocity": 0
                    }
                ],
                [
                    36,
                    {
                        "note": 36,
                        "state": 1,
                        "velocity": 125
                    }
                ],
                [
                    42,
                    {
                        "note": 38,
                        "state": 1,
                        "velocity": 20
                    }
                ],
                [
                    48,
                    {
                        "note": 38,
                        "state": 0,
                        "velocity": 64
                    }
                ],
                [
                    48,
                    {
                        "note": 51,
                        "state": 1,
                        "velocity": 31
                    }
                ],
                [
                    50,
                    {
                        "note": 36,
                        "state": 0,
                        "velocity": 0
                    }
                ],
                [
                    59,
                    {
                        "note": 51,
                        "state": 0,
                        "velocity": 0
                    }
                ],
                [
                    60,
                    {
                        "note": 36,
                        "state": 1,
                        "velocity": 124
                    }
                ],
                [
                    64,
                    {
                        "note": 50,
                        "state": 0,
                        "velocity": 0
                    }
                ],
                [
                    72,
                    {
                        "note": 51,
                        "state": 1,
                        "velocity": 52
                    }
                ],
                [
                    72,
                    {
                        "note": 50,
                        "state": 1,
                        "velocity": 35
                    }
                ],
                [
                    81,
                    {
                        "note": 36,
                        "state": 0,
                        "velocity": 0
                    }
                ],
                [
                    83,
                    {
                        "note": 51,
                        "state": 0,
                        "velocity": 0
                    }
                ],
                [
                    84,
                    {
                        "note": 38,
                        "state": 1,
                        "velocity": 69
                    }
                ],
                [
                    91,
                    {
                        "note": 38,
                        "state": 0,
                        "velocity": 0
                    }
                ],
                [
                    96,
                    {
                        "note": 51,
                        "state": 1,
                        "velocity": 50
                    }
                ],
                [
                    106,
                    {
                        "note": 51,
                        "state": 0,
                        "velocity": 0
                    }
                ],
                [
                    120,
                    {
                        "note": 51,
                        "state": 1,
                        "velocity": 49
                    }
                ],
                [
                    120,
                    {
                        "note": 38,
                        "state": 1,
                        "velocity": 119
                    }
                ],
                [
                    129,
                    {
                        "note": 38,
                        "state": 0,
                        "velocity": 0
                    }
                ],
                [
                    132,
                    {
                        "note": 51,
                        "state": 0,
                        "velocity": 0
                    }
                ],
                [
                    132,
                    {
                        "note": 36,
                        "state": 1,
                        "velocity": 123
                    }
                ],
                [
                    135,
                    {
                        "note": 50,
                        "state": 0,
                        "velocity": 0
                    }
                ],
                [
                    137,
                    {
                        "note": 36,
                        "state": 0,
                        "velocity": 0
                    }
                ],
                [
                    144,
                    {
                        "note": 51,
                        "state": 1,
                        "velocity": 29
                    }
                ],
                [
                    144,
                    {
                        "note": 36,
                        "state": 1,
                        "velocity": 73
                    }
                ],
                [
                    148,
                    {
                        "note": 36,
                        "state": 0,
                        "velocity": 0
                    }
                ],
                [
                    152,
                    {
                        "note": 51,
                        "state": 0,
                        "velocity": 0
                    }
                ],
                [
                    156,
                    {
                        "note": 36,
                        "state": 1,
                        "velocity": 80
                    }
                ],
                [
                    167,
                    {
                        "note": 36,
                        "state": 0,
                        "velocity": 0
                    }
                ],
                [
                    168,
                    {
                        "note": 51,
                        "state": 1,
                        "velocity": 50
                    }
                ],
                [
                    168,
                    {
                        "note": 38,
                        "state": 1,
                        "velocity": 122
                    }
                ],
                [
                    178,
                    {
                        "note": 51,
                        "state": 0,
                        "velocity": 0
                    }
                ],
                [
                    180,
                    {
                        "note": 36,
                        "state": 1,
                        "velocity": 78
                    }
                ],
                [
                    181,
                    {
                        "note": 38,
                        "state": 0,
                        "velocity": 0
                    }
                ],
                [
                    183,
                    {
                        "note": 36,
                        "state": 0,
                        "velocity": 0
                    }
                ],
                [
                    192,
                    {
                        "note": 51,
                        "state": 1,
                        "velocity": 51
                    }
                ],
                [
                    192,
                    {
                        "note": 36,
                        "state": 1,
                        "velocity": 122
                    }
                ],
                [
                    202,
                    {
                        "note": 51,
                        "state": 0,
                        "velocity": 0
                    }
                ],
                [
                    204,
                    {
                        "note": 50,
                        "state": 1,
                        "velocity": 97
                    }
                ],
                [
                    212,
                    {
                        "note": 36,
                        "state": 0,
                        "velocity": 0
                    }
                ],
                [
                    216,
                    {
                        "note": 51,
                        "state": 1,
                        "velocity": 49
                    }
                ],
                [
                    216,
                    {
                        "note": 38,
                        "state": 1,
                        "velocity": 124
                    }
                ],
                [
                    224,
                    {
                        "note": 38,
                        "state": 0,
                        "velocity": 0
                    }
                ],
                [
                    228,
                    {
                        "note": 51,
                        "state": 0,
                        "velocity": 0
                    }
                ],
                [
                    228,
                    {
                        "note": 36,
                        "state": 1,
                        "velocity": 78
                    }
                ],
                [
                    240,
                    {
                        "note": 51,
                        "state": 1,
                        "velocity": 50
                    }
                ],
                [
                    242,
                    {
                        "note": 36,
                        "state": 0,
                        "velocity": 0
                    }
                ],
                [
                    251,
                    {
                        "note": 51,
                        "state": 0,
                        "velocity": 0
                    }
                ],
                [
                    252,
                    {
                        "note": 38,
                        "state": 1,
                        "velocity": 122
                    }
                ],
                [
                    256,
                    {
                        "note": 50,
                        "state": 0,
                        "velocity": 0
                    }
                ],
                [
                    263,
                    {
                        "note": 38,
                        "state": 0,
                        "velocity": 0
                    }
                ],
                [
                    264,
                    {
                        "note": 51,
                        "state": 1,
                        "velocity": 34
                    }
                ],
                [
                    264,
                    {
                        "note": 50,
                        "state": 1,
                        "velocity": 44
                    }
                ],
                [
                    272,
                    {
                        "note": 51,
                        "state": 0,
                        "velocity": 0
                    }
                ],
                [
                    276,
                    {
                        "note": 36,
                        "state": 1,
                        "velocity": 121
                    }
                ],
                [
                    288,
                    {
                        "note": 51,
                        "state": 1,
                        "velocity": 52
                    }
                ],
                [
                    298,
                    {
                        "note": 51,
                        "state": 0,
                        "velocity": 0
                    }
                ],
                [
                    299,
                    {
                        "note": 36,
                        "state": 0,
                        "velocity": 0
                    }
                ],
                [
                    312,
                    {
                        "note": 51,
                        "state": 1,
                        "velocity": 53
                    }
                ],
                [
                    312,
                    {
                        "note": 38,
                        "state": 1,
                        "velocity": 124
                    }
                ],
                [
                    323,
                    {
                        "note": 51,
                        "state": 0,
                        "velocity": 0
                    }
                ],
                [
                    324,
                    {
                        "note": 38,
                        "state": 0,
                        "velocity": 0
                    }
                ],
                [
                    324,
                    {
                        "note": 36,
                        "state": 1,
                        "velocity": 82
                    }
                ],
                [
                    326,
                    {
                        "note": 36,
                        "state": 0,
                        "velocity": 0
                    }
                ],
                [
                    327,
                    {
                        "note": 50,
                        "state": 0,
                        "velocity": 0
                    }
                ],
                [
                    336,
                    {
                        "note": 51,
                        "state": 1,
                        "velocity": 51
                    }
                ],
                [
                    336,
                    {
                        "note": 36,
                        "state": 1,
                        "velocity": 123
                    }
                ],
                [
                    342,
                    {
                        "note": 36,
                        "state": 0,
                        "velocity": 0
                    }
                ],
                [
                    348,
                    {
                        "note": 36,
                        "state": 1,
                        "velocity": 69
                    }
                ],
                [
                    349,
                    {
                        "note": 51,
                        "state": 0,
                        "velocity": 0
                    }
                ],
                [
                    360,
                    {
                        "note": 51,
                        "state": 1,
                        "velocity": 50
                    }
                ],
                [
                    360,
                    {
                        "note": 38,
                        "state": 1,
                        "velocity": 80
                    }
                ],
                [
                    360,
                    {
                        "note": 36,
                        "state": 0,
                        "velocity": 0
                    }
                ],
                [
                    371,
                    {
                        "note": 51,
                        "state": 0,
                        "velocity": 0
                    }
                ],
                [
                    372,
                    {
                        "note": 50,
                        "state": 1,
                        "velocity": 34
                    }
                ],
                [
                    372,
                    {
                        "note": 36,
                        "state": 1,
                        "velocity": 78
                    }
                ],
                [
                    373,
                    {
                        "note": 38,
                        "state": 0,
                        "velocity": 0
                    }
                ],
                [
                    374,
                    {
                        "note": 36,
                        "state": 0,
                        "velocity": 0
                    }
                ],
                [
                    384,
                    {
                        "note": 50,
                        "state": 0,
                        "velocity": 0
                    }
                ]
            ]
        },
        {
            "length_beats": 16,
            "events": [
                [
                    0,
                    {
                        "note": 53,
                        "state": 1,
                        "velocity": 98
                    }
                ],
                [
                    0,
                    {
                        "note": 42,
                        "state": 1,
                        "velocity": 92
                    }
                ],
                [
                    6,
                    {
                        "note": 53,
                        "state": 0,
                        "velocity": 0
                    }
                ],
                [
                    6,
                    {
                        "note": 42,
                        "state": 0,
                        "velocity": 0
                    }
                ],
                [
                    24,
                    {
                        "note": 53,
                        "state": 1,
                        "velocity": 104
                    }
                ],
                [
                    24,
                    {
                        "note": 38,
                        "state": 1,
                        "velocity": 101
                    }
                ],
                [
                    30,
                    {
                        "note": 53,
                        "state": 0,
                        "velocity": 0
                    }
                ],
                [
                    30,
                    {
                        "note": 38,
                        "state": 0,
                        "velocity": 0
                    }
                ],
                [
                    36,
                    {
                        "note": 46,
                        "state": 1,
                        "velocity": 100
                    }
                ],
                [
                    42,
                    {
                        "note": 46,
                        "state": 0,
                        "velocity": 0
                    }
                ],
                [
                    48,
                    {
                        "note": 42,
                        "state": 1,
                        "velocity": 98
                    }
                ],
                [
                    54,
                    {
                        "note": 42,
                        "state": 0,
                        "velocity": 0
                    }
                ],
                [
                    60,
                    {
                        "note": 53,
                        "state": 1,
                        "velocity": 83
                    }
                ],
                [
                    66,
                    {
                        "note": 53,
                        "state": 0,
                        "velocity": 0
                    }
                ],
                [
                    72,
                    {
                        "note": 53,
                        "state": 1,
                        "velocity": 105
                    }
                ],
                [
                    72,
                    {
                        "note": 38,
                        "state": 1,
                        "velocity": 105
                    }
                ],
                [
                    78,
                    {
                        "note": 53,
                        "state": 0,
                        "velocity": 0
                    }
                ],
                [
                    78,
                    {
                        "note": 38,
                        "state": 0,
                        "velocity": 0
                    }
                ],
                [
                    84,
                    {
                        "note": 46,
                        "state": 1,
                        "velocity": 99
                    }
                ],
                [
                    84,
                    {
                        "note": 37,
                        "state": 1,
                        "velocity": 118
                    }
                ],
                [
                    90,
                    {
                        "note": 46,
                        "state": 0,
                        "velocity": 0
                    }
                ],
                [
                    90,
                    {
                        "note": 37,
                        "state": 0,
                        "velocity": 0
                    }
                ],
                [
                    90,
                    {
                        "note": 41,
                        "state": 1,
                        "velocity": 29
                    }
                ],
                [
                    90,
                    {
                        "note": 39,
                        "state": 1,
                        "velocity": 104
                    }
                ],
                [
                    96,
                    {
                        "note": 41,
                        "state": 0,
                        "velocity": 0
                    }
                ],
                [
                    96,
                    {
                        "note": 39,
                        "state": 0,
                        "velocity": 0
                    }
                ],
                [
                    96,
                    {
                        "note": 53,
                        "state": 1,
                        "velocity": 102
                    }
                ],
                [
                    96,
                    {
                        "note": 42,
                        "state": 1,
                        "velocity": 100
                    }
                ],
                [
                    102,
                    {
                        "note": 53,
                        "state": 0,
                        "velocity": 0
                    }
                ],
                [
                    102,
                    {
                        "note": 42,
                        "state": 0,
                        "velocity": 0
                    }
                ],
                [
                    120,
                    {
                        "note": 53,
                        "state": 1,
                        "velocity": 107
                    }
                ],
                [
                    120,
                    {
                        "note": 38,
                        "state": 1,
                        "velocity": 105
                    }
                ],
                [
                    126,
                    {
                        "note": 53,
                        "state": 0,
                        "velocity": 0
                    }
                ],
                [
                    126,
                    {
                        "note": 38,
                        "state": 0,
                        "velocity": 0
                    }
                ],
                [
                    132,
                    {
                        "note": 46,
                        "state": 1,
                        "velocity": 93
                    }
                ],
                [
                    138,
                    {
                        "note": 46,
                        "state": 0,
                        "velocity": 0
                    }
                ],
                [
                    144,
                    {
                        "note": 42,
                        "state": 1,
                        "velocity": 94
                    }
                ],
                [
                    150,
                    {
                        "note": 42,
                        "state": 0,
                        "velocity": 0
                    }
                ],
                [
                    156,
                    {
                        "note": 53,
                        "state": 1,
                        "velocity": 83
                    }
                ],
                [
                    162,
                    {
                        "note": 53,
                        "state": 0,
                        "velocity": 0
                    }
                ],
                [
                    168,
                    {
                        "note": 53,
                        "state": 1,
                        "velocity": 100
                    }
                ],
                [
                    168,
                    {
                        "note": 38,
                        "state": 1,
                        "velocity": 94
                    }
                ],
                [
                    174,
                    {
                        "note": 53,
                        "state": 0,
                        "velocity": 0
                    }
                ],
                [
                    174,
                    {
                        "note": 38,
                        "state": 0,
                        "velocity": 0
                    }
                ],
                [
                    180,
                    {
                        "note": 46,
                        "state": 1,
                        "velocity": 100
                    }
                ],
                [
                    186,
                    {
                        "note": 46,
                        "state": 0,
                        "velocity": 0
                    }
                ],
                [
                    192,
                    {
                        "note": 53,
                        "state": 1,
                        "velocity": 93
                    }
                ],
                [
                    198,
                    {
                        "note": 53,
                        "state": 0,
                        "velocity": 0
                    }
                ],
                [
                    216,
                    {
                        "note": 53,
                        "state": 1,
                        "velocity": 105
                    }
                ],
                [
                    216,
                    {
                        "note": 38,
                        "state": 1,
                        "velocity": 93
                    }
                ],
                [
                    222,
                    {
                        "note": 53,
                        "state": 0,
                        "velocity": 0
                    }
                ],
                [
                    222,
                    {
                        "note": 38,
                        "state": 0,
                        "velocity": 0
                    }
                ],
                [
                    228,
                    {
                        "note": 46,
                        "state": 1,
                        "velocity": 100
                    }
                ],
                [
                    234,
                    {
                        "note": 46,
                        "state": 0,
                        "velocity": 0
                    }
                ],
                [
                    240,
                    {
                        "note": 42,
                        "state": 1,
                        "velocity": 97
                    }
                ],
                [
                    246,
                    {
                        "note": 42,
                        "state": 0,
                        "velocity": 0
                    }
                ],
                [
                    252,
                    {
                        "note": 53,
                        "state": 1,
                        "velocity": 78
                    }
                ],
                [
                    258,
                    {
                        "note": 53,
                        "state": 0,
                        "velocity": 0
                    }
                ],
                [
                    264,
                    {
                        "note": 53,
                        "state": 1,
                        "velocity": 96
                    }
                ],
                [
                    264,
                    {
                        "note": 38,
                        "state": 1,
                        "velocity": 107
                    }
                ],
                [
                    270,
                    {
                        "note": 53,
                        "state": 0,
                        "velocity": 0
                    }
                ],
                [
                    270,
                    {
                        "note": 38,
                        "state": 0,
                        "velocity": 0
                    }
                ],
                [
                    276,
                    {
                        "note": 46,
                        "state": 1,
                        "velocity": 105
                    }
                ],
                [
                    276,
                    {
                        "note": 37,
                        "state": 1,
                        "velocity": 125
                    }
                ],
                [
                    282,
                    {
                        "note": 46,
                        "state": 0,
                        "velocity": 0
                    }
                ],
                [
                    282,
                    {
                        "note": 37,
                        "state": 0,
                        "velocity": 0
                    }
                ],
                [
                    282,
                    {
                        "note": 41,
                        "state": 1,
                        "velocity": 24
                    }
                ],
                [
                    282,
                    {
                        "note": 39,
                        "state": 1,
                        "velocity": 101
                    }
                ],
                [
                    288,
                    {
                        "note": 41,
                        "state": 0,
                        "velocity": 0
                    }
                ],
                [
                    288,
                    {
                        "note": 39,
                        "state": 0,
                        "velocity": 0
                    }
                ],
                [
                    288,
                    {
                        "note": 53,
                        "state": 1,
                        "velocity": 107
                    }
                ],
                [
                    294,
                    {
                        "note": 53,
                        "state": 0,
                        "velocity": 0
                    }
                ],
                [
                    300,
                    {
                        "note": 42,
                        "state": 1,
                        "velocity": 100
                    }
                ],
                [
                    306,
                    {
                        "note": 42,
                        "state": 0,
                        "velocity": 0
                    }
                ],
                [
                    312,
                    {
                        "note": 53,
                        "state": 1,
                        "velocity": 98
                    }
                ],
                [
                    312,
                    {
                        "note": 38,
                        "state": 1,
                        "velocity": 106
                    }
                ],
                [
                    318,
                    {
                        "note": 53,
                        "state": 0,
                        "velocity": 0
                    }
                ],
                [
                    318,
                    {
                        "note": 38,
                        "state": 0,
                        "velocity": 0
                    }
                ],
                [
                    324,
                    {
                        "note": 42,
                        "state": 1,
                        "velocity": 95
                    }
                ],
                [
                    330,
                    {
                        "note": 42,
                        "state": 0,
                        "velocity": 0
                    }
                ],
                [
                    336,
                    {
                        "note": 42,
                        "state": 1,
                        "velocity": 100
                    }
                ],
                [
                    342,
                    {
                        "note": 42,
                        "state": 0,
                        "velocity": 0
                    }
                ],
                [
                    342,
                    {
                        "note": 53,
                        "state": 1,
                        "velocity": 77
                    }
                ],
                [
                    348,
                    {
                        "note": 53,
                        "state": 0,
                        "velocity": 0
                    }
                ],
                [
                    348,
                    {
                        "note": 46,
                        "state": 1,
                        "velocity": 104
                    }
                ],
                [
                    360,
                    {
                        "note": 46,
                        "state": 0,
                        "velocity": 0
                    }
                ],
                [
                    360,
                    {
                        "note": 53,
                        "state": 1,
                        "velocity": 94
                    }
                ],
                [
                    360,
                    {
                        "note": 38,
                        "state": 1,
                        "velocity": 102
                    }
                ],
                [
                    366,
                    {
                        "note": 53,
                        "state": 0,
                        "velocity": 0
                    }
                ],
                [
                    366,
                    {
                        "note": 38,
                        "state": 0,
                        "velocity": 0
                    }
                ],
                [
                    372,
                    {
                        "note": 46,
                        "state": 1,
                        "velocity": 107
                    }
                ],
                [
                    372,
                    {
                        "note": 37,
                        "state": 1,
                        "velocity": 125
                    }
                ],
                [
                    378,
                    {
                        "note": 46,
                        "state": 0,
                        "velocity": 0
                    }
                ],
                [
                    378,
                    {
                        "note": 37,
                        "state": 0,
                        "velocity": 0
                    }
                ],
                [
                    378,
                    {
                        "note": 41,
                        "state": 1,
                        "velocity": 21
                    }
                ],
                [
                    378,
                    {
                        "note": 39,
                        "state": 1,
                        "velocity": 102
                    }
                ],
                [
                    384,
                    {
                        "note": 41,
                        "state": 0,
                        "velocity": 0
                    }
                ],
                [
                    384,
                    {
                        "note": 39,
                        "state": 0,
                        "velocity": 0
                    }
                ]
            ]
        },
        {
            "length_beats": 16,
            "events": [
                [
                    0,
                    {
                        "note": 51,
                        "state": 1,
                        "velocity": 43
                    }
                ],
                [
                    0,
                    {
                        "note": 42,
                        "state": 1,
                        "velocity": 92
                    }
                ],
                [
                    0,
                    {
                        "note": 36,
                        "state": 1,
                        "velocity": 87
                    }
                ],
                [
                    6,
                    {
                        "note": 51,
                        "state": 0,
                        "velocity": 0
                    }
                ],
                [
                    6,
                    {
                        "note": 42,
                        "state": 0,
                        "velocity": 0
                    }
                ],
                [
                    6,
                    {
                        "note": 36,
                        "state": 0,
                        "velocity": 64
                    }
                ],
                [
                    24,
                    {
                        "note": 51,
                        "state": 1,
                        "velocity": 45
                    }
                ],
                [
                    24,
                    {
                        "note": 38,
                        "state": 1,
                        "velocity": 101
                    }
                ],
                [
                    30,
                    {
                        "note": 51,
                        "state": 0,
                        "velocity": 0
                    }
                ],
                [
                    30,
                    {
                        "note": 38,
                        "state": 0,
                        "velocity": 0
                    }
                ],
                [
                    36,
                    {
                        "note": 40,
                        "state": 1,
                        "velocity": 100
                    }
                ],
                [
                    42,
                    {
                        "note": 40,
                        "state": 0,
                        "velocity": 0
                    }
                ],
                [
                    48,
                    {
                        "note": 42,
                        "state": 1,
                        "velocity": 98
                    }
                ],
                [
                    54,
                    {
                        "note": 42,
                        "state": 0,
                        "velocity": 0
                    }
                ],
                [
                    60,
                    {
                        "note": 51,
                        "state": 1,
                        "velocity": 36
                    }
                ],
                [
                    60,
                    {
                        "note": 36,
                        "state": 1,
                        "velocity": 87
                    }
                ],
                [
                    66,
                    {
                        "note": 51,
                        "state": 0,
                        "velocity": 0
                    }
                ],
                [
                    66,
                    {
                        "note": 36,
                        "state": 0,
                        "velocity": 64
                    }
                ],
                [
                    72,
                    {
                        "note": 51,
                        "state": 1,
                        "velocity": 46
                    }
                ],
                [
                    72,
                    {
                        "note": 38,
                        "state": 1,
                        "velocity": 105
                    }
                ],
                [
                    78,
                    {
                        "note": 51,
                        "state": 0,
                        "velocity": 0
                    }
                ],
                [
                    78,
                    {
                        "note": 38,
                        "state": 0,
                        "velocity": 0
                    }
                ],
                [
                    84,
                    {
                        "note": 40,
                        "state": 1,
                        "velocity": 99
                    }
                ],
                [
                    84,
                    {
                        "note": 37,
                        "state": 1,
                        "velocity": 118
                    }
                ],
                [
                    90,
                    {
                        "note": 40,
                        "state": 0,
                        "velocity": 0
                    }
                ],
                [
                    90,
                    {
                        "note": 37,
                        "state": 0,
                        "velocity": 0
                    }
                ],
                [
                    90,
                    {
                        "note": 41,
                        "state": 1,
                        "velocity": 29
                    }
                ],
                [
                    90,
                    {
                        "note": 39,
                        "state": 1,
                        "velocity": 104
                    }
                ],
                [
                    96,
                    {
                        "note": 41,
                        "state": 0,
                        "velocity": 0
                    }
                ],
                [
                    96,
                    {
                        "note": 39,
                        "state": 0,
                        "velocity": 0
                    }
                ],
                [
                    96,
                    {
                        "note": 51,
                        "state": 1,
                        "velocity": 45
                    }
                ],
                [
                    96,
                    {
                        "note": 42,
                        "state": 1,
                        "velocity": 100
                    }
                ],
                [
                    96,
                    {
                        "note": 36,
                        "state": 1,
                        "velocity": 87
                    }
                ],
                [
                    102,
                    {
                        "note": 51,
                        "state": 0,
                        "velocity": 0
                    }
                ],
                [
                    102,
                    {
                        "note": 42,
                        "state": 0,
                        "velocity": 0
                    }
                ],
                [
                    102,
                    {
                        "note": 36,
                        "state": 0,
                        "velocity": 64
                    }
                ],
                [
                    108,
                    {
                        "note": 36,
                        "state": 1,
                        "velocity": 87
                    }
                ],
                [
                    114,
                    {
                        "note": 36,
                        "state": 0,
                        "velocity": 64
                    }
                ],
                [
                    120,
                    {
                        "note": 51,
                        "state": 1,
                        "velocity": 47
                    }
                ],
                [
                    120,
                    {
                        "note": 38,
                        "state": 1,
                        "velocity": 105
                    }
                ],
                [
                    126,
                    {
                        "note": 51,
                        "state": 0,
                        "velocity": 0
                    }
                ],
                [
                    126,
                    {
                        "note": 38,
                        "state": 0,
                        "velocity": 0
                    }
                ],
                [
                    132,
                    {
                        "note": 40,
                        "state": 1,
                        "velocity": 93
                    }
                ],
                [
                    138,
                    {
                        "note": 40,
                        "state": 0,
                        "velocity": 0
                    }
                ],
                [
                    144,
                    {
                        "note": 42,
                        "state": 1,
                        "velocity": 94
                    }
                ],
                [
                    150,
                    {
                        "note": 42,
                        "state": 0,
                        "velocity": 0
                    }
                ],
                [
                    156,
                    {
                        "note": 51,
                        "state": 1,
                        "velocity": 37
                    }
                ],
                [
                    156,
                    {
                        "note": 36,
                        "state": 1,
                        "velocity": 87
                    }
                ],
                [
                    162,
                    {
                        "note": 51,
                        "state": 0,
                        "velocity": 0
                    }
                ],
                [
                    162,
                    {
                        "note": 36,
                        "state": 0,
                        "velocity": 64
                    }
                ],
                [
                    168,
                    {
                        "note": 51,
                        "state": 1,
                        "velocity": 44
                    }
                ],
                [
                    168,
                    {
                        "note": 38,
                        "state": 1,
                        "velocity": 94
                    }
                ],
                [
                    174,
                    {
                        "note": 51,
                        "state": 0,
                        "velocity": 0
                    }
                ],
                [
                    174,
                    {
                        "note": 38,
                        "state": 0,
                        "velocity": 0
                    }
                ],
                [
                    180,
                    {
                        "note": 40,
                        "state": 1,
                        "velocity": 100
                    }
                ],
                [
                    186,
                    {
                        "note": 40,
                        "state": 0,
                        "velocity": 0
                    }
                ],
                [
                    192,
                    {
                        "note": 51,
                        "state": 1,
                        "velocity": 41
                    }
                ],
                [
                    192,
                    {
                        "note": 36,
                        "state": 1,
                        "velocity": 87
                    }
                ],
                [
                    198,
                    {
                        "note": 51,
                        "state": 0,
                        "velocity": 0
                    }
                ],
                [
                    198,
                    {
                        "note": 36,
                        "state": 0,
                        "velocity": 64
                    }
                ],
                [
                    216,
                    {
                        "note": 51,
                        "state": 1,
                        "velocity": 46
                    }
                ],
                [
                    216,
                    {
                        "note": 38,
                        "state": 1,
                        "velocity": 93
                    }
                ],
                [
                    222,
                    {
                        "note": 51,
                        "state": 0,
                        "velocity": 0
                    }
                ],
                [
                    222,
                    {
                        "note": 38,
                        "state": 0,
                        "velocity": 0
                    }
                ],
                [
                    228,
                    {
                        "note": 40,
                        "state": 1,
                        "velocity": 100
                    }
                ],
                [
                    234,
                    {
                        "note": 40,
                        "state": 0,
                        "velocity": 0
                    }
                ],
                [
                    240,
                    {
                        "note": 42,
                        "state": 1,
                        "velocity": 97
                    }
                ],
                [
                    246,
                    {
                        "note": 42,
                        "state": 0,
                        "velocity": 0
                    }
                ],
                [
                    252,
                    {
                        "note": 51,
                        "state": 1,
                        "velocity": 34
                    }
                ],
                [
                    252,
                    {
                        "note": 36,
                        "state": 1,
                        "velocity": 87
                    }
                ],
                [
                    258,
                    {
                        "note": 51,
                        "state": 0,
                        "velocity": 0
                    }
                ],
                [
                    258,
                    {
                        "note": 36,
                        "state": 0,
                        "velocity": 64
                    }
                ],
                [
                    264,
                    {
                        "note": 51,
                        "state": 1,
                        "velocity": 42
                    }
                ],
                [
                    264,
                    {
                        "note": 38,
                        "state": 1,
                        "velocity": 107
                    }
                ],
                [
                    270,
                    {
                        "note": 51,
                        "state": 0,
                        "velocity": 0
                    }
                ],
                [
                    270,
                    {
                        "note": 38,
                        "state": 0,
                        "velocity": 0
                    }
                ],
                [
                    276,
                    {
                        "note": 40,
                        "state": 1,
                        "velocity": 105
                    }
                ],
                [
                    276,
                    {
                        "note": 37,
                        "state": 1,
                        "velocity": 125
                    }
                ],
                [
                    282,
                    {
                        "note": 40,
                        "state": 0,
                        "velocity": 0
                    }
                ],
                [
                    282,
                    {
                        "note": 37,
                        "state": 0,
                        "velocity": 0
                    }
                ],
                [
                    282,
                    {
                        "note": 41,
                        "state": 1,
                        "velocity": 24
                    }
                ],
                [
                    282,
                    {
                        "note": 39,
                        "state": 1,
                        "velocity": 101
                    }
                ],
                [
                    288,
                    {
                        "note": 41,
                        "state": 0,
                        "velocity": 0
                    }
                ],
                [
                    288,
                    {
                        "note": 39,
                        "state": 0,
                        "velocity": 0
                    }
                ],
                [
                    288,
                    {
                        "note": 51,
                        "state": 1,
                        "velocity": 47
                    }
                ],
                [
                    288,
                    {
                        "note": 36,
                        "state": 1,
                        "velocity": 87
                    }
                ],
                [
                    294,
                    {
                        "note": 51,
                        "state": 0,
                        "velocity": 0
                    }
                ],
                [
                    294,
                    {
                        "note": 36,
                        "state": 0,
                        "velocity": 64
                    }
                ],
                [
                    300,
                    {
                        "note": 42,
                        "state": 1,
                        "velocity": 100
                    }
                ],
                [
                    300,
                    {
                        "note": 36,
                        "state": 1,
                        "velocity": 87
                    }
                ],
                [
                    306,
                    {
                        "note": 42,
                        "state": 0,
                        "velocity": 0
                    }
                ],
                [
                    306,
                    {
                        "note": 36,
                        "state": 0,
                        "velocity": 64
                    }
                ],
                [
                    312,
                    {
                        "note": 51,
                        "state": 1,
                        "velocity": 43
                    }
                ],
                [
                    312,
                    {
                        "note": 38,
                        "state": 1,
                        "velocity": 106
                    }
                ],
                [
                    318,
                    {
                        "note": 51,
                        "state": 0,
                        "velocity": 0
                    }
                ],
                [
                    318,
                    {
                        "note": 38,
                        "state": 0,
                        "velocity": 0
                    }
                ],
                [
                    324,
                    {
                        "note": 42,
                        "state": 1,
                        "velocity": 95
                    }
                ],
                [
                    330,
                    {
                        "note": 42,
                        "state": 0,
                        "velocity": 0
                    }
                ],
                [
                    336,
                    {
                        "note": 42,
                        "state": 1,
                        "velocity": 100
                    }
                ],
                [
                    342,
                    {
                        "note": 42,
                        "state": 0,
                        "velocity": 0
                    }
                ],
                [
                    342,
                    {
                        "note": 51,
                        "state": 1,
                        "velocity": 34
                    }
                ],
                [
                    348,
                    {
                        "note": 51,
                        "state": 0,
                        "velocity": 0
                    }
                ],
                [
                    348,
                    {
                        "note": 40,
                        "state": 1,
                        "velocity": 104
                    }
                ],
                [
                    348,
                    {
                        "note": 36,
                        "state": 1,
                        "velocity": 87
                    }
                ],
                [
                    354,
                    {
                        "note": 36,
                        "state": 0,
                        "velocity": 64
                    }
                ],
                [
                    360,
                    {
                        "note": 40,
                        "state": 0,
                        "velocity": 0
                    }
                ],
                [
                    360,
                    {
                        "note": 51,
                        "state": 1,
                        "velocity": 41
                    }
                ],
                [
                    360,
                    {
                        "note": 38,
                        "state": 1,
                        "velocity": 102
                    }
                ],
                [
                    366,
                    {
                        "note": 51,
                        "state": 0,
                        "velocity": 0
                    }
                ],
                [
                    366,
                    {
                        "note": 38,
                        "state": 0,
                        "velocity": 0
                    }
                ],
                [
                    372,
                    {
                        "note": 40,
                        "state": 1,
                        "velocity": 107
                    }
                ],
                [
                    372,
                    {
                        "note": 37,
                        "state": 1,
                        "velocity": 125
                    }
                ],
                [
                    378,
                    {
                        "note": 40,
                        "state": 0,
                        "velocity": 0
                    }
                ],
                [
                    378,
                    {
                        "note": 37,
                        "state": 0,
                        "velocity": 0
                    }
                ],
                [
                    378,
                    {
                        "note": 41,
                        "state": 1,
                        "velocity": 21
                    }
                ],
                [
                    378,
                    {
                        "note": 39,
                        "state": 1,
                        "velocity": 102
                    }
                ],
                [
                    384,
                    {
                        "note": 41,
                        "state": 0,
                        "velocity": 0
                    }
                ],
                [
                    384,
                    {
                        "note": 39,
                        "state": 0,
                        "velocity": 0
                    }
                ]
            ]
        },
        {
            "length_beats": 16,
            "events": [
                [
                    0,
                    {
                        "note": 36,
                        "state": 1,
                        "velocity": 101
                    }
                ],
                [
                    6,
                    {
                        "note": 36,
                        "state": 0,
                        "velocity": 0
                    }
                ],
                [
                    12,
                    {
                        "note": 42,
                        "state": 1,
                        "velocity": 87
                    }
                ],
                [
                    18,
                    {
                        "note": 42,
                        "state": 0,
                        "velocity": 64
                    }
                ],
                [
                    18,
                    {
                        "note": 37,
                        "state": 1,
                        "velocity": 43
                    }
                ],
                [
                    24,
                    {
                        "note": 38,
                        "state": 1,
                        "velocity": 106
                    }
                ],
                [
                    24,
                    {
                        "note": 37,
                        "state": 0,
                        "velocity": 0
                    }
                ],
                [
                    30,
                    {
                        "note": 38,
                        "state": 0,
                        "velocity": 0
                    }
                ],
                [
                    30,
                    {
                        "note": 41,
                        "state": 1,
                        "velocity": 50
                    }
                ],
                [
                    36,
                    {
                        "note": 42,
                        "state": 1,
                        "velocity": 87
                    }
                ],
                [
                    36,
                    {
                        "note": 36,
                        "state": 1,
                        "velocity": 101
                    }
                ],
                [
                    36,
                    {
                        "note": 41,
                        "state": 0,
                        "velocity": 0
                    }
                ],
                [
                    42,
                    {
                        "note": 42,
                        "state": 0,
                        "velocity": 64
                    }
                ],
                [
                    42,
                    {
                        "note": 36,
                        "state": 0,
                        "velocity": 0
                    }
                ],
                [
                    42,
                    {
                        "note": 36,
                        "state": 1,
                        "velocity": 107
                    }
                ],
                [
                    48,
                    {
                        "note": 36,
                        "state": 0,
                        "velocity": 0
                    }
                ],
                [
                    54,
                    {
                        "note": 45,
                        "state": 1,
                        "velocity": 38
                    }
                ],
                [
                    60,
                    {
                        "note": 42,
                        "state": 1,
                        "velocity": 87
                    }
                ],
                [
                    60,
                    {
                        "note": 37,
                        "state": 1,
                        "velocity": 69
                    }
                ],
                [
                    60,
                    {
                        "note": 45,
                        "state": 0,
                        "velocity": 0
                    }
                ],
                [
                    66,
                    {
                        "note": 42,
                        "state": 0,
                        "velocity": 64
                    }
                ],
                [
                    66,
                    {
                        "note": 37,
                        "state": 0,
                        "velocity": 0
                    }
                ],
                [
                    72,
                    {
                        "note": 41,
                        "state": 1,
                        "velocity": 47
                    }
                ],
                [
                    72,
                    {
                        "note": 39,
                        "state": 1,
                        "velocity": 98
                    }
                ],
                [
                    72,
                    {
                        "note": 38,
                        "state": 1,
                        "velocity": 107
                    }
                ],
                [
                    78,
                    {
                        "note": 41,
                        "state": 0,
                        "velocity": 0
                    }
                ],
                [
                    78,
                    {
                        "note": 39,
                        "state": 0,
                        "velocity": 0
                    }
                ],
                [
                    78,
                    {
                        "note": 38,
                        "state": 0,
                        "velocity": 0
                    }
                ],
                [
                    78,
                    {
                        "note": 42,
                        "state": 1,
                        "velocity": 31
                    }
                ],
                [
                    84,
                    {
                        "note": 42,
                        "state": 0,
                        "velocity": 0
                    }
                ],
                [
                    84,
                    {
                        "note": 42,
                        "state": 1,
                        "velocity": 87
                    }
                ],
                [
                    90,
                    {
                        "note": 42,
                        "state": 0,
                        "velocity": 64
                    }
                ],
                [
                    90,
                    {
                        "note": 42,
                        "state": 1,
                        "velocity": 57
                    }
                ],
                [
                    90,
                    {
                        "note": 37,
                        "state": 1,
                        "velocity": 21
                    }
                ],
                [
                    96,
                    {
                        "note": 42,
                        "state": 0,
                        "velocity": 0
                    }
                ],
                [
                    96,
                    {
                        "note": 36,
                        "state": 1,
                        "velocity": 105
                    }
                ],
                [
                    96,
                    {
                        "note": 37,
                        "state": 0,
                        "velocity": 0
                    }
                ],
                [
                    102,
                    {
                        "note": 36,
                        "state": 0,
                        "velocity": 0
                    }
                ],
                [
                    108,
                    {
                        "note": 42,
                        "state": 1,
                        "velocity": 87
                    }
                ],
                [
                    114,
                    {
                        "note": 42,
                        "state": 0,
                        "velocity": 64
                    }
                ],
                [
                    114,
                    {
                        "note": 37,
                        "state": 1,
                        "velocity": 52
                    }
                ],
                [
                    120,
                    {
                        "note": 38,
                        "state": 1,
                        "velocity": 95
                    }
                ],
                [
                    120,
                    {
                        "note": 37,
                        "state": 0,
                        "velocity": 0
                    }
                ],
                [
                    126,
                    {
                        "note": 38,
                        "state": 0,
                        "velocity": 0
                    }
                ],
                [
                    126,
                    {
                        "note": 41,
                        "state": 1,
                        "velocity": 50
                    }
                ],
                [
                    132,
                    {
                        "note": 42,
                        "state": 1,
                        "velocity": 87
                    }
                ],
                [
                    132,
                    {
                        "note": 36,
                        "state": 1,
                        "velocity": 94
                    }
                ],
                [
                    132,
                    {
                        "note": 41,
                        "state": 0,
                        "velocity": 0
                    }
                ],
                [
                    138,
                    {
                        "note": 42,
                        "state": 0,
                        "velocity": 64
                    }
                ],
                [
                    138,
                    {
                        "note": 36,
                        "state": 0,
                        "velocity": 0
                    }
                ],
                [
                    138,
                    {
                        "note": 36,
                        "state": 1,
                        "velocity": 96
                    }
                ],
                [
                    144,
                    {
                        "note": 36,
                        "state": 0,
                        "velocity": 0
                    }
                ],
                [
                    150,
                    {
                        "note": 45,
                        "state": 1,
                        "velocity": 40
                    }
                ],
                [
                    156,
                    {
                        "note": 42,
                        "state": 1,
                        "velocity": 87
                    }
                ],
                [
                    156,
                    {
                        "note": 37,
                        "state": 1,
                        "velocity": 63
                    }
                ],
                [
                    156,
                    {
                        "note": 45,
                        "state": 0,
                        "velocity": 0
                    }
                ],
                [
                    162,
                    {
                        "note": 42,
                        "state": 0,
                        "velocity": 64
                    }
                ],
                [
                    162,
                    {
                        "note": 37,
                        "state": 0,
                        "velocity": 0
                    }
                ],
                [
                    168,
                    {
                        "note": 41,
                        "state": 1,
                        "velocity": 44
                    }
                ],
                [
                    168,
                    {
                        "note": 39,
                        "state": 1,
                        "velocity": 95
                    }
                ],
                [
                    168,
                    {
                        "note": 38,
                        "state": 1,
                        "velocity": 100
                    }
                ],
                [
                    174,
                    {
                        "note": 41,
                        "state": 0,
                        "velocity": 0
                    }
                ],
                [
                    174,
                    {
                        "note": 39,
                        "state": 0,
                        "velocity": 0
                    }
                ],
                [
                    174,
                    {
                        "note": 38,
                        "state": 0,
                        "velocity": 0
                    }
                ],
                [
                    174,
                    {
                        "note": 42,
                        "state": 1,
                        "velocity": 31
                    }
                ],
                [
                    180,
                    {
                        "note": 42,
                        "state": 0,
                        "velocity": 0
                    }
                ],
                [
                    180,
                    {
                        "note": 42,
                        "state": 1,
                        "velocity": 87
                    }
                ],
                [
                    186,
                    {
                        "note": 42,
                        "state": 0,
                        "velocity": 64
                    }
                ],
                [
                    186,
                    {
                        "note": 42,
                        "state": 1,
                        "velocity": 57
                    }
                ],
                [
                    186,
                    {
                        "note": 37,
                        "state": 1,
                        "velocity": 25
                    }
                ],
                [
                    192,
                    {
                        "note": 42,
                        "state": 0,
                        "velocity": 0
                    }
                ],
                [
                    192,
                    {
                        "note": 36,
                        "state": 1,
                        "velocity": 92
                    }
                ],
                [
                    192,
                    {
                        "note": 37,
                        "state": 0,
                        "velocity": 0
                    }
                ],
                [
                    198,
                    {
                        "note": 36,
                        "state": 0,
                        "velocity": 0
                    }
                ],
                [
                    204,
                    {
                        "note": 42,
                        "state": 1,
                        "velocity": 87
                    }
                ],
                [
                    210,
                    {
                        "note": 42,
                        "state": 0,
                        "velocity": 64
                    }
                ],
                [
                    210,
                    {
                        "note": 37,
                        "state": 1,
                        "velocity": 43
                    }
                ],
                [
                    216,
                    {
                        "note": 38,
                        "state": 1,
                        "velocity": 107
                    }
                ],
                [
                    216,
                    {
                        "note": 37,
                        "state": 0,
                        "velocity": 0
                    }
                ],
                [
                    222,
                    {
                        "note": 38,
                        "state": 0,
                        "velocity": 0
                    }
                ],
                [
                    222,
                    {
                        "note": 41,
                        "state": 1,
                        "velocity": 53
                    }
                ],
                [
                    228,
                    {
                        "note": 42,
                        "state": 1,
                        "velocity": 87
                    }
                ],
                [
                    228,
                    {
                        "note": 36,
                        "state": 1,
                        "velocity": 101
                    }
                ],
                [
                    228,
                    {
                        "note": 41,
                        "state": 0,
                        "velocity": 0
                    }
                ],
                [
                    234,
                    {
                        "note": 42,
                        "state": 0,
                        "velocity": 64
                    }
                ],
                [
                    234,
                    {
                        "note": 36,
                        "state": 0,
                        "velocity": 0
                    }
                ],
                [
                    234,
                    {
                        "note": 36,
                        "state": 1,
                        "velocity": 97
                    }
                ],
                [
                    240,
                    {
                        "note": 36,
                        "state": 0,
                        "velocity": 0
                    }
                ],
                [
                    246,
                    {
                        "note": 45,
                        "state": 1,
                        "velocity": 40
                    }
                ],
                [
                    252,
                    {
                        "note": 42,
                        "state": 1,
                        "velocity": 87
                    }
                ],
                [
                    252,
                    {
                        "note": 37,
                        "state": 1,
                        "velocity": 66
                    }
                ],
                [
                    252,
                    {
                        "note": 45,
                        "state": 0,
                        "velocity": 0
                    }
                ],
                [
                    258,
                    {
                        "note": 42,
                        "state": 0,
                        "velocity": 64
                    }
                ],
                [
                    258,
                    {
                        "note": 37,
                        "state": 0,
                        "velocity": 0
                    }
                ],
                [
                    264,
                    {
                        "note": 41,
                        "state": 1,
                        "velocity": 48
                    }
                ],
                [
                    264,
                    {
                        "note": 39,
                        "state": 1,
                        "velocity": 96
                    }
                ],
                [
                    264,
                    {
                        "note": 38,
                        "state": 1,
                        "velocity": 105
                    }
                ],
                [
                    270,
                    {
                        "note": 41,
                        "state": 0,
                        "velocity": 0
                    }
                ],
                [
                    270,
                    {
                        "note": 39,
                        "state": 0,
                        "velocity": 0
                    }
                ],
                [
                    270,
                    {
                        "note": 38,
                        "state": 0,
                        "velocity": 0
                    }
                ],
                [
                    270,
                    {
                        "note": 42,
                        "state": 1,
                        "velocity": 31
                    }
                ],
                [
                    276,
                    {
                        "note": 42,
                        "state": 0,
                        "velocity": 0
                    }
                ],
                [
                    276,
                    {
                        "note": 42,
                        "state": 1,
                        "velocity": 87
                    }
                ],
                [
                    282,
                    {
                        "note": 42,
                        "state": 0,
                        "velocity": 64
                    }
                ],
                [
                    282,
                    {
                        "note": 42,
                        "state": 1,
                        "velocity": 57
                    }
                ],
                [
                    282,
                    {
                        "note": 37,
                        "state": 1,
                        "velocity": 20
                    }
                ],
                [
                    288,
                    {
                        "note": 42,
                        "state": 0,
                        "velocity": 0
                    }
                ],
                [
                    288,
                    {
                        "note": 36,
                        "state": 1,
                        "velocity": 105
                    }
                ],
                [
                    288,
                    {
                        "note": 37,
                        "state": 0,
                        "velocity": 0
                    }
                ],
                [
                    294,
                    {
                        "note": 36,
                        "state": 0,
                        "velocity": 0
                    }
                ],
                [
                    300,
                    {
                        "note": 42,
                        "state": 1,
                        "velocity": 87
                    }
                ],
                [
                    306,
                    {
                        "note": 42,
                        "state": 0,
                        "velocity": 64
                    }
                ],
                [
                    306,
                    {
                        "note": 37,
                        "state": 1,
                        "velocity": 43
                    }
                ],
                [
                    312,
                    {
                        "note": 38,
                        "state": 1,
                        "velocity": 92
                    }
                ],
                [
                    312,
                    {
                        "note": 37,
                        "state": 0,
                        "velocity": 0
                    }
                ],
                [
                    318,
                    {
                        "note": 38,
                        "state": 0,
                        "velocity": 0
                    }
                ],
                [
                    318,
                    {
                        "note": 41,
                        "state": 1,
                        "velocity": 50
                    }
                ],
                [
                    324,
                    {
                        "note": 42,
                        "state": 1,
                        "velocity": 87
                    }
                ],
                [
                    324,
                    {
                        "note": 36,
                        "state": 1,
                        "velocity": 102
                    }
                ],
                [
                    324,
                    {
                        "note": 41,
                        "state": 0,
                        "velocity": 0
                    }
                ],
                [
                    330,
                    {
                        "note": 42,
                        "state": 0,
                        "velocity": 64
                    }
                ],
                [
                    330,
                    {
                        "note": 36,
                        "state": 0,
                        "velocity": 0
                    }
                ],
                [
                    330,
                    {
                        "note": 36,
                        "state": 1,
                        "velocity": 96
                    }
                ],
                [
                    336,
                    {
                        "note": 36,
                        "state": 0,
                        "velocity": 0
                    }
                ],
                [
                    342,
                    {
                        "note": 45,
                        "state": 1,
                        "velocity": 32
                    }
                ],
                [
                    348,
                    {
                        "note": 42,
                        "state": 1,
                        "velocity": 87
                    }
                ],
                [
                    348,
                    {
                        "note": 37,
                        "state": 1,
                        "velocity": 60
                    }
                ],
                [
                    348,
                    {
                        "note": 45,
                        "state": 0,
                        "velocity": 0
                    }
                ],
                [
                    354,
                    {
                        "note": 42,
                        "state": 0,
                        "velocity": 64
                    }
                ],
                [
                    354,
                    {
                        "note": 37,
                        "state": 0,
                        "velocity": 0
                    }
                ],
                [
                    360,
                    {
                        "note": 41,
                        "state": 1,
                        "velocity": 49
                    }
                ],
                [
                    360,
                    {
                        "note": 39,
                        "state": 1,
                        "velocity": 102
                    }
                ],
                [
                    360,
                    {
                        "note": 38,
                        "state": 1,
                        "velocity": 103
                    }
                ],
                [
                    366,
                    {
                        "note": 41,
                        "state": 0,
                        "velocity": 0
                    }
                ],
                [
                    366,
                    {
                        "note": 39,
                        "state": 0,
                        "velocity": 0
                    }
                ],
                [
                    366,
                    {
                        "note": 38,
                        "state": 0,
                        "velocity": 0
                    }
                ],
                [
                    366,
                    {
                        "note": 42,
                        "state": 1,
                        "velocity": 31
                    }
                ],
                [
                    372,
                    {
                        "note": 42,
                        "state": 0,
                        "velocity": 0
                    }
                ],
                [
                    372,
                    {
                        "note": 42,
                        "state": 1,
                        "velocity": 87
                    }
                ],
                [
                    378,
                    {
                        "note": 42,
                        "state": 0,
                        "velocity": 64
                    }
                ],
                [
                    378,
                    {
                        "note": 42,
                        "state": 1,
                        "velocity": 57
                    }
                ],
                [
                    378,
                    {
                        "note": 37,
                        "state": 1,
                        "velocity": 24
                    }
                ],
                [
                    384,
                    {
                        "note": 42,
                        "state": 0,
                        "velocity": 0
                    }
                ],
                [
                    384,
                    {
                        "note": 37,
                        "state": 0,
                        "velocity": 0
                    }
                ]
            ]
        },
        {
            "length_beats": 16,
            "events": [
                [
                    0,
                    {
                        "note": 42,
                        "state": 1,
                        "velocity": 62
                    }
                ],
                [
                    0,
                    {
                        "note": 36,
                        "state": 1,
                        "velocity": 92
                    }
                ],
                [
                    2,
                    {
                        "note": 36,
                        "state": 0,
                        "velocity": 0
                    }
                ],
                [
                    6,
                    {
                        "note": 42,
                        "state": 0,
                        "velocity": 0
                    }
                ],
                [
                    12,
                    {
                        "note": 42,
                        "state": 1,
                        "velocity": 58
                    }
                ],
                [
                    18,
                    {
                        "note": 42,
                        "state": 0,
                        "velocity": 0
                    }
                ],
                [
                    24,
                    {
                        "note": 46,
                        "state": 1,
                        "velocity": 100
                    }
                ],
                [
                    24,
                    {
                        "note": 38,
                        "state": 1,
                        "velocity": 98
                    }
                ],
                [
                    30,
                    {
                        "note": 46,
                        "state": 0,
                        "velocity": 0
                    }
                ],
                [
                    30,
                    {
                        "note": 38,
                        "state": 0,
                        "velocity": 0
                    }
                ],
                [
                    36,
                    {
                        "note": 42,
                        "state": 1,
                        "velocity": 101
                    }
                ],
                [
                    42,
                    {
                        "note": 42,
                        "state": 0,
                        "velocity": 0
                    }
                ],
                [
                    48,
                    {
                        "note": 42,
                        "state": 1,
                        "velocity": 41
                    }
                ],
                [
                    48,
                    {
                        "note": 36,
                        "state": 1,
                        "velocity": 89
                    }
                ],
                [
                    54,
                    {
                        "note": 42,
                        "state": 0,
                        "velocity": 64
                    }
                ],
                [
                    54,
                    {
                        "note": 36,
                        "state": 0,
                        "velocity": 0
                    }
                ],
                [
                    60,
                    {
                        "note": 42,
                        "state": 1,
                        "velocity": 66
                    }
                ],
                [
                    60,
                    {
                        "note": 36,
                        "state": 1,
                        "velocity": 98
                    }
                ],
                [
                    66,
                    {
                        "note": 42,
                        "state": 0,
                        "velocity": 0
                    }
                ],
                [
                    66,
                    {
                        "note": 36,
                        "state": 0,
                        "velocity": 0
                    }
                ],
                [
                    72,
                    {
                        "note": 42,
                        "state": 1,
                        "velocity": 85
                    }
                ],
                [
                    78,
                    {
                        "note": 42,
                        "state": 0,
                        "velocity": 0
                    }
                ],
                [
                    84,
                    {
                        "note": 42,
                        "state": 1,
                        "velocity": 99
                    }
                ],
                [
                    84,
                    {
                        "note": 39,
                        "state": 1,
                        "velocity": 71
                    }
                ],
                [
                    84,
                    {
                        "note": 38,
                        "state": 1,
                        "velocity": 104
                    }
                ],
                [
                    90,
                    {
                        "note": 42,
                        "state": 0,
                        "velocity": 0
                    }
                ],
                [
                    90,
                    {
                        "note": 39,
                        "state": 0,
                        "velocity": 0
                    }
                ],
                [
                    90,
                    {
                        "note": 38,
                        "state": 0,
                        "velocity": 0
                    }
                ],
                [
                    96,
                    {
                        "note": 42,
                        "state": 1,
                        "velocity": 60
                    }
                ],
                [
                    105,
                    {
                        "note": 42,
                        "state": 0,
                        "velocity": 0
                    }
                ],
                [
                    108,
                    {
                        "note": 46,
                        "state": 1,
                        "velocity": 104
                    }
                ],
                [
                    108,
                    {
                        "note": 36,
                        "state": 1,
                        "velocity": 99
                    }
                ],
                [
                    114,
                    {
                        "note": 46,
                        "state": 0,
                        "velocity": 0
                    }
                ],
                [
                    114,
                    {
                        "note": 36,
                        "state": 0,
                        "velocity": 0
                    }
                ],
                [
                    120,
                    {
                        "note": 38,
                        "state": 1,
                        "velocity": 99
                    }
                ],
                [
                    126,
                    {
                        "note": 38,
                        "state": 0,
                        "velocity": 0
                    }
                ],
                [
                    132,
                    {
                        "note": 42,
                        "state": 1,
                        "velocity": 100
                    }
                ],
                [
                    138,
                    {
                        "note": 42,
                        "state": 0,
                        "velocity": 0
                    }
                ],
                [
                    144,
                    {
                        "note": 42,
                        "state": 1,
                        "velocity": 107
                    }
                ],
                [
                    150,
                    {
                        "note": 42,
                        "state": 0,
                        "velocity": 0
                    }
                ],
                [
                    156,
                    {
                        "note": 42,
                        "state": 1,
                        "velocity": 40
                    }
                ],
                [
                    156,
                    {
                        "note": 36,
                        "state": 1,
                        "velocity": 70
                    }
                ],
                [
                    162,
                    {
                        "note": 42,
                        "state": 0,
                        "velocity": 0
                    }
                ],
                [
                    162,
                    {
                        "note": 36,
                        "state": 0,
                        "velocity": 0
                    }
                ],
                [
                    168,
                    {
                        "note": 46,
                        "state": 1,
                        "velocity": 105
                    }
                ],
                [
                    168,
                    {
                        "note": 39,
                        "state": 1,
                        "velocity": 68
                    }
                ],
                [
                    168,
                    {
                        "note": 38,
                        "state": 1,
                        "velocity": 97
                    }
                ],
                [
                    174,
                    {
                        "note": 46,
                        "state": 0,
                        "velocity": 0
                    }
                ],
                [
                    174,
                    {
                        "note": 39,
                        "state": 0,
                        "velocity": 0
                    }
                ],
                [
                    174,
                    {
                        "note": 38,
                        "state": 0,
                        "velocity": 0
                    }
                ],
                [
                    180,
                    {
                        "note": 36,
                        "state": 1,
                        "velocity": 64
                    }
                ],
                [
                    186,
                    {
                        "note": 36,
                        "state": 0,
                        "velocity": 0
                    }
                ],
                [
                    188,
                    {
                        "note": 36,
                        "state": 1,
                        "velocity": 14
                    }
                ],
                [
                    192,
                    {
                        "note": 36,
                        "state": 0,
                        "velocity": 0
                    }
                ],
                [
                    192,
                    {
                        "note": 42,
                        "state": 1,
                        "velocity": 41
                    }
                ],
                [
                    192,
                    {
                        "note": 36,
                        "state": 1,
                        "velocity": 92
                    }
                ],
                [
                    194,
                    {
                        "note": 36,
                        "state": 0,
                        "velocity": 0
                    }
                ],
                [
                    198,
                    {
                        "note": 42,
                        "state": 0,
                        "velocity": 64
                    }
                ],
                [
                    204,
                    {
                        "note": 42,
                        "state": 1,
                        "velocity": 61
                    }
                ],
                [
                    210,
                    {
                        "note": 42,
                        "state": 0,
                        "velocity": 0
                    }
                ],
                [
                    216,
                    {
                        "note": 46,
                        "state": 1,
                        "velocity": 102
                    }
                ],
                [
                    216,
                    {
                        "note": 38,
                        "state": 1,
                        "velocity": 96
                    }
                ],
                [
                    222,
                    {
                        "note": 46,
                        "state": 0,
                        "velocity": 0
                    }
                ],
                [
                    222,
                    {
                        "note": 38,
                        "state": 0,
                        "velocity": 0
                    }
                ],
                [
                    228,
                    {
                        "note": 42,
                        "state": 1,
                        "velocity": 101
                    }
                ],
                [
                    234,
                    {
                        "note": 42,
                        "state": 0,
                        "velocity": 0
                    }
                ],
                [
                    240,
                    {
                        "note": 42,
                        "state": 1,
                        "velocity": 85
                    }
                ],
                [
                    240,
                    {
                        "note": 36,
                        "state": 1,
                        "velocity": 88
                    }
                ],
                [
                    246,
                    {
                        "note": 42,
                        "state": 0,
                        "velocity": 0
                    }
                ],
                [
                    246,
                    {
                        "note": 36,
                        "state": 0,
                        "velocity": 0
                    }
                ],
                [
                    252,
                    {
                        "note": 42,
                        "state": 1,
                        "velocity": 79
                    }
                ],
                [
                    252,
                    {
                        "note": 36,
                        "state": 1,
                        "velocity": 96
                    }
                ],
                [
                    258,
                    {
                        "note": 42,
                        "state": 0,
                        "velocity": 0
                    }
                ],
                [
                    258,
                    {
                        "note": 36,
                        "state": 0,
                        "velocity": 0
                    }
                ],
                [
                    264,
                    {
                        "note": 42,
                        "state": 1,
                        "velocity": 81
                    }
                ],
                [
                    270,
                    {
                        "note": 42,
                        "state": 0,
                        "velocity": 0
                    }
                ],
                [
                    276,
                    {
                        "note": 42,
                        "state": 1,
                        "velocity": 100
                    }
                ],
                [
                    276,
                    {
                        "note": 39,
                        "state": 1,
                        "velocity": 65
                    }
                ],
                [
                    276,
                    {
                        "note": 38,
                        "state": 1,
                        "velocity": 107
                    }
                ],
                [
                    282,
                    {
                        "note": 42,
                        "state": 0,
                        "velocity": 0
                    }
                ],
                [
                    282,
                    {
                        "note": 39,
                        "state": 0,
                        "velocity": 0
                    }
                ],
                [
                    282,
                    {
                        "note": 38,
                        "state": 0,
                        "velocity": 0
                    }
                ],
                [
                    288,
                    {
                        "note": 42,
                        "state": 1,
                        "velocity": 69
                    }
                ],
                [
                    300,
                    {
                        "note": 46,
                        "state": 1,
                        "velocity": 95
                    }
                ],
                [
                    300,
                    {
                        "note": 36,
                        "state": 1,
                        "velocity": 92
                    }
                ],
                [
                    306,
                    {
                        "note": 42,
                        "state": 0,
                        "velocity": 0
                    }
                ],
                [
                    306,
                    {
                        "note": 46,
                        "state": 0,
                        "velocity": 0
                    }
                ],
                [
                    306,
                    {
                        "note": 36,
                        "state": 0,
                        "velocity": 0
                    }
                ],
                [
                    312,
                    {
                        "note": 38,
                        "state": 1,
                        "velocity": 104
                    }
                ],
                [
                    318,
                    {
                        "note": 38,
                        "state": 0,
                        "velocity": 0
                    }
                ],
                [
                    324,
                    {
                        "note": 42,
                        "state": 1,
                        "velocity": 106
                    }
                ],
                [
                    330,
                    {
                        "note": 42,
                        "state": 0,
                        "velocity": 0
                    }
                ],
                [
                    336,
                    {
                        "note": 42,
                        "state": 1,
                        "velocity": 99
                    }
                ],
                [
                    342,
                    {
                        "note": 42,
                        "state": 0,
                        "velocity": 0
                    }
                ],
                [
                    348,
                    {
                        "note": 42,
                        "state": 1,
                        "velocity": 42
                    }
                ],
                [
                    348,
                    {
                        "note": 36,
                        "state": 1,
                        "velocity": 83
                    }
                ],
                [
                    354,
                    {
                        "note": 42,
                        "state": 0,
                        "velocity": 0
                    }
                ],
                [
                    354,
                    {
                        "note": 36,
                        "state": 0,
                        "velocity": 0
                    }
                ],
                [
                    360,
                    {
                        "note": 46,
                        "state": 1,
                        "velocity": 105
                    }
                ],
                [
                    360,
                    {
                        "note": 39,
                        "state": 1,
                        "velocity": 63
                    }
                ],
                [
                    360,
                    {
                        "note": 38,
                        "state": 1,
                        "velocity": 101
                    }
                ],
                [
                    366,
                    {
                        "note": 46,
                        "state": 0,
                        "velocity": 0
                    }
                ],
                [
                    366,
                    {
                        "note": 39,
                        "state": 0,
                        "velocity": 0
                    }
                ],
                [
                    366,
                    {
                        "note": 38,
                        "state": 0,
                        "velocity": 0
                    }
                ],
                [
                    372,
                    {
                        "note": 42,
                        "state": 1,
                        "velocity": 62
                    }
                ],
                [
                    372,
                    {
                        "note": 36,
                        "state": 1,
                        "velocity": 69
                    }
                ],
                [
                    378,
                    {
                        "note": 42,
                        "state": 0,
                        "velocity": 0
                    }
                ],
                [
                    378,
                    {
                        "note": 36,
                        "state": 0,
                        "velocity": 0
                    }
                ],
                [
                    380,
                    {
                        "note": 36,
                        "state": 1,
                        "velocity": 14
                    }
                ],
                [
                    384,
                    {
                        "note": 36,
                        "state": 0,
                        "velocity": 0
                    }
                ]
            ]
        },
        {
            "length_beats": 16,
            "events": [
                [
                    0,
                    {
                        "note": 42,
                        "state": 1,
                        "velocity": 47
                    }
                ],
                [
                    0,
                    {
                        "note": 36,
                        "state": 1,
                        "velocity": 106
                    }
                ],
                [
                    6,
                    {
                        "note": 42,
                        "state": 0,
                        "velocity": 0
                    }
                ],
                [
                    6,
                    {
                        "note": 36,
                        "state": 0,
                        "velocity": 0
                    }
                ],
                [
                    12,
                    {
                        "note": 47,
                        "state": 1,
                        "velocity": 52
                    }
                ],
                [
                    12,
                    {
                        "note": 42,
                        "state": 1,
                        "velocity": 39
                    }
                ],
                [
                    18,
                    {
                        "note": 47,
                        "state": 0,
                        "velocity": 0
                    }
                ],
                [
                    18,
                    {
                        "note": 42,
                        "state": 0,
                        "velocity": 0
                    }
                ],
                [
                    18,
                    {
                        "note": 45,
                        "state": 1,
                        "velocity": 54
                    }
                ],
                [
                    24,
                    {
                        "note": 45,
                        "state": 0,
                        "velocity": 0
                    }
                ],
                [
                    24,
                    {
                        "note": 42,
                        "state": 1,
                        "velocity": 45
                    }
                ],
                [
                    24,
                    {
                        "note": 38,
                        "state": 1,
                        "velocity": 103
                    }
                ],
                [
                    30,
                    {
                        "note": 42,
                        "state": 0,
                        "velocity": 0
                    }
                ],
                [
                    36,
                    {
                        "note": 41,
                        "state": 1,
                        "velocity": 46
                    }
                ],
                [
                    36,
                    {
                        "note": 42,
                        "state": 1,
                        "velocity": 47
                    }
                ],
                [
                    37,
                    {
                        "note": 38,
                        "state": 0,
                        "velocity": 0
                    }
                ],
                [
                    42,
                    {
                        "note": 41,
                        "state": 0,
                        "velocity": 0
                    }
                ],
                [
                    42,
                    {
                        "note": 42,
                        "state": 0,
                        "velocity": 0
                    }
                ],
                [
                    48,
                    {
                        "note": 42,
                        "state": 1,
                        "velocity": 39
                    }
                ],
                [
                    54,
                    {
                        "note": 42,
                        "state": 0,
                        "velocity": 0
                    }
                ],
                [
                    60,
                    {
                        "note": 42,
                        "state": 1,
                        "velocity": 45
                    }
                ],
                [
                    60,
                    {
                        "note": 36,
                        "state": 1,
                        "velocity": 103
                    }
                ],
                [
                    66,
                    {
                        "note": 42,
                        "state": 0,
                        "velocity": 0
                    }
                ],
                [
                    66,
                    {
                        "note": 36,
                        "state": 0,
                        "velocity": 0
                    }
                ],
                [
                    72,
                    {
                        "note": 38,
                        "state": 1,
                        "velocity": 103
                    }
                ],
                [
                    84,
                    {
                        "note": 42,
                        "state": 1,
                        "velocity": 33
                    }
                ],
                [
                    85,
                    {
                        "note": 38,
                        "state": 0,
                        "velocity": 0
                    }
                ],
                [
                    90,
                    {
                        "note": 42,
                        "state": 0,
                        "velocity": 0
                    }
                ],
                [
                    96,
                    {
                        "note": 42,
                        "state": 1,
                        "velocity": 51
                    }
                ],
                [
                    96,
                    {
                        "note": 36,
                        "state": 1,
                        "velocity": 106
                    }
                ],
                [
                    102,
                    {
                        "note": 42,
                        "state": 0,
                        "velocity": 0
                    }
                ],
                [
                    102,
                    {
                        "note": 36,
                        "state": 0,
                        "velocity": 0
                    }
                ],
                [
                    108,
                    {
                        "note": 47,
                        "state": 1,
                        "velocity": 47
                    }
                ],
                [
                    108,
                    {
                        "note": 42,
                        "state": 1,
                        "velocity": 43
                    }
                ],
                [
                    114,
                    {
                        "note": 47,
                        "state": 0,
                        "velocity": 0
                    }
                ],
                [
                    114,
                    {
                        "note": 45,
                        "state": 1,
                        "velocity": 45
                    }
                ],
                [
                    114,
                    {
                        "note": 42,
                        "state": 0,
                        "velocity": 0
                    }
                ],
                [
                    120,
                    {
                        "note": 42,
                        "state": 1,
                        "velocity": 57
                    }
                ],
                [
                    120,
                    {
                        "note": 38,
                        "state": 1,
                        "velocity": 102
                    }
                ],
                [
                    120,
                    {
                        "note": 45,
                        "state": 0,
                        "velocity": 0
                    }
                ],
                [
                    126,
                    {
                        "note": 42,
                        "state": 0,
                        "velocity": 0
                    }
                ],
                [
                    132,
                    {
                        "note": 42,
                        "state": 1,
                        "velocity": 51
                    }
                ],
                [
                    132,
                    {
                        "note": 41,
                        "state": 1,
                        "velocity": 50
                    }
                ],
                [
                    133,
                    {
                        "note": 38,
                        "state": 0,
                        "velocity": 0
                    }
                ],
                [
                    138,
                    {
                        "note": 42,
                        "state": 0,
                        "velocity": 0
                    }
                ],
                [
                    138,
                    {
                        "note": 41,
                        "state": 0,
                        "velocity": 0
                    }
                ],
                [
                    144,
                    {
                        "note": 42,
                        "state": 1,
                        "velocity": 51
                    }
                ],
                [
                    144,
                    {
                        "note": 36,
                        "state": 1,
                        "velocity": 107
                    }
                ],
                [
                    150,
                    {
                        "note": 42,
                        "state": 0,
                        "velocity": 0
                    }
                ],
                [
                    150,
                    {
                        "note": 36,
                        "state": 0,
                        "velocity": 0
                    }
                ],
                [
                    156,
                    {
                        "note": 38,
                        "state": 1,
                        "velocity": 98
                    }
                ],
                [
                    156,
                    {
                        "note": 38,
                        "state": 0,
                        "velocity": 0
                    }
                ],
                [
                    156,
                    {
                        "note": 42,
                        "state": 1,
                        "velocity": 43
                    }
                ],
                [
                    162,
                    {
                        "note": 42,
                        "state": 0,
                        "velocity": 0
                    }
                ],
                [
                    168,
                    {
                        "note": 42,
                        "state": 1,
                        "velocity": 57
                    }
                ],
                [
                    168,
                    {
                        "note": 38,
                        "state": 1,
                        "velocity": 95
                    }
                ],
                [
                    174,
                    {
                        "note": 42,
                        "state": 0,
                        "velocity": 0
                    }
                ],
                [
                    180,
                    {
                        "note": 42,
                        "state": 1,
                        "velocity": 42
                    }
                ],
                [
                    181,
                    {
                        "note": 38,
                        "state": 0,
                        "velocity": 0
                    }
                ],
                [
                    186,
                    {
                        "note": 42,
                        "state": 0,
                        "velocity": 0
                    }
                ],
                [
                    192,
                    {
                        "note": 42,
                        "state": 1,
                        "velocity": 47
                    }
                ],
                [
                    192,
                    {
                        "note": 36,
                        "state": 1,
                        "velocity": 106
                    }
                ],
                [
                    198,
                    {
                        "note": 42,
                        "state": 0,
                        "velocity": 0
                    }
                ],
                [
                    198,
                    {
                        "note": 36,
                        "state": 0,
                        "velocity": 0
                    }
                ],
                [
                    204,
                    {
                        "note": 47,
                        "state": 1,
                        "velocity": 52
                    }
                ],
                [
                    204,
                    {
                        "note": 42,
                        "state": 1,
                        "velocity": 39
                    }
                ],
                [
                    210,
                    {
                        "note": 47,
                        "state": 0,
                        "velocity": 0
                    }
                ],
                [
                    210,
                    {
                        "note": 42,
                        "state": 0,
                        "velocity": 0
                    }
                ],
                [
                    210,
                    {
                        "note": 45,
                        "state": 1,
                        "velocity": 54
                    }
                ],
                [
                    216,
                    {
                        "note": 45,
                        "state": 0,
                        "velocity": 0
                    }
                ],
                [
                    216,
                    {
                        "note": 42,
                        "state": 1,
                        "velocity": 45
                    }
                ],
                [
                    216,
                    {
                        "note": 38,
                        "state": 1,
                        "velocity": 103
                    }
                ],
                [
                    222,
                    {
                        "note": 42,
                        "state": 0,
                        "velocity": 0
                    }
                ],
                [
                    228,
                    {
                        "note": 41,
                        "state": 1,
                        "velocity": 46
                    }
                ],
                [
                    228,
                    {
                        "note": 42,
                        "state": 1,
                        "velocity": 47
                    }
                ],
                [
                    229,
                    {
                        "note": 38,
                        "state": 0,
                        "velocity": 0
                    }
                ],
                [
                    234,
                    {
                        "note": 41,
                        "state": 0,
                        "velocity": 0
                    }
                ],
                [
                    234,
                    {
                        "note": 42,
                        "state": 0,
                        "velocity": 0
                    }
                ],
                [
                    240,
                    {
                        "note": 42,
                        "state": 1,
                        "velocity": 39
                    }
                ],
                [
                    240,
                    {
                        "note": 36,
                        "state": 1,
                        "velocity": 103
                    }
                ],
                [
                    246,
                    {
                        "note": 42,
                        "state": 0,
                        "velocity": 0
                    }
                ],
                [
                    246,
                    {
                        "note": 36,
                        "state": 0,
                        "velocity": 0
                    }
                ],
                [
                    252,
                    {
                        "note": 42,
                        "state": 1,
                        "velocity": 45
                    }
                ],
                [
                    258,
                    {
                        "note": 42,
                        "state": 0,
                        "velocity": 0
                    }
                ],
                [
                    264,
                    {
                        "note": 38,
                        "state": 1,
                        "velocity": 103
                    }
                ],
                [
                    276,
                    {
                        "note": 42,
                        "state": 1,
                        "velocity": 33
                    }
                ],
                [
                    277,
                    {
                        "note": 38,
                        "state": 0,
                        "velocity": 0
                    }
                ],
                [
                    282,
                    {
                        "note": 42,
                        "state": 0,
                        "velocity": 0
                    }
                ],
                [
                    288,
                    {
                        "note": 42,
                        "state": 1,
                        "velocity": 51
                    }
                ],
                [
                    288,
                    {
                        "note": 36,
                        "state": 1,
                        "velocity": 106
                    }
                ],
                [
                    294,
                    {
                        "note": 42,
                        "state": 0,
                        "velocity": 0
                    }
                ],
                [
                    294,
                    {
                        "note": 36,
                        "state": 0,
                        "velocity": 0
                    }
                ],
                [
                    300,
                    {
                        "note": 47,
                        "state": 1,
                        "velocity": 47
                    }
                ],
                [
                    300,
                    {
                        "note": 42,
                        "state": 1,
                        "velocity": 43
                    }
                ],
                [
                    306,
                    {
                        "note": 47,
                        "state": 0,
                        "velocity": 0
                    }
                ],
                [
                    306,
                    {
                        "note": 45,
                        "state": 1,
                        "velocity": 45
                    }
                ],
                [
                    306,
                    {
                        "note": 42,
                        "state": 0,
                        "velocity": 0
                    }
                ],
                [
                    312,
                    {
                        "note": 42,
                        "state": 1,
                        "velocity": 57
                    }
                ],
                [
                    312,
                    {
                        "note": 38,
                        "state": 1,
                        "velocity": 102
                    }
                ],
                [
                    312,
                    {
                        "note": 45,
                        "state": 0,
                        "velocity": 0
                    }
                ],
                [
                    318,
                    {
                        "note": 42,
                        "state": 0,
                        "velocity": 0
                    }
                ],
                [
                    324,
                    {
                        "note": 42,
                        "state": 1,
                        "velocity": 51
                    }
                ],
                [
                    324,
                    {
                        "note": 41,
                        "state": 1,
                        "velocity": 50
                    }
                ],
                [
                    325,
                    {
                        "note": 38,
                        "state": 0,
                        "velocity": 0
                    }
                ],
                [
                    330,
                    {
                        "note": 42,
                        "state": 0,
                        "velocity": 0
                    }
                ],
                [
                    330,
                    {
                        "note": 41,
                        "state": 0,
                        "velocity": 0
                    }
                ],
                [
                    336,
                    {
                        "note": 42,
                        "state": 1,
                        "velocity": 43
                    }
                ],
                [
                    336,
                    {
                        "note": 36,
                        "state": 1,
                        "velocity": 107
                    }
                ],
                [
                    342,
                    {
                        "note": 42,
                        "state": 0,
                        "velocity": 0
                    }
                ],
                [
                    342,
                    {
                        "note": 36,
                        "state": 0,
                        "velocity": 0
                    }
                ],
                [
                    348,
                    {
                        "note": 42,
                        "state": 1,
                        "velocity": 57
                    }
                ],
                [
                    348,
                    {
                        "note": 38,
                        "state": 1,
                        "velocity": 98
                    }
                ],
                [
                    348,
                    {
                        "note": 38,
                        "state": 0,
                        "velocity": 0
                    }
                ],
                [
                    354,
                    {
                        "note": 42,
                        "state": 0,
                        "velocity": 0
                    }
                ],
                [
                    360,
                    {
                        "note": 38,
                        "state": 1,
                        "velocity": 95
                    }
                ],
                [
                    372,
                    {
                        "note": 42,
                        "state": 1,
                        "velocity": 42
                    }
                ],
                [
                    373,
                    {
                        "note": 38,
                        "state": 0,
                        "velocity": 0
                    }
                ],
                [
                    378,
                    {
                        "note": 42,
                        "state": 0,
                        "velocity": 0
                    }
                ]
            ]
        },
        {
            "length_beats": 16,
            "events": [
                [
                    0,
                    {
                        "note": 42,
                        "state": 1,
                        "velocity": 89
                    }
                ],
                [
                    0,
                    {
                        "note": 36,
                        "state": 1,
                        "velocity": 84
                    }
                ],
                [
                    2,
                    {
                        "note": 42,
                        "state": 0,
                        "velocity": 0
                    }
                ],
                [
                    4,
                    {
                        "note": 36,
                        "state": 0,
                        "velocity": 0
                    }
                ],
                [
                    12,
                    {
                        "note": 42,
                        "state": 1,
                        "velocity": 75
                    }
                ],
                [
                    14,
                    {
                        "note": 42,
                        "state": 0,
                        "velocity": 0
                    }
                ],
                [
                    24,
                    {
                        "note": 42,
                        "state": 1,
                        "velocity": 77
                    }
                ],
                [
                    24,
                    {
                        "note": 40,
                        "state": 1,
                        "velocity": 71
                    }
                ],
                [
                    27,
                    {
                        "note": 42,
                        "state": 0,
                        "velocity": 0
                    }
                ],
                [
                    28,
                    {
                        "note": 40,
                        "state": 0,
                        "velocity": 0
                    }
                ],
                [
                    36,
                    {
                        "note": 42,
                        "state": 1,
                        "velocity": 77
                    }
                ],
                [
                    38,
                    {
                        "note": 42,
                        "state": 0,
                        "velocity": 0
                    }
                ],
                [
                    42,
                    {
                        "note": 36,
                        "state": 1,
                        "velocity": 45
                    }
                ],
                [
                    47,
                    {
                        "note": 36,
                        "state": 0,
                        "velocity": 0
                    }
                ],
                [
                    48,
                    {
                        "note": 42,
                        "state": 1,
                        "velocity": 96
                    }
                ],
                [
                    50,
                    {
                        "note": 42,
                        "state": 0,
                        "velocity": 0
                    }
                ],
                [
                    60,
                    {
                        "note": 42,
                        "state": 1,
                        "velocity": 96
                    }
                ],
                [
                    60,
                    {
                        "note": 36,
                        "state": 1,
                        "velocity": 116
                    }
                ],
                [
                    63,
                    {
                        "note": 42,
                        "state": 0,
                        "velocity": 0
                    }
                ],
                [
                    64,
                    {
                        "note": 36,
                        "state": 0,
                        "velocity": 0
                    }
                ],
                [
                    72,
                    {
                        "note": 42,
                        "state": 1,
                        "velocity": 64
                    }
                ],
                [
                    74,
                    {
                        "note": 42,
                        "state": 0,
                        "velocity": 0
                    }
                ],
                [
                    84,
                    {
                        "note": 42,
                        "state": 1,
                        "velocity": 71
                    }
                ],
                [
                    84,
                    {
                        "note": 40,
                        "state": 1,
                        "velocity": 81
                    }
                ],
                [
                    87,
                    {
                        "note": 42,
                        "state": 0,
                        "velocity": 0
                    }
                ],
                [
                    88,
                    {
                        "note": 40,
                        "state": 0,
                        "velocity": 0
                    }
                ],
                [
                    96,
                    {
                        "note": 42,
                        "state": 1,
                        "velocity": 89
                    }
                ],
                [
                    98,
                    {
                        "note": 42,
                        "state": 0,
                        "velocity": 0
                    }
                ],
                [
                    102,
                    {
                        "note": 36,
                        "state": 1,
                        "velocity": 83
                    }
                ],
                [
                    106,
                    {
                        "note": 36,
                        "state": 0,
                        "velocity": 0
                    }
                ],
                [
                    108,
                    {
                        "note": 42,
                        "state": 1,
                        "velocity": 89
                    }
                ],
                [
                    110,
                    {
                        "note": 42,
                        "state": 0,
                        "velocity": 0
                    }
                ],
                [
                    120,
                    {
                        "note": 42,
                        "state": 1,
                        "velocity": 81
                    }
                ],
                [
                    120,
                    {
                        "note": 40,
                        "state": 1,
                        "velocity": 92
                    }
                ],
                [
                    123,
                    {
                        "note": 42,
                        "state": 0,
                        "velocity": 0
                    }
                ],
                [
                    124,
                    {
                        "note": 40,
                        "state": 0,
                        "velocity": 0
                    }
                ],
                [
                    132,
                    {
                        "note": 42,
                        "state": 1,
                        "velocity": 74
                    }
                ],
                [
                    135,
                    {
                        "note": 42,
                        "state": 0,
                        "velocity": 0
                    }
                ],
                [
                    138,
                    {
                        "note": 36,
                        "state": 1,
                        "velocity": 48
                    }
                ],
                [
                    142,
                    {
                        "note": 36,
                        "state": 0,
                        "velocity": 0
                    }
                ],
                [
                    144,
                    {
                        "note": 42,
                        "state": 1,
                        "velocity": 86
                    }
                ],
                [
                    146,
                    {
                        "note": 42,
                        "state": 0,
                        "velocity": 0
                    }
                ],
                [
                    156,
                    {
                        "note": 42,
                        "state": 1,
                        "velocity": 70
                    }
                ],
                [
                    156,
                    {
                        "note": 36,
                        "state": 1,
                        "velocity": 70
                    }
                ],
                [
                    159,
                    {
                        "note": 42,
                        "state": 0,
                        "velocity": 0
                    }
                ],
                [
                    160,
                    {
                        "note": 36,
                        "state": 0,
                        "velocity": 0
                    }
                ],
                [
                    168,
                    {
                        "note": 42,
                        "state": 1,
                        "velocity": 76
                    }
                ],
                [
                    168,
                    {
                        "note": 40,
                        "state": 1,
                        "velocity": 126
                    }
                ],
                [
                    170,
                    {
                        "note": 42,
                        "state": 0,
                        "velocity": 0
                    }
                ],
                [
                    172,
                    {
                        "note": 40,
                        "state": 0,
                        "velocity": 0
                    }
                ],
                [
                    180,
                    {
                        "note": 44,
                        "state": 1,
                        "velocity": 107
                    }
                ],
                [
                    180,
                    {
                        "note": 42,
                        "state": 1,
                        "velocity": 91
                    }
                ],
                [
                    180,
                    {
                        "note": 44,
                        "state": 0,
                        "velocity": 0
                    }
                ],
                [
                    182,
                    {
                        "note": 42,
                        "state": 0,
                        "velocity": 0
                    }
                ],
                [
                    192,
                    {
                        "note": 42,
                        "state": 1,
                        "velocity": 89
                    }
                ],
                [
                    192,
                    {
                        "note": 36,
                        "state": 1,
                        "velocity": 84
                    }
                ],
                [
                    194,
                    {
                        "note": 42,
                        "state": 0,
                        "velocity": 0
                    }
                ],
                [
                    196,
                    {
                        "note": 36,
                        "state": 0,
                        "velocity": 0
                    }
                ],
                [
                    204,
                    {
                        "note": 42,
                        "state": 1,
                        "velocity": 75
                    }
                ],
                [
                    206,
                    {
                        "note": 42,
                        "state": 0,
                        "velocity": 0
                    }
                ],
                [
                    216,
                    {
                        "note": 42,
                        "state": 1,
                        "velocity": 77
                    }
                ],
                [
                    216,
                    {
                        "note": 40,
                        "state": 1,
                        "velocity": 71
                    }
                ],
                [
                    219,
                    {
                        "note": 42,
                        "state": 0,
                        "velocity": 0
                    }
                ],
                [
                    220,
                    {
                        "note": 40,
                        "state": 0,
                        "velocity": 0
                    }
                ],
                [
                    228,
                    {
                        "note": 42,
                        "state": 1,
                        "velocity": 77
                    }
                ],
                [
                    230,
                    {
                        "note": 42,
                        "state": 0,
                        "velocity": 0
                    }
                ],
                [
                    234,
                    {
                        "note": 36,
                        "state": 1,
                        "velocity": 45
                    }
                ],
                [
                    239,
                    {
                        "note": 36,
                        "state": 0,
                        "velocity": 0
                    }
                ],
                [
                    240,
                    {
                        "note": 42,
                        "state": 1,
                        "velocity": 96
                    }
                ],
                [
                    242,
                    {
                        "note": 42,
                        "state": 0,
                        "velocity": 0
                    }
                ],
                [
                    252,
                    {
                        "note": 42,
                        "state": 1,
                        "velocity": 96
                    }
                ],
                [
                    252,
                    {
                        "note": 36,
                        "state": 1,
                        "velocity": 116
                    }
                ],
                [
                    255,
                    {
                        "note": 42,
                        "state": 0,
                        "velocity": 0
                    }
                ],
                [
                    256,
                    {
                        "note": 36,
                        "state": 0,
                        "velocity": 0
                    }
                ],
                [
                    264,
                    {
                        "note": 42,
                        "state": 1,
                        "velocity": 64
                    }
                ],
                [
                    266,
                    {
                        "note": 42,
                        "state": 0,
                        "velocity": 0
                    }
                ],
                [
                    276,
                    {
                        "note": 42,
                        "state": 1,
                        "velocity": 71
                    }
                ],
                [
                    276,
                    {
                        "note": 40,
                        "state": 1,
                        "velocity": 81
                    }
                ],
                [
                    279,
                    {
                        "note": 42,
                        "state": 0,
                        "velocity": 0
                    }
                ],
                [
                    280,
                    {
                        "note": 40,
                        "state": 0,
                        "velocity": 0
                    }
                ],
                [
                    288,
                    {
                        "note": 42,
                        "state": 1,
                        "velocity": 89
                    }
                ],
                [
                    290,
                    {
                        "note": 42,
                        "state": 0,
                        "velocity": 0
                    }
                ],
                [
                    294,
                    {
                        "note": 36,
                        "state": 1,
                        "velocity": 83
                    }
                ],
                [
                    298,
                    {
                        "note": 36,
                        "state": 0,
                        "velocity": 0
                    }
                ],
                [
                    300,
                    {
                        "note": 42,
                        "state": 1,
                        "velocity": 89
                    }
                ],
                [
                    302,
                    {
                        "note": 42,
                        "state": 0,
                        "velocity": 0
                    }
                ],
                [
                    312,
                    {
                        "note": 42,
                        "state": 1,
                        "velocity": 81
                    }
                ],
                [
                    312,
                    {
                        "note": 40,
                        "state": 1,
                        "velocity": 92
                    }
                ],
                [
                    315,
                    {
                        "note": 42,
                        "state": 0,
                        "velocity": 0
                    }
                ],
                [
                    316,
                    {
                        "note": 40,
                        "state": 0,
                        "velocity": 0
                    }
                ],
                [
                    324,
                    {
                        "note": 42,
                        "state": 1,
                        "velocity": 74
                    }
                ],
                [
                    327,
                    {
                        "note": 42,
                        "state": 0,
                        "velocity": 0
                    }
                ],
                [
                    330,
                    {
                        "note": 36,
                        "state": 1,
                        "velocity": 48
                    }
                ],
                [
                    334,
                    {
                        "note": 36,
                        "state": 0,
                        "velocity": 0
                    }
                ],
                [
                    336,
                    {
                        "note": 42,
                        "state": 1,
                        "velocity": 86
                    }
                ],
                [
                    338,
                    {
                        "note": 42,
                        "state": 0,
                        "velocity": 0
                    }
                ],
                [
                    348,
                    {
                        "note": 42,
                        "state": 1,
                        "velocity": 70
                    }
                ],
                [
                    348,
                    {
                        "note": 36,
                        "state": 1,
                        "velocity": 70
                    }
                ],
                [
                    351,
                    {
                        "note": 42,
                        "state": 0,
                        "velocity": 0
                    }
                ],
                [
                    352,
                    {
                        "note": 36,
                        "state": 0,
                        "velocity": 0
                    }
                ],
                [
                    360,
                    {
                        "note": 42,
                        "state": 1,
                        "velocity": 76
                    }
                ],
                [
                    360,
                    {
                        "note": 40,
                        "state": 1,
                        "velocity": 126
                    }
                ],
                [
                    362,
                    {
                        "note": 42,
                        "state": 0,
                        "velocity": 0
                    }
                ],
                [
                    364,
                    {
                        "note": 40,
                        "state": 0,
                        "velocity": 0
                    }
                ],
                [
                    372,
                    {
                        "note": 44,
                        "state": 1,
                        "velocity": 107
                    }
                ],
                [
                    372,
                    {
                        "note": 42,
                        "state": 1,
                        "velocity": 91
                    }
                ],
                [
                    372,
                    {
                        "note": 44,
                        "state": 0,
                        "velocity": 0
                    }
                ],
                [
                    374,
                    {
                        "note": 42,
                        "state": 0,
                        "velocity": 0
                    }
                ]
            ]
        },
        {
            "length_beats": 16,
            "events": [
                [
                    0,
                    {
                        "note": 42,
                        "state": 1,
                        "velocity": 90
                    }
                ],
                [
                    0,
                    {
                        "note": 36,
                        "state": 1,
                        "velocity": 84
                    }
                ],
                [
                    2,
                    {
                        "note": 42,
                        "state": 0,
                        "velocity": 0
                    }
                ],
                [
                    4,
                    {
                        "note": 36,
                        "state": 0,
                        "velocity": 0
                    }
                ],
                [
                    12,
                    {
                        "note": 42,
                        "state": 1,
                        "velocity": 80
                    }
                ],
                [
                    14,
                    {
                        "note": 42,
                        "state": 0,
                        "velocity": 0
                    }
                ],
                [
                    24,
                    {
                        "note": 42,
                        "state": 1,
                        "velocity": 83
                    }
                ],
                [
                    24,
                    {
                        "note": 38,
                        "state": 1,
                        "velocity": 81
                    }
                ],
                [
                    27,
                    {
                        "note": 42,
                        "state": 0,
                        "velocity": 0
                    }
                ],
                [
                    28,
                    {
                        "note": 38,
                        "state": 0,
                        "velocity": 0
                    }
                ],
                [
                    36,
                    {
                        "note": 42,
                        "state": 1,
                        "velocity": 85
                    }
                ],
                [
                    38,
                    {
                        "note": 42,
                        "state": 0,
                        "velocity": 0
                    }
                ],
                [
                    42,
                    {
                        "note": 36,
                        "state": 1,
                        "velocity": 46
                    }
                ],
                [
                    47,
                    {
                        "note": 36,
                        "state": 0,
                        "velocity": 0
                    }
                ],
                [
                    48,
                    {
                        "note": 42,
                        "state": 1,
                        "velocity": 91
                    }
                ],
                [
                    50,
                    {
                        "note": 42,
                        "state": 0,
                        "velocity": 0
                    }
                ],
                [
                    60,
                    {
                        "note": 42,
                        "state": 1,
                        "velocity": 98
                    }
                ],
                [
                    60,
                    {
                        "note": 36,
                        "state": 1,
                        "velocity": 116
                    }
                ],
                [
                    63,
                    {
                        "note": 42,
                        "state": 0,
                        "velocity": 0
                    }
                ],
                [
                    64,
                    {
                        "note": 36,
                        "state": 0,
                        "velocity": 0
                    }
                ],
                [
                    72,
                    {
                        "note": 42,
                        "state": 1,
                        "velocity": 68
                    }
                ],
                [
                    74,
                    {
                        "note": 42,
                        "state": 0,
                        "velocity": 0
                    }
                ],
                [
                    84,
                    {
                        "note": 42,
                        "state": 1,
                        "velocity": 75
                    }
                ],
                [
                    84,
                    {
                        "note": 38,
                        "state": 1,
                        "velocity": 74
                    }
                ],
                [
                    87,
                    {
                        "note": 42,
                        "state": 0,
                        "velocity": 0
                    }
                ],
                [
                    88,
                    {
                        "note": 38,
                        "state": 0,
                        "velocity": 0
                    }
                ],
                [
                    96,
                    {
                        "note": 42,
                        "state": 1,
                        "velocity": 85
                    }
                ],
                [
                    98,
                    {
                        "note": 42,
                        "state": 0,
                        "velocity": 0
                    }
                ],
                [
                    102,
                    {
                        "note": 36,
                        "state": 1,
                        "velocity": 87
                    }
                ],
                [
                    106,
                    {
                        "note": 36,
                        "state": 0,
                        "velocity": 0
                    }
                ],
                [
                    108,
                    {
                        "note": 42,
                        "state": 1,
                        "velocity": 81
                    }
                ],
                [
                    110,
                    {
                        "note": 42,
                        "state": 0,
                        "velocity": 0
                    }
                ],
                [
                    120,
                    {
                        "note": 42,
                        "state": 1,
                        "velocity": 79
                    }
                ],
                [
                    120,
                    {
                        "note": 38,
                        "state": 1,
                        "velocity": 81
                    }
                ],
                [
                    123,
                    {
                        "note": 42,
                        "state": 0,
                        "velocity": 0
                    }
                ],
                [
                    124,
                    {
                        "note": 38,
                        "state": 0,
                        "velocity": 0
                    }
                ],
                [
                    132,
                    {
                        "note": 42,
                        "state": 1,
                        "velocity": 69
                    }
                ],
                [
                    135,
                    {
                        "note": 42,
                        "state": 0,
                        "velocity": 0
                    }
                ],
                [
                    138,
                    {
                        "note": 36,
                        "state": 1,
                        "velocity": 52
                    }
                ],
                [
                    142,
                    {
                        "note": 36,
                        "state": 0,
                        "velocity": 0
                    }
                ],
                [
                    144,
                    {
                        "note": 42,
                        "state": 1,
                        "velocity": 80
                    }
                ],
                [
                    146,
                    {
                        "note": 42,
                        "state": 0,
                        "velocity": 0
                    }
                ],
                [
                    156,
                    {
                        "note": 42,
                        "state": 1,
                        "velocity": 77
                    }
                ],
                [
                    156,
                    {
                        "note": 36,
                        "state": 1,
                        "velocity": 60
                    }
                ],
                [
                    159,
                    {
                        "note": 42,
                        "state": 0,
                        "velocity": 0
                    }
                ],
                [
                    160,
                    {
                        "note": 36,
                        "state": 0,
                        "velocity": 0
                    }
                ],
                [
                    168,
                    {
                        "note": 42,
                        "state": 1,
                        "velocity": 69
                    }
                ],
                [
                    168,
                    {
                        "note": 38,
                        "state": 1,
                        "velocity": 122
                    }
                ],
                [
                    170,
                    {
                        "note": 42,
                        "state": 0,
                        "velocity": 0
                    }
                ],
                [
                    172,
                    {
                        "note": 38,
                        "state": 0,
                        "velocity": 0
                    }
                ],
                [
                    180,
                    {
                        "note": 42,
                        "state": 1,
                        "velocity": 89
                    }
                ],
                [
                    182,
                    {
                        "note": 42,
                        "state": 0,
                        "velocity": 0
                    }
                ],
                [
                    192,
                    {
                        "note": 42,
                        "state": 1,
                        "velocity": 90
                    }
                ],
                [
                    192,
                    {
                        "note": 36,
                        "state": 1,
                        "velocity": 84
                    }
                ],
                [
                    194,
                    {
                        "note": 42,
                        "state": 0,
                        "velocity": 0
                    }
                ],
                [
                    196,
                    {
                        "note": 36,
                        "state": 0,
                        "velocity": 0
                    }
                ],
                [
                    204,
                    {
                        "note": 42,
                        "state": 1,
                        "velocity": 80
                    }
                ],
                [
                    206,
                    {
                        "note": 42,
                        "state": 0,
                        "velocity": 0
                    }
                ],
                [
                    216,
                    {
                        "note": 42,
                        "state": 1,
                        "velocity": 83
                    }
                ],
                [
                    216,
                    {
                        "note": 38,
                        "state": 1,
                        "velocity": 81
                    }
                ],
                [
                    219,
                    {
                        "note": 42,
                        "state": 0,
                        "velocity": 0
                    }
                ],
                [
                    220,
                    {
                        "note": 38,
                        "state": 0,
                        "velocity": 0
                    }
                ],
                [
                    228,
                    {
                        "note": 42,
                        "state": 1,
                        "velocity": 85
                    }
                ],
                [
                    230,
                    {
                        "note": 42,
                        "state": 0,
                        "velocity": 0
                    }
                ],
                [
                    234,
                    {
                        "note": 36,
                        "state": 1,
                        "velocity": 46
                    }
                ],
                [
                    239,
                    {
                        "note": 36,
                        "state": 0,
                        "velocity": 0
                    }
                ],
                [
                    240,
                    {
                        "note": 42,
                        "state": 1,
                        "velocity": 91
                    }
                ],
                [
                    242,
                    {
                        "note": 42,
                        "state": 0,
                        "velocity": 0
                    }
                ],
                [
                    252,
                    {
                        "note": 42,
                        "state": 1,
                        "velocity": 98
                    }
                ],
                [
                    252,
                    {
                        "note": 36,
                        "state": 1,
                        "velocity": 116
                    }
                ],
                [
                    255,
                    {
                        "note": 42,
                        "state": 0,
                        "velocity": 0
                    }
                ],
                [
                    256,
                    {
                        "note": 36,
                        "state": 0,
                        "velocity": 0
                    }
                ],
                [
                    264,
                    {
                        "note": 42,
                        "state": 1,
                        "velocity": 68
                    }
                ],
                [
                    266,
                    {
                        "note": 42,
                        "state": 0,
                        "velocity": 0
                    }
                ],
                [
                    276,
                    {
                        "note": 42,
                        "state": 1,
                        "velocity": 75
                    }
                ],
                [
                    276,
                    {
                        "note": 38,
                        "state": 1,
                        "velocity": 74
                    }
                ],
                [
                    279,
                    {
                        "note": 42,
                        "state": 0,
                        "velocity": 0
                    }
                ],
                [
                    280,
                    {
                        "note": 38,
                        "state": 0,
                        "velocity": 0
                    }
                ],
                [
                    288,
                    {
                        "note": 42,
                        "state": 1,
                        "velocity": 85
                    }
                ],
                [
                    290,
                    {
                        "note": 42,
                        "state": 0,
                        "velocity": 0
                    }
                ],
                [
                    294,
                    {
                        "note": 36,
                        "state": 1,
                        "velocity": 87
                    }
                ],
                [
                    298,
                    {
                        "note": 36,
                        "state": 0,
                        "velocity": 0
                    }
                ],
                [
                    300,
                    {
                        "note": 42,
                        "state": 1,
                        "velocity": 81
                    }
                ],
                [
                    302,
                    {
                        "note": 42,
                        "state": 0,
                        "velocity": 0
                    }
                ],
                [
                    312,
                    {
                        "note": 42,
                        "state": 1,
                        "velocity": 79
                    }
                ],
                [
                    312,
                    {
                        "note": 38,
                        "state": 1,
                        "velocity": 81
                    }
                ],
                [
                    315,
                    {
                        "note": 42,
                        "state": 0,
                        "velocity": 0
                    }
                ],
                [
                    316,
                    {
                        "note": 38,
                        "state": 0,
                        "velocity": 0
                    }
                ],
                [
                    324,
                    {
                        "note": 42,
                        "state": 1,
                        "velocity": 69
                    }
                ],
                [
                    327,
                    {
                        "note": 42,
                        "state": 0,
                        "velocity": 0
                    }
                ],
                [
                    330,
                    {
                        "note": 36,
                        "state": 1,
                        "velocity": 52
                    }
                ],
                [
                    334,
                    {
                        "note": 36,
                        "state": 0,
                        "velocity": 0
                    }
                ],
                [
                    336,
                    {
                        "note": 42,
                        "state": 1,
                        "velocity": 80
                    }
                ],
                [
                    338,
                    {
                        "note": 42,
                        "state": 0,
                        "velocity": 0
                    }
                ],
                [
                    348,
                    {
                        "note": 42,
                        "state": 1,
                        "velocity": 77
                    }
                ],
                [
                    348,
                    {
                        "note": 36,
                        "state": 1,
                        "velocity": 60
                    }
                ],
                [
                    351,
                    {
                        "note": 42,
                        "state": 0,
                        "velocity": 0
                    }
                ],
                [
                    352,
                    {
                        "note": 36,
                        "state": 0,
                        "velocity": 0
                    }
                ],
                [
                    360,
                    {
                        "note": 42,
                        "state": 1,
                        "velocity": 69
                    }
                ],
                [
                    360,
                    {
                        "note": 38,
                        "state": 1,
                        "velocity": 122
                    }
                ],
                [
                    362,
                    {
                        "note": 42,
                        "state": 0,
                        "velocity": 0
                    }
                ],
                [
                    364,
                    {
                        "note": 38,
                        "state": 0,
                        "velocity": 0
                    }
                ],
                [
                    372,
                    {
                        "note": 42,
                        "state": 1,
                        "velocity": 89
                    }
                ],
                [
                    374,
                    {
                        "note": 42,
                        "state": 0,
                        "velocity": 0
                    }
                ]
            ]
        },
        {
            "length_beats": 16,
            "events": [
                [
                    0,
                    {
                        "note": 51,
                        "state": 1,
                        "velocity": 36
                    }
                ],
                [
                    0,
                    {
                        "note": 36,
                        "state": 1,
                        "velocity": 103
                    }
                ],
                [
                    3,
                    {
                        "note": 51,
                        "state": 0,
                        "velocity": 100
                    }
                ],
                [
                    12,
                    {
                        "note": 36,
                        "state": 0,
                        "velocity": 100
                    }
                ],
                [
                    12,
                    {
                        "note": 51,
                        "state": 1,
                        "velocity": 34
                    }
                ],
                [
                    16,
                    {
                        "note": 51,
                        "state": 0,
                        "velocity": 100
                    }
                ],
                [
                    18,
                    {
                        "note": 36,
                        "state": 1,
                        "velocity": 101
                    }
                ],
                [
                    24,
                    {
                        "note": 51,
                        "state": 1,
                        "velocity": 36
                    }
                ],
                [
                    28,
                    {
                        "note": 51,
                        "state": 0,
                        "velocity": 100
                    }
                ],
                [
                    29,
                    {
                        "note": 36,
                        "state": 0,
                        "velocity": 100
                    }
                ],
                [
                    36,
                    {
                        "note": 51,
                        "state": 1,
                        "velocity": 30
                    }
                ],
                [
                    36,
                    {
                        "note": 36,
                        "state": 1,
                        "velocity": 102
                    }
                ],
                [
                    40,
                    {
                        "note": 51,
                        "state": 0,
                        "velocity": 100
                    }
                ],
                [
                    46,
                    {
                        "note": 36,
                        "state": 0,
                        "velocity": 100
                    }
                ],
                [
                    48,
                    {
                        "note": 51,
                        "state": 1,
                        "velocity": 34
                    }
                ],
                [
                    52,
                    {
                        "note": 51,
                        "state": 0,
                        "velocity": 100
                    }
                ],
                [
                    54,
                    {
                        "note": 36,
                        "state": 1,
                        "velocity": 99
                    }
                ],
                [
                    56,
                    {
                        "note": 36,
                        "state": 0,
                        "velocity": 100
                    }
                ],
                [
                    60,
                    {
                        "note": 51,
                        "state": 1,
                        "velocity": 30
                    }
                ],
                [
                    60,
                    {
                        "note": 36,
                        "state": 1,
                        "velocity": 96
                    }
                ],
                [
                    62,
                    {
                        "note": 51,
                        "state": 0,
                        "velocity": 100
                    }
                ],
                [
                    64,
                    {
                        "note": 36,
                        "state": 0,
                        "velocity": 100
                    }
                ],
                [
                    72,
                    {
                        "note": 51,
                        "state": 1,
                        "velocity": 39
                    }
                ],
                [
                    72,
                    {
                        "note": 36,
                        "state": 1,
                        "velocity": 106
                    }
                ],
                [
                    76,
                    {
                        "note": 51,
                        "state": 0,
                        "velocity": 100
                    }
                ],
                [
                    82,
                    {
                        "note": 36,
                        "state": 0,
                        "velocity": 100
                    }
                ],
                [
                    84,
                    {
                        "note": 51,
                        "state": 1,
                        "velocity": 40
                    }
                ],
                [
                    88,
                    {
                        "note": 51,
                        "state": 0,
                        "velocity": 100
                    }
                ],
                [
                    90,
                    {
                        "note": 36,
                        "state": 1,
                        "velocity": 99
                    }
                ],
                [
                    94,
                    {
                        "note": 36,
                        "state": 0,
                        "velocity": 100
                    }
                ],
                [
                    96,
                    {
                        "note": 51,
                        "state": 1,
                        "velocity": 32
                    }
                ],
                [
                    96,
                    {
                        "note": 36,
                        "state": 1,
                        "velocity": 104
                    }
                ],
                [
                    100,
                    {
                        "note": 51,
                        "state": 0,
                        "velocity": 100
                    }
                ],
                [
                    108,
                    {
                        "note": 51,
                        "state": 1,
                        "velocity": 31
                    }
                ],
                [
                    108,
                    {
                        "note": 36,
                        "state": 0,
                        "velocity": 100
                    }
                ],
                [
                    112,
                    {
                        "note": 51,
                        "state": 0,
                        "velocity": 100
                    }
                ],
                [
                    114,
                    {
                        "note": 36,
                        "state": 1,
                        "velocity": 92
                    }
                ],
                [
                    118,
                    {
                        "note": 36,
                        "state": 0,
                        "velocity": 100
                    }
                ],
                [
                    120,
                    {
                        "note": 51,
                        "state": 1,
                        "velocity": 31
                    }
                ],
                [
                    124,
                    {
                        "note": 51,
                        "state": 0,
                        "velocity": 100
                    }
                ],
                [
                    132,
                    {
                        "note": 51,
                        "state": 1,
                        "velocity": 36
                    }
                ],
                [
                    132,
                    {
                        "note": 36,
                        "state": 1,
                        "velocity": 100
                    }
                ],
                [
                    136,
                    {
                        "note": 51,
                        "state": 0,
                        "velocity": 100
                    }
                ],
                [
                    141,
                    {
                        "note": 36,
                        "state": 0,
                        "velocity": 100
                    }
                ],
                [
                    144,
                    {
                        "note": 51,
                        "state": 1,
                        "velocity": 33
                    }
                ],
                [
                    148,
                    {
                        "note": 51,
                        "state": 0,
                        "velocity": 100
                    }
                ],
                [
                    150,
                    {
                        "note": 36,
                        "state": 1,
                        "velocity": 98
                    }
                ],
                [
                    152,
                    {
                        "note": 36,
                        "state": 0,
                        "velocity": 100
                    }
                ],
                [
                    156,
                    {
                        "note": 51,
                        "state": 1,
                        "velocity": 34
                    }
                ],
                [
                    156,
                    {
                        "note": 36,
                        "state": 1,
                        "velocity": 93
                    }
                ],
                [
                    160,
                    {
                        "note": 51,
                        "state": 0,
                        "velocity": 100
                    }
                ],
                [
                    160,
                    {
                        "note": 36,
                        "state": 0,
                        "velocity": 100
                    }
                ],
                [
                    168,
                    {
                        "note": 51,
                        "state": 1,
                        "velocity": 38
                    }
                ],
                [
                    168,
                    {
                        "note": 36,
                        "state": 1,
                        "velocity": 104
                    }
                ],
                [
                    172,
                    {
                        "note": 51,
                        "state": 0,
                        "velocity": 100
                    }
                ],
                [
                    179,
                    {
                        "note": 36,
                        "state": 0,
                        "velocity": 100
                    }
                ],
                [
                    180,
                    {
                        "note": 51,
                        "state": 1,
                        "velocity": 36
                    }
                ],
                [
                    184,
                    {
                        "note": 51,
                        "state": 0,
                        "velocity": 100
                    }
                ],
                [
                    186,
                    {
                        "note": 36,
                        "state": 1,
                        "velocity": 105
                    }
                ],
                [
                    190,
                    {
                        "note": 36,
                        "state": 0,
                        "velocity": 100
                    }
                ],
                [
                    192,
                    {
                        "note": 51,
                        "state": 1,
                        "velocity": 38
                    }
                ],
                [
                    192,
                    {
                        "note": 36,
                        "state": 1,
                        "velocity": 100
                    }
                ],
                [
                    196,
                    {
                        "note": 51,
                        "state": 0,
                        "velocity": 100
                    }
                ],
                [
                    204,
                    {
                        "note": 36,
                        "state": 0,
                        "velocity": 100
                    }
                ],
                [
                    204,
                    {
                        "note": 51,
                        "state": 1,
                        "velocity": 36
                    }
                ],
                [
                    207,
                    {
                        "note": 51,
                        "state": 0,
                        "velocity": 100
                    }
                ],
                [
                    210,
                    {
                        "note": 36,
                        "state": 1,
                        "velocity": 101
                    }
                ],
                [
                    216,
                    {
                        "note": 51,
                        "state": 1,
                        "velocity": 32
                    }
                ],
                [
                    218,
                    {
                        "note": 36,
                        "state": 0,
                        "velocity": 100
                    }
                ],
                [
                    220,
                    {
                        "note": 51,
                        "state": 0,
                        "velocity": 100
                    }
                ],
                [
                    228,
                    {
                        "note": 51,
                        "state": 1,
                        "velocity": 31
                    }
                ],
                [
                    228,
                    {
                        "note": 36,
                        "state": 1,
                        "velocity": 100
                    }
                ],
                [
                    232,
                    {
                        "note": 51,
                        "state": 0,
                        "velocity": 100
                    }
                ],
                [
                    240,
                    {
                        "note": 51,
                        "state": 1,
                        "velocity": 28
                    }
                ],
                [
                    240,
                    {
                        "note": 36,
                        "state": 0,
                        "velocity": 100
                    }
                ],
                [
                    244,
                    {
                        "note": 51,
                        "state": 0,
                        "velocity": 100
                    }
                ],
                [
                    246,
                    {
                        "note": 36,
                        "state": 1,
                        "velocity": 100
                    }
                ],
                [
                    250,
                    {
                        "note": 36,
                        "state": 0,
                        "velocity": 100
                    }
                ],
                [
                    252,
                    {
                        "note": 51,
                        "state": 1,
                        "velocity": 37
                    }
                ],
                [
                    252,
                    {
                        "note": 36,
                        "state": 1,
                        "velocity": 95
                    }
                ],
                [
                    255,
                    {
                        "note": 51,
                        "state": 0,
                        "velocity": 100
                    }
                ],
                [
                    256,
                    {
                        "note": 36,
                        "state": 0,
                        "velocity": 100
                    }
                ],
                [
                    264,
                    {
                        "note": 51,
                        "state": 1,
                        "velocity": 34
                    }
                ],
                [
                    264,
                    {
                        "note": 36,
                        "state": 1,
                        "velocity": 94
                    }
                ],
                [
                    268,
                    {
                        "note": 51,
                        "state": 0,
                        "velocity": 100
                    }
                ],
                [
                    276,
                    {
                        "note": 36,
                        "state": 0,
                        "velocity": 100
                    }
                ],
                [
                    276,
                    {
                        "note": 51,
                        "state": 1,
                        "velocity": 35
                    }
                ],
                [
                    280,
                    {
                        "note": 51,
                        "state": 0,
                        "velocity": 100
                    }
                ],
                [
                    282,
                    {
                        "note": 36,
                        "state": 1,
                        "velocity": 99
                    }
                ],
                [
                    284,
                    {
                        "note": 36,
                        "state": 0,
                        "velocity": 100
                    }
                ],
                [
                    288,
                    {
                        "note": 51,
                        "state": 1,
                        "velocity": 40
                    }
                ],
                [
                    288,
                    {
                        "note": 36,
                        "state": 1,
                        "velocity": 101
                    }
                ],
                [
                    291,
                    {
                        "note": 51,
                        "state": 0,
                        "velocity": 100
                    }
                ],
                [
                    300,
                    {
                        "note": 36,
                        "state": 0,
                        "velocity": 100
                    }
                ],
                [
                    300,
                    {
                        "note": 51,
                        "state": 1,
                        "velocity": 36
                    }
                ],
                [
                    304,
                    {
                        "note": 51,
                        "state": 0,
                        "velocity": 100
                    }
                ],
                [
                    306,
                    {
                        "note": 36,
                        "state": 1,
                        "velocity": 101
                    }
                ],
                [
                    312,
                    {
                        "note": 51,
                        "state": 1,
                        "velocity": 36
                    }
                ],
                [
                    316,
                    {
                        "note": 51,
                        "state": 0,
                        "velocity": 100
                    }
                ],
                [
                    317,
                    {
                        "note": 36,
                        "state": 0,
                        "velocity": 100
                    }
                ],
                [
                    324,
                    {
                        "note": 51,
                        "state": 1,
                        "velocity": 35
                    }
                ],
                [
                    324,
                    {
                        "note": 36,
                        "state": 1,
                        "velocity": 105
                    }
                ],
                [
                    328,
                    {
                        "note": 51,
                        "state": 0,
                        "velocity": 100
                    }
                ],
                [
                    334,
                    {
                        "note": 36,
                        "state": 0,
                        "velocity": 100
                    }
                ],
                [
                    336,
                    {
                        "note": 51,
                        "state": 1,
                        "velocity": 30
                    }
                ],
                [
                    340,
                    {
                        "note": 51,
                        "state": 0,
                        "velocity": 100
                    }
                ],
                [
                    342,
                    {
                        "note": 36,
                        "state": 1,
                        "velocity": 98
                    }
                ],
                [
                    344,
                    {
                        "note": 36,
                        "state": 0,
                        "velocity": 100
                    }
                ],
                [
                    348,
                    {
                        "note": 51,
                        "state": 1,
                        "velocity": 34
                    }
                ],
                [
                    348,
                    {
                        "note": 36,
                        "state": 1,
                        "velocity": 102
                    }
                ],
                [
                    350,
                    {
                        "note": 51,
                        "state": 0,
                        "velocity": 100
                    }
                ],
                [
                    352,
                    {
                        "note": 36,
                        "state": 0,
                        "velocity": 100
                    }
                ],
                [
                    360,
                    {
                        "note": 51,
                        "state": 1,
                        "velocity": 39
                    }
                ],
                [
                    360,
                    {
                        "note": 36,
                        "state": 1,
                        "velocity": 95
                    }
                ],
                [
                    364,
                    {
                        "note": 51,
                        "state": 0,
                        "velocity": 100
                    }
                ],
                [
                    370,
                    {
                        "note": 36,
                        "state": 0,
                        "velocity": 100
                    }
                ],
                [
                    372,
                    {
                        "note": 51,
                        "state": 1,
                        "velocity": 30
                    }
                ],
                [
                    376,
                    {
                        "note": 51,
                        "state": 0,
                        "velocity": 100
                    }
                ],
                [
                    378,
                    {
                        "note": 36,
                        "state": 1,
                        "velocity": 98
                    }
                ],
                [
                    382,
                    {
                        "note": 36,
                        "state": 0,
                        "velocity": 100
                    }
                ]
            ]
        },
        {
            "length_beats": 16,
            "events": [
                [
                    0,
                    {
                        "note": 42,
                        "state": 1,
                        "velocity": 67
                    }
                ],
                [
                    0,
                    {
                        "note": 36,
                        "state": 1,
                        "velocity": 97
                    }
                ],
                [
                    4,
                    {
                        "note": 42,
                        "state": 0,
                        "velocity": 0
                    }
                ],
                [
                    6,
                    {
                        "note": 44,
                        "state": 1,
                        "velocity": 96
                    }
                ],
                [
                    10,
                    {
                        "note": 44,
                        "state": 0,
                        "velocity": 0
                    }
                ],
                [
                    12,
                    {
                        "note": 36,
                        "state": 0,
                        "velocity": 100
                    }
                ],
                [
                    12,
                    {
                        "note": 42,
                        "state": 1,
                        "velocity": 72
                    }
                ],
                [
                    15,
                    {
                        "note": 42,
                        "state": 0,
                        "velocity": 0
                    }
                ],
                [
                    18,
                    {
                        "note": 44,
                        "state": 1,
                        "velocity": 83
                    }
                ],
                [
                    18,
                    {
                        "note": 36,
                        "state": 1,
                        "velocity": 94
                    }
                ],
                [
                    21,
                    {
                        "note": 44,
                        "state": 0,
                        "velocity": 0
                    }
                ],
                [
                    24,
                    {
                        "note": 46,
                        "state": 1,
                        "velocity": 74
                    }
                ],
                [
                    28,
                    {
                        "note": 46,
                        "state": 0,
                        "velocity": 0
                    }
                ],
                [
                    29,
                    {
                        "note": 36,
                        "state": 0,
                        "velocity": 100
                    }
                ],
                [
                    30,
                    {
                        "note": 44,
                        "state": 1,
                        "velocity": 79
                    }
                ],
                [
                    34,
                    {
                        "note": 44,
                        "state": 0,
                        "velocity": 0
                    }
                ],
                [
                    36,
                    {
                        "note": 42,
                        "state": 1,
                        "velocity": 72
                    }
                ],
                [
                    36,
                    {
                        "note": 36,
                        "state": 1,
                        "velocity": 107
                    }
                ],
                [
                    39,
                    {
                        "note": 42,
                        "state": 0,
                        "velocity": 0
                    }
                ],
                [
                    42,
                    {
                        "note": 44,
                        "state": 1,
                        "velocity": 76
                    }
                ],
                [
                    46,
                    {
                        "note": 36,
                        "state": 0,
                        "velocity": 100
                    }
                ],
                [
                    46,
                    {
                        "note": 44,
                        "state": 0,
                        "velocity": 0
                    }
                ],
                [
                    48,
                    {
                        "note": 42,
                        "state": 1,
                        "velocity": 70
                    }
                ],
                [
                    52,
                    {
                        "note": 42,
                        "state": 0,
                        "velocity": 0
                    }
                ],
                [
                    54,
                    {
                        "note": 44,
                        "state": 1,
                        "velocity": 92
                    }
                ],
                [
                    54,
                    {
                        "note": 36,
                        "state": 1,
                        "velocity": 92
                    }
                ],
                [
                    56,
                    {
                        "note": 36,
                        "state": 0,
                        "velocity": 100
                    }
                ],
                [
                    58,
                    {
                        "note": 44,
                        "state": 0,
                        "velocity": 0
                    }
                ],
                [
                    60,
                    {
                        "note": 42,
                        "state": 1,
                        "velocity": 57
                    }
                ],
                [
                    60,
                    {
                        "note": 36,
                        "state": 1,
                        "velocity": 94
                    }
                ],
                [
                    63,
                    {
                        "note": 42,
                        "state": 0,
                        "velocity": 0
                    }
                ],
                [
                    64,
                    {
                        "note": 36,
                        "state": 0,
                        "velocity": 100
                    }
                ],
                [
                    66,
                    {
                        "note": 44,
                        "state": 1,
                        "velocity": 77
                    }
                ],
                [
                    70,
                    {
                        "note": 44,
                        "state": 0,
                        "velocity": 0
                    }
                ],
                [
                    72,
                    {
                        "note": 46,
                        "state": 1,
                        "velocity": 60
                    }
                ],
                [
                    72,
                    {
                        "note": 36,
                        "state": 1,
                        "velocity": 100
                    }
                ],
                [
                    76,
                    {
                        "note": 46,
                        "state": 0,
                        "velocity": 0
                    }
                ],
                [
                    78,
                    {
                        "note": 44,
                        "state": 1,
                        "velocity": 86
                    }
                ],
                [
                    82,
                    {
                        "note": 36,
                        "state": 0,
                        "velocity": 100
                    }
                ],
                [
                    83,
                    {
                        "note": 44,
                        "state": 0,
                        "velocity": 0
                    }
                ],
                [
                    84,
                    {
                        "note": 42,
                        "state": 1,
                        "velocity": 70
                    }
                ],
                [
                    88,
                    {
                        "note": 42,
                        "state": 0,
                        "velocity": 0
                    }
                ],
                [
                    90,
                    {
                        "note": 44,
                        "state": 1,
                        "velocity": 87
                    }
                ],
                [
                    90,
                    {
                        "note": 36,
                        "state": 1,
                        "velocity": 97
                    }
                ],
                [
                    94,
                    {
                        "note": 36,
                        "state": 0,
                        "velocity": 100
                    }
                ],
                [
                    94,
                    {
                        "note": 44,
                        "state": 0,
                        "velocity": 0
                    }
                ],
                [
                    96,
                    {
                        "note": 42,
                        "state": 1,
                        "velocity": 72
                    }
                ],
                [
                    96,
                    {
                        "note": 36,
                        "state": 1,
                        "velocity": 100
                    }
                ],
                [
                    100,
                    {
                        "note": 42,
                        "state": 0,
                        "velocity": 0
                    }
                ],
                [
                    102,
                    {
                        "note": 44,
                        "state": 1,
                        "velocity": 77
                    }
                ],
                [
                    106,
                    {
                        "note": 44,
                        "state": 0,
                        "velocity": 0
                    }
                ],
                [
                    108,
                    {
                        "note": 42,
                        "state": 1,
                        "velocity": 75
                    }
                ],
                [
                    108,
                    {
                        "note": 36,
                        "state": 0,
                        "velocity": 100
                    }
                ],
                [
                    112,
                    {
                        "note": 42,
                        "state": 0,
                        "velocity": 0
                    }
                ],
                [
                    114,
                    {
                        "note": 44,
                        "state": 1,
                        "velocity": 87
                    }
                ],
                [
                    114,
                    {
                        "note": 36,
                        "state": 1,
                        "velocity": 106
                    }
                ],
                [
                    118,
                    {
                        "note": 36,
                        "state": 0,
                        "velocity": 100
                    }
                ],
                [
                    119,
                    {
                        "note": 44,
                        "state": 0,
                        "velocity": 0
                    }
                ],
                [
                    120,
                    {
                        "note": 46,
                        "state": 1,
                        "velocity": 94
                    }
                ],
                [
                    124,
                    {
                        "note": 46,
                        "state": 0,
                        "velocity": 0
                    }
                ],
                [
                    126,
                    {
                        "note": 44,
                        "state": 1,
                        "velocity": 79
                    }
                ],
                [
                    130,
                    {
                        "note": 44,
                        "state": 0,
                        "velocity": 0
                    }
                ],
                [
                    132,
                    {
                        "note": 42,
                        "state": 1,
                        "velocity": 76
                    }
                ],
                [
                    132,
                    {
                        "note": 36,
                        "state": 1,
                        "velocity": 97
                    }
                ],
                [
                    135,
                    {
                        "note": 42,
                        "state": 0,
                        "velocity": 0
                    }
                ],
                [
                    138,
                    {
                        "note": 44,
                        "state": 1,
                        "velocity": 85
                    }
                ],
                [
                    141,
                    {
                        "note": 36,
                        "state": 0,
                        "velocity": 100
                    }
                ],
                [
                    142,
                    {
                        "note": 44,
                        "state": 0,
                        "velocity": 0
                    }
                ],
                [
                    144,
                    {
                        "note": 42,
                        "state": 1,
                        "velocity": 67
                    }
                ],
                [
                    148,
                    {
                        "note": 42,
                        "state": 0,
                        "velocity": 0
                    }
                ],
                [
                    150,
                    {
                        "note": 44,
                        "state": 1,
                        "velocity": 80
                    }
                ],
                [
                    150,
                    {
                        "note": 36,
                        "state": 1,
                        "velocity": 105
                    }
                ],
                [
                    152,
                    {
                        "note": 36,
                        "state": 0,
                        "velocity": 100
                    }
                ],
                [
                    154,
                    {
                        "note": 44,
                        "state": 0,
                        "velocity": 0
                    }
                ],
                [
                    156,
                    {
                        "note": 42,
                        "state": 1,
                        "velocity": 57
                    }
                ],
                [
                    156,
                    {
                        "note": 36,
                        "state": 1,
                        "velocity": 107
                    }
                ],
                [
                    159,
                    {
                        "note": 42,
                        "state": 0,
                        "velocity": 0
                    }
                ],
                [
                    160,
                    {
                        "note": 36,
                        "state": 0,
                        "velocity": 100
                    }
                ],
                [
                    162,
                    {
                        "note": 44,
                        "state": 1,
                        "velocity": 97
                    }
                ],
                [
                    166,
                    {
                        "note": 44,
                        "state": 0,
                        "velocity": 0
                    }
                ],
                [
                    168,
                    {
                        "note": 46,
                        "state": 1,
                        "velocity": 89
                    }
                ],
                [
                    168,
                    {
                        "note": 36,
                        "state": 1,
                        "velocity": 92
                    }
                ],
                [
                    171,
                    {
                        "note": 46,
                        "state": 0,
                        "velocity": 0
                    }
                ],
                [
                    174,
                    {
                        "note": 44,
                        "state": 1,
                        "velocity": 92
                    }
                ],
                [
                    178,
                    {
                        "note": 44,
                        "state": 0,
                        "velocity": 0
                    }
                ],
                [
                    179,
                    {
                        "note": 36,
                        "state": 0,
                        "velocity": 100
                    }
                ],
                [
                    180,
                    {
                        "note": 42,
                        "state": 1,
                        "velocity": 89
                    }
                ],
                [
                    182,
                    {
                        "note": 42,
                        "state": 0,
                        "velocity": 0
                    }
                ],
                [
                    186,
                    {
                        "note": 46,
                        "state": 1,
                        "velocity": 72
                    }
                ],
                [
                    186,
                    {
                        "note": 36,
                        "state": 1,
                        "velocity": 97
                    }
                ],
                [
                    189,
                    {
                        "note": 46,
                        "state": 0,
                        "velocity": 0
                    }
                ],
                [
                    190,
                    {
                        "note": 36,
                        "state": 0,
                        "velocity": 100
                    }
                ],
                [
                    192,
                    {
                        "note": 42,
                        "state": 1,
                        "velocity": 65
                    }
                ],
                [
                    192,
                    {
                        "note": 36,
                        "state": 1,
                        "velocity": 98
                    }
                ],
                [
                    196,
                    {
                        "note": 42,
                        "state": 0,
                        "velocity": 0
                    }
                ],
                [
                    198,
                    {
                        "note": 44,
                        "state": 1,
                        "velocity": 95
                    }
                ],
                [
                    202,
                    {
                        "note": 44,
                        "state": 0,
                        "velocity": 0
                    }
                ],
                [
                    204,
                    {
                        "note": 36,
                        "state": 0,
                        "velocity": 100
                    }
                ],
                [
                    204,
                    {
                        "note": 42,
                        "state": 1,
                        "velocity": 75
                    }
                ],
                [
                    207,
                    {
                        "note": 42,
                        "state": 0,
                        "velocity": 0
                    }
                ],
                [
                    210,
                    {
                        "note": 44,
                        "state": 1,
                        "velocity": 82
                    }
                ],
                [
                    210,
                    {
                        "note": 36,
                        "state": 1,
                        "velocity": 100
                    }
                ],
                [
                    213,
                    {
                        "note": 44,
                        "state": 0,
                        "velocity": 0
                    }
                ],
                [
                    216,
                    {
                        "note": 46,
                        "state": 1,
                        "velocity": 62
                    }
                ],
                [
                    218,
                    {
                        "note": 36,
                        "state": 0,
                        "velocity": 100
                    }
                ],
                [
                    220,
                    {
                        "note": 46,
                        "state": 0,
                        "velocity": 0
                    }
                ],
                [
                    222,
                    {
                        "note": 44,
                        "state": 1,
                        "velocity": 78
                    }
                ],
                [
                    226,
                    {
                        "note": 44,
                        "state": 0,
                        "velocity": 0
                    }
                ],
                [
                    228,
                    {
                        "note": 42,
                        "state": 1,
                        "velocity": 58
                    }
                ],
                [
                    228,
                    {
                        "note": 36,
                        "state": 1,
                        "velocity": 95
                    }
                ],
                [
                    231,
                    {
                        "note": 42,
                        "state": 0,
                        "velocity": 0
                    }
                ],
                [
                    234,
                    {
                        "note": 44,
                        "state": 1,
                        "velocity": 88
                    }
                ],
                [
                    238,
                    {
                        "note": 44,
                        "state": 0,
                        "velocity": 0
                    }
                ],
                [
                    240,
                    {
                        "note": 42,
                        "state": 1,
                        "velocity": 67
                    }
                ],
                [
                    240,
                    {
                        "note": 36,
                        "state": 0,
                        "velocity": 100
                    }
                ],
                [
                    244,
                    {
                        "note": 42,
                        "state": 0,
                        "velocity": 0
                    }
                ],
                [
                    246,
                    {
                        "note": 44,
                        "state": 1,
                        "velocity": 82
                    }
                ],
                [
                    246,
                    {
                        "note": 36,
                        "state": 1,
                        "velocity": 93
                    }
                ],
                [
                    250,
                    {
                        "note": 44,
                        "state": 0,
                        "velocity": 0
                    }
                ],
                [
                    250,
                    {
                        "note": 36,
                        "state": 0,
                        "velocity": 100
                    }
                ],
                [
                    252,
                    {
                        "note": 42,
                        "state": 1,
                        "velocity": 55
                    }
                ],
                [
                    252,
                    {
                        "note": 36,
                        "state": 1,
                        "velocity": 100
                    }
                ],
                [
                    255,
                    {
                        "note": 42,
                        "state": 0,
                        "velocity": 0
                    }
                ],
                [
                    256,
                    {
                        "note": 36,
                        "state": 0,
                        "velocity": 100
                    }
                ],
                [
                    258,
                    {
                        "note": 44,
                        "state": 1,
                        "velocity": 77
                    }
                ],
                [
                    262,
                    {
                        "note": 44,
                        "state": 0,
                        "velocity": 0
                    }
                ],
                [
                    264,
                    {
                        "note": 46,
                        "state": 1,
                        "velocity": 60
                    }
                ],
                [
                    264,
                    {
                        "note": 36,
                        "state": 1,
                        "velocity": 96
                    }
                ],
                [
                    268,
                    {
                        "note": 46,
                        "state": 0,
                        "velocity": 0
                    }
                ],
                [
                    270,
                    {
                        "note": 44,
                        "state": 1,
                        "velocity": 91
                    }
                ],
                [
                    275,
                    {
                        "note": 44,
                        "state": 0,
                        "velocity": 0
                    }
                ],
                [
                    276,
                    {
                        "note": 36,
                        "state": 0,
                        "velocity": 100
                    }
                ],
                [
                    276,
                    {
                        "note": 42,
                        "state": 1,
                        "velocity": 55
                    }
                ],
                [
                    280,
                    {
                        "note": 42,
                        "state": 0,
                        "velocity": 0
                    }
                ],
                [
                    282,
                    {
                        "note": 44,
                        "state": 1,
                        "velocity": 78
                    }
                ],
                [
                    282,
                    {
                        "note": 36,
                        "state": 1,
                        "velocity": 94
                    }
                ],
                [
                    284,
                    {
                        "note": 36,
                        "state": 0,
                        "velocity": 100
                    }
                ],
                [
                    286,
                    {
                        "note": 44,
                        "state": 0,
                        "velocity": 0
                    }
                ],
                [
                    288,
                    {
                        "note": 42,
                        "state": 1,
                        "velocity": 70
                    }
                ],
                [
                    288,
                    {
                        "note": 36,
                        "state": 1,
                        "velocity": 101
                    }
                ],
                [
                    292,
                    {
                        "note": 42,
                        "state": 0,
                        "velocity": 0
                    }
                ],
                [
                    294,
                    {
                        "note": 44,
                        "state": 1,
                        "velocity": 83
                    }
                ],
                [
                    298,
                    {
                        "note": 44,
                        "state": 0,
                        "velocity": 0
                    }
                ],
                [
                    300,
                    {
                        "note": 36,
                        "state": 0,
                        "velocity": 100
                    }
                ],
                [
                    300,
                    {
                        "note": 42,
                        "state": 1,
                        "velocity": 75
                    }
                ],
                [
                    304,
                    {
                        "note": 42,
                        "state": 0,
                        "velocity": 0
                    }
                ],
                [
                    306,
                    {
                        "note": 44,
                        "state": 1,
                        "velocity": 94
                    }
                ],
                [
                    306,
                    {
                        "note": 36,
                        "state": 1,
                        "velocity": 93
                    }
                ],
                [
                    311,
                    {
                        "note": 44,
                        "state": 0,
                        "velocity": 0
                    }
                ],
                [
                    312,
                    {
                        "note": 46,
                        "state": 1,
                        "velocity": 89
                    }
                ],
                [
                    316,
                    {
                        "note": 46,
                        "state": 0,
                        "velocity": 0
                    }
                ],
                [
                    317,
                    {
                        "note": 36,
                        "state": 0,
                        "velocity": 100
                    }
                ],
                [
                    318,
                    {
                        "note": 44,
                        "state": 1,
                        "velocity": 82
                    }
                ],
                [
                    322,
                    {
                        "note": 44,
                        "state": 0,
                        "velocity": 0
                    }
                ],
                [
                    324,
                    {
                        "note": 42,
                        "state": 1,
                        "velocity": 83
                    }
                ],
                [
                    324,
                    {
                        "note": 36,
                        "state": 1,
                        "velocity": 97
                    }
                ],
                [
                    327,
                    {
                        "note": 42,
                        "state": 0,
                        "velocity": 0
                    }
                ],
                [
                    330,
                    {
                        "note": 44,
                        "state": 1,
                        "velocity": 90
                    }
                ],
                [
                    334,
                    {
                        "note": 44,
                        "state": 0,
                        "velocity": 0
                    }
                ],
                [
                    334,
                    {
                        "note": 36,
                        "state": 0,
                        "velocity": 100
                    }
                ],
                [
                    336,
                    {
                        "note": 42,
                        "state": 1,
                        "velocity": 69
                    }
                ],
                [
                    340,
                    {
                        "note": 42,
                        "state": 0,
                        "velocity": 0
                    }
                ],
                [
                    342,
                    {
                        "note": 44,
                        "state": 1,
                        "velocity": 82
                    }
                ],
                [
                    342,
                    {
                        "note": 36,
                        "state": 1,
                        "velocity": 98
                    }
                ],
                [
                    344,
                    {
                        "note": 36,
                        "state": 0,
                        "velocity": 100
                    }
                ],
                [
                    346,
                    {
                        "note": 44,
                        "state": 0,
                        "velocity": 0
                    }
                ],
                [
                    348,
                    {
                        "note": 42,
                        "state": 1,
                        "velocity": 60
                    }
                ],
                [
                    348,
                    {
                        "note": 36,
                        "state": 1,
                        "velocity": 102
                    }
                ],
                [
                    351,
                    {
                        "note": 42,
                        "state": 0,
                        "velocity": 0
                    }
                ],
                [
                    352,
                    {
                        "note": 36,
                        "state": 0,
                        "velocity": 100
                    }
                ],
                [
                    354,
                    {
                        "note": 44,
                        "state": 1,
                        "velocity": 87
                    }
                ],
                [
                    358,
                    {
                        "note": 44,
                        "state": 0,
                        "velocity": 0
                    }
                ],
                [
                    360,
                    {
                        "note": 46,
                        "state": 1,
                        "velocity": 91
                    }
                ],
                [
                    360,
                    {
                        "note": 36,
                        "state": 1,
                        "velocity": 105
                    }
                ],
                [
                    363,
                    {
                        "note": 46,
                        "state": 0,
                        "velocity": 0
                    }
                ],
                [
                    366,
                    {
                        "note": 44,
                        "state": 1,
                        "velocity": 94
                    }
                ],
                [
                    370,
                    {
                        "note": 36,
                        "state": 0,
                        "velocity": 100
                    }
                ],
                [
                    370,
                    {
                        "note": 44,
                        "state": 0,
                        "velocity": 0
                    }
                ],
                [
                    372,
                    {
                        "note": 42,
                        "state": 1,
                        "velocity": 86
                    }
                ],
                [
                    374,
                    {
                        "note": 42,
                        "state": 0,
                        "velocity": 0
                    }
                ],
                [
                    378,
                    {
                        "note": 46,
                        "state": 1,
                        "velocity": 69
                    }
                ],
                [
                    378,
                    {
                        "note": 36,
                        "state": 1,
                        "velocity": 105
                    }
                ],
                [
                    381,
                    {
                        "note": 46,
                        "state": 0,
                        "velocity": 0
                    }
                ],
                [
                    382,
                    {
                        "note": 36,
                        "state": 0,
                        "velocity": 100
                    }
                ]
            ]
        },
        {
            "length_beats": 16,
            "events": [
                [
                    0,
                    {
                        "note": 42,
                        "state": 1,
                        "velocity": 69
                    }
                ],
                [
                    0,
                    {
                        "note": 36,
                        "state": 1,
                        "velocity": 105
                    }
                ],
                [
                    4,
                    {
                        "note": 42,
                        "state": 0,
                        "velocity": 0
                    }
                ],
                [
                    6,
                    {
                        "note": 44,
                        "state": 1,
                        "velocity": 84
                    }
                ],
                [
                    10,
                    {
                        "note": 44,
                        "state": 0,
                        "velocity": 0
                    }
                ],
                [
                    12,
                    {
                        "note": 36,
                        "state": 0,
                        "velocity": 100
                    }
                ],
                [
                    12,
                    {
                        "note": 42,
                        "state": 1,
                        "velocity": 74
                    }
                ],
                [
                    15,
                    {
                        "note": 42,
                        "state": 0,
                        "velocity": 0
                    }
                ],
                [
                    18,
                    {
                        "note": 44,
                        "state": 1,
                        "velocity": 84
                    }
                ],
                [
                    18,
                    {
                        "note": 36,
                        "state": 1,
                        "velocity": 92
                    }
                ],
                [
                    21,
                    {
                        "note": 44,
                        "state": 0,
                        "velocity": 0
                    }
                ],
                [
                    24,
                    {
                        "note": 46,
                        "state": 1,
                        "velocity": 61
                    }
                ],
                [
                    24,
                    {
                        "note": 38,
                        "state": 1,
                        "velocity": 68
                    }
                ],
                [
                    26,
                    {
                        "note": 38,
                        "state": 0,
                        "velocity": 0
                    }
                ],
                [
                    28,
                    {
                        "note": 46,
                        "state": 0,
                        "velocity": 0
                    }
                ],
                [
                    29,
                    {
                        "note": 36,
                        "state": 0,
                        "velocity": 100
                    }
                ],
                [
                    30,
                    {
                        "note": 44,
                        "state": 1,
                        "velocity": 75
                    }
                ],
                [
                    30,
                    {
                        "note": 39,
                        "state": 1,
                        "velocity": 49
                    }
                ],
                [
                    33,
                    {
                        "note": 39,
                        "state": 0,
                        "velocity": 0
                    }
                ],
                [
                    34,
                    {
                        "note": 44,
                        "state": 0,
                        "velocity": 0
                    }
                ],
                [
                    36,
                    {
                        "note": 42,
                        "state": 1,
                        "velocity": 68
                    }
                ],
                [
                    36,
                    {
                        "note": 36,
                        "state": 1,
                        "velocity": 106
                    }
                ],
                [
                    39,
                    {
                        "note": 42,
                        "state": 0,
                        "velocity": 0
                    }
                ],
                [
                    42,
                    {
                        "note": 44,
                        "state": 1,
                        "velocity": 81
                    }
                ],
                [
                    46,
                    {
                        "note": 36,
                        "state": 0,
                        "velocity": 100
                    }
                ],
                [
                    46,
                    {
                        "note": 44,
                        "state": 0,
                        "velocity": 0
                    }
                ],
                [
                    48,
                    {
                        "note": 42,
                        "state": 1,
                        "velocity": 69
                    }
                ],
                [
                    52,
                    {
                        "note": 42,
                        "state": 0,
                        "velocity": 0
                    }
                ],
                [
                    54,
                    {
                        "note": 44,
                        "state": 1,
                        "velocity": 93
                    }
                ],
                [
                    54,
                    {
                        "note": 36,
                        "state": 1,
                        "velocity": 92
                    }
                ],
                [
                    56,
                    {
                        "note": 36,
                        "state": 0,
                        "velocity": 100
                    }
                ],
                [
                    58,
                    {
                        "note": 44,
                        "state": 0,
                        "velocity": 0
                    }
                ],
                [
                    60,
                    {
                        "note": 42,
                        "state": 1,
                        "velocity": 61
                    }
                ],
                [
                    60,
                    {
                        "note": 36,
                        "state": 1,
                        "velocity": 93
                    }
                ],
                [
                    63,
                    {
                        "note": 42,
                        "state": 0,
                        "velocity": 0
                    }
                ],
                [
                    64,
                    {
                        "note": 36,
                        "state": 0,
                        "velocity": 100
                    }
                ],
                [
                    66,
                    {
                        "note": 44,
                        "state": 1,
                        "velocity": 89
                    }
                ],
                [
                    70,
                    {
                        "note": 44,
                        "state": 0,
                        "velocity": 0
                    }
                ],
                [
                    72,
                    {
                        "note": 46,
                        "state": 1,
                        "velocity": 74
                    }
                ],
                [
                    72,
                    {
                        "note": 39,
                        "state": 1,
                        "velocity": 74
                    }
                ],
                [
                    72,
                    {
                        "note": 36,
                        "state": 1,
                        "velocity": 93
                    }
                ],
                [
                    74,
                    {
                        "note": 39,
                        "state": 0,
                        "velocity": 0
                    }
                ],
                [
                    76,
                    {
                        "note": 46,
                        "state": 0,
                        "velocity": 0
                    }
                ],
                [
                    78,
                    {
                        "note": 44,
                        "state": 1,
                        "velocity": 94
                    }
                ],
                [
                    78,
                    {
                        "note": 38,
                        "state": 1,
                        "velocity": 47
                    }
                ],
                [
                    80,
                    {
                        "note": 38,
                        "state": 0,
                        "velocity": 0
                    }
                ],
                [
                    82,
                    {
                        "note": 36,
                        "state": 0,
                        "velocity": 100
                    }
                ],
                [
                    83,
                    {
                        "note": 44,
                        "state": 0,
                        "velocity": 0
                    }
                ],
                [
                    84,
                    {
                        "note": 42,
                        "state": 1,
                        "velocity": 70
                    }
                ],
                [
                    88,
                    {
                        "note": 42,
                        "state": 0,
                        "velocity": 0
                    }
                ],
                [
                    90,
                    {
                        "note": 44,
                        "state": 1,
                        "velocity": 83
                    }
                ],
                [
                    90,
                    {
                        "note": 36,
                        "state": 1,
                        "velocity": 104
                    }
                ],
                [
                    94,
                    {
                        "note": 36,
                        "state": 0,
                        "velocity": 100
                    }
                ],
                [
                    94,
                    {
                        "note": 44,
                        "state": 0,
                        "velocity": 0
                    }
                ],
                [
                    96,
                    {
                        "note": 42,
                        "state": 1,
                        "velocity": 79
                    }
                ],
                [
                    96,
                    {
                        "note": 36,
                        "state": 1,
                        "velocity": 95
                    }
                ],
                [
                    100,
                    {
                        "note": 42,
                        "state": 0,
                        "velocity": 0
                    }
                ],
                [
                    102,
                    {
                        "note": 44,
                        "state": 1,
                        "velocity": 84
                    }
                ],
                [
                    106,
                    {
                        "note": 44,
                        "state": 0,
                        "velocity": 0
                    }
                ],
                [
                    108,
                    {
                        "note": 42,
                        "state": 1,
                        "velocity": 79
                    }
                ],
                [
                    108,
                    {
                        "note": 36,
                        "state": 0,
                        "velocity": 100
                    }
                ],
                [
                    112,
                    {
                        "note": 42,
                        "state": 0,
                        "velocity": 0
                    }
                ],
                [
                    114,
                    {
                        "note": 44,
                        "state": 1,
                        "velocity": 101
                    }
                ],
                [
                    114,
                    {
                        "note": 36,
                        "state": 1,
                        "velocity": 100
                    }
                ],
                [
                    118,
                    {
                        "note": 36,
                        "state": 0,
                        "velocity": 100
                    }
                ],
                [
                    119,
                    {
                        "note": 44,
                        "state": 0,
                        "velocity": 0
                    }
                ],
                [
                    120,
                    {
                        "note": 46,
                        "state": 1,
                        "velocity": 90
                    }
                ],
                [
                    120,
                    {
                        "note": 39,
                        "state": 1,
                        "velocity": 74
                    }
                ],
                [
                    122,
                    {
                        "note": 39,
                        "state": 0,
                        "velocity": 0
                    }
                ],
                [
                    124,
                    {
                        "note": 46,
                        "state": 0,
                        "velocity": 0
                    }
                ],
                [
                    126,
                    {
                        "note": 44,
                        "state": 1,
                        "velocity": 78
                    }
                ],
                [
                    126,
                    {
                        "note": 38,
                        "state": 1,
                        "velocity": 51
                    }
                ],
                [
                    128,
                    {
                        "note": 38,
                        "state": 0,
                        "velocity": 0
                    }
                ],
                [
                    130,
                    {
                        "note": 44,
                        "state": 0,
                        "velocity": 0
                    }
                ],
                [
                    132,
                    {
                        "note": 42,
                        "state": 1,
                        "velocity": 78
                    }
                ],
                [
                    132,
                    {
                        "note": 36,
                        "state": 1,
                        "velocity": 101
                    }
                ],
                [
                    135,
                    {
                        "note": 42,
                        "state": 0,
                        "velocity": 0
                    }
                ],
                [
                    138,
                    {
                        "note": 44,
                        "state": 1,
                        "velocity": 81
                    }
                ],
                [
                    141,
                    {
                        "note": 36,
                        "state": 0,
                        "velocity": 100
                    }
                ],
                [
                    142,
                    {
                        "note": 44,
                        "state": 0,
                        "velocity": 0
                    }
                ],
                [
                    144,
                    {
                        "note": 42,
                        "state": 1,
                        "velocity": 77
                    }
                ],
                [
                    148,
                    {
                        "note": 42,
                        "state": 0,
                        "velocity": 0
                    }
                ],
                [
                    150,
                    {
                        "note": 44,
                        "state": 1,
                        "velocity": 76
                    }
                ],
                [
                    150,
                    {
                        "note": 36,
                        "state": 1,
                        "velocity": 94
                    }
                ],
                [
                    152,
                    {
                        "note": 36,
                        "state": 0,
                        "velocity": 100
                    }
                ],
                [
                    154,
                    {
                        "note": 44,
                        "state": 0,
                        "velocity": 0
                    }
                ],
                [
                    156,
                    {
                        "note": 42,
                        "state": 1,
                        "velocity": 67
                    }
                ],
                [
                    156,
                    {
                        "note": 36,
                        "state": 1,
                        "velocity": 104
                    }
                ],
                [
                    159,
                    {
                        "note": 42,
                        "state": 0,
                        "velocity": 0
                    }
                ],
                [
                    160,
                    {
                        "note": 36,
                        "state": 0,
                        "velocity": 100
                    }
                ],
                [
                    162,
                    {
                        "note": 44,
                        "state": 1,
                        "velocity": 97
                    }
                ],
                [
                    166,
                    {
                        "note": 44,
                        "state": 0,
                        "velocity": 0
                    }
                ],
                [
                    168,
                    {
                        "note": 46,
                        "state": 1,
                        "velocity": 99
                    }
                ],
                [
                    168,
                    {
                        "note": 39,
                        "state": 1,
                        "velocity": 94
                    }
                ],
                [
                    168,
                    {
                        "note": 36,
                        "state": 1,
                        "velocity": 92
                    }
                ],
                [
                    170,
                    {
                        "note": 39,
                        "state": 0,
                        "velocity": 0
                    }
                ],
                [
                    171,
                    {
                        "note": 46,
                        "state": 0,
                        "velocity": 0
                    }
                ],
                [
                    174,
                    {
                        "note": 44,
                        "state": 1,
                        "velocity": 90
                    }
                ],
                [
                    178,
                    {
                        "note": 44,
                        "state": 0,
                        "velocity": 0
                    }
                ],
                [
                    179,
                    {
                        "note": 36,
                        "state": 0,
                        "velocity": 100
                    }
                ],
                [
                    180,
                    {
                        "note": 42,
                        "state": 1,
                        "velocity": 93
                    }
                ],
                [
                    182,
                    {
                        "note": 42,
                        "state": 0,
                        "velocity": 0
                    }
                ],
                [
                    186,
                    {
                        "note": 46,
                        "state": 1,
                        "velocity": 59
                    }
                ],
                [
                    186,
                    {
                        "note": 38,
                        "state": 1,
                        "velocity": 79
                    }
                ],
                [
                    186,
                    {
                        "note": 36,
                        "state": 1,
                        "velocity": 105
                    }
                ],
                [
                    188,
                    {
                        "note": 38,
                        "state": 0,
                        "velocity": 0
                    }
                ],
                [
                    189,
                    {
                        "note": 46,
                        "state": 0,
                        "velocity": 0
                    }
                ],
                [
                    190,
                    {
                        "note": 36,
                        "state": 0,
                        "velocity": 100
                    }
                ],
                [
                    192,
                    {
                        "note": 42,
                        "state": 1,
                        "velocity": 62
                    }
                ],
                [
                    192,
                    {
                        "note": 36,
                        "state": 1,
                        "velocity": 93
                    }
                ],
                [
                    196,
                    {
                        "note": 42,
                        "state": 0,
                        "velocity": 0
                    }
                ],
                [
                    198,
                    {
                        "note": 44,
                        "state": 1,
                        "velocity": 85
                    }
                ],
                [
                    202,
                    {
                        "note": 44,
                        "state": 0,
                        "velocity": 0
                    }
                ],
                [
                    204,
                    {
                        "note": 36,
                        "state": 0,
                        "velocity": 100
                    }
                ],
                [
                    204,
                    {
                        "note": 42,
                        "state": 1,
                        "velocity": 74
                    }
                ],
                [
                    207,
                    {
                        "note": 42,
                        "state": 0,
                        "velocity": 0
                    }
                ],
                [
                    210,
                    {
                        "note": 44,
                        "state": 1,
                        "velocity": 91
                    }
                ],
                [
                    210,
                    {
                        "note": 36,
                        "state": 1,
                        "velocity": 101
                    }
                ],
                [
                    213,
                    {
                        "note": 44,
                        "state": 0,
                        "velocity": 0
                    }
                ],
                [
                    216,
                    {
                        "note": 46,
                        "state": 1,
                        "velocity": 66
                    }
                ],
                [
                    216,
                    {
                        "note": 39,
                        "state": 1,
                        "velocity": 80
                    }
                ],
                [
                    218,
                    {
                        "note": 36,
                        "state": 0,
                        "velocity": 100
                    }
                ],
                [
                    218,
                    {
                        "note": 39,
                        "state": 0,
                        "velocity": 0
                    }
                ],
                [
                    220,
                    {
                        "note": 46,
                        "state": 0,
                        "velocity": 0
                    }
                ],
                [
                    222,
                    {
                        "note": 44,
                        "state": 1,
                        "velocity": 74
                    }
                ],
                [
                    222,
                    {
                        "note": 38,
                        "state": 1,
                        "velocity": 87
                    }
                ],
                [
                    225,
                    {
                        "note": 38,
                        "state": 0,
                        "velocity": 0
                    }
                ],
                [
                    226,
                    {
                        "note": 44,
                        "state": 0,
                        "velocity": 0
                    }
                ],
                [
                    228,
                    {
                        "note": 42,
                        "state": 1,
                        "velocity": 66
                    }
                ],
                [
                    228,
                    {
                        "note": 36,
                        "state": 1,
                        "velocity": 107
                    }
                ],
                [
                    231,
                    {
                        "note": 42,
                        "state": 0,
                        "velocity": 0
                    }
                ],
                [
                    234,
                    {
                        "note": 44,
                        "state": 1,
                        "velocity": 89
                    }
                ],
                [
                    238,
                    {
                        "note": 44,
                        "state": 0,
                        "velocity": 0
                    }
                ],
                [
                    240,
                    {
                        "note": 42,
                        "state": 1,
                        "velocity": 59
                    }
                ],
                [
                    240,
                    {
                        "note": 36,
                        "state": 0,
                        "velocity": 100
                    }
                ],
                [
                    244,
                    {
                        "note": 42,
                        "state": 0,
                        "velocity": 0
                    }
                ],
                [
                    246,
                    {
                        "note": 44,
                        "state": 1,
                        "velocity": 92
                    }
                ],
                [
                    246,
                    {
                        "note": 36,
                        "state": 1,
                        "velocity": 102
                    }
                ],
                [
                    250,
                    {
                        "note": 44,
                        "state": 0,
                        "velocity": 0
                    }
                ],
                [
                    250,
                    {
                        "note": 36,
                        "state": 0,
                        "velocity": 100
                    }
                ],
                [
                    252,
                    {
                        "note": 42,
                        "state": 1,
                        "velocity": 55
                    }
                ],
                [
                    252,
                    {
                        "note": 36,
                        "state": 1,
                        "velocity": 94
                    }
                ],
                [
                    255,
                    {
                        "note": 42,
                        "state": 0,
                        "velocity": 0
                    }
                ],
                [
                    256,
                    {
                        "note": 36,
                        "state": 0,
                        "velocity": 100
                    }
                ],
                [
                    258,
                    {
                        "note": 44,
                        "state": 1,
                        "velocity": 82
                    }
                ],
                [
                    262,
                    {
                        "note": 44,
                        "state": 0,
                        "velocity": 0
                    }
                ],
                [
                    264,
                    {
                        "note": 46,
                        "state": 1,
                        "velocity": 70
                    }
                ],
                [
                    264,
                    {
                        "note": 39,
                        "state": 1,
                        "velocity": 67
                    }
                ],
                [
                    264,
                    {
                        "note": 36,
                        "state": 1,
                        "velocity": 99
                    }
                ],
                [
                    266,
                    {
                        "note": 39,
                        "state": 0,
                        "velocity": 0
                    }
                ],
                [
                    268,
                    {
                        "note": 46,
                        "state": 0,
                        "velocity": 0
                    }
                ],
                [
                    270,
                    {
                        "note": 44,
                        "state": 1,
                        "velocity": 100
                    }
                ],
                [
                    275,
                    {
                        "note": 44,
                        "state": 0,
                        "velocity": 0
                    }
                ],
                [
                    276,
                    {
                        "note": 36,
                        "state": 0,
                        "velocity": 100
                    }
                ],
                [
                    276,
                    {
                        "note": 42,
                        "state": 1,
                        "velocity": 64
                    }
                ],
                [
                    280,
                    {
                        "note": 42,
                        "state": 0,
                        "velocity": 0
                    }
                ],
                [
                    282,
                    {
                        "note": 44,
                        "state": 1,
                        "velocity": 86
                    }
                ],
                [
                    282,
                    {
                        "note": 36,
                        "state": 1,
                        "velocity": 93
                    }
                ],
                [
                    284,
                    {
                        "note": 36,
                        "state": 0,
                        "velocity": 100
                    }
                ],
                [
                    286,
                    {
                        "note": 44,
                        "state": 0,
                        "velocity": 0
                    }
                ],
                [
                    288,
                    {
                        "note": 42,
                        "state": 1,
                        "velocity": 67
                    }
                ],
                [
                    288,
                    {
                        "note": 36,
                        "state": 1,
                        "velocity": 94
                    }
                ],
                [
                    292,
                    {
                        "note": 42,
                        "state": 0,
                        "velocity": 0
                    }
                ],
                [
                    294,
                    {
                        "note": 44,
                        "state": 1,
                        "velocity": 85
                    }
                ],
                [
                    298,
                    {
                        "note": 44,
                        "state": 0,
                        "velocity": 0
                    }
                ],
                [
                    300,
                    {
                        "note": 36,
                        "state": 0,
                        "velocity": 100
                    }
                ],
                [
                    300,
                    {
                        "note": 42,
                        "state": 1,
                        "velocity": 72
                    }
                ],
                [
                    304,
                    {
                        "note": 42,
                        "state": 0,
                        "velocity": 0
                    }
                ],
                [
                    306,
                    {
                        "note": 44,
                        "state": 1,
                        "velocity": 92
                    }
                ],
                [
                    306,
                    {
                        "note": 36,
                        "state": 1,
                        "velocity": 94
                    }
                ],
                [
                    311,
                    {
                        "note": 44,
                        "state": 0,
                        "velocity": 0
                    }
                ],
                [
                    312,
                    {
                        "note": 46,
                        "state": 1,
                        "velocity": 93
                    }
                ],
                [
                    312,
                    {
                        "note": 39,
                        "state": 1,
                        "velocity": 62
                    }
                ],
                [
                    314,
                    {
                        "note": 39,
                        "state": 0,
                        "velocity": 0
                    }
                ],
                [
                    316,
                    {
                        "note": 46,
                        "state": 0,
                        "velocity": 0
                    }
                ],
                [
                    317,
                    {
                        "note": 36,
                        "state": 0,
                        "velocity": 100
                    }
                ],
                [
                    318,
                    {
                        "note": 44,
                        "state": 1,
                        "velocity": 86
                    }
                ],
                [
                    318,
                    {
                        "note": 38,
                        "state": 1,
                        "velocity": 41
                    }
                ],
                [
                    321,
                    {
                        "note": 38,
                        "state": 0,
                        "velocity": 0
                    }
                ],
                [
                    322,
                    {
                        "note": 44,
                        "state": 0,
                        "velocity": 0
                    }
                ],
                [
                    324,
                    {
                        "note": 42,
                        "state": 1,
                        "velocity": 79
                    }
                ],
                [
                    324,
                    {
                        "note": 36,
                        "state": 1,
                        "velocity": 96
                    }
                ],
                [
                    327,
                    {
                        "note": 42,
                        "state": 0,
                        "velocity": 0
                    }
                ],
                [
                    330,
                    {
                        "note": 44,
                        "state": 1,
                        "velocity": 86
                    }
                ],
                [
                    334,
                    {
                        "note": 44,
                        "state": 0,
                        "velocity": 0
                    }
                ],
                [
                    334,
                    {
                        "note": 36,
                        "state": 0,
                        "velocity": 100
                    }
                ],
                [
                    336,
                    {
                        "note": 42,
                        "state": 1,
                        "velocity": 69
                    }
                ],
                [
                    340,
                    {
                        "note": 42,
                        "state": 0,
                        "velocity": 0
                    }
                ],
                [
                    342,
                    {
                        "note": 44,
                        "state": 1,
                        "velocity": 86
                    }
                ],
                [
                    342,
                    {
                        "note": 36,
                        "state": 1,
                        "velocity": 102
                    }
                ],
                [
                    344,
                    {
                        "note": 36,
                        "state": 0,
                        "velocity": 100
                    }
                ],
                [
                    346,
                    {
                        "note": 44,
                        "state": 0,
                        "velocity": 0
                    }
                ],
                [
                    348,
                    {
                        "note": 42,
                        "state": 1,
                        "velocity": 59
                    }
                ],
                [
                    348,
                    {
                        "note": 36,
                        "state": 1,
                        "velocity": 104
                    }
                ],
                [
                    351,
                    {
                        "note": 42,
                        "state": 0,
                        "velocity": 0
                    }
                ],
                [
                    352,
                    {
                        "note": 36,
                        "state": 0,
                        "velocity": 100
                    }
                ],
                [
                    354,
                    {
                        "note": 44,
                        "state": 1,
                        "velocity": 95
                    }
                ],
                [
                    358,
                    {
                        "note": 44,
                        "state": 0,
                        "velocity": 0
                    }
                ],
                [
                    360,
                    {
                        "note": 46,
                        "state": 1,
                        "velocity": 94
                    }
                ],
                [
                    360,
                    {
                        "note": 39,
                        "state": 1,
                        "velocity": 93
                    }
                ],
                [
                    360,
                    {
                        "note": 36,
                        "state": 1,
                        "velocity": 105
                    }
                ],
                [
                    362,
                    {
                        "note": 39,
                        "state": 0,
                        "velocity": 0
                    }
                ],
                [
                    363,
                    {
                        "note": 46,
                        "state": 0,
                        "velocity": 0
                    }
                ],
                [
                    366,
                    {
                        "note": 44,
                        "state": 1,
                        "velocity": 94
                    }
                ],
                [
                    370,
                    {
                        "note": 36,
                        "state": 0,
                        "velocity": 100
                    }
                ],
                [
                    370,
                    {
                        "note": 44,
                        "state": 0,
                        "velocity": 0
                    }
                ],
                [
                    372,
                    {
                        "note": 42,
                        "state": 1,
                        "velocity": 96
                    }
                ],
                [
                    374,
                    {
                        "note": 42,
                        "state": 0,
                        "velocity": 0
                    }
                ],
                [
                    378,
                    {
                        "note": 46,
                        "state": 1,
                        "velocity": 65
                    }
                ],
                [
                    378,
                    {
                        "note": 39,
                        "state": 1,
                        "velocity": 91
                    }
                ],
                [
                    378,
                    {
                        "note": 36,
                        "state": 1,
                        "velocity": 94
                    }
                ],
                [
                    380,
                    {
                        "note": 39,
                        "state": 0,
                        "velocity": 0
                    }
                ],
                [
                    381,
                    {
                        "note": 46,
                        "state": 0,
                        "velocity": 0
                    }
                ],
                [
                    382,
                    {
                        "note": 36,
                        "state": 0,
                        "velocity": 100
                    }
                ]
            ]
        }
    ]
}