<svg width="116" height="93" viewBox="0 0 116 93" fill="none" xmlns="http://www.w3.org/2000/svg">
<path d="M46.4 87.1875V93H0V87.1875H5.8V81.375H11.6V75.5625H17.4V69.75H23.2V63.9375H29V58.125H40.6V46.5H34.8V23.25H40.6V17.4375H46.4V11.625H52.2V5.8125H63.8V0H81.2V5.8125H92.8V11.625H98.6V17.4375H104.4V23.25H110.2V34.875H104.4V29.0625H92.8V34.875H81.2V63.9375H75.4V69.75H87V75.5625H81.2V81.375H104.4V87.1875H69.6V93H63.8V87.1875H46.4ZM75.4 29.0625H69.6V23.25H52.2V29.0625H46.4V46.5H52.2V52.3125H58V58.125H75.4V52.3125H63.8V46.5H52.2V29.0625H63.8V40.6875H75.4V29.0625ZM63.8 81.375V75.5625H58V81.375H63.8ZM81.2 17.4375V11.625H75.4V17.4375H81.2Z" fill="black"/>
<path d="M110.2 46.5V34.875H116V46.5H110.2Z" fill="black"/>
<path d="M110.2 63.9375H116V75.5625H110.2V63.9375Z" fill="black"/>
<path d="M110.2 58.125L110.2 63.9375H104.4V58.125H110.2Z" fill="black"/>
<path d="M104.4 75.5625H110.2L110.2 81.375L104.4 81.375L104.4 75.5625Z" fill="black"/>
<path d="M46.4 93V87.1875H63.8V93H46.4Z" fill="black"/>
<path d="M69.6 40.6875L63.8 40.6875V29.0625H69.6L69.6 40.6875Z" fill="black"/>
<path d="M92.8 46.5H98.6V58.125H92.8V46.5Z" fill="black"/>
<path d="M81.2 17.4375H75.4V11.625H81.2V17.4375Z" fill="black"/>
<path d="M75.4 87.1875V93H69.6V87.1875H75.4Z" fill="black"/>
</svg>
