<svg width="663" height="69" viewBox="0 0 663 69" fill="none" xmlns="http://www.w3.org/2000/svg">
<g filter="url(#filter0_d_22_20)">
<path d="M13.6 2.632C16.3733 2.632 18.528 3.272 20.064 4.552C21.6427 5.832 22.432 7.624 22.432 9.928C22.432 11.1227 22.24 12.3173 21.856 13.512C21.472 14.7067 21.0453 15.9867 20.576 17.352C20.1493 18.6747 19.744 20.104 19.36 21.64C18.976 23.176 18.784 24.8827 18.784 26.76C18.784 26.9307 18.8053 27.4853 18.848 28.424C18.8907 29.3627 19.0187 30.3653 19.232 31.432C19.488 32.4987 19.872 33.4587 20.384 34.312C20.9387 35.1653 21.6853 35.592 22.624 35.592C23.776 35.592 24.6293 34.9733 25.184 33.736C25.7813 32.456 26.2507 30.856 26.592 28.936C26.9333 27.016 27.2107 24.968 27.424 22.792C27.6373 20.5733 27.936 18.504 28.32 16.584C28.704 14.664 29.2587 13.0853 29.984 11.848C30.7093 10.568 31.7333 9.928 33.056 9.928C34.208 9.928 35.1893 10.4187 36 11.4C36.8533 12.3387 37.6 13.6187 38.24 15.24C38.88 16.8187 39.4133 18.632 39.84 20.68C40.3093 22.6853 40.7147 24.7547 41.056 26.888C41.44 28.9787 41.7813 31.048 42.08 33.096C42.4213 35.1013 42.7627 36.9147 43.104 38.536C43.4453 40.1147 43.808 41.3947 44.192 42.376C44.576 43.3147 45.0453 43.784 45.6 43.784C46.1973 43.784 46.8373 43.208 47.52 42.056C48.2027 40.8613 48.8213 39.368 49.376 37.576C49.9733 35.784 50.4427 33.8427 50.784 31.752C51.168 29.6187 51.36 27.6133 51.36 25.736C51.36 23.56 51.1253 21.64 50.656 19.976C50.1867 18.2693 49.6747 16.712 49.12 15.304C48.608 13.8533 48.1173 12.488 47.648 11.208C47.1787 9.928 46.944 8.60533 46.944 7.24C46.944 2.71733 49.76 0.455997 55.392 0.455997C58.5067 0.455997 61.024 1.11733 62.944 2.44C64.864 3.76266 65.824 5.512 65.824 7.688C65.824 9.096 65.44 10.5467 64.672 12.04C63.904 13.4907 63.0507 15.0053 62.112 16.584C61.1733 18.12 60.32 19.72 59.552 21.384C58.784 23.048 58.4 24.776 58.4 26.568C58.4 27.9333 58.6133 29.3413 59.04 30.792C59.5093 32.2 60.0213 33.6507 60.576 35.144C61.1307 36.6373 61.6213 38.1733 62.048 39.752C62.5173 41.288 62.752 42.8667 62.752 44.488C62.752 46.536 62.3467 48.52 61.536 50.44C60.768 52.36 59.744 54.0453 58.464 55.496C57.184 56.9893 55.6907 58.1627 53.984 59.016C52.32 59.912 50.592 60.36 48.8 60.36C47.2213 60.36 45.6853 59.9973 44.192 59.272C42.7413 58.5893 41.4613 57.6507 40.352 56.456C39.2853 55.2613 38.4107 53.8747 37.728 52.296C37.088 50.7173 36.768 49.0533 36.768 47.304C36.768 45.768 36.9387 44.3813 37.28 43.144C37.664 41.864 37.856 40.7547 37.856 39.816C37.856 39.176 37.728 38.536 37.472 37.896C37.2587 37.2133 36.96 36.616 36.576 36.104C36.192 35.5493 35.7653 35.1013 35.296 34.76C34.8693 34.376 34.4213 34.184 33.952 34.184C33.44 34.184 32.9067 34.44 32.352 34.952C31.7973 35.4213 31.264 36.04 30.752 36.808C30.2827 37.5333 29.8987 38.344 29.6 39.24C29.3013 40.136 29.152 40.9893 29.152 41.8C29.152 42.6533 29.3013 43.464 29.6 44.232C29.9413 45 30.304 45.7467 30.688 46.472C31.1147 47.1973 31.4987 47.944 31.84 48.712C32.1813 49.48 32.3733 50.2907 32.416 51.144V51.4C32.416 52.68 32.0533 53.896 31.328 55.048C30.6027 56.2427 29.6213 57.288 28.384 58.184C27.1893 59.08 25.7813 59.784 24.16 60.296C22.5813 60.8507 20.9387 61.128 19.232 61.128C17.312 61.128 15.4987 60.7653 13.792 60.04C12.128 59.3573 10.656 58.3973 9.376 57.16C8.13867 55.9653 7.15733 54.5573 6.432 52.936C5.74933 51.3147 5.408 49.5653 5.408 47.688C5.408 45.896 5.70667 44.1893 6.304 42.568C6.90133 40.904 7.54133 39.304 8.224 37.768C8.94933 36.1893 9.61067 34.6533 10.208 33.16C10.8053 31.624 11.104 30.0667 11.104 28.488C11.104 26.7813 10.7627 25.2027 10.08 23.752C9.39733 22.3013 8.62933 20.872 7.776 19.464C6.96533 18.056 6.19733 16.6267 5.472 15.176C4.78933 13.7253 4.448 12.1467 4.448 10.44C4.448 8.008 5.25867 6.10933 6.88 4.744C8.50133 3.336 10.7413 2.632 13.6 2.632ZM64.0015 53.384C64.0015 51.5067 64.4708 49.7787 65.4095 48.2C66.3482 46.6213 67.5215 45.0853 68.9295 43.592C70.3375 42.0987 71.8522 40.6267 73.4735 39.176C75.0948 37.7253 76.6095 36.2107 78.0175 34.632C79.4255 33.0533 80.5988 31.368 81.5375 29.576C82.4762 27.784 82.9455 25.8213 82.9455 23.688C82.9455 22.408 82.7748 21.2773 82.4335 20.296C82.1348 19.3147 81.7935 18.4187 81.4095 17.608C81.0255 16.7547 80.6628 15.9653 80.3215 15.24C80.0228 14.472 79.8735 13.64 79.8735 12.744C79.8735 11.464 80.2362 10.248 80.9615 9.096C81.7295 7.944 82.7322 6.92 83.9695 6.024C85.2495 5.128 86.7215 4.424 88.3855 3.912C90.0495 3.4 91.7775 3.144 93.5695 3.144C95.1482 3.144 96.5988 3.35733 97.9215 3.784C99.2868 4.168 100.46 4.72266 101.442 5.448C102.466 6.17333 103.255 7.048 103.81 8.072C104.364 9.05333 104.642 10.12 104.642 11.272C104.642 11.8267 104.578 12.488 104.45 13.256C104.322 13.9813 104.172 14.7493 104.002 15.56C103.874 16.3707 103.746 17.2027 103.618 18.056C103.49 18.8667 103.426 19.656 103.426 20.424C103.426 22.5147 103.916 24.3067 104.898 25.8C105.922 27.2507 107.18 28.5733 108.674 29.768C110.21 30.9627 111.852 32.1147 113.602 33.224C115.351 34.3333 116.972 35.5707 118.466 36.936C120.002 38.2587 121.26 39.816 122.242 41.608C123.266 43.3573 123.778 45.4907 123.778 48.008C123.778 51.6347 122.69 54.4933 120.514 56.584C118.38 58.6747 115.458 59.72 111.746 59.72C105.474 59.72 102.338 56.5627 102.338 50.248C102.338 48.5413 102.124 46.9413 101.698 45.448C101.271 43.912 100.674 42.5893 99.9055 41.48C99.1802 40.328 98.3268 39.432 97.3455 38.792C96.3642 38.1093 95.3188 37.768 94.2095 37.768C93.0575 37.768 92.1402 38.1307 91.4575 38.856C90.7748 39.5813 90.2202 40.5413 89.7935 41.736C89.3668 42.9307 89.0042 44.296 88.7055 45.832C88.4495 47.368 88.1508 48.9253 87.8095 50.504C87.4682 52.0827 87.0415 53.64 86.5295 55.176C86.0602 56.712 85.3775 58.0773 84.4815 59.272C83.5855 60.4667 82.4335 61.4267 81.0255 62.152C79.6175 62.8773 77.8682 63.24 75.7775 63.24C74.0708 63.24 72.4922 62.984 71.0415 62.472C69.5908 62.0027 68.3322 61.32 67.2655 60.424C66.2415 59.5707 65.4308 58.5253 64.8335 57.288C64.2788 56.0933 64.0015 54.792 64.0015 53.384ZM89.2175 26.632C89.2175 27.784 89.6655 28.744 90.5615 29.512C91.5002 30.28 92.6522 30.664 94.0175 30.664C95.2975 30.664 96.3002 30.28 97.0255 29.512C97.7935 28.744 98.1775 27.6773 98.1775 26.312C98.1775 25.6293 98.0282 24.6907 97.7295 23.496C97.4735 22.2587 97.1108 21.0427 96.6415 19.848C96.2148 18.6533 95.7242 17.608 95.1695 16.712C94.6148 15.816 94.0602 15.368 93.5055 15.368C92.8655 15.368 92.2682 15.8373 91.7135 16.776C91.2015 17.7147 90.7535 18.824 90.3695 20.104C90.0282 21.3413 89.7508 22.5787 89.5375 23.816C89.3242 25.0533 89.2175 25.992 89.2175 26.632ZM118.569 10.376C118.569 9.05333 118.782 7.83733 119.209 6.728C119.635 5.61867 120.211 4.68 120.937 3.912C121.705 3.144 122.622 2.54667 123.689 2.12C124.755 1.69333 125.929 1.48 127.209 1.48C128.617 1.48 129.897 1.75733 131.049 2.312C132.201 2.824 133.182 3.57066 133.993 4.552C134.846 5.49067 135.486 6.62133 135.913 7.944C136.382 9.26666 136.617 10.7387 136.617 12.36C136.617 13.512 136.51 14.6213 136.297 15.688C136.126 16.7547 135.913 17.8213 135.657 18.888C135.401 19.9547 135.166 21.064 134.953 22.216C134.782 23.368 134.697 24.6053 134.697 25.928C134.697 27.9333 134.953 29.9387 135.465 31.944C135.977 33.9067 136.638 35.6987 137.449 37.32C138.259 38.8987 139.177 40.1787 140.201 41.16C141.225 42.1413 142.249 42.632 143.273 42.632C144.126 42.632 144.915 42.312 145.641 41.672C146.409 40.9893 147.091 40.0933 147.689 38.984C148.286 37.832 148.755 36.5307 149.097 35.08C149.438 33.5867 149.609 32.0293 149.609 30.408C149.609 29.256 149.523 28.1253 149.353 27.016C149.225 25.9067 149.054 24.776 148.841 23.624C148.67 22.472 148.499 21.32 148.329 20.168C148.201 18.9733 148.137 17.736 148.137 16.456C148.137 14.1947 148.414 12.1467 148.969 10.312C149.566 8.47733 150.398 6.89866 151.465 5.576C152.574 4.25333 153.875 3.25067 155.369 2.568C156.905 1.84266 158.59 1.48 160.425 1.48C163.241 1.48 165.395 2.29066 166.889 3.912C168.382 5.53333 169.129 7.85866 169.129 10.888C169.129 12.7227 168.873 14.2373 168.361 15.432C167.849 16.584 167.209 17.6293 166.441 18.568C165.715 19.464 164.905 20.36 164.009 21.256C163.155 22.1093 162.345 23.1547 161.577 24.392C160.851 25.5867 160.233 27.08 159.721 28.872C159.209 30.6213 158.953 32.8613 158.953 35.592C158.953 39.2613 158.462 42.76 157.481 46.088C156.542 49.416 155.262 52.3387 153.641 54.856C152.019 57.3733 150.121 59.3573 147.945 60.808C145.811 62.3013 143.55 63.048 141.161 63.048C139.369 63.048 137.705 62.6 136.169 61.704C134.633 60.8507 133.31 59.656 132.201 58.12C131.091 56.584 130.217 54.7493 129.577 52.616C128.979 50.4827 128.681 48.1573 128.681 45.64C128.681 44.4027 128.745 43.336 128.873 42.44C129.001 41.544 129.129 40.6907 129.257 39.88C129.427 39.0693 129.577 38.3013 129.705 37.576C129.833 36.808 129.897 35.976 129.897 35.08C129.897 33.288 129.619 31.6453 129.065 30.152C128.51 28.6587 127.806 27.272 126.953 25.992C126.099 24.6693 125.182 23.432 124.201 22.28C123.262 21.0853 122.366 19.8693 121.513 18.632C120.659 17.3947 119.955 16.1147 119.401 14.792C118.846 13.4267 118.569 11.9547 118.569 10.376ZM188.438 18.056C189.547 18.056 190.379 17.672 190.934 16.904C191.489 16.0933 191.915 15.0907 192.214 13.896C192.513 12.6587 192.769 11.3573 192.982 9.992C193.238 8.584 193.579 7.28266 194.006 6.088C194.433 4.85066 195.009 3.848 195.734 3.08C196.502 2.26933 197.59 1.864 198.998 1.864C200.022 1.864 200.961 2.07733 201.814 2.504C202.71 2.93066 203.478 3.50666 204.118 4.232C204.801 4.91466 205.334 5.72533 205.718 6.664C206.102 7.56 206.294 8.49867 206.294 9.48C206.294 10.9307 205.931 12.3173 205.206 13.64C204.523 14.92 203.649 16.1787 202.582 17.416C201.515 18.6533 200.363 19.8907 199.126 21.128C197.931 22.3227 196.801 23.56 195.734 24.84C194.667 26.12 193.771 27.4427 193.046 28.808C192.363 30.1307 192.022 31.5387 192.022 33.032C192.022 34.1413 192.214 35.1867 192.598 36.168C192.982 37.1493 193.473 38.1093 194.07 39.048C194.667 39.944 195.307 40.84 195.99 41.736C196.673 42.632 197.313 43.5493 197.91 44.488C198.507 45.384 198.998 46.344 199.382 47.368C199.809 48.3493 200.043 49.416 200.086 50.568V50.824C200.086 52.3173 199.766 53.576 199.126 54.6C198.529 55.624 197.739 56.456 196.758 57.096C195.777 57.736 194.667 58.2053 193.43 58.504C192.193 58.8027 190.934 58.952 189.654 58.952C188.459 58.952 187.222 58.8027 185.942 58.504C184.705 58.248 183.553 57.8213 182.486 57.224C181.462 56.6267 180.609 55.8373 179.926 54.856C179.243 53.9173 178.881 52.744 178.838 51.336V51.144C178.838 49.5653 179.222 47.9867 179.99 46.408C180.758 44.8293 181.59 43.272 182.486 41.736C183.425 40.2 184.278 38.6853 185.046 37.192C185.814 35.656 186.198 34.184 186.198 32.776C186.198 30.9413 185.793 29.32 184.982 27.912C184.214 26.4613 183.211 25.16 181.974 24.008C180.779 22.8133 179.478 21.7253 178.07 20.744C176.705 19.72 175.403 18.7173 174.166 17.736C172.971 16.712 171.969 15.6667 171.158 14.6C170.39 13.4907 170.006 12.296 170.006 11.016C170.006 9.992 170.262 8.968 170.774 7.944C171.329 6.87733 172.011 5.93866 172.822 5.128C173.675 4.31733 174.635 3.656 175.702 3.144C176.769 2.632 177.814 2.376 178.838 2.376C180.118 2.376 181.099 2.76 181.782 3.528C182.465 4.296 182.977 5.27733 183.318 6.472C183.659 7.624 183.915 8.88266 184.086 10.248C184.299 11.5707 184.534 12.8293 184.79 14.024C185.089 15.176 185.494 16.136 186.006 16.904C186.561 17.672 187.371 18.056 188.438 18.056ZM245.483 1.288C248.512 1.288 250.88 1.94933 252.587 3.272C254.336 4.59466 255.211 6.408 255.211 8.712C255.211 10.1627 254.912 11.6987 254.315 13.32C253.718 14.8987 253.035 16.5413 252.267 18.248C251.542 19.9547 250.88 21.6827 250.283 23.432C249.686 25.1813 249.387 26.9307 249.387 28.68C249.387 30.6427 249.771 32.52 250.539 34.312C251.35 36.104 252.224 37.96 253.163 39.88C254.102 41.7573 254.955 43.784 255.723 45.96C256.534 48.136 256.939 50.632 256.939 53.448C256.939 61.0427 253.312 64.84 246.059 64.84C242.347 64.84 239.339 63.944 237.035 62.152C234.774 60.4027 233.579 58.056 233.451 55.112V54.664C233.451 53.256 233.728 51.912 234.283 50.632C234.88 49.3093 235.606 48.008 236.459 46.728C237.355 45.448 238.315 44.1893 239.339 42.952C240.363 41.7147 241.302 40.456 242.155 39.176C243.051 37.8533 243.776 36.5093 244.331 35.144C244.928 33.7787 245.227 32.3493 245.227 30.856C245.227 28.936 244.758 27.1867 243.819 25.608C242.88 24.0293 241.835 22.4507 240.683 20.872C239.531 19.2933 238.486 17.6507 237.547 15.944C236.608 14.2373 236.139 12.3173 236.139 10.184C236.139 4.25333 239.254 1.288 245.483 1.288ZM270.629 3.208C272.463 3.208 273.893 3.57066 274.917 4.296C275.983 5.02133 276.773 6.28 277.285 8.072C277.455 8.66933 277.733 9.56533 278.117 10.76C278.501 11.9547 278.97 13.2987 279.525 14.792C280.079 16.2427 280.677 17.7573 281.317 19.336C281.999 20.872 282.703 22.28 283.429 23.56C284.154 24.84 284.879 25.8853 285.605 26.696C286.373 27.5067 287.119 27.912 287.845 27.912C288.357 27.912 288.954 27.8053 289.637 27.592C290.362 27.336 291.045 26.9733 291.685 26.504C292.325 25.992 292.858 25.352 293.285 24.584C293.754 23.7733 293.989 22.8347 293.989 21.768C293.989 20.616 293.669 19.464 293.029 18.312C292.431 17.16 291.77 16.008 291.045 14.856C290.319 13.704 289.637 12.5733 288.997 11.464C288.399 10.312 288.101 9.16 288.101 8.008C288.101 5.448 288.826 3.57067 290.277 2.376C291.727 1.13866 293.69 0.519997 296.165 0.519997C297.061 0.519997 297.978 0.711997 298.917 1.096C299.855 1.48 300.687 2.01333 301.413 2.696C302.181 3.37866 302.799 4.14666 303.269 5C303.738 5.85333 303.973 6.77067 303.973 7.752C303.973 10.696 303.802 13.5973 303.461 16.456C303.119 19.3147 302.949 22.216 302.949 25.16C302.949 27.0373 303.162 28.872 303.589 30.664C304.015 32.456 304.485 34.248 304.997 36.04C305.551 37.832 306.042 39.624 306.469 41.416C306.895 43.1653 307.109 44.9787 307.109 46.856C307.109 48.6907 306.917 50.4187 306.533 52.04C306.149 53.6187 305.551 54.984 304.741 56.136C303.93 57.3307 302.885 58.248 301.605 58.888C300.325 59.5707 298.767 59.912 296.933 59.912C295.141 59.912 293.562 59.528 292.197 58.76C290.874 57.992 289.743 56.9893 288.805 55.752C287.909 54.5147 287.226 53.1067 286.757 51.528C286.287 49.9493 286.053 48.3493 286.053 46.728C286.053 45.5333 285.882 44.232 285.541 42.824C285.199 41.416 284.751 40.008 284.197 38.6C283.642 37.1493 283.002 35.7627 282.277 34.44C281.594 33.0747 280.89 31.88 280.165 30.856C279.439 29.7893 278.735 28.9573 278.053 28.36C277.37 27.72 276.773 27.4 276.26 27.4C275.877 27.4 275.578 27.528 275.365 27.784C275.151 28.04 274.981 28.3387 274.853 28.68C274.725 29.0213 274.639 29.384 274.597 29.768C274.597 30.152 274.597 30.472 274.597 30.728C274.597 31.9227 274.959 33.3093 275.685 34.888C276.41 36.424 277.199 38.0667 278.053 39.816C278.906 41.5227 279.695 43.2507 280.421 45C281.146 46.7493 281.509 48.4133 281.509 49.992C281.509 51.528 281.253 52.9787 280.741 54.344C280.271 55.7093 279.589 56.904 278.693 57.928C277.797 58.952 276.687 59.7413 275.365 60.296C274.085 60.8933 272.634 61.192 271.013 61.192C269.477 61.192 268.047 60.8933 266.725 60.296C265.445 59.6987 264.314 58.888 263.333 57.864C262.394 56.8827 261.647 55.7093 261.093 54.344C260.538 53.0213 260.261 51.592 260.261 50.056C260.261 47.496 260.495 44.9787 260.965 42.504C261.434 40.0293 261.925 37.576 262.437 35.144C262.991 32.6693 263.503 30.1947 263.973 27.72C264.442 25.2453 264.677 22.7493 264.677 20.232C264.677 18.312 264.463 16.4347 264.036 14.6C263.653 12.7653 263.461 11.08 263.461 9.544C263.461 7.45333 264.165 5.87466 265.573 4.808C267.023 3.74133 268.709 3.208 270.629 3.208ZM322.847 1.864C325.193 1.864 327.519 2.29066 329.823 3.144C332.169 3.99733 334.409 5.192 336.543 6.728C338.719 8.22133 340.745 9.992 342.623 12.04C344.5 14.0453 346.121 16.2213 347.487 18.568C348.895 20.9147 349.983 23.368 350.751 25.928C351.561 28.488 351.967 31.0267 351.967 33.544C351.967 36.0613 351.561 38.5573 350.751 41.032C349.983 43.5067 348.916 45.8747 347.551 48.136C346.185 50.3973 344.543 52.488 342.623 54.408C340.745 56.328 338.697 57.992 336.479 59.4C334.303 60.808 331.999 61.9173 329.567 62.728C327.135 63.5387 324.681 63.944 322.207 63.944C318.58 63.944 315.764 63.0907 313.759 61.384C311.753 59.72 310.751 57.352 310.751 54.28C310.751 52.5307 311.049 50.7387 311.647 48.904C312.244 47.0267 312.905 45.1707 313.631 43.336C314.399 41.5013 315.081 39.7093 315.679 37.96C316.276 36.168 316.575 34.4613 316.575 32.84C316.575 31.3467 316.319 29.8747 315.807 28.424C315.337 26.9307 314.783 25.3947 314.143 23.816C313.545 22.2373 312.991 20.5947 312.479 18.888C312.009 17.1387 311.775 15.2827 311.775 13.32C311.775 9.69333 312.735 6.87733 314.655 4.872C316.575 2.86666 319.305 1.864 322.847 1.864ZM327.711 11.912C326.217 11.912 325.151 13.192 324.51 15.752C323.913 18.312 323.615 22.1733 323.615 27.336C323.615 32.9253 323.913 37.0853 324.51 39.816C325.151 42.504 326.324 43.848 328.031 43.848C328.927 43.848 329.823 43.4427 330.719 42.632C331.657 41.7787 332.489 40.6693 333.215 39.304C333.94 37.896 334.516 36.2747 334.943 34.44C335.412 32.6053 335.647 30.6853 335.647 28.68C335.647 26.76 335.391 24.7973 334.879 22.792C334.409 20.7867 333.791 18.9947 333.023 17.416C332.255 15.7947 331.401 14.472 330.463 13.448C329.524 12.424 328.607 11.912 327.711 11.912ZM395.371 27.272C395.371 28.5093 395.563 29.7253 395.947 30.92C396.374 32.072 396.822 33.3093 397.291 34.632C397.76 35.912 398.187 37.3413 398.571 38.92C398.998 40.4987 399.211 42.312 399.211 44.36C399.211 47.048 398.699 49.4587 397.675 51.592C396.651 53.6827 395.222 55.4747 393.387 56.968C391.552 58.4613 389.355 59.592 386.795 60.36C384.235 61.1707 381.44 61.576 378.411 61.576C363.563 61.576 356.139 56.072 356.139 45.064C356.139 43.5707 356.246 42.1413 356.459 40.776C356.672 39.368 356.907 38.024 357.163 36.744C357.462 35.4213 357.718 34.1627 357.931 32.968C358.144 31.7307 358.251 30.536 358.251 29.384C358.251 27.848 358.038 26.376 357.611 24.968C357.227 23.5173 356.8 22.088 356.331 20.68C355.862 19.272 355.414 17.864 354.987 16.456C354.603 15.0053 354.411 13.4907 354.411 11.912C354.411 10.248 354.667 8.73333 355.179 7.368C355.691 5.96 356.416 4.76533 357.355 3.784C358.294 2.76 359.403 1.992 360.683 1.48C361.963 0.925331 363.392 0.647999 364.971 0.647999C367.787 0.647999 370.006 1.50133 371.627 3.208C373.248 4.872 374.059 7.15467 374.059 10.056C374.059 12.232 373.632 14.1093 372.779 15.688C371.926 17.2667 370.966 18.7813 369.899 20.232C368.875 21.6827 367.936 23.2187 367.083 24.84C366.23 26.4187 365.803 28.3173 365.803 30.536C365.803 32.1147 366.038 33.6507 366.507 35.144C367.019 36.6373 367.68 37.9387 368.491 39.048C369.344 40.1573 370.326 41.032 371.435 41.672C372.544 42.2693 373.718 42.504 374.955 42.376C376.448 42.248 377.771 41.8213 378.923 41.096C380.118 40.3707 381.12 39.4533 381.931 38.344C382.784 37.192 383.424 35.8693 383.851 34.376C384.278 32.84 384.491 31.1973 384.491 29.448C384.491 27.784 384.278 26.2267 383.851 24.776C383.467 23.3253 383.019 21.9173 382.507 20.552C382.038 19.144 381.59 17.7573 381.163 16.392C380.779 15.0267 380.587 13.5973 380.587 12.104C380.587 9.37333 381.355 7.21867 382.891 5.64C384.427 4.01866 386.496 3.208 389.099 3.208C390.507 3.208 391.808 3.464 393.003 3.976C394.198 4.44533 395.222 5.128 396.075 6.024C396.928 6.87733 397.59 7.92266 398.059 9.16C398.528 10.3547 398.763 11.6987 398.763 13.192C398.763 14.5573 398.571 15.8373 398.187 17.032C397.846 18.2267 397.462 19.4 397.035 20.552C396.651 21.6613 396.267 22.7707 395.883 23.88C395.542 24.9893 395.371 26.12 395.371 27.272ZM426.797 0.519997C429.357 0.519997 431.682 0.818663 433.773 1.416C435.906 1.97066 437.741 2.78133 439.277 3.848C440.813 4.872 442.007 6.10933 442.861 7.56C443.714 8.968 444.141 10.5253 444.141 12.232C444.141 14.3653 443.479 16.0293 442.157 17.224C440.877 18.376 439.042 18.952 436.653 18.952C434.775 18.952 433.325 18.5893 432.301 17.864C431.277 17.1387 430.765 16.0933 430.765 14.728C430.765 13.1493 430.167 11.784 428.973 10.632C427.778 9.48 426.242 8.904 424.365 8.904C423.426 8.904 422.402 9.13867 421.293 9.608C420.183 10.0347 419.138 10.5893 418.157 11.272C417.218 11.9547 416.407 12.7013 415.725 13.512C415.085 14.3227 414.765 15.112 414.765 15.88C414.765 16.8187 415.255 17.6933 416.237 18.504C417.218 19.272 418.519 20.0613 420.141 20.872C421.762 21.64 423.597 22.4507 425.645 23.304C427.735 24.1147 429.847 25.0107 431.981 25.992C434.114 26.9307 436.205 27.9973 438.253 29.192C440.343 30.3867 442.199 31.752 443.821 33.288C445.442 34.7813 446.743 36.488 447.725 38.408C448.706 40.328 449.197 42.4827 449.197 44.872C449.197 47.4747 448.599 49.8853 447.405 52.104C446.21 54.3227 444.546 56.2213 442.413 57.8C440.279 59.4213 437.762 60.68 434.861 61.576C431.959 62.472 428.781 62.92 425.325 62.92C421.869 62.92 418.647 62.4507 415.661 61.512C412.717 60.616 410.178 59.336 408.045 57.672C405.911 56.0507 404.226 54.1093 402.989 51.848C401.794 49.5867 401.197 47.112 401.197 44.424C401.197 41.1387 402.071 38.536 403.821 36.616C405.613 34.6533 408.023 33.672 411.053 33.672C413.229 33.672 414.893 34.184 416.045 35.208C417.239 36.232 417.837 37.6613 417.837 39.496C417.837 40.6053 418.199 41.6293 418.925 42.568C419.65 43.464 420.525 44.232 421.549 44.872C422.573 45.512 423.639 46.0027 424.749 46.344C425.858 46.6853 426.775 46.856 427.501 46.856C428.226 46.856 428.973 46.7707 429.741 46.6C430.551 46.3867 431.298 46.1093 431.981 45.768C432.663 45.4267 433.218 45.0213 433.645 44.552C434.071 44.04 434.285 43.464 434.285 42.824C434.285 41.8 433.858 40.84 433.005 39.944C432.194 39.0053 431.106 38.1093 429.741 37.256C428.418 36.36 426.903 35.464 425.197 34.568C423.49 33.672 421.719 32.7547 419.885 31.816C418.093 30.8347 416.343 29.8107 414.637 28.744C412.93 27.6347 411.394 26.44 410.029 25.16C408.706 23.8373 407.618 22.408 406.765 20.872C405.954 19.336 405.549 17.6293 405.549 15.752C405.549 13.6187 406.082 11.6347 407.149 9.8C408.258 7.92266 409.773 6.30133 411.693 4.936C413.613 3.57066 415.853 2.504 418.413 1.736C421.015 0.92533 423.81 0.519997 426.797 0.519997ZM471.225 1.8C472.547 1.8 474.083 1.82133 475.833 1.864C477.582 1.864 479.353 1.94933 481.145 2.12C482.979 2.29067 484.729 2.568 486.393 2.952C488.099 3.29333 489.55 3.80533 490.745 4.488C492.11 5.29867 493.049 6.19467 493.561 7.176C494.115 8.11467 494.393 9.39467 494.393 11.016C494.393 11.7413 494.329 12.4667 494.201 13.192C494.073 13.9173 493.838 14.5787 493.497 15.176C493.155 15.7307 492.686 16.2 492.089 16.584C491.534 16.9253 490.809 17.096 489.913 17.096C488.846 17.096 487.886 16.84 487.033 16.328C486.222 15.816 485.475 15.2613 484.793 14.664C484.11 14.0667 483.449 13.512 482.809 13C482.169 12.488 481.486 12.232 480.761 12.232C479.779 12.232 478.905 12.616 478.137 13.384C477.369 14.1093 476.707 15.0053 476.153 16.072C475.598 17.1387 475.171 18.248 474.873 19.4C474.617 20.552 474.489 21.512 474.489 22.28C474.489 24.4133 475.001 26.6107 476.025 28.872C477.049 31.0907 478.179 33.3947 479.417 35.784C480.654 38.1307 481.785 40.5627 482.809 43.08C483.833 45.5973 484.345 48.2213 484.345 50.952C484.345 54.664 483.278 57.352 481.145 59.016C479.054 60.7227 476.238 61.576 472.697 61.576C470.819 61.576 468.985 61.32 467.193 60.808C465.401 60.296 463.801 59.5067 462.393 58.44C461.027 57.416 459.918 56.1147 459.065 54.536C458.211 53 457.785 51.1867 457.785 49.096C457.785 47.432 458.083 45.7893 458.681 44.168C459.278 42.5467 460.025 40.8827 460.921 39.176C461.817 37.4267 462.777 35.6347 463.801 33.8C464.867 31.9227 465.849 29.96 466.745 27.912C467.641 25.8213 468.387 23.6027 468.985 21.256C469.582 18.9093 469.881 16.3707 469.881 13.64C469.881 13.256 469.838 12.8293 469.753 12.36C469.667 11.8907 469.518 11.464 469.305 11.08C469.134 10.6533 468.878 10.312 468.537 10.056C468.238 9.75733 467.833 9.608 467.321 9.608C466.339 9.608 465.465 10.0773 464.697 11.016C463.971 11.912 463.203 12.9147 462.393 14.024C461.625 15.0907 460.729 16.0933 459.705 17.032C458.723 17.928 457.486 18.376 455.993 18.376C455.011 18.376 454.094 18.1627 453.241 17.736C452.43 17.3093 451.705 16.7547 451.065 16.072C450.467 15.3467 449.977 14.536 449.593 13.64C449.251 12.744 449.081 11.8267 449.081 10.888C449.081 9.39466 449.486 8.136 450.297 7.112C451.107 6.088 452.153 5.23466 453.433 4.552C454.755 3.86933 456.227 3.35733 457.849 3.016C459.47 2.632 461.091 2.35467 462.713 2.184C464.377 2.01333 465.955 1.90666 467.449 1.864C468.942 1.82133 470.201 1.8 471.225 1.8ZM519.773 30.728C519.773 31.1973 520.327 31.8587 521.437 32.712C522.546 33.5227 523.911 34.4827 525.533 35.592C527.197 36.6587 528.989 37.8533 530.909 39.176C532.871 40.456 534.663 41.8213 536.285 43.272C537.949 44.7227 539.335 46.2373 540.445 47.816C541.554 49.3947 542.109 50.9733 542.109 52.552C542.109 53.832 541.725 55.0907 540.957 56.328C540.231 57.5653 539.25 58.6533 538.013 59.592C536.775 60.5733 535.367 61.3627 533.789 61.96C532.21 62.5573 530.589 62.856 528.925 62.856C527.73 62.856 526.599 62.6853 525.533 62.344C524.509 62.0453 523.613 61.5973 522.845 61C522.077 60.4453 521.458 59.784 520.989 59.016C520.562 58.2907 520.349 57.48 520.349 56.584C520.349 55.6027 520.583 54.7707 521.053 54.088C521.565 53.448 522.119 52.8507 522.717 52.296C523.314 51.6987 523.847 51.1013 524.317 50.504C524.829 49.864 525.085 49.096 525.085 48.2C525.085 47.0907 524.701 45.832 523.933 44.424C523.165 42.9733 522.226 41.5867 521.117 40.264C520.007 38.9413 518.834 37.832 517.597 36.936C516.402 36.04 515.335 35.592 514.397 35.592C513.586 35.592 512.882 35.9547 512.285 36.68C511.73 37.3627 511.453 38.1947 511.453 39.176C511.453 40.328 511.837 41.416 512.605 42.44C513.373 43.464 514.205 44.5307 515.101 45.64C515.997 46.7067 516.829 47.8373 517.597 49.032C518.365 50.2267 518.749 51.5493 518.749 53C518.749 54.28 518.386 55.5173 517.661 56.712C516.978 57.9067 516.039 58.952 514.845 59.848C513.65 60.7867 512.263 61.512 510.685 62.024C509.149 62.5787 507.527 62.856 505.821 62.856C502.919 62.856 500.551 62.1093 498.717 60.616C496.925 59.1227 496.029 57.1813 496.029 54.792C496.029 53.512 496.285 52.296 496.797 51.144C497.309 49.9493 497.949 48.7973 498.717 47.688C499.527 46.536 500.381 45.4267 501.277 44.36C502.173 43.2507 503.005 42.1627 503.773 41.096C504.583 39.9867 505.245 38.8987 505.757 37.832C506.269 36.7653 506.525 35.6773 506.525 34.568C506.525 33.4587 506.269 32.392 505.757 31.368C505.245 30.3013 504.605 29.256 503.837 28.232C503.111 27.1653 502.301 26.0987 501.405 25.032C500.551 23.9227 499.741 22.792 498.973 21.64C498.247 20.488 497.629 19.272 497.117 17.992C496.605 16.712 496.349 15.368 496.349 13.96C496.349 12.0827 496.775 10.3547 497.629 8.776C498.525 7.15466 499.741 5.74666 501.277 4.552C502.813 3.31467 504.605 2.35467 506.653 1.672C508.743 0.989332 510.962 0.647999 513.309 0.647999C516.082 0.647999 518.727 1.11733 521.245 2.056C523.805 2.99466 526.045 4.27466 527.965 5.896C529.927 7.47466 531.485 9.30933 532.637 11.4C533.789 13.448 534.365 15.6027 534.365 17.864C534.365 19.6987 534.002 21.2347 533.277 22.472C532.551 23.7093 531.655 24.7333 530.589 25.544C529.522 26.3547 528.349 27.016 527.069 27.528C525.789 27.9973 524.615 28.424 523.549 28.808C522.482 29.1493 521.586 29.4693 520.861 29.768C520.135 30.024 519.773 30.344 519.773 30.728ZM509.085 19.016C509.085 20.04 509.255 21.0853 509.597 22.152C509.981 23.2187 510.45 24.1787 511.005 25.032C511.602 25.8853 512.221 26.5893 512.861 27.144C513.543 27.6987 514.205 27.976 514.845 27.976C515.613 27.976 516.317 27.784 516.957 27.4C517.639 27.016 518.215 26.4827 518.685 25.8C519.197 25.1173 519.602 24.3493 519.901 23.496C520.199 22.6 520.349 21.64 520.349 20.616C520.349 19.592 520.199 18.5893 519.901 17.608C519.602 16.6267 519.218 15.752 518.749 14.984C518.279 14.1733 517.746 13.5333 517.149 13.064C516.594 12.552 516.018 12.296 515.421 12.296C514.823 12.296 514.141 12.424 513.373 12.68C512.647 12.8933 511.965 13.2773 511.325 13.832C510.685 14.344 510.151 15.0267 509.725 15.88C509.298 16.7333 509.085 17.7787 509.085 19.016ZM555.171 1.288C558.2 1.288 560.568 1.94933 562.275 3.272C564.024 4.59466 564.899 6.408 564.899 8.712C564.899 10.1627 564.6 11.6987 564.003 13.32C563.405 14.8987 562.723 16.5413 561.955 18.248C561.229 19.9547 560.568 21.6827 559.971 23.432C559.373 25.1813 559.075 26.9307 559.075 28.68C559.075 30.6427 559.459 32.52 560.227 34.312C561.037 36.104 561.912 37.96 562.851 39.88C563.789 41.7573 564.643 43.784 565.411 45.96C566.221 48.136 566.627 50.632 566.627 53.448C566.627 61.0427 563 64.84 555.747 64.84C552.035 64.84 549.027 63.944 546.723 62.152C544.461 60.4027 543.267 58.056 543.139 55.112V54.664C543.139 53.256 543.416 51.912 543.971 50.632C544.568 49.3093 545.293 48.008 546.147 46.728C547.043 45.448 548.003 44.1893 549.027 42.952C550.051 41.7147 550.989 40.456 551.843 39.176C552.739 37.8533 553.464 36.5093 554.019 35.144C554.616 33.7787 554.915 32.3493 554.915 30.856C554.915 28.936 554.445 27.1867 553.507 25.608C552.568 24.0293 551.523 22.4507 550.371 20.872C549.219 19.2933 548.173 17.6507 547.235 15.944C546.296 14.2373 545.827 12.3173 545.827 10.184C545.827 4.25333 548.941 1.288 555.171 1.288ZM589.788 1.416C592.817 1.416 595.612 1.58666 598.172 1.928C600.775 2.26933 603.015 2.824 604.892 3.592C606.812 4.36 608.305 5.384 609.372 6.664C610.439 7.90133 610.972 9.45866 610.972 11.336C610.972 13.4267 610.673 15.0907 610.076 16.328C609.479 17.5653 608.775 18.5253 607.964 19.208C607.196 19.848 606.407 20.2747 605.596 20.488C604.828 20.6587 604.273 20.744 603.932 20.744C602.225 20.744 600.903 20.5093 599.964 20.04C599.025 19.5707 598.343 18.9733 597.916 18.248C597.489 17.5227 597.233 16.7547 597.148 15.944C597.063 15.0907 597.02 14.3013 597.02 13.576C597.02 12.7653 596.956 12.0613 596.828 11.464C596.743 10.824 596.508 10.2907 596.124 9.864C595.74 9.43733 595.207 9.11733 594.524 8.904C593.841 8.69067 592.924 8.584 591.772 8.584C590.833 8.584 589.937 8.79733 589.084 9.224C588.273 9.65067 587.548 10.248 586.908 11.016C586.268 11.7413 585.756 12.5947 585.372 13.576C585.031 14.5573 584.86 15.624 584.86 16.776C584.86 17.8 585.052 18.7387 585.436 19.592C585.82 20.4453 586.332 21.192 586.972 21.832C587.612 22.4293 588.337 22.8987 589.148 23.24C590.001 23.5813 590.876 23.752 591.772 23.752C592.284 23.752 592.988 23.7093 593.884 23.624C594.78 23.5387 595.74 23.4747 596.764 23.432C597.831 23.3893 598.897 23.432 599.964 23.56C601.031 23.6453 601.991 23.8587 602.844 24.2C603.74 24.5413 604.465 25.0533 605.02 25.736C605.575 26.4187 605.852 27.336 605.852 28.488C605.852 29.8533 605.447 30.8347 604.636 31.432C603.868 32.0293 602.929 32.4133 601.82 32.584C600.711 32.712 599.516 32.7333 598.236 32.648C596.999 32.52 595.932 32.456 595.036 32.456C594.012 32.456 592.903 32.6053 591.708 32.904C590.513 33.2027 589.404 33.6507 588.38 34.248C587.399 34.8027 586.567 35.4853 585.884 36.296C585.201 37.1067 584.86 38.024 584.86 39.048C584.86 40.3707 585.052 41.544 585.436 42.568C585.863 43.592 586.417 44.4667 587.1 45.192C587.783 45.8747 588.572 46.3867 589.468 46.728C590.407 47.0693 591.367 47.24 592.348 47.24C593.671 47.24 594.823 47.0053 595.804 46.536C596.785 46.0667 597.66 45.4907 598.428 44.808C599.239 44.1253 599.964 43.3787 600.604 42.568C601.287 41.7573 601.948 41.0107 602.588 40.328C603.271 39.6453 603.996 39.0693 604.764 38.6C605.532 38.1307 606.428 37.896 607.452 37.896C609.372 37.896 610.844 38.7067 611.868 40.328C612.935 41.9067 613.468 44.1467 613.468 47.048C613.468 52.6373 611.42 56.8827 607.324 59.784C603.228 62.728 597.233 64.2 589.34 64.2C582.94 64.2 578.055 63.24 574.684 61.32C571.313 59.4 569.585 56.584 569.5 52.872V52.616C569.5 50.312 570.033 48.2427 571.1 46.408C572.167 44.5733 573.361 42.824 574.684 41.16C576.007 39.4533 577.201 37.7253 578.268 35.976C579.377 34.184 579.932 32.2 579.932 30.024C579.932 28.104 579.505 26.3973 578.652 24.904C577.799 23.4107 576.86 21.9813 575.836 20.616C574.812 19.208 573.873 17.7787 573.02 16.328C572.167 14.8773 571.74 13.2347 571.74 11.4C571.74 8.11466 573.255 5.64 576.284 3.976C579.356 2.26933 583.857 1.416 589.788 1.416ZM640.047 0.519997C642.607 0.519997 644.932 0.818663 647.023 1.416C649.156 1.97066 650.991 2.78133 652.527 3.848C654.063 4.872 655.257 6.10933 656.111 7.56C656.964 8.968 657.391 10.5253 657.391 12.232C657.391 14.3653 656.729 16.0293 655.407 17.224C654.127 18.376 652.292 18.952 649.903 18.952C648.025 18.952 646.575 18.5893 645.551 17.864C644.527 17.1387 644.015 16.0933 644.015 14.728C644.015 13.1493 643.417 11.784 642.223 10.632C641.028 9.48 639.492 8.904 637.615 8.904C636.676 8.904 635.652 9.13867 634.543 9.608C633.433 10.0347 632.388 10.5893 631.407 11.272C630.468 11.9547 629.657 12.7013 628.975 13.512C628.335 14.3227 628.015 15.112 628.015 15.88C628.015 16.8187 628.505 17.6933 629.487 18.504C630.468 19.272 631.769 20.0613 633.391 20.872C635.012 21.64 636.847 22.4507 638.895 23.304C640.985 24.1147 643.097 25.0107 645.231 25.992C647.364 26.9307 649.455 27.9973 651.503 29.192C653.593 30.3867 655.449 31.752 657.071 33.288C658.692 34.7813 659.993 36.488 660.975 38.408C661.956 40.328 662.447 42.4827 662.447 44.872C662.447 47.4747 661.849 49.8853 660.655 52.104C659.46 54.3227 657.796 56.2213 655.663 57.8C653.529 59.4213 651.012 60.68 648.111 61.576C645.209 62.472 642.031 62.92 638.575 62.92C635.119 62.92 631.897 62.4507 628.911 61.512C625.967 60.616 623.428 59.336 621.295 57.672C619.161 56.0507 617.476 54.1093 616.239 51.848C615.044 49.5867 614.447 47.112 614.447 44.424C614.447 41.1387 615.321 38.536 617.071 36.616C618.863 34.6533 621.273 33.672 624.303 33.672C626.479 33.672 628.143 34.184 629.295 35.208C630.489 36.232 631.087 37.6613 631.087 39.496C631.087 40.6053 631.449 41.6293 632.175 42.568C632.9 43.464 633.775 44.232 634.799 44.872C635.823 45.512 636.889 46.0027 637.999 46.344C639.108 46.6853 640.025 46.856 640.751 46.856C641.476 46.856 642.223 46.7707 642.991 46.6C643.801 46.3867 644.548 46.1093 645.231 45.768C645.913 45.4267 646.468 45.0213 646.895 44.552C647.321 44.04 647.535 43.464 647.535 42.824C647.535 41.8 647.108 40.84 646.255 39.944C645.444 39.0053 644.356 38.1093 642.991 37.256C641.668 36.36 640.153 35.464 638.447 34.568C636.74 33.672 634.969 32.7547 633.135 31.816C631.343 30.8347 629.593 29.8107 627.887 28.744C626.18 27.6347 624.644 26.44 623.279 25.16C621.956 23.8373 620.868 22.408 620.015 20.872C619.204 19.336 618.799 17.6293 618.799 15.752C618.799 13.6187 619.332 11.6347 620.399 9.8C621.508 7.92266 623.023 6.30133 624.943 4.936C626.863 3.57066 629.103 2.504 631.663 1.736C634.265 0.92533 637.06 0.519997 640.047 0.519997Z" fill="black" fill-opacity="0.87" shape-rendering="crispEdges"/>
</g>
<defs>
<filter id="filter0_d_22_20" x="0.448242" y="0.456055" width="661.998" height="68.3839" filterUnits="userSpaceOnUse" color-interpolation-filters="sRGB">
<feFlood flood-opacity="0" result="BackgroundImageFix"/>
<feColorMatrix in="SourceAlpha" type="matrix" values="0 0 0 0 0 0 0 0 0 0 0 0 0 0 0 0 0 0 127 0" result="hardAlpha"/>
<feOffset dx="-4" dy="4"/>
<feComposite in2="hardAlpha" operator="out"/>
<feColorMatrix type="matrix" values="0 0 0 0 0.875423 0 0 0 0 0.422765 0 0 0 0 0.240399 0 0 0 1 0"/>
<feBlend mode="normal" in2="BackgroundImageFix" result="effect1_dropShadow_22_20"/>
<feBlend mode="normal" in="SourceGraphic" in2="effect1_dropShadow_22_20" result="shape"/>
</filter>
</defs>
</svg>
