<svg width="280" height="94" viewBox="0 0 280 94" fill="none" xmlns="http://www.w3.org/2000/svg">
<path d="M9.56818 35L0.0227273 0.0909081H4.31818L11.6136 28.5227H11.9545L19.3864 0.0909081H24.1591L31.5909 28.5227H31.9318L39.2273 0.0909081H43.5227L33.9773 35H29.6136L21.9091 7.18182H21.6364L13.9318 35H9.56818ZM47.5028 35H43.071L55.8892 0.0909081H60.2528L73.071 35H68.6392L58.2074 5.61364H57.9347L47.5028 35ZM49.1392 21.3636H67.0028V25.1136H49.1392V21.3636ZM76.6591 0.0909081L87.0227 29.4773H87.4318L97.7955 0.0909081H102.227L89.4091 35H85.0455L72.2273 0.0909081H76.6591ZM104.665 0.0909081H109.506L119.188 16.3864H119.597L129.278 0.0909081H134.119L121.506 20.6136V35H117.278V20.6136L104.665 0.0909081ZM7.45455 58.0909V93H3.22727V58.0909H7.45455ZM43.6122 58.0909V93H39.5213L20.4986 65.5909H20.1577V93H15.9304V58.0909H20.0213L39.1122 85.5682H39.4531V58.0909H43.6122ZM62.8438 93H52.071V58.0909H63.321C66.7074 58.0909 69.6051 58.7898 72.0142 60.1875C74.4233 61.5739 76.2699 63.5682 77.554 66.1705C78.8381 68.7614 79.4801 71.8636 79.4801 75.4773C79.4801 79.1136 78.8324 82.2443 77.5369 84.8693C76.2415 87.483 74.3551 89.4943 71.8778 90.9034C69.4006 92.3011 66.3892 93 62.8438 93ZM56.2983 89.25H62.571C65.4574 89.25 67.8494 88.6932 69.7472 87.5795C71.6449 86.4659 73.0597 84.8807 73.9915 82.8239C74.9233 80.767 75.3892 78.3182 75.3892 75.4773C75.3892 72.6591 74.929 70.233 74.0085 68.1989C73.0881 66.1534 71.7131 64.5852 69.8835 63.4943C68.054 62.392 65.7756 61.8409 63.0483 61.8409H56.2983V89.25ZM109.48 58.0909H113.707V81.2045C113.707 83.5909 113.145 85.7216 112.02 87.5966C110.906 89.4602 109.332 90.9318 107.298 92.0114C105.264 93.0795 102.878 93.6136 100.139 93.6136C97.4006 93.6136 95.0142 93.0795 92.9801 92.0114C90.946 90.9318 89.3665 89.4602 88.2415 87.5966C87.1278 85.7216 86.571 83.5909 86.571 81.2045V58.0909H90.7983V80.8636C90.7983 82.5682 91.1733 84.0852 91.9233 85.4148C92.6733 86.733 93.7415 87.7727 95.1278 88.5341C96.5256 89.2841 98.196 89.6591 100.139 89.6591C102.082 89.6591 103.753 89.2841 105.151 88.5341C106.548 87.7727 107.616 86.733 108.355 85.4148C109.105 84.0852 109.48 82.5682 109.48 80.8636V58.0909ZM141.24 66.8182C141.036 65.0909 140.206 63.75 138.751 62.7955C137.297 61.8409 135.513 61.3636 133.399 61.3636C131.854 61.3636 130.501 61.6136 129.342 62.1136C128.195 62.6136 127.297 63.3011 126.649 64.1761C126.013 65.0511 125.695 66.0455 125.695 67.1591C125.695 68.0909 125.916 68.892 126.359 69.5625C126.814 70.2216 127.393 70.7727 128.098 71.2159C128.803 71.6477 129.541 72.0057 130.314 72.2898C131.087 72.5625 131.797 72.7841 132.445 72.9545L135.99 73.9091C136.899 74.1477 137.911 74.4773 139.024 74.8977C140.149 75.3182 141.223 75.892 142.246 76.6193C143.28 77.3352 144.132 78.2557 144.803 79.3807C145.473 80.5057 145.808 81.8864 145.808 83.5227C145.808 85.4091 145.314 87.1136 144.325 88.6364C143.348 90.1591 141.916 91.3693 140.03 92.267C138.155 93.1648 135.876 93.6136 133.195 93.6136C130.695 93.6136 128.53 93.2102 126.7 92.4034C124.882 91.5966 123.45 90.4716 122.405 89.0284C121.371 87.5852 120.786 85.9091 120.649 84H125.013C125.126 85.3182 125.57 86.4091 126.342 87.2727C127.126 88.125 128.115 88.7614 129.308 89.1818C130.513 89.5909 131.808 89.7955 133.195 89.7955C134.808 89.7955 136.257 89.5341 137.541 89.0114C138.825 88.4773 139.842 87.7386 140.592 86.7955C141.342 85.8409 141.717 84.7273 141.717 83.4545C141.717 82.2955 141.393 81.3523 140.746 80.625C140.098 79.8977 139.246 79.3068 138.189 78.8523C137.132 78.3977 135.99 78 134.763 77.6591L130.467 76.4318C127.74 75.6477 125.581 74.5284 123.99 73.0739C122.399 71.6193 121.604 69.7159 121.604 67.3636C121.604 65.4091 122.132 63.7045 123.189 62.25C124.257 60.7841 125.689 59.6477 127.484 58.8409C129.291 58.0227 131.308 57.6136 133.536 57.6136C135.786 57.6136 137.786 58.017 139.536 58.8239C141.286 59.6193 142.672 60.7102 143.695 62.0966C144.729 63.483 145.274 65.0568 145.331 66.8182H141.24ZM150.849 61.8409V58.0909H177.031V61.8409H166.054V93H161.827V61.8409H150.849ZM183.555 93V58.0909H195.351C198.078 58.0909 200.317 58.5568 202.067 59.4886C203.817 60.4091 205.112 61.6761 205.953 63.2898C206.794 64.9034 207.214 66.7386 207.214 68.7955C207.214 70.8523 206.794 72.6761 205.953 74.267C205.112 75.858 203.822 77.108 202.084 78.017C200.345 78.9148 198.124 79.3636 195.419 79.3636H185.874V75.5455H195.283C197.146 75.5455 198.646 75.2727 199.783 74.7273C200.93 74.1818 201.76 73.4091 202.271 72.4091C202.794 71.3977 203.055 70.1932 203.055 68.7955C203.055 67.3977 202.794 66.1761 202.271 65.1307C201.749 64.0852 200.913 63.2784 199.766 62.7102C198.618 62.1307 197.101 61.8409 195.214 61.8409H187.783V93H183.555ZM199.987 77.3182L208.578 93H203.669L195.214 77.3182H199.987ZM218.486 58.0909V93H214.259V58.0909H218.486ZM226.962 93V58.0909H248.03V61.8409H231.189V73.6364H246.939V77.3864H231.189V89.25H248.303V93H226.962ZM274.74 66.8182C274.536 65.0909 273.706 63.75 272.251 62.7955C270.797 61.8409 269.013 61.3636 266.899 61.3636C265.354 61.3636 264.001 61.6136 262.842 62.1136C261.695 62.6136 260.797 63.3011 260.149 64.1761C259.513 65.0511 259.195 66.0455 259.195 67.1591C259.195 68.0909 259.416 68.892 259.859 69.5625C260.314 70.2216 260.893 70.7727 261.598 71.2159C262.303 71.6477 263.041 72.0057 263.814 72.2898C264.587 72.5625 265.297 72.7841 265.945 72.9545L269.49 73.9091C270.399 74.1477 271.411 74.4773 272.524 74.8977C273.649 75.3182 274.723 75.892 275.746 76.6193C276.78 77.3352 277.632 78.2557 278.303 79.3807C278.973 80.5057 279.308 81.8864 279.308 83.5227C279.308 85.4091 278.814 87.1136 277.825 88.6364C276.848 90.1591 275.416 91.3693 273.53 92.267C271.655 93.1648 269.376 93.6136 266.695 93.6136C264.195 93.6136 262.03 93.2102 260.2 92.4034C258.382 91.5966 256.95 90.4716 255.905 89.0284C254.871 87.5852 254.286 85.9091 254.149 84H258.513C258.626 85.3182 259.07 86.4091 259.842 87.2727C260.626 88.125 261.615 88.7614 262.808 89.1818C264.013 89.5909 265.308 89.7955 266.695 89.7955C268.308 89.7955 269.757 89.5341 271.041 89.0114C272.325 88.4773 273.342 87.7386 274.092 86.7955C274.842 85.8409 275.217 84.7273 275.217 83.4545C275.217 82.2955 274.893 81.3523 274.246 80.625C273.598 79.8977 272.746 79.3068 271.689 78.8523C270.632 78.3977 269.49 78 268.263 77.6591L263.967 76.4318C261.24 75.6477 259.081 74.5284 257.49 73.0739C255.899 71.6193 255.104 69.7159 255.104 67.3636C255.104 65.4091 255.632 63.7045 256.689 62.25C257.757 60.7841 259.189 59.6477 260.984 58.8409C262.791 58.0227 264.808 57.6136 267.036 57.6136C269.286 57.6136 271.286 58.017 273.036 58.8239C274.786 59.6193 276.172 60.7102 277.195 62.0966C278.229 63.483 278.774 65.0568 278.831 66.8182H274.74Z" fill="black"/>
</svg>
