<svg width="757" height="109" viewBox="0 0 757 109" fill="none" xmlns="http://www.w3.org/2000/svg">
<path d="M111.664 12.24C111.653 12.8267 111.744 13.3173 111.936 13.712C112.128 14.1067 112.389 14.4213 112.72 14.656C113.061 14.8907 113.461 15.0613 113.92 15.168C114.379 15.264 114.869 15.312 115.392 15.312C115.691 15.312 116.016 15.2693 116.368 15.184C116.72 15.0987 117.045 14.9653 117.344 14.784C117.653 14.592 117.909 14.352 118.112 14.064C118.315 13.7653 118.416 13.408 118.416 12.992C118.416 12.672 118.341 12.3947 118.192 12.16C118.053 11.9253 117.867 11.728 117.632 11.568C117.408 11.408 117.157 11.28 116.88 11.184C116.603 11.0773 116.331 10.992 116.064 10.928L113.52 10.304C113.189 10.2187 112.864 10.112 112.544 9.984C112.235 9.856 111.963 9.68533 111.728 9.472C111.493 9.25867 111.301 8.99733 111.152 8.688C111.013 8.37867 110.944 8 110.944 7.552C110.944 7.27467 110.997 6.94933 111.104 6.576C111.211 6.20267 111.408 5.85067 111.696 5.52C111.995 5.18933 112.4 4.912 112.912 4.688C113.424 4.45333 114.08 4.336 114.88 4.336C115.445 4.336 115.984 4.41067 116.496 4.56C117.008 4.70933 117.456 4.93333 117.84 5.232C118.224 5.53067 118.528 5.904 118.752 6.352C118.987 6.78933 119.104 7.30133 119.104 7.888H118.016C117.995 7.45067 117.893 7.072 117.712 6.752C117.541 6.42133 117.312 6.14933 117.024 5.936C116.747 5.712 116.421 5.54667 116.048 5.44C115.685 5.32267 115.301 5.264 114.896 5.264C114.523 5.264 114.16 5.30667 113.808 5.392C113.467 5.46667 113.163 5.59467 112.896 5.776C112.64 5.94667 112.432 6.176 112.272 6.464C112.112 6.752 112.032 7.10933 112.032 7.536C112.032 7.80267 112.075 8.03733 112.16 8.24C112.256 8.432 112.384 8.59733 112.544 8.736C112.704 8.87467 112.885 8.98667 113.088 9.072C113.301 9.15733 113.525 9.22667 113.76 9.28L116.544 9.968C116.949 10.0747 117.328 10.208 117.68 10.368C118.043 10.5173 118.357 10.7093 118.624 10.944C118.901 11.168 119.115 11.4453 119.264 11.776C119.424 12.1067 119.504 12.5067 119.504 12.976C119.504 13.104 119.488 13.2747 119.456 13.488C119.435 13.7013 119.371 13.9307 119.264 14.176C119.168 14.4107 119.024 14.6507 118.832 14.896C118.651 15.1413 118.395 15.3653 118.064 15.568C117.744 15.76 117.344 15.9147 116.864 16.032C116.384 16.16 115.808 16.224 115.136 16.224C114.464 16.224 113.84 16.1493 113.264 16C112.688 15.84 112.197 15.6 111.792 15.28C111.387 14.96 111.072 14.5493 110.848 14.048C110.635 13.5467 110.544 12.944 110.576 12.24H111.664ZM121.23 4.576H122.318V9.536H129.102V4.576H130.19V16H129.102V10.464H122.318V16H121.23V4.576ZM132.576 4.576H133.664V16H132.576V4.576ZM136.043 4.576H143.291V5.504H137.131V9.632H142.603V10.56H137.131V16H136.043V4.576ZM143.42 4.576H152.46V5.504H148.476V16H147.388V5.504H143.42V4.576ZM160.972 8.592H159.34V16H158.332V8.592H156.924V7.744H158.332V6.992C158.332 6.64 158.359 6.31467 158.412 6.016C158.465 5.71733 158.567 5.46133 158.716 5.248C158.865 5.03467 159.068 4.86933 159.324 4.752C159.591 4.63467 159.927 4.576 160.332 4.576C160.481 4.576 160.62 4.58133 160.748 4.592C160.876 4.60267 161.02 4.61867 161.18 4.64V5.504C161.041 5.48267 160.913 5.46667 160.796 5.456C160.679 5.43467 160.561 5.424 160.444 5.424C160.167 5.424 159.953 5.46667 159.804 5.552C159.655 5.63733 159.543 5.75467 159.468 5.904C159.404 6.04267 159.367 6.208 159.356 6.4C159.345 6.592 159.34 6.8 159.34 7.024V7.744H160.972V8.592ZM168.617 16H167.689V14.512H167.657C167.39 15.0667 167.001 15.4933 166.489 15.792C165.987 16.08 165.427 16.224 164.809 16.224C164.286 16.224 163.838 16.1493 163.465 16C163.102 15.8613 162.803 15.6587 162.569 15.392C162.345 15.1253 162.179 14.8 162.073 14.416C161.966 14.032 161.913 13.5947 161.913 13.104V7.744H162.921V13.12C162.942 13.8667 163.113 14.432 163.433 14.816C163.763 15.2 164.329 15.392 165.129 15.392C165.566 15.392 165.939 15.3013 166.249 15.12C166.558 14.928 166.814 14.6773 167.017 14.368C167.219 14.0587 167.369 13.7067 167.465 13.312C167.561 12.9067 167.609 12.496 167.609 12.08V7.744H168.617V16ZM170.507 7.744H171.515V9.168H171.547C171.739 8.66667 172.08 8.26667 172.571 7.968C173.061 7.65867 173.6 7.504 174.187 7.504C174.763 7.504 175.243 7.57867 175.627 7.728C176.021 7.87733 176.336 8.09067 176.571 8.368C176.805 8.63467 176.971 8.96533 177.067 9.36C177.163 9.75467 177.211 10.1973 177.211 10.688V16H176.203V10.848C176.203 10.496 176.171 10.1707 176.107 9.872C176.043 9.56267 175.931 9.296 175.771 9.072C175.611 8.848 175.392 8.672 175.115 8.544C174.848 8.416 174.512 8.352 174.107 8.352C173.701 8.352 173.339 8.42667 173.019 8.576C172.709 8.71467 172.443 8.912 172.219 9.168C172.005 9.41333 171.835 9.712 171.707 10.064C171.589 10.4053 171.525 10.7787 171.515 11.184V16H170.507V7.744ZM184.94 10.336C184.802 9.71733 184.546 9.232 184.172 8.88C183.799 8.528 183.276 8.352 182.604 8.352C182.124 8.352 181.703 8.45333 181.34 8.656C180.978 8.85867 180.674 9.12533 180.428 9.456C180.194 9.78667 180.012 10.1653 179.884 10.592C179.767 11.008 179.708 11.4347 179.708 11.872C179.708 12.3093 179.767 12.7413 179.884 13.168C180.012 13.584 180.194 13.9573 180.428 14.288C180.674 14.6187 180.978 14.8853 181.34 15.088C181.703 15.2907 182.124 15.392 182.604 15.392C182.914 15.392 183.207 15.3333 183.484 15.216C183.762 15.0987 184.007 14.9387 184.22 14.736C184.434 14.5227 184.61 14.272 184.748 13.984C184.887 13.696 184.972 13.3813 185.004 13.04H186.012C185.874 14.0427 185.506 14.8267 184.908 15.392C184.311 15.9467 183.543 16.224 182.604 16.224C181.975 16.224 181.415 16.112 180.924 15.888C180.444 15.6533 180.039 15.3387 179.708 14.944C179.378 14.5493 179.127 14.0907 178.956 13.568C178.786 13.0347 178.7 12.4693 178.7 11.872C178.7 11.2747 178.786 10.7147 178.956 10.192C179.127 9.65867 179.378 9.19467 179.708 8.8C180.039 8.40533 180.444 8.09067 180.924 7.856C181.415 7.62133 181.975 7.504 182.604 7.504C183.49 7.504 184.236 7.73867 184.844 8.208C185.463 8.67733 185.831 9.38667 185.948 10.336H184.94ZM189.013 7.744H190.693V8.592H189.013V14.16C189.013 14.4907 189.056 14.752 189.141 14.944C189.237 15.1253 189.466 15.2267 189.829 15.248C190.117 15.248 190.405 15.232 190.693 15.2V16.048C190.544 16.048 190.394 16.0533 190.245 16.064C190.096 16.0747 189.946 16.08 189.797 16.08C189.125 16.08 188.656 15.952 188.389 15.696C188.122 15.4293 187.994 14.944 188.005 14.24V8.592H186.565V7.744H188.005V5.264H189.013V7.744ZM192.164 4.576H193.172V6.192H192.164V4.576ZM192.164 7.744H193.172V16H192.164V7.744ZM198.589 8.352C198.109 8.352 197.687 8.45333 197.325 8.656C196.962 8.85867 196.658 9.12533 196.413 9.456C196.178 9.78667 195.997 10.1653 195.869 10.592C195.751 11.008 195.693 11.4347 195.693 11.872C195.693 12.3093 195.751 12.7413 195.869 13.168C195.997 13.584 196.178 13.9573 196.413 14.288C196.658 14.6187 196.962 14.8853 197.325 15.088C197.687 15.2907 198.109 15.392 198.589 15.392C199.069 15.392 199.49 15.2907 199.853 15.088C200.215 14.8853 200.514 14.6187 200.749 14.288C200.994 13.9573 201.175 13.584 201.293 13.168C201.421 12.7413 201.485 12.3093 201.485 11.872C201.485 11.4347 201.421 11.008 201.293 10.592C201.175 10.1653 200.994 9.78667 200.749 9.456C200.514 9.12533 200.215 8.85867 199.853 8.656C199.49 8.45333 199.069 8.352 198.589 8.352ZM198.589 7.504C199.218 7.504 199.773 7.62133 200.253 7.856C200.743 8.09067 201.154 8.40533 201.485 8.8C201.815 9.19467 202.066 9.65867 202.237 10.192C202.407 10.7147 202.493 11.2747 202.493 11.872C202.493 12.4693 202.407 13.0347 202.237 13.568C202.066 14.0907 201.815 14.5493 201.485 14.944C201.154 15.3387 200.743 15.6533 200.253 15.888C199.773 16.112 199.218 16.224 198.589 16.224C197.959 16.224 197.399 16.112 196.909 15.888C196.429 15.6533 196.023 15.3387 195.693 14.944C195.362 14.5493 195.111 14.0907 194.941 13.568C194.77 13.0347 194.685 12.4693 194.685 11.872C194.685 11.2747 194.77 10.7147 194.941 10.192C195.111 9.65867 195.362 9.19467 195.693 8.8C196.023 8.40533 196.429 8.09067 196.909 7.856C197.399 7.62133 197.959 7.504 198.589 7.504ZM203.975 7.744H204.983V9.168H205.015C205.207 8.66667 205.549 8.26667 206.039 7.968C206.53 7.65867 207.069 7.504 207.655 7.504C208.231 7.504 208.711 7.57867 209.095 7.728C209.49 7.87733 209.805 8.09067 210.039 8.368C210.274 8.63467 210.439 8.96533 210.535 9.36C210.631 9.75467 210.679 10.1973 210.679 10.688V16H209.671V10.848C209.671 10.496 209.639 10.1707 209.575 9.872C209.511 9.56267 209.399 9.296 209.239 9.072C209.079 8.848 208.861 8.672 208.583 8.544C208.317 8.416 207.981 8.352 207.575 8.352C207.17 8.352 206.807 8.42667 206.487 8.576C206.178 8.71467 205.911 8.912 205.687 9.168C205.474 9.41333 205.303 9.712 205.175 10.064C205.058 10.4053 204.994 10.7787 204.983 11.184V16H203.975V7.744ZM217.529 10.16C217.518 9.85067 217.454 9.584 217.337 9.36C217.22 9.12533 217.06 8.93333 216.857 8.784C216.665 8.63467 216.441 8.528 216.185 8.464C215.929 8.38933 215.657 8.352 215.369 8.352C215.145 8.352 214.916 8.37867 214.681 8.432C214.457 8.47467 214.249 8.55467 214.057 8.672C213.865 8.77867 213.71 8.92267 213.593 9.104C213.476 9.28533 213.417 9.50933 213.417 9.776C213.417 10 213.47 10.192 213.577 10.352C213.694 10.5013 213.838 10.6293 214.009 10.736C214.18 10.8427 214.366 10.9333 214.569 11.008C214.772 11.072 214.958 11.1253 215.129 11.168L216.473 11.472C216.761 11.5147 217.044 11.5947 217.321 11.712C217.609 11.8187 217.86 11.9627 218.073 12.144C218.297 12.3253 218.478 12.5493 218.617 12.816C218.756 13.0827 218.825 13.3973 218.825 13.76C218.825 14.208 218.724 14.592 218.521 14.912C218.318 15.2213 218.057 15.4773 217.737 15.68C217.428 15.872 217.076 16.0107 216.681 16.096C216.286 16.1813 215.897 16.224 215.513 16.224C214.542 16.224 213.753 15.9947 213.145 15.536C212.548 15.0773 212.206 14.3413 212.121 13.328H213.129C213.172 14.0107 213.417 14.528 213.865 14.88C214.324 15.2213 214.889 15.392 215.561 15.392C215.806 15.392 216.057 15.3653 216.313 15.312C216.58 15.2587 216.825 15.168 217.049 15.04C217.273 14.912 217.454 14.752 217.593 14.56C217.742 14.3573 217.817 14.112 217.817 13.824C217.817 13.5787 217.764 13.376 217.657 13.216C217.561 13.0453 217.428 12.9067 217.257 12.8C217.086 12.6827 216.889 12.5867 216.665 12.512C216.452 12.4373 216.233 12.3733 216.009 12.32L214.713 12.032C214.382 11.9467 214.078 11.8507 213.801 11.744C213.524 11.6267 213.278 11.488 213.065 11.328C212.862 11.1573 212.702 10.9547 212.585 10.72C212.468 10.4747 212.409 10.176 212.409 9.824C212.409 9.408 212.5 9.05067 212.681 8.752C212.873 8.45333 213.118 8.21333 213.417 8.032C213.716 7.85067 214.046 7.71733 214.409 7.632C214.782 7.54667 215.15 7.504 215.513 7.504C215.929 7.504 216.313 7.55733 216.665 7.664C217.028 7.77067 217.342 7.936 217.609 8.16C217.886 8.384 218.105 8.66133 218.265 8.992C218.425 9.32267 218.516 9.712 218.537 10.16H217.529ZM224.741 4.576H225.749V9.312H225.781C225.888 9.01333 226.037 8.752 226.229 8.528C226.432 8.304 226.661 8.11733 226.917 7.968C227.173 7.808 227.451 7.69067 227.749 7.616C228.048 7.54133 228.347 7.504 228.645 7.504C229.275 7.504 229.819 7.62133 230.277 7.856C230.747 8.09067 231.136 8.41067 231.445 8.816C231.755 9.21067 231.984 9.67467 232.133 10.208C232.283 10.7307 232.357 11.2853 232.357 11.872C232.357 12.4587 232.283 13.0187 232.133 13.552C231.984 14.0747 231.755 14.5387 231.445 14.944C231.136 15.3387 230.747 15.6533 230.277 15.888C229.819 16.112 229.275 16.224 228.645 16.224C227.973 16.224 227.371 16.0693 226.837 15.76C226.315 15.4507 225.936 15.008 225.701 14.432H225.669V16H224.741V4.576ZM231.349 11.872C231.349 11.4453 231.296 11.024 231.189 10.608C231.093 10.1813 230.933 9.80267 230.709 9.472C230.496 9.14133 230.219 8.87467 229.877 8.672C229.536 8.45867 229.125 8.352 228.645 8.352C228.112 8.352 227.659 8.45867 227.285 8.672C226.923 8.87467 226.624 9.14133 226.389 9.472C226.165 9.80267 226 10.1813 225.893 10.608C225.797 11.024 225.749 11.4453 225.749 11.872C225.749 12.2987 225.797 12.7253 225.893 13.152C226 13.568 226.165 13.9413 226.389 14.272C226.624 14.6027 226.923 14.8747 227.285 15.088C227.659 15.2907 228.112 15.392 228.645 15.392C229.125 15.392 229.536 15.2907 229.877 15.088C230.219 14.8747 230.496 14.6027 230.709 14.272C230.933 13.9413 231.093 13.568 231.189 13.152C231.296 12.7253 231.349 12.2987 231.349 11.872ZM239.865 11.296C239.854 10.912 239.785 10.544 239.657 10.192C239.539 9.84 239.369 9.53067 239.145 9.264C238.921 8.98667 238.649 8.768 238.329 8.608C238.009 8.43733 237.646 8.352 237.241 8.352C236.825 8.352 236.457 8.43733 236.137 8.608C235.817 8.768 235.545 8.98667 235.321 9.264C235.097 9.53067 234.915 9.84533 234.777 10.208C234.649 10.56 234.563 10.9227 234.521 11.296H239.865ZM234.521 12.144C234.521 12.5067 234.569 12.8853 234.665 13.28C234.771 13.664 234.937 14.0107 235.161 14.32C235.385 14.6293 235.667 14.8853 236.009 15.088C236.35 15.2907 236.761 15.392 237.241 15.392C237.977 15.392 238.553 15.2 238.969 14.816C239.385 14.432 239.673 13.92 239.833 13.28H240.841C240.627 14.2187 240.233 14.944 239.657 15.456C239.091 15.968 238.286 16.224 237.241 16.224C236.59 16.224 236.025 16.112 235.545 15.888C235.075 15.6533 234.691 15.3387 234.393 14.944C234.094 14.5387 233.87 14.0747 233.721 13.552C233.582 13.0187 233.513 12.4587 233.513 11.872C233.513 11.328 233.582 10.7947 233.721 10.272C233.87 9.74933 234.094 9.28533 234.393 8.88C234.691 8.464 235.075 8.13333 235.545 7.888C236.025 7.632 236.59 7.504 237.241 7.504C237.902 7.504 238.467 7.63733 238.937 7.904C239.406 8.17067 239.785 8.52267 240.073 8.96C240.371 9.38667 240.585 9.88267 240.713 10.448C240.841 11.0027 240.894 11.568 240.873 12.144H234.521ZM242.21 4.576H243.218V9.168H243.25C243.442 8.66667 243.783 8.26667 244.274 7.968C244.764 7.65867 245.303 7.504 245.89 7.504C246.466 7.504 246.946 7.57867 247.33 7.728C247.724 7.87733 248.039 8.09067 248.274 8.368C248.508 8.63467 248.674 8.96533 248.77 9.36C248.866 9.75467 248.914 10.1973 248.914 10.688V16H247.906V10.848C247.906 10.496 247.874 10.1707 247.81 9.872C247.746 9.56267 247.634 9.296 247.474 9.072C247.314 8.848 247.095 8.672 246.818 8.544C246.551 8.416 246.215 8.352 245.81 8.352C245.404 8.352 245.042 8.42667 244.722 8.576C244.412 8.71467 244.146 8.912 243.922 9.168C243.708 9.41333 243.538 9.712 243.41 10.064C243.292 10.4053 243.228 10.7787 243.218 11.184V16H242.21V4.576ZM250.723 10.272C250.755 9.792 250.857 9.376 251.027 9.024C251.198 8.672 251.427 8.384 251.715 8.16C252.014 7.936 252.361 7.77067 252.755 7.664C253.15 7.55733 253.587 7.504 254.067 7.504C254.43 7.504 254.793 7.54133 255.155 7.616C255.518 7.68 255.843 7.808 256.131 8C256.419 8.192 256.654 8.464 256.835 8.816C257.017 9.15733 257.107 9.60533 257.107 10.16V14.544C257.107 14.9493 257.305 15.152 257.699 15.152C257.817 15.152 257.923 15.1307 258.019 15.088V15.936C257.902 15.9573 257.795 15.9733 257.699 15.984C257.614 15.9947 257.502 16 257.363 16C257.107 16 256.899 15.968 256.739 15.904C256.59 15.8293 256.473 15.728 256.387 15.6C256.302 15.472 256.243 15.3227 256.211 15.152C256.19 14.9707 256.179 14.7733 256.179 14.56H256.147C255.966 14.8267 255.779 15.0667 255.587 15.28C255.406 15.4827 255.198 15.6533 254.963 15.792C254.739 15.9307 254.478 16.0373 254.179 16.112C253.891 16.1867 253.545 16.224 253.139 16.224C252.755 16.224 252.393 16.176 252.051 16.08C251.721 15.9947 251.427 15.856 251.171 15.664C250.926 15.4613 250.729 15.2107 250.579 14.912C250.441 14.6027 250.371 14.24 250.371 13.824C250.371 13.248 250.499 12.8 250.755 12.48C251.011 12.1493 251.347 11.8987 251.763 11.728C252.19 11.5573 252.665 11.44 253.187 11.376C253.721 11.3013 254.259 11.232 254.803 11.168C255.017 11.1467 255.203 11.12 255.363 11.088C255.523 11.056 255.657 11.0027 255.763 10.928C255.87 10.8427 255.95 10.7307 256.003 10.592C256.067 10.4533 256.099 10.272 256.099 10.048C256.099 9.70667 256.041 9.42933 255.923 9.216C255.817 8.992 255.662 8.816 255.459 8.688C255.267 8.56 255.038 8.47467 254.771 8.432C254.515 8.37867 254.238 8.352 253.939 8.352C253.299 8.352 252.777 8.50667 252.371 8.816C251.966 9.11467 251.753 9.6 251.731 10.272H250.723ZM256.099 11.488H256.067C256.003 11.6053 255.881 11.6907 255.699 11.744C255.518 11.7973 255.358 11.8347 255.219 11.856C254.793 11.9307 254.35 12 253.891 12.064C253.443 12.1173 253.033 12.2027 252.659 12.32C252.286 12.4373 251.977 12.608 251.731 12.832C251.497 13.0453 251.379 13.3547 251.379 13.76C251.379 14.016 251.427 14.2453 251.523 14.448C251.63 14.64 251.769 14.8107 251.939 14.96C252.11 15.0987 252.307 15.2053 252.531 15.28C252.755 15.3547 252.985 15.392 253.219 15.392C253.603 15.392 253.971 15.3333 254.323 15.216C254.675 15.0987 254.979 14.928 255.235 14.704C255.502 14.48 255.71 14.208 255.859 13.888C256.019 13.568 256.099 13.2053 256.099 12.8V11.488ZM258.188 7.744H259.308L261.9 14.992H261.932L264.492 7.744H265.532L262.444 16H261.372L258.188 7.744ZM266.539 4.576H267.547V6.192H266.539V4.576ZM266.539 7.744H267.547V16H266.539V7.744ZM272.964 8.352C272.484 8.352 272.062 8.45333 271.7 8.656C271.337 8.85867 271.033 9.12533 270.788 9.456C270.553 9.78667 270.372 10.1653 270.244 10.592C270.126 11.008 270.068 11.4347 270.068 11.872C270.068 12.3093 270.126 12.7413 270.244 13.168C270.372 13.584 270.553 13.9573 270.788 14.288C271.033 14.6187 271.337 14.8853 271.7 15.088C272.062 15.2907 272.484 15.392 272.964 15.392C273.444 15.392 273.865 15.2907 274.228 15.088C274.59 14.8853 274.889 14.6187 275.124 14.288C275.369 13.9573 275.55 13.584 275.668 13.168C275.796 12.7413 275.86 12.3093 275.86 11.872C275.86 11.4347 275.796 11.008 275.668 10.592C275.55 10.1653 275.369 9.78667 275.124 9.456C274.889 9.12533 274.59 8.85867 274.228 8.656C273.865 8.45333 273.444 8.352 272.964 8.352ZM272.964 7.504C273.593 7.504 274.148 7.62133 274.628 7.856C275.118 8.09067 275.529 8.40533 275.86 8.8C276.19 9.19467 276.441 9.65867 276.612 10.192C276.782 10.7147 276.868 11.2747 276.868 11.872C276.868 12.4693 276.782 13.0347 276.612 13.568C276.441 14.0907 276.19 14.5493 275.86 14.944C275.529 15.3387 275.118 15.6533 274.628 15.888C274.148 16.112 273.593 16.224 272.964 16.224C272.334 16.224 271.774 16.112 271.284 15.888C270.804 15.6533 270.398 15.3387 270.068 14.944C269.737 14.5493 269.486 14.0907 269.316 13.568C269.145 13.0347 269.06 12.4693 269.06 11.872C269.06 11.2747 269.145 10.7147 269.316 10.192C269.486 9.65867 269.737 9.19467 270.068 8.8C270.398 8.40533 270.804 8.09067 271.284 7.856C271.774 7.62133 272.334 7.504 272.964 7.504ZM285.054 16H284.126V14.512H284.094C283.828 15.0667 283.438 15.4933 282.926 15.792C282.425 16.08 281.865 16.224 281.246 16.224C280.724 16.224 280.276 16.1493 279.902 16C279.54 15.8613 279.241 15.6587 279.006 15.392C278.782 15.1253 278.617 14.8 278.51 14.416C278.404 14.032 278.35 13.5947 278.35 13.104V7.744H279.358V13.12C279.38 13.8667 279.55 14.432 279.87 14.816C280.201 15.2 280.766 15.392 281.566 15.392C282.004 15.392 282.377 15.3013 282.686 15.12C282.996 14.928 283.252 14.6773 283.454 14.368C283.657 14.0587 283.806 13.7067 283.902 13.312C283.998 12.9067 284.046 12.496 284.046 12.08V7.744H285.054V16ZM286.96 7.744H287.888V9.68H287.92C288.176 9.008 288.571 8.49067 289.104 8.128C289.648 7.76533 290.293 7.6 291.04 7.632V8.64C290.581 8.61867 290.165 8.68267 289.792 8.832C289.419 8.97067 289.093 9.17333 288.816 9.44C288.549 9.70667 288.341 10.0267 288.192 10.4C288.043 10.7627 287.968 11.1627 287.968 11.6V16H286.96V7.744Z" fill="black"/>
<path d="M54.8849 39.4545V40.8182H50.8452V39.4545H54.8849ZM51.7699 46V38.9815C51.7699 38.5071 51.8622 38.1136 52.0469 37.8011C52.2344 37.4886 52.4901 37.2543 52.8139 37.098C53.1378 36.9418 53.5057 36.8636 53.9176 36.8636C54.196 36.8636 54.4503 36.8849 54.6804 36.9276C54.9134 36.9702 55.0866 37.0085 55.2003 37.0426L54.8764 38.4062C54.8054 38.3835 54.7173 38.3622 54.6122 38.3423C54.5099 38.3224 54.4048 38.3125 54.2969 38.3125C54.0298 38.3125 53.8438 38.375 53.7386 38.5C53.6335 38.6222 53.581 38.794 53.581 39.0156V46H51.7699ZM60.1914 43.2131V39.4545H62.0067V46H60.2638V44.8111H60.1957C60.0479 45.1946 59.8022 45.5028 59.4585 45.7358C59.1175 45.9687 58.7013 46.0852 58.2099 46.0852C57.7724 46.0852 57.3874 45.9858 57.055 45.7869C56.7227 45.5881 56.4627 45.3054 56.2752 44.9389C56.0906 44.5724 55.9968 44.1335 55.994 43.6222V39.4545H57.8093V43.2983C57.8121 43.6847 57.9158 43.9901 58.1204 44.2145C58.3249 44.4389 58.5991 44.5511 58.9428 44.5511C59.1616 44.5511 59.3661 44.5014 59.5565 44.402C59.7468 44.2997 59.9002 44.1491 60.0167 43.9503C60.136 43.7514 60.1942 43.5057 60.1914 43.2131ZM65.2741 42.2159V46H63.4588V39.4545H65.1889V40.6094H65.2656C65.4105 40.2287 65.6534 39.9276 65.9943 39.706C66.3352 39.4815 66.7486 39.3693 67.2344 39.3693C67.6889 39.3693 68.0852 39.4688 68.4233 39.6676C68.7614 39.8665 69.0241 40.1506 69.2116 40.5199C69.3991 40.8864 69.4929 41.3239 69.4929 41.8324V46H67.6776V42.1562C67.6804 41.7557 67.5781 41.4432 67.3707 41.2188C67.1634 40.9915 66.8778 40.8778 66.5142 40.8778C66.2699 40.8778 66.054 40.9304 65.8665 41.0355C65.6818 41.1406 65.5369 41.294 65.4318 41.4957C65.3295 41.6946 65.277 41.9347 65.2741 42.2159ZM73.881 46.1278C73.2106 46.1278 72.6339 45.9858 72.1509 45.7017C71.6708 45.4148 71.3015 45.017 71.043 44.5085C70.7873 44 70.6594 43.4148 70.6594 42.7528C70.6594 42.0824 70.7887 41.4943 71.0472 40.9886C71.3086 40.4801 71.6793 40.0838 72.1594 39.7997C72.6396 39.5128 73.2106 39.3693 73.8725 39.3693C74.4435 39.3693 74.9435 39.473 75.3725 39.6804C75.8015 39.8878 76.141 40.179 76.391 40.554C76.641 40.929 76.7788 41.3693 76.8043 41.875H75.0913C75.043 41.5483 74.9151 41.2855 74.7077 41.0866C74.5032 40.8849 74.2347 40.7841 73.9023 40.7841C73.6211 40.7841 73.3754 40.8608 73.1651 41.0142C72.9577 41.1648 72.7958 41.3849 72.6793 41.6747C72.5629 41.9645 72.5046 42.3153 72.5046 42.7273C72.5046 43.1449 72.5614 43.5 72.6751 43.7926C72.7915 44.0852 72.9549 44.3082 73.1651 44.4616C73.3754 44.6151 73.6211 44.6918 73.9023 44.6918C74.1097 44.6918 74.2958 44.6491 74.4606 44.5639C74.6282 44.4787 74.766 44.3551 74.8739 44.1932C74.9847 44.0284 75.0572 43.831 75.0913 43.6009H76.8043C76.7759 44.1009 76.6396 44.5412 76.3952 44.9219C76.1538 45.2997 75.82 45.5952 75.3938 45.8082C74.9677 46.0213 74.4634 46.1278 73.881 46.1278ZM81.4482 39.4545V40.8182H77.5064V39.4545H81.4482ZM78.4013 37.8864H80.2166V43.9886C80.2166 44.1562 80.2422 44.2869 80.2933 44.3807C80.3445 44.4716 80.4155 44.5355 80.5064 44.5724C80.6001 44.6094 80.7081 44.6278 80.8303 44.6278C80.9155 44.6278 81.0007 44.6207 81.0859 44.6065C81.1712 44.5895 81.2365 44.5767 81.282 44.5682L81.5675 45.919C81.4766 45.9474 81.3487 45.9801 81.1839 46.017C81.0192 46.0568 80.8189 46.081 80.5831 46.0895C80.1456 46.1065 79.7621 46.0483 79.4325 45.9148C79.1058 45.7812 78.8516 45.5739 78.6697 45.2926C78.4879 45.0114 78.3984 44.6562 78.4013 44.2273V37.8864ZM82.6307 46V39.4545H84.446V46H82.6307ZM83.5426 38.6108C83.2727 38.6108 83.0412 38.5213 82.848 38.3423C82.6577 38.1605 82.5625 37.9432 82.5625 37.6903C82.5625 37.4403 82.6577 37.2259 82.848 37.0469C83.0412 36.8651 83.2727 36.7741 83.5426 36.7741C83.8125 36.7741 84.0426 36.8651 84.233 37.0469C84.4261 37.2259 84.5227 37.4403 84.5227 37.6903C84.5227 37.9432 84.4261 38.1605 84.233 38.3423C84.0426 38.5213 83.8125 38.6108 83.5426 38.6108ZM88.8576 46.1278C88.1957 46.1278 87.6232 45.9872 87.1403 45.706C86.6602 45.4219 86.2894 45.027 86.0281 44.5213C85.7667 44.0128 85.636 43.4233 85.636 42.7528C85.636 42.0767 85.7667 41.4858 86.0281 40.9801C86.2894 40.4716 86.6602 40.0767 87.1403 39.7955C87.6232 39.5114 88.1957 39.3693 88.8576 39.3693C89.5195 39.3693 90.0906 39.5114 90.5707 39.7955C91.0536 40.0767 91.4258 40.4716 91.6871 40.9801C91.9485 41.4858 92.0792 42.0767 92.0792 42.7528C92.0792 43.4233 91.9485 44.0128 91.6871 44.5213C91.4258 45.027 91.0536 45.4219 90.5707 45.706C90.0906 45.9872 89.5195 46.1278 88.8576 46.1278ZM88.8661 44.7216C89.1673 44.7216 89.4187 44.6364 89.6204 44.4659C89.8221 44.2926 89.9741 44.0568 90.0763 43.7585C90.1815 43.4602 90.234 43.1207 90.234 42.7401C90.234 42.3594 90.1815 42.0199 90.0763 41.7216C89.9741 41.4233 89.8221 41.1875 89.6204 41.0142C89.4187 40.8409 89.1673 40.7543 88.8661 40.7543C88.5621 40.7543 88.3065 40.8409 88.0991 41.0142C87.8945 41.1875 87.7397 41.4233 87.6346 41.7216C87.5323 42.0199 87.4812 42.3594 87.4812 42.7401C87.4812 43.1207 87.5323 43.4602 87.6346 43.7585C87.7397 44.0568 87.8945 44.2926 88.0991 44.4659C88.3065 44.6364 88.5621 44.7216 88.8661 44.7216ZM95.0749 42.2159V46H93.2596V39.4545H94.9897V40.6094H95.0664C95.2113 40.2287 95.4542 39.9276 95.7951 39.706C96.136 39.4815 96.5494 39.3693 97.0352 39.3693C97.4897 39.3693 97.886 39.4688 98.2241 39.6676C98.5621 39.8665 98.8249 40.1506 99.0124 40.5199C99.1999 40.8864 99.2937 41.3239 99.2937 41.8324V46H97.4783V42.1562C97.4812 41.7557 97.3789 41.4432 97.1715 41.2188C96.9641 40.9915 96.6786 40.8778 96.315 40.8778C96.0707 40.8778 95.8548 40.9304 95.6673 41.0355C95.4826 41.1406 95.3377 41.294 95.2326 41.4957C95.1303 41.6946 95.0778 41.9347 95.0749 42.2159Z" fill="black"/>
<path d="M118.42 41.6364C118.42 42.5568 118.254 43.3523 117.922 44.0227C117.589 44.6932 117.134 45.2102 116.554 45.5739C115.974 45.9375 115.313 46.1193 114.568 46.1193C113.824 46.1193 113.162 45.9375 112.582 45.5739C112.003 45.2102 111.547 44.6932 111.214 44.0227C110.882 43.3523 110.716 42.5568 110.716 41.6364C110.716 40.7159 110.882 39.9205 111.214 39.25C111.547 38.5795 112.003 38.0625 112.582 37.6989C113.162 37.3352 113.824 37.1534 114.568 37.1534C115.313 37.1534 115.974 37.3352 116.554 37.6989C117.134 38.0625 117.589 38.5795 117.922 39.25C118.254 39.9205 118.42 40.7159 118.42 41.6364ZM117.398 41.6364C117.398 40.8807 117.271 40.2429 117.018 39.723C116.768 39.2031 116.429 38.8097 116 38.5426C115.574 38.2756 115.097 38.142 114.568 38.142C114.04 38.142 113.561 38.2756 113.132 38.5426C112.706 38.8097 112.366 39.2031 112.114 39.723C111.864 40.2429 111.739 40.8807 111.739 41.6364C111.739 42.392 111.864 43.0298 112.114 43.5497C112.366 44.0696 112.706 44.4631 113.132 44.7301C113.561 44.9972 114.04 45.1307 114.568 45.1307C115.097 45.1307 115.574 44.9972 116 44.7301C116.429 44.4631 116.768 44.0696 117.018 43.5497C117.271 43.0298 117.398 42.392 117.398 41.6364ZM127.22 40H126.163C126.101 39.696 125.991 39.429 125.835 39.1989C125.682 38.9688 125.494 38.7756 125.273 38.6193C125.054 38.4602 124.811 38.3409 124.544 38.2614C124.277 38.1818 123.999 38.142 123.709 38.142C123.18 38.142 122.702 38.2756 122.273 38.5426C121.847 38.8097 121.507 39.2031 121.254 39.723C121.004 40.2429 120.879 40.8807 120.879 41.6364C120.879 42.392 121.004 43.0298 121.254 43.5497C121.507 44.0696 121.847 44.4631 122.273 44.7301C122.702 44.9972 123.18 45.1307 123.709 45.1307C123.999 45.1307 124.277 45.0909 124.544 45.0114C124.811 44.9318 125.054 44.8139 125.273 44.6577C125.494 44.4986 125.682 44.304 125.835 44.0739C125.991 43.8409 126.101 43.5739 126.163 43.2727H127.22C127.141 43.7187 126.996 44.1179 126.786 44.4702C126.575 44.8224 126.314 45.1222 126.001 45.3693C125.689 45.6136 125.338 45.7997 124.949 45.9276C124.563 46.0554 124.149 46.1193 123.709 46.1193C122.964 46.1193 122.303 45.9375 121.723 45.5739C121.143 45.2102 120.688 44.6932 120.355 44.0227C120.023 43.3523 119.857 42.5568 119.857 41.6364C119.857 40.7159 120.023 39.9205 120.355 39.25C120.688 38.5795 121.143 38.0625 121.723 37.6989C122.303 37.3352 122.964 37.1534 123.709 37.1534C124.149 37.1534 124.563 37.2173 124.949 37.3452C125.338 37.473 125.689 37.6605 126.001 37.9077C126.314 38.152 126.575 38.4503 126.786 38.8026C126.996 39.152 127.141 39.5511 127.22 40ZM128.451 38.2102V37.2727H134.996V38.2102H132.252V46H131.195V38.2102H128.451ZM139.35 41.1676V42.1051H135.532V41.1676H139.35Z" fill="black"/>
<path d="M183.436 41.6364C183.436 42.5568 183.269 43.3523 182.937 44.0227C182.605 44.6932 182.149 45.2102 181.569 45.5739C180.99 45.9375 180.328 46.1193 179.583 46.1193C178.839 46.1193 178.177 45.9375 177.598 45.5739C177.018 45.2102 176.562 44.6932 176.23 44.0227C175.897 43.3523 175.731 42.5568 175.731 41.6364C175.731 40.7159 175.897 39.9205 176.23 39.25C176.562 38.5795 177.018 38.0625 177.598 37.6989C178.177 37.3352 178.839 37.1534 179.583 37.1534C180.328 37.1534 180.99 37.3352 181.569 37.6989C182.149 38.0625 182.605 38.5795 182.937 39.25C183.269 39.9205 183.436 40.7159 183.436 41.6364ZM182.413 41.6364C182.413 40.8807 182.286 40.2429 182.034 39.723C181.784 39.2031 181.444 38.8097 181.015 38.5426C180.589 38.2756 180.112 38.142 179.583 38.142C179.055 38.142 178.576 38.2756 178.147 38.5426C177.721 38.8097 177.382 39.2031 177.129 39.723C176.879 40.2429 176.754 40.8807 176.754 41.6364C176.754 42.392 176.879 43.0298 177.129 43.5497C177.382 44.0696 177.721 44.4631 178.147 44.7301C178.576 44.9972 179.055 45.1307 179.583 45.1307C180.112 45.1307 180.589 44.9972 181.015 44.7301C181.444 44.4631 181.784 44.0696 182.034 43.5497C182.286 43.0298 182.413 42.392 182.413 41.6364ZM192.235 40H191.178C191.116 39.696 191.007 39.429 190.85 39.1989C190.697 38.9688 190.509 38.7756 190.288 38.6193C190.069 38.4602 189.826 38.3409 189.559 38.2614C189.292 38.1818 189.014 38.142 188.724 38.142C188.196 38.142 187.717 38.2756 187.288 38.5426C186.862 38.8097 186.522 39.2031 186.269 39.723C186.019 40.2429 185.894 40.8807 185.894 41.6364C185.894 42.392 186.019 43.0298 186.269 43.5497C186.522 44.0696 186.862 44.4631 187.288 44.7301C187.717 44.9972 188.196 45.1307 188.724 45.1307C189.014 45.1307 189.292 45.0909 189.559 45.0114C189.826 44.9318 190.069 44.8139 190.288 44.6577C190.509 44.4986 190.697 44.304 190.85 44.0739C191.007 43.8409 191.116 43.5739 191.178 43.2727H192.235C192.156 43.7187 192.011 44.1179 191.801 44.4702C191.59 44.8224 191.329 45.1222 191.017 45.3693C190.704 45.6136 190.353 45.7997 189.964 45.9276C189.578 46.0554 189.164 46.1193 188.724 46.1193C187.98 46.1193 187.318 45.9375 186.738 45.5739C186.159 45.2102 185.703 44.6932 185.37 44.0227C185.038 43.3523 184.872 42.5568 184.872 41.6364C184.872 40.7159 185.038 39.9205 185.37 39.25C185.703 38.5795 186.159 38.0625 186.738 37.6989C187.318 37.3352 187.98 37.1534 188.724 37.1534C189.164 37.1534 189.578 37.2173 189.964 37.3452C190.353 37.473 190.704 37.6605 191.017 37.9077C191.329 38.152 191.59 38.4503 191.801 38.8026C192.011 39.152 192.156 39.5511 192.235 40ZM193.466 38.2102V37.2727H200.011V38.2102H197.267V46H196.21V38.2102H193.466ZM203.172 44.4659V38.8409H204.127V44.4659H203.172ZM200.837 42.1307V41.1761H206.462V42.1307H200.837Z" fill="black"/>
<path d="M241.087 46V37.2727H244.138C244.746 37.2727 245.247 37.3778 245.642 37.5881C246.037 37.7955 246.331 38.0753 246.524 38.4276C246.717 38.777 246.814 39.1648 246.814 39.5909C246.814 39.9659 246.747 40.2756 246.614 40.5199C246.483 40.7642 246.31 40.9574 246.094 41.0994C245.881 41.2415 245.649 41.3466 245.399 41.4148V41.5C245.666 41.517 245.935 41.6108 246.205 41.7812C246.474 41.9517 246.7 42.196 246.882 42.5142C247.064 42.8324 247.155 43.2216 247.155 43.6818C247.155 44.1193 247.055 44.5128 246.856 44.8622C246.658 45.2116 246.344 45.4886 245.915 45.6932C245.486 45.8977 244.928 46 244.24 46H241.087ZM242.143 45.0625H244.24C244.93 45.0625 245.42 44.929 245.71 44.6619C246.003 44.392 246.149 44.0653 246.149 43.6818C246.149 43.3864 246.074 43.1136 245.923 42.8636C245.773 42.6108 245.558 42.4091 245.28 42.2585C245.001 42.1051 244.672 42.0284 244.291 42.0284H242.143V45.0625ZM242.143 41.108H244.104C244.422 41.108 244.709 41.0455 244.964 40.9205C245.223 40.7955 245.428 40.6193 245.578 40.392C245.731 40.1648 245.808 39.8977 245.808 39.5909C245.808 39.2074 245.675 38.8821 245.408 38.6151C245.141 38.3452 244.717 38.2102 244.138 38.2102H242.143V41.108ZM248.891 46V37.2727H251.84C252.525 37.2727 253.084 37.3963 253.519 37.6435C253.957 37.8878 254.28 38.2188 254.491 38.6364C254.701 39.054 254.806 39.5199 254.806 40.0341C254.806 40.5483 254.701 41.0156 254.491 41.4361C254.283 41.8565 253.962 42.1918 253.528 42.4418C253.093 42.6889 252.536 42.8125 251.857 42.8125H249.744V41.875H251.823C252.292 41.875 252.668 41.794 252.952 41.6321C253.236 41.4702 253.442 41.2514 253.57 40.9759C253.701 40.6974 253.766 40.3835 253.766 40.0341C253.766 39.6847 253.701 39.3722 253.57 39.0966C253.442 38.821 253.235 38.6051 252.948 38.4489C252.661 38.2898 252.28 38.2102 251.806 38.2102H249.948V46H248.891ZM256.508 37.2727H257.77L260.736 44.517H260.838L263.804 37.2727H265.065V46H264.077V39.3693H263.991L261.264 46H260.31L257.582 39.3693H257.497V46H256.508V37.2727Z" fill="black"/>
<path d="M313.124 40H312.068C312.005 39.696 311.896 39.429 311.74 39.1989C311.586 38.9688 311.399 38.7756 311.177 38.6193C310.958 38.4602 310.715 38.3409 310.448 38.2614C310.181 38.1818 309.903 38.142 309.613 38.142C309.085 38.142 308.606 38.2756 308.177 38.5426C307.751 38.8097 307.411 39.2031 307.159 39.723C306.909 40.2429 306.784 40.8807 306.784 41.6364C306.784 42.392 306.909 43.0298 307.159 43.5497C307.411 44.0696 307.751 44.4631 308.177 44.7301C308.606 44.9972 309.085 45.1307 309.613 45.1307C309.903 45.1307 310.181 45.0909 310.448 45.0114C310.715 44.9318 310.958 44.8139 311.177 44.6577C311.399 44.4986 311.586 44.304 311.74 44.0739C311.896 43.8409 312.005 43.5739 312.068 43.2727H313.124C313.045 43.7187 312.9 44.1179 312.69 44.4702C312.48 44.8224 312.218 45.1222 311.906 45.3693C311.593 45.6136 311.242 45.7997 310.853 45.9276C310.467 46.0554 310.053 46.1193 309.613 46.1193C308.869 46.1193 308.207 45.9375 307.627 45.5739C307.048 45.2102 306.592 44.6932 306.259 44.0227C305.927 43.3523 305.761 42.5568 305.761 41.6364C305.761 40.7159 305.927 39.9205 306.259 39.25C306.592 38.5795 307.048 38.0625 307.627 37.6989C308.207 37.3352 308.869 37.1534 309.613 37.1534C310.053 37.1534 310.467 37.2173 310.853 37.3452C311.242 37.473 311.593 37.6605 311.906 37.9077C312.218 38.152 312.48 38.4503 312.69 38.8026C312.9 39.152 313.045 39.5511 313.124 40ZM314.832 46V37.2727H315.889V41.1591H320.542V37.2727H321.599V46H320.542V42.0966H315.889V46H314.832Z" fill="black"/>
<path d="M371.118 46V37.2727H372.175V41.1591H376.828V37.2727H377.885V46H376.828V42.0966H372.175V46H371.118ZM387.364 41.6364C387.364 42.5568 387.198 43.3523 386.866 44.0227C386.533 44.6932 386.077 45.2102 385.498 45.5739C384.918 45.9375 384.256 46.1193 383.512 46.1193C382.768 46.1193 382.106 45.9375 381.526 45.5739C380.947 45.2102 380.491 44.6932 380.158 44.0227C379.826 43.3523 379.66 42.5568 379.66 41.6364C379.66 40.7159 379.826 39.9205 380.158 39.25C380.491 38.5795 380.947 38.0625 381.526 37.6989C382.106 37.3352 382.768 37.1534 383.512 37.1534C384.256 37.1534 384.918 37.3352 385.498 37.6989C386.077 38.0625 386.533 38.5795 386.866 39.25C387.198 39.9205 387.364 40.7159 387.364 41.6364ZM386.342 41.6364C386.342 40.8807 386.215 40.2429 385.962 39.723C385.712 39.2031 385.373 38.8097 384.944 38.5426C384.518 38.2756 384.04 38.142 383.512 38.142C382.984 38.142 382.505 38.2756 382.076 38.5426C381.65 38.8097 381.31 39.2031 381.057 39.723C380.807 40.2429 380.682 40.8807 380.682 41.6364C380.682 42.392 380.807 43.0298 381.057 43.5497C381.31 44.0696 381.65 44.4631 382.076 44.7301C382.505 44.9972 382.984 45.1307 383.512 45.1307C384.04 45.1307 384.518 44.9972 384.944 44.7301C385.373 44.4631 385.712 44.0696 385.962 43.5497C386.215 43.0298 386.342 42.392 386.342 41.6364ZM389.141 46V37.2727H390.198V45.0625H394.255V46H389.141ZM398.584 46H395.891V37.2727H398.704C399.55 37.2727 400.275 37.4474 400.877 37.7969C401.479 38.1435 401.941 38.642 402.262 39.2926C402.583 39.9403 402.744 40.7159 402.744 41.6193C402.744 42.5284 402.582 43.3111 402.258 43.9673C401.934 44.6207 401.462 45.1236 400.843 45.4759C400.224 45.8253 399.471 46 398.584 46ZM396.948 45.0625H398.516C399.238 45.0625 399.836 44.9233 400.31 44.6449C400.785 44.3665 401.138 43.9702 401.371 43.456C401.604 42.9418 401.721 42.3295 401.721 41.6193C401.721 40.9148 401.606 40.3082 401.376 39.7997C401.146 39.2884 400.802 38.8963 400.344 38.6236C399.887 38.348 399.317 38.2102 398.636 38.2102H396.948V45.0625Z" fill="black"/>
<path d="M436.133 46V37.2727H441.4V38.2102H437.19V41.1591H441.127V42.0966H437.19V45.0625H441.468V46H436.133ZM443.305 46V37.2727H448.538V38.2102H444.362V41.1591H448.146V42.0966H444.362V46H443.305ZM450.348 46V37.2727H455.581V38.2102H451.405V41.1591H455.189V42.0966H451.405V46H450.348ZM457.391 46V37.2727H462.658V38.2102H458.448V41.1591H462.385V42.0966H458.448V45.0625H462.726V46H457.391ZM471.585 40H470.529C470.466 39.696 470.357 39.429 470.2 39.1989C470.047 38.9688 469.86 38.7756 469.638 38.6193C469.419 38.4602 469.176 38.3409 468.909 38.2614C468.642 38.1818 468.364 38.142 468.074 38.142C467.546 38.142 467.067 38.2756 466.638 38.5426C466.212 38.8097 465.872 39.2031 465.619 39.723C465.369 40.2429 465.244 40.8807 465.244 41.6364C465.244 42.392 465.369 43.0298 465.619 43.5497C465.872 44.0696 466.212 44.4631 466.638 44.7301C467.067 44.9972 467.546 45.1307 468.074 45.1307C468.364 45.1307 468.642 45.0909 468.909 45.0114C469.176 44.9318 469.419 44.8139 469.638 44.6577C469.86 44.4986 470.047 44.304 470.2 44.0739C470.357 43.8409 470.466 43.5739 470.529 43.2727H471.585C471.506 43.7187 471.361 44.1179 471.151 44.4702C470.941 44.8224 470.679 45.1222 470.367 45.3693C470.054 45.6136 469.703 45.7997 469.314 45.9276C468.928 46.0554 468.514 46.1193 468.074 46.1193C467.33 46.1193 466.668 45.9375 466.088 45.5739C465.509 45.2102 465.053 44.6932 464.72 44.0227C464.388 43.3523 464.222 42.5568 464.222 41.6364C464.222 40.7159 464.388 39.9205 464.72 39.25C465.053 38.5795 465.509 38.0625 466.088 37.6989C466.668 37.3352 467.33 37.1534 468.074 37.1534C468.514 37.1534 468.928 37.2173 469.314 37.3452C469.703 37.473 470.054 37.6605 470.367 37.9077C470.679 38.152 470.941 38.4503 471.151 38.8026C471.361 39.152 471.506 39.5511 471.585 40ZM472.816 38.2102V37.2727H479.361V38.2102H476.617V46H475.56V38.2102H472.816ZM485.765 39.4545C485.714 39.0227 485.507 38.6875 485.143 38.4489C484.779 38.2102 484.333 38.0909 483.805 38.0909C483.419 38.0909 483.08 38.1534 482.791 38.2784C482.504 38.4034 482.279 38.5753 482.117 38.794C481.958 39.0128 481.879 39.2614 481.879 39.5398C481.879 39.7727 481.934 39.973 482.045 40.1406C482.159 40.3054 482.303 40.4432 482.48 40.554C482.656 40.6619 482.84 40.7514 483.034 40.8224C483.227 40.8906 483.404 40.946 483.566 40.9886L484.453 41.2273C484.68 41.2869 484.933 41.3693 485.211 41.4744C485.492 41.5795 485.761 41.723 486.017 41.9048C486.275 42.0838 486.488 42.3139 486.656 42.5952C486.823 42.8764 486.907 43.2216 486.907 43.6307C486.907 44.1023 486.784 44.5284 486.536 44.9091C486.292 45.2898 485.934 45.5923 485.463 45.8168C484.994 46.0412 484.424 46.1534 483.754 46.1534C483.129 46.1534 482.588 46.0526 482.13 45.8509C481.676 45.6491 481.318 45.3679 481.056 45.0071C480.798 44.6463 480.651 44.2273 480.617 43.75H481.708C481.737 44.0795 481.847 44.3523 482.041 44.5682C482.237 44.7812 482.484 44.9403 482.782 45.0455C483.083 45.1477 483.407 45.1989 483.754 45.1989C484.157 45.1989 484.519 45.1335 484.84 45.0028C485.161 44.8693 485.416 44.6847 485.603 44.4489C485.791 44.2102 485.884 43.9318 485.884 43.6136C485.884 43.3239 485.803 43.0881 485.642 42.9062C485.48 42.7244 485.267 42.5767 485.002 42.4631C484.738 42.3494 484.453 42.25 484.146 42.1648L483.072 41.858C482.39 41.6619 481.85 41.3821 481.453 41.0185C481.055 40.6548 480.856 40.179 480.856 39.5909C480.856 39.1023 480.988 38.6761 481.252 38.3125C481.519 37.946 481.877 37.6619 482.326 37.4602C482.778 37.2557 483.282 37.1534 483.839 37.1534C484.401 37.1534 484.901 37.2543 485.339 37.456C485.776 37.6548 486.123 37.9276 486.379 38.2741C486.637 38.6207 486.774 39.0142 486.788 39.4545H485.765Z" fill="black"/>
<path d="M435.076 48.3864H442.252V49.2045H435.076V48.3864ZM442.248 48.3864H463.51V49.2045H442.248V48.3864ZM463.506 48.3864H479.941V49.2045H463.506V48.3864ZM479.936 48.3864H487.589V49.2045H479.936V48.3864Z" fill="black"/>
<path d="M501.148 46V37.2727H504.097C504.781 37.2727 505.341 37.3963 505.775 37.6435C506.213 37.8878 506.537 38.2188 506.747 38.6364C506.957 39.054 507.062 39.5199 507.062 40.0341C507.062 40.5483 506.957 41.0156 506.747 41.4361C506.54 41.8565 506.219 42.1918 505.784 42.4418C505.349 42.6889 504.793 42.8125 504.114 42.8125H502V41.875H504.079C504.548 41.875 504.925 41.794 505.209 41.6321C505.493 41.4702 505.699 41.2514 505.827 40.9759C505.957 40.6974 506.023 40.3835 506.023 40.0341C506.023 39.6847 505.957 39.3722 505.827 39.0966C505.699 38.821 505.491 38.6051 505.204 38.4489C504.918 38.2898 504.537 38.2102 504.062 38.2102H502.204V46H501.148ZM508.765 46V37.2727H509.822V45.0625H513.878V46H508.765ZM516.424 46H515.316L518.52 37.2727H519.611L522.816 46H521.708L519.1 38.6534H519.032L516.424 46ZM516.833 42.5909H521.299V43.5284H516.833V42.5909ZM522.534 37.2727H523.745L526.165 41.3466H526.267L528.688 37.2727H529.898L526.745 42.4034V46H525.688V42.4034L522.534 37.2727Z" fill="black"/>
<path d="M566.163 46V37.2727H569.112C569.794 37.2727 570.354 37.3892 570.791 37.6222C571.229 37.8523 571.552 38.169 571.763 38.5724C571.973 38.9759 572.078 39.4347 572.078 39.9489C572.078 40.4631 571.973 40.919 571.763 41.3168C571.552 41.7145 571.23 42.027 570.795 42.2543C570.361 42.4787 569.805 42.5909 569.129 42.5909H566.743V41.6364H569.095C569.561 41.6364 569.936 41.5682 570.22 41.4318C570.507 41.2955 570.714 41.1023 570.842 40.8523C570.973 40.5994 571.038 40.2983 571.038 39.9489C571.038 39.5994 570.973 39.294 570.842 39.0327C570.712 38.7713 570.503 38.5696 570.216 38.4276C569.929 38.2827 569.55 38.2102 569.078 38.2102H567.22V46H566.163ZM570.271 42.0795L572.419 46H571.192L569.078 42.0795H570.271ZM573.839 46V37.2727H579.106V38.2102H574.896V41.1591H578.833V42.0966H574.896V45.0625H579.174V46H573.839ZM588.034 40H586.977C586.914 39.696 586.805 39.429 586.649 39.1989C586.495 38.9688 586.308 38.7756 586.086 38.6193C585.867 38.4602 585.625 38.3409 585.358 38.2614C585.09 38.1818 584.812 38.142 584.522 38.142C583.994 38.142 583.515 38.2756 583.086 38.5426C582.66 38.8097 582.321 39.2031 582.068 39.723C581.818 40.2429 581.693 40.8807 581.693 41.6364C581.693 42.392 581.818 43.0298 582.068 43.5497C582.321 44.0696 582.66 44.4631 583.086 44.7301C583.515 44.9972 583.994 45.1307 584.522 45.1307C584.812 45.1307 585.09 45.0909 585.358 45.0114C585.625 44.9318 585.867 44.8139 586.086 44.6577C586.308 44.4986 586.495 44.304 586.649 44.0739C586.805 43.8409 586.914 43.5739 586.977 43.2727H588.034C587.954 43.7187 587.809 44.1179 587.599 44.4702C587.389 44.8224 587.127 45.1222 586.815 45.3693C586.502 45.6136 586.152 45.7997 585.762 45.9276C585.376 46.0554 584.963 46.1193 584.522 46.1193C583.778 46.1193 583.116 45.9375 582.536 45.5739C581.957 45.2102 581.501 44.6932 581.169 44.0227C580.836 43.3523 580.67 42.5568 580.67 41.6364C580.67 40.7159 580.836 39.9205 581.169 39.25C581.501 38.5795 581.957 38.0625 582.536 37.6989C583.116 37.3352 583.778 37.1534 584.522 37.1534C584.963 37.1534 585.376 37.2173 585.762 37.3452C586.152 37.473 586.502 37.6605 586.815 37.9077C587.127 38.152 587.389 38.4503 587.599 38.8026C587.809 39.152 587.954 39.5511 588.034 40Z" fill="black"/>
<path d="M636.905 37.2727H637.962V43.0511C637.962 43.6477 637.821 44.1804 637.54 44.6491C637.262 45.1151 636.868 45.483 636.36 45.7528C635.851 46.0199 635.255 46.1534 634.57 46.1534C633.885 46.1534 633.289 46.0199 632.78 45.7528C632.272 45.483 631.877 45.1151 631.596 44.6491C631.317 44.1804 631.178 43.6477 631.178 43.0511V37.2727H632.235V42.9659C632.235 43.392 632.328 43.7713 632.516 44.1037C632.703 44.4332 632.971 44.6932 633.317 44.8835C633.667 45.071 634.084 45.1648 634.57 45.1648C635.056 45.1648 635.473 45.071 635.823 44.8835C636.172 44.6932 636.439 44.4332 636.624 44.1037C636.811 43.7713 636.905 43.392 636.905 42.9659V37.2727ZM646.993 37.2727V46H645.97L641.214 39.1477H641.129V46H640.072V37.2727H641.095L645.868 44.142H645.953V37.2727H646.993ZM651.801 46H649.108V37.2727H651.92C652.767 37.2727 653.491 37.4474 654.093 37.7969C654.696 38.1435 655.157 38.642 655.478 39.2926C655.799 39.9403 655.96 40.7159 655.96 41.6193C655.96 42.5284 655.798 43.3111 655.474 43.9673C655.15 44.6207 654.679 45.1236 654.059 45.4759C653.44 45.8253 652.687 46 651.801 46ZM650.164 45.0625H651.733C652.454 45.0625 653.052 44.9233 653.527 44.6449C654.001 44.3665 654.355 43.9702 654.588 43.456C654.821 42.9418 654.937 42.3295 654.937 41.6193C654.937 40.9148 654.822 40.3082 654.592 39.7997C654.362 39.2884 654.018 38.8963 653.561 38.6236C653.103 38.348 652.534 38.2102 651.852 38.2102H650.164V45.0625ZM665.096 41.6364C665.096 42.5568 664.93 43.3523 664.598 44.0227C664.265 44.6932 663.809 45.2102 663.23 45.5739C662.65 45.9375 661.988 46.1193 661.244 46.1193C660.5 46.1193 659.838 45.9375 659.258 45.5739C658.679 45.2102 658.223 44.6932 657.89 44.0227C657.558 43.3523 657.392 42.5568 657.392 41.6364C657.392 40.7159 657.558 39.9205 657.89 39.25C658.223 38.5795 658.679 38.0625 659.258 37.6989C659.838 37.3352 660.5 37.1534 661.244 37.1534C661.988 37.1534 662.65 37.3352 663.23 37.6989C663.809 38.0625 664.265 38.5795 664.598 39.25C664.93 39.9205 665.096 40.7159 665.096 41.6364ZM664.074 41.6364C664.074 40.8807 663.947 40.2429 663.694 39.723C663.444 39.2031 663.105 38.8097 662.676 38.5426C662.25 38.2756 661.772 38.142 661.244 38.142C660.716 38.142 660.237 38.2756 659.808 38.5426C659.382 38.8097 659.042 39.2031 658.789 39.723C658.539 40.2429 658.414 40.8807 658.414 41.6364C658.414 42.392 658.539 43.0298 658.789 43.5497C659.042 44.0696 659.382 44.4631 659.808 44.7301C660.237 44.9972 660.716 45.1307 661.244 45.1307C661.772 45.1307 662.25 44.9972 662.676 44.7301C663.105 44.4631 663.444 44.0696 663.694 43.5497C663.947 43.0298 664.074 42.392 664.074 41.6364Z" fill="black"/>
<path d="M697.778 46L695.392 37.2727H696.466L698.29 44.3807H698.375L700.233 37.2727H701.426L703.284 44.3807H703.369L705.193 37.2727H706.267L703.881 46H702.79L700.864 39.0455H700.795L698.869 46H697.778ZM707.262 46H706.154L709.359 37.2727H710.449L713.654 46H712.546L709.938 38.6534H709.87L707.262 46ZM707.671 42.5909H712.137V43.5284H707.671V42.5909ZM715.013 46V37.2727H716.07V41.6023H716.172L720.093 37.2727H721.474L717.809 41.2102L721.474 46H720.195L717.161 41.9432L716.07 43.1705V46H715.013ZM722.841 46V37.2727H728.109V38.2102H723.898V41.1591H727.836V42.0966H723.898V45.0625H728.177V46H722.841Z" fill="black"/>
<path d="M77.745 69.4545V70.8182H73.8033V69.4545H77.745ZM74.6982 67.8864H76.5135V73.9886C76.5135 74.1562 76.5391 74.2869 76.5902 74.3807C76.6413 74.4716 76.7124 74.5355 76.8033 74.5724C76.897 74.6094 77.005 74.6278 77.1271 74.6278C77.2124 74.6278 77.2976 74.6207 77.3828 74.6065C77.468 74.5895 77.5334 74.5767 77.5788 74.5682L77.8643 75.919C77.7734 75.9474 77.6456 75.9801 77.4808 76.017C77.3161 76.0568 77.1158 76.081 76.88 76.0895C76.4425 76.1065 76.0589 76.0483 75.7294 75.9148C75.4027 75.7812 75.1484 75.5739 74.9666 75.2926C74.7848 75.0114 74.6953 74.6562 74.6982 74.2273V67.8864ZM80.0483 78.4545C79.8182 78.4545 79.6023 78.4361 79.4006 78.3991C79.2017 78.3651 79.0369 78.321 78.9062 78.267L79.3153 76.9119C79.5284 76.9773 79.7202 77.0128 79.8906 77.0185C80.0639 77.0241 80.2131 76.9844 80.3381 76.8991C80.4659 76.8139 80.5696 76.669 80.6491 76.4645L80.7557 76.1875L78.4077 69.4545H80.3168L81.6719 74.2614H81.7401L83.108 69.4545H85.0298L82.4858 76.7074C82.3636 77.0597 82.1974 77.3665 81.9872 77.6278C81.7798 77.892 81.517 78.0952 81.1989 78.2372C80.8807 78.3821 80.4972 78.4545 80.0483 78.4545ZM85.9588 78.4545V69.4545H87.7486V70.554H87.8295C87.9091 70.3778 88.0241 70.1989 88.1747 70.017C88.3281 69.8324 88.527 69.679 88.7713 69.5568C89.0185 69.4318 89.3253 69.3693 89.6918 69.3693C90.169 69.3693 90.6094 69.4943 91.0128 69.7443C91.4162 69.9915 91.7386 70.3651 91.9801 70.8651C92.2216 71.3622 92.3423 71.9858 92.3423 72.7358C92.3423 73.4659 92.2244 74.0824 91.9886 74.5852C91.7557 75.0852 91.4375 75.4645 91.0341 75.723C90.6335 75.9787 90.1847 76.1065 89.6875 76.1065C89.3352 76.1065 89.0355 76.0483 88.7884 75.9318C88.544 75.8153 88.3438 75.669 88.1875 75.4929C88.0312 75.3139 87.9119 75.1335 87.8295 74.9517H87.7741V78.4545H85.9588ZM87.7358 72.7273C87.7358 73.1165 87.7898 73.456 87.8977 73.7457C88.0057 74.0355 88.1619 74.2614 88.3665 74.4233C88.571 74.5824 88.8196 74.6619 89.1122 74.6619C89.4077 74.6619 89.6577 74.581 89.8622 74.419C90.0668 74.2543 90.2216 74.027 90.3267 73.7372C90.4347 73.4446 90.4886 73.108 90.4886 72.7273C90.4886 72.3494 90.4361 72.017 90.331 71.7301C90.2259 71.4432 90.071 71.2187 89.8665 71.0568C89.6619 70.8949 89.4105 70.8139 89.1122 70.8139C88.8168 70.8139 88.5668 70.892 88.3622 71.0483C88.1605 71.2045 88.0057 71.4261 87.8977 71.7131C87.7898 72 87.7358 72.3381 87.7358 72.7273ZM96.5355 76.1278C95.8622 76.1278 95.2827 75.9915 94.7969 75.7188C94.3139 75.4432 93.9418 75.054 93.6804 74.5511C93.419 74.0455 93.2884 73.4474 93.2884 72.7571C93.2884 72.0838 93.419 71.4929 93.6804 70.9844C93.9418 70.4759 94.3097 70.0795 94.7841 69.7955C95.2614 69.5114 95.821 69.3693 96.4631 69.3693C96.8949 69.3693 97.2969 69.4389 97.669 69.5781C98.044 69.7145 98.3707 69.9205 98.6491 70.196C98.9304 70.4716 99.1491 70.8182 99.3054 71.2358C99.4616 71.6506 99.5398 72.1364 99.5398 72.6932V73.1918H94.0128V72.0668H97.831C97.831 71.8054 97.7741 71.5739 97.6605 71.3722C97.5469 71.1705 97.3892 71.0128 97.1875 70.8991C96.9886 70.7827 96.7571 70.7244 96.4929 70.7244C96.2173 70.7244 95.973 70.7884 95.7599 70.9162C95.5497 71.0412 95.3849 71.2102 95.2656 71.4233C95.1463 71.6335 95.0852 71.8679 95.0824 72.1264V73.196C95.0824 73.5199 95.142 73.7997 95.2614 74.0355C95.3835 74.2713 95.5554 74.4531 95.777 74.581C95.9986 74.7088 96.2614 74.7727 96.5653 74.7727C96.767 74.7727 96.9517 74.7443 97.1193 74.6875C97.2869 74.6307 97.4304 74.5455 97.5497 74.4318C97.669 74.3182 97.7599 74.179 97.8224 74.0142L99.5014 74.125C99.4162 74.5284 99.2415 74.8807 98.9773 75.1818C98.7159 75.4801 98.3778 75.7131 97.9631 75.8807C97.5511 76.0455 97.0753 76.1278 96.5355 76.1278Z" fill="black"/>
<path d="M113.972 67.2727V76H112.915V68.3807H112.864L110.733 69.7955V68.7216L112.915 67.2727H113.972Z" fill="black"/>
<path d="M178.766 67.2727V76H177.709V68.3807H177.658L175.527 69.7955V68.7216L177.709 67.2727H178.766Z" fill="black"/>
<path d="M240.491 76V75.233L243.372 72.0795C243.71 71.7102 243.988 71.3892 244.207 71.1165C244.426 70.8409 244.588 70.5824 244.693 70.3409C244.801 70.0966 244.855 69.8409 244.855 69.5739C244.855 69.267 244.781 69.0014 244.633 68.777C244.488 68.5526 244.29 68.3793 244.037 68.2571C243.784 68.1349 243.5 68.0739 243.184 68.0739C242.849 68.0739 242.557 68.1435 242.307 68.2827C242.059 68.419 241.868 68.6108 241.731 68.858C241.598 69.1051 241.531 69.3949 241.531 69.7273H240.525C240.525 69.2159 240.643 68.767 240.879 68.3807C241.115 67.9943 241.436 67.6932 241.842 67.4773C242.251 67.2614 242.71 67.1534 243.219 67.1534C243.73 67.1534 244.183 67.2614 244.578 67.4773C244.973 67.6932 245.282 67.9844 245.507 68.3509C245.731 68.7173 245.844 69.125 245.844 69.5739C245.844 69.8949 245.785 70.2088 245.669 70.5156C245.555 70.8196 245.356 71.1591 245.072 71.5341C244.791 71.9062 244.4 72.3608 243.9 72.8977L241.94 74.9943V75.0625H245.997V76H240.491Z" fill="black"/>
<path d="M305.285 76V75.233L308.166 72.0795C308.504 71.7102 308.782 71.3892 309.001 71.1165C309.22 70.8409 309.382 70.5824 309.487 70.3409C309.595 70.0966 309.649 69.8409 309.649 69.5739C309.649 69.267 309.575 69.0014 309.427 68.777C309.282 68.5526 309.084 68.3793 308.831 68.2571C308.578 68.1349 308.294 68.0739 307.978 68.0739C307.643 68.0739 307.351 68.1435 307.101 68.2827C306.853 68.419 306.662 68.6108 306.525 68.858C306.392 69.1051 306.325 69.3949 306.325 69.7273H305.319C305.319 69.2159 305.437 68.767 305.673 68.3807C305.909 67.9943 306.23 67.6932 306.636 67.4773C307.045 67.2614 307.504 67.1534 308.013 67.1534C308.524 67.1534 308.977 67.2614 309.372 67.4773C309.767 67.6932 310.076 67.9844 310.301 68.3509C310.525 68.7173 310.638 69.125 310.638 69.5739C310.638 69.8949 310.579 70.2088 310.463 70.5156C310.349 70.8196 310.15 71.1591 309.866 71.5341C309.585 71.9062 309.194 72.3608 308.694 72.8977L306.734 74.9943V75.0625H310.791V76H305.285Z" fill="black"/>
<path d="M373.146 67.2727V76H372.09V68.3807H372.038L369.908 69.7955V68.7216L372.09 67.2727H373.146Z" fill="black"/>
<path d="M437.94 67.2727V76H436.883V68.3807H436.832L434.701 69.7955V68.7216L436.883 67.2727H437.94Z" fill="black"/>
<path d="M502.734 67.2727V76H501.677V68.3807H501.626L499.495 69.7955V68.7216L501.677 67.2727H502.734Z" fill="black"/>
<path d="M567.528 67.2727V76H566.471V68.3807H566.42L564.289 69.7955V68.7216L566.471 67.2727H567.528Z" fill="black"/>
<path d="M632.322 67.2727V76H631.265V68.3807H631.214L629.083 69.7955V68.7216L631.265 67.2727H632.322Z" fill="black"/>
<path d="M697.115 67.2727V76H696.058V68.3807H696.007L693.876 69.7955V68.7216L696.058 67.2727H697.115Z" fill="black"/>
<path d="M11.989 97.2727V106H10.1737V97.2727H11.989ZM16.4006 106.128C15.7386 106.128 15.1662 105.987 14.6832 105.706C14.2031 105.422 13.8324 105.027 13.571 104.521C13.3097 104.013 13.179 103.423 13.179 102.753C13.179 102.077 13.3097 101.486 13.571 100.98C13.8324 100.472 14.2031 100.077 14.6832 99.7955C15.1662 99.5114 15.7386 99.3693 16.4006 99.3693C17.0625 99.3693 17.6335 99.5114 18.1136 99.7955C18.5966 100.077 18.9688 100.472 19.2301 100.98C19.4915 101.486 19.6222 102.077 19.6222 102.753C19.6222 103.423 19.4915 104.013 19.2301 104.521C18.9688 105.027 18.5966 105.422 18.1136 105.706C17.6335 105.987 17.0625 106.128 16.4006 106.128ZM16.4091 104.722C16.7102 104.722 16.9616 104.636 17.1634 104.466C17.3651 104.293 17.517 104.057 17.6193 103.759C17.7244 103.46 17.777 103.121 17.777 102.74C17.777 102.359 17.7244 102.02 17.6193 101.722C17.517 101.423 17.3651 101.187 17.1634 101.014C16.9616 100.841 16.7102 100.754 16.4091 100.754C16.1051 100.754 15.8494 100.841 15.642 101.014C15.4375 101.187 15.2827 101.423 15.1776 101.722C15.0753 102.02 15.0241 102.359 15.0241 102.74C15.0241 103.121 15.0753 103.46 15.1776 103.759C15.2827 104.057 15.4375 104.293 15.642 104.466C15.8494 104.636 16.1051 104.722 16.4091 104.722ZM22.6179 102.216V106H20.8026V99.4545H22.5327V100.609H22.6094C22.7543 100.229 22.9972 99.9276 23.3381 99.706C23.679 99.4815 24.0923 99.3693 24.5781 99.3693C25.0327 99.3693 25.429 99.4688 25.767 99.6676C26.1051 99.8665 26.3679 100.151 26.5554 100.52C26.7429 100.886 26.8366 101.324 26.8366 101.832V106H25.0213V102.156C25.0241 101.756 24.9219 101.443 24.7145 101.219C24.5071 100.991 24.2216 100.878 23.858 100.878C23.6136 100.878 23.3977 100.93 23.2102 101.036C23.0256 101.141 22.8807 101.294 22.7756 101.496C22.6733 101.695 22.6207 101.935 22.6179 102.216ZM31.2163 108.591C30.6282 108.591 30.1239 108.51 29.7035 108.348C29.2859 108.189 28.9535 107.972 28.7063 107.696C28.4592 107.42 28.2987 107.111 28.2248 106.767L29.9038 106.541C29.9549 106.672 30.0359 106.794 30.1467 106.908C30.2575 107.021 30.4038 107.112 30.5856 107.18C30.7702 107.251 30.9947 107.287 31.2589 107.287C31.6538 107.287 31.979 107.19 32.2347 106.997C32.4933 106.807 32.6225 106.487 32.6225 106.038V104.841H32.5458C32.4663 105.023 32.3469 105.195 32.1879 105.357C32.0288 105.518 31.8242 105.651 31.5742 105.753C31.3242 105.855 31.0259 105.906 30.6793 105.906C30.1879 105.906 29.7404 105.793 29.337 105.565C28.9364 105.335 28.6168 104.984 28.3782 104.513C28.1424 104.038 28.0245 103.439 28.0245 102.714C28.0245 101.973 28.1452 101.354 28.3867 100.857C28.6282 100.359 28.9492 99.9872 29.3498 99.7401C29.7532 99.4929 30.195 99.3693 30.6751 99.3693C31.0415 99.3693 31.3484 99.4318 31.5955 99.5568C31.8427 99.679 32.0415 99.8324 32.1921 100.017C32.3455 100.199 32.4634 100.378 32.5458 100.554H32.614V99.4545H34.4165V106.064C34.4165 106.621 34.2802 107.087 34.0075 107.462C33.7347 107.837 33.3569 108.118 32.8739 108.305C32.3938 108.496 31.8413 108.591 31.2163 108.591ZM31.2546 104.543C31.5472 104.543 31.7944 104.47 31.9961 104.325C32.2006 104.178 32.3569 103.967 32.4648 103.695C32.5756 103.419 32.631 103.089 32.631 102.706C32.631 102.322 32.5771 101.99 32.4691 101.709C32.3612 101.425 32.2049 101.205 32.0004 101.048C31.7958 100.892 31.5472 100.814 31.2546 100.814C30.9563 100.814 30.7049 100.895 30.5004 101.057C30.2958 101.216 30.141 101.437 30.0359 101.722C29.9308 102.006 29.8782 102.334 29.8782 102.706C29.8782 103.084 29.9308 103.411 30.0359 103.686C30.1438 103.959 30.2987 104.17 30.5004 104.321C30.7049 104.469 30.9563 104.543 31.2546 104.543ZM38.6385 108.455V99.4545H40.4283V100.554H40.5092C40.5888 100.378 40.7038 100.199 40.8544 100.017C41.0078 99.8324 41.2067 99.679 41.451 99.5568C41.6982 99.4318 42.005 99.3693 42.3714 99.3693C42.8487 99.3693 43.2891 99.4943 43.6925 99.7443C44.0959 99.9915 44.4183 100.365 44.6598 100.865C44.9013 101.362 45.022 101.986 45.022 102.736C45.022 103.466 44.9041 104.082 44.6683 104.585C44.4354 105.085 44.1172 105.464 43.7138 105.723C43.3132 105.979 42.8643 106.107 42.3672 106.107C42.0149 106.107 41.7152 106.048 41.468 105.932C41.2237 105.815 41.0234 105.669 40.8672 105.493C40.7109 105.314 40.5916 105.134 40.5092 104.952H40.4538V108.455H38.6385ZM40.4155 102.727C40.4155 103.116 40.4695 103.456 40.5774 103.746C40.6854 104.036 40.8416 104.261 41.0462 104.423C41.2507 104.582 41.4993 104.662 41.7919 104.662C42.0874 104.662 42.3374 104.581 42.5419 104.419C42.7464 104.254 42.9013 104.027 43.0064 103.737C43.1143 103.445 43.1683 103.108 43.1683 102.727C43.1683 102.349 43.1158 102.017 43.0107 101.73C42.9055 101.443 42.7507 101.219 42.5462 101.057C42.3416 100.895 42.0902 100.814 41.7919 100.814C41.4964 100.814 41.2464 100.892 41.0419 101.048C40.8402 101.205 40.6854 101.426 40.5774 101.713C40.4695 102 40.4155 102.338 40.4155 102.727ZM46.2322 106V99.4545H47.9922V100.597H48.0604C48.1797 100.19 48.38 99.8835 48.6612 99.6761C48.9425 99.4659 49.2663 99.3608 49.6328 99.3608C49.7237 99.3608 49.8217 99.3665 49.9268 99.3778C50.032 99.3892 50.1243 99.4048 50.2038 99.4247V101.036C50.1186 101.01 50.0007 100.987 49.8501 100.967C49.6996 100.947 49.5618 100.938 49.4368 100.938C49.1697 100.938 48.9311 100.996 48.7209 101.112C48.5135 101.226 48.3487 101.385 48.2266 101.589C48.1072 101.794 48.0476 102.03 48.0476 102.297V106H46.2322ZM53.8207 106.128C53.1474 106.128 52.5678 105.991 52.082 105.719C51.5991 105.443 51.2269 105.054 50.9656 104.551C50.7042 104.045 50.5735 103.447 50.5735 102.757C50.5735 102.084 50.7042 101.493 50.9656 100.984C51.2269 100.476 51.5948 100.08 52.0692 99.7955C52.5465 99.5114 53.1062 99.3693 53.7482 99.3693C54.18 99.3693 54.582 99.4389 54.9542 99.5781C55.3292 99.7145 55.6559 99.9205 55.9343 100.196C56.2156 100.472 56.4343 100.818 56.5906 101.236C56.7468 101.651 56.8249 102.136 56.8249 102.693V103.192H51.2979V102.067H55.1161C55.1161 101.805 55.0593 101.574 54.9457 101.372C54.832 101.17 54.6744 101.013 54.4727 100.899C54.2738 100.783 54.0423 100.724 53.7781 100.724C53.5025 100.724 53.2582 100.788 53.0451 100.916C52.8349 101.041 52.6701 101.21 52.5508 101.423C52.4315 101.634 52.3704 101.868 52.3675 102.126V103.196C52.3675 103.52 52.4272 103.8 52.5465 104.036C52.6687 104.271 52.8406 104.453 53.0621 104.581C53.2837 104.709 53.5465 104.773 53.8505 104.773C54.0522 104.773 54.2369 104.744 54.4045 104.688C54.5721 104.631 54.7156 104.545 54.8349 104.432C54.9542 104.318 55.0451 104.179 55.1076 104.014L56.7866 104.125C56.7013 104.528 56.5266 104.881 56.2624 105.182C56.0011 105.48 55.663 105.713 55.2482 105.881C54.8363 106.045 54.3604 106.128 53.8207 106.128ZM63.4556 101.321L61.7937 101.423C61.7653 101.281 61.7042 101.153 61.6104 101.04C61.5167 100.923 61.3931 100.831 61.2397 100.763C61.0891 100.692 60.9087 100.656 60.6985 100.656C60.4173 100.656 60.18 100.716 59.9869 100.835C59.7937 100.952 59.6971 101.108 59.6971 101.304C59.6971 101.46 59.7596 101.592 59.8846 101.7C60.0096 101.808 60.2241 101.895 60.5281 101.96L61.7127 102.199C62.3491 102.33 62.8235 102.54 63.136 102.83C63.4485 103.119 63.6048 103.5 63.6048 103.972C63.6048 104.401 63.4783 104.777 63.2255 105.101C62.9755 105.425 62.6317 105.678 62.1942 105.859C61.7596 106.038 61.2582 106.128 60.69 106.128C59.8235 106.128 59.1332 105.947 58.619 105.587C58.1076 105.223 57.8079 104.729 57.7198 104.104L59.5053 104.01C59.5593 104.274 59.69 104.476 59.8974 104.615C60.1048 104.751 60.3704 104.82 60.6942 104.82C61.0124 104.82 61.2681 104.759 61.4613 104.636C61.6573 104.511 61.7567 104.351 61.7596 104.155C61.7567 103.99 61.6871 103.855 61.5508 103.75C61.4144 103.642 61.2042 103.56 60.9201 103.503L59.7866 103.277C59.1474 103.149 58.6715 102.928 58.359 102.612C58.0494 102.297 57.8945 101.895 57.8945 101.406C57.8945 100.986 58.0082 100.624 58.2354 100.32C58.4656 100.016 58.788 99.7812 59.2028 99.6165C59.6204 99.4517 60.109 99.3693 60.6687 99.3693C61.4954 99.3693 62.146 99.544 62.6204 99.8935C63.0977 100.243 63.3761 100.719 63.4556 101.321ZM70.1939 101.321L68.532 101.423C68.5036 101.281 68.4425 101.153 68.3487 101.04C68.255 100.923 68.1314 100.831 67.978 100.763C67.8274 100.692 67.647 100.656 67.4368 100.656C67.1555 100.656 66.9183 100.716 66.7251 100.835C66.532 100.952 66.4354 101.108 66.4354 101.304C66.4354 101.46 66.4979 101.592 66.6229 101.7C66.7479 101.808 66.9624 101.895 67.2663 101.96L68.451 102.199C69.0874 102.33 69.5618 102.54 69.8743 102.83C70.1868 103.119 70.343 103.5 70.343 103.972C70.343 104.401 70.2166 104.777 69.9638 105.101C69.7138 105.425 69.37 105.678 68.9325 105.859C68.4979 106.038 67.9964 106.128 67.4283 106.128C66.5618 106.128 65.8714 105.947 65.3572 105.587C64.8459 105.223 64.5462 104.729 64.4581 104.104L66.2436 104.01C66.2976 104.274 66.4283 104.476 66.6357 104.615C66.843 104.751 67.1087 104.82 67.4325 104.82C67.7507 104.82 68.0064 104.759 68.1996 104.636C68.3956 104.511 68.495 104.351 68.4979 104.155C68.495 103.99 68.4254 103.855 68.2891 103.75C68.1527 103.642 67.9425 103.56 67.6584 103.503L66.5249 103.277C65.8857 103.149 65.4098 102.928 65.0973 102.612C64.7876 102.297 64.6328 101.895 64.6328 101.406C64.6328 100.986 64.7464 100.624 64.9737 100.32C65.2038 100.016 65.5263 99.7812 65.9411 99.6165C66.3587 99.4517 66.8473 99.3693 67.407 99.3693C68.2337 99.3693 68.8842 99.544 69.3587 99.8935C69.8359 100.243 70.1143 100.719 70.1939 101.321ZM77.745 99.4545V100.818H73.8033V99.4545H77.745ZM74.6982 97.8864H76.5135V103.989C76.5135 104.156 76.5391 104.287 76.5902 104.381C76.6413 104.472 76.7124 104.536 76.8033 104.572C76.897 104.609 77.005 104.628 77.1271 104.628C77.2124 104.628 77.2976 104.621 77.3828 104.607C77.468 104.589 77.5334 104.577 77.5788 104.568L77.8643 105.919C77.7734 105.947 77.6456 105.98 77.4808 106.017C77.3161 106.057 77.1158 106.081 76.88 106.089C76.4425 106.107 76.0589 106.048 75.7294 105.915C75.4027 105.781 75.1484 105.574 74.9666 105.293C74.7848 105.011 74.6953 104.656 74.6982 104.227V97.8864ZM80.0483 108.455C79.8182 108.455 79.6023 108.436 79.4006 108.399C79.2017 108.365 79.0369 108.321 78.9062 108.267L79.3153 106.912C79.5284 106.977 79.7202 107.013 79.8906 107.018C80.0639 107.024 80.2131 106.984 80.3381 106.899C80.4659 106.814 80.5696 106.669 80.6491 106.464L80.7557 106.188L78.4077 99.4545H80.3168L81.6719 104.261H81.7401L83.108 99.4545H85.0298L82.4858 106.707C82.3636 107.06 82.1974 107.366 81.9872 107.628C81.7798 107.892 81.517 108.095 81.1989 108.237C80.8807 108.382 80.4972 108.455 80.0483 108.455ZM85.9588 108.455V99.4545H87.7486V100.554H87.8295C87.9091 100.378 88.0241 100.199 88.1747 100.017C88.3281 99.8324 88.527 99.679 88.7713 99.5568C89.0185 99.4318 89.3253 99.3693 89.6918 99.3693C90.169 99.3693 90.6094 99.4943 91.0128 99.7443C91.4162 99.9915 91.7386 100.365 91.9801 100.865C92.2216 101.362 92.3423 101.986 92.3423 102.736C92.3423 103.466 92.2244 104.082 91.9886 104.585C91.7557 105.085 91.4375 105.464 91.0341 105.723C90.6335 105.979 90.1847 106.107 89.6875 106.107C89.3352 106.107 89.0355 106.048 88.7884 105.932C88.544 105.815 88.3438 105.669 88.1875 105.493C88.0312 105.314 87.9119 105.134 87.8295 104.952H87.7741V108.455H85.9588ZM87.7358 102.727C87.7358 103.116 87.7898 103.456 87.8977 103.746C88.0057 104.036 88.1619 104.261 88.3665 104.423C88.571 104.582 88.8196 104.662 89.1122 104.662C89.4077 104.662 89.6577 104.581 89.8622 104.419C90.0668 104.254 90.2216 104.027 90.3267 103.737C90.4347 103.445 90.4886 103.108 90.4886 102.727C90.4886 102.349 90.4361 102.017 90.331 101.73C90.2259 101.443 90.071 101.219 89.8665 101.057C89.6619 100.895 89.4105 100.814 89.1122 100.814C88.8168 100.814 88.5668 100.892 88.3622 101.048C88.1605 101.205 88.0057 101.426 87.8977 101.713C87.7898 102 87.7358 102.338 87.7358 102.727ZM96.5355 106.128C95.8622 106.128 95.2827 105.991 94.7969 105.719C94.3139 105.443 93.9418 105.054 93.6804 104.551C93.419 104.045 93.2884 103.447 93.2884 102.757C93.2884 102.084 93.419 101.493 93.6804 100.984C93.9418 100.476 94.3097 100.08 94.7841 99.7955C95.2614 99.5114 95.821 99.3693 96.4631 99.3693C96.8949 99.3693 97.2969 99.4389 97.669 99.5781C98.044 99.7145 98.3707 99.9205 98.6491 100.196C98.9304 100.472 99.1491 100.818 99.3054 101.236C99.4616 101.651 99.5398 102.136 99.5398 102.693V103.192H94.0128V102.067H97.831C97.831 101.805 97.7741 101.574 97.6605 101.372C97.5469 101.17 97.3892 101.013 97.1875 100.899C96.9886 100.783 96.7571 100.724 96.4929 100.724C96.2173 100.724 95.973 100.788 95.7599 100.916C95.5497 101.041 95.3849 101.21 95.2656 101.423C95.1463 101.634 95.0852 101.868 95.0824 102.126V103.196C95.0824 103.52 95.142 103.8 95.2614 104.036C95.3835 104.271 95.5554 104.453 95.777 104.581C95.9986 104.709 96.2614 104.773 96.5653 104.773C96.767 104.773 96.9517 104.744 97.1193 104.688C97.2869 104.631 97.4304 104.545 97.5497 104.432C97.669 104.318 97.7599 104.179 97.8224 104.014L99.5014 104.125C99.4162 104.528 99.2415 104.881 98.9773 105.182C98.7159 105.48 98.3778 105.713 97.9631 105.881C97.5511 106.045 97.0753 106.128 96.5355 106.128Z" fill="black"/>
<path d="M114.67 101.79V102.727H110.852V101.79H114.67Z" fill="black"/>
<path d="M179.634 101.79V102.727H175.816V101.79H179.634Z" fill="black"/>
<path d="M244.59 101.79V102.727H240.772V101.79H244.59Z" fill="black"/>
<path d="M305.79 106V105.233L308.67 102.08C309.008 101.71 309.287 101.389 309.506 101.116C309.724 100.841 309.886 100.582 309.991 100.341C310.099 100.097 310.153 99.8409 310.153 99.5739C310.153 99.267 310.079 99.0014 309.932 98.777C309.787 98.5526 309.588 98.3793 309.335 98.2571C309.082 98.1349 308.798 98.0739 308.483 98.0739C308.148 98.0739 307.855 98.1435 307.605 98.2827C307.358 98.419 307.166 98.6108 307.03 98.858C306.896 99.1051 306.829 99.3949 306.829 99.7273H305.824C305.824 99.2159 305.942 98.767 306.177 98.3807C306.413 97.9943 306.734 97.6932 307.14 97.4773C307.55 97.2614 308.008 97.1534 308.517 97.1534C309.028 97.1534 309.481 97.2614 309.876 97.4773C310.271 97.6932 310.581 97.9844 310.805 98.3509C311.03 98.7173 311.142 99.125 311.142 99.5739C311.142 99.8949 311.084 100.209 310.967 100.516C310.854 100.82 310.655 101.159 310.371 101.534C310.089 101.906 309.699 102.361 309.199 102.898L307.239 104.994V105.062H311.295V106H305.79Z" fill="black"/>
<path d="M374.514 101.79V102.727H370.696V101.79H374.514Z" fill="black"/>
<path d="M439.476 101.79V102.727H435.657V101.79H439.476Z" fill="black"/>
<path d="M504.439 101.79V102.727H500.62V101.79H504.439Z" fill="black"/>
<path d="M569.397 101.79V102.727H565.578V101.79H569.397Z" fill="black"/>
<path d="M630.592 106V105.233L633.473 102.08C633.811 101.71 634.089 101.389 634.308 101.116C634.527 100.841 634.688 100.582 634.794 100.341C634.902 100.097 634.956 99.8409 634.956 99.5739C634.956 99.267 634.882 99.0014 634.734 98.777C634.589 98.5526 634.39 98.3793 634.137 98.2571C633.884 98.1349 633.6 98.0739 633.285 98.0739C632.95 98.0739 632.657 98.1435 632.407 98.2827C632.16 98.419 631.968 98.6108 631.832 98.858C631.698 99.1051 631.632 99.3949 631.632 99.7273H630.626C630.626 99.2159 630.744 98.767 630.98 98.3807C631.215 97.9943 631.536 97.6932 631.943 97.4773C632.352 97.2614 632.811 97.1534 633.319 97.1534C633.831 97.1534 634.284 97.2614 634.679 97.4773C635.073 97.6932 635.383 97.9844 635.608 98.3509C635.832 98.7173 635.944 99.125 635.944 99.5739C635.944 99.8949 635.886 100.209 635.769 100.516C635.656 100.82 635.457 101.159 635.173 101.534C634.892 101.906 634.501 102.361 634.001 102.898L632.041 104.994V105.062H636.098V106H630.592Z" fill="black"/>
<path d="M698.624 97.2727V106H697.568V98.3807H697.516L695.386 99.7955V98.7216L697.568 97.2727H698.624Z" fill="black"/>
</svg>
