<svg version="1.1" xmlns="http://www.w3.org/2000/svg" xmlns:xlink="http://www.w3.org/1999/xlink" width="143.736" height="137.312">
 <g>
  <rect height="137.312" opacity="0" width="143.736" x="0" y="0" />
  <path d="M0 119.183C0 130.986 5.97656 137.312 18.0791 137.312L124.362 137.312C137.262 137.312 143.736 130.837 143.736 118.137L143.736 19.2246C143.736 6.47461 137.262 0.0498047 124.362 0.0498047L46.667 0.0498047C33.7676 0.0498047 27.293 6.47461 27.293 19.2246L27.293 51.3486L12.1523 51.3486C4.53223 51.3486 0 55.5322 0 62.6543ZM8.81543 119.183L8.81543 64.248C8.81543 61.708 10.4092 60.1641 12.999 60.1641L27.293 60.1641L27.293 119.183C27.293 124.611 23.3086 128.496 18.0791 128.496C12.7998 128.496 8.81543 124.462 8.81543 119.183ZM33.5186 128.496C35.2119 125.807 36.1084 122.52 36.1084 118.685L36.1084 19.7227C36.1084 12.5508 39.8936 8.86523 46.8164 8.86523L124.163 8.86523C131.136 8.86523 134.921 12.5508 134.921 19.7227L134.921 117.639C134.921 124.811 131.136 128.496 124.163 128.496ZM53.4404 37.3037L117.688 37.3037C119.681 37.3037 121.175 35.7598 121.175 33.8174C121.175 31.875 119.681 30.3809 117.688 30.3809L53.4404 30.3809C51.3984 30.3809 49.9043 31.875 49.9043 33.8174C49.9043 35.7598 51.3984 37.3037 53.4404 37.3037ZM53.4404 60.1641L117.688 60.1641C119.681 60.1641 121.175 58.6699 121.175 56.7773C121.175 54.835 119.681 53.291 117.688 53.291L53.4404 53.291C51.3984 53.291 49.9043 54.835 49.9043 56.7773C49.9043 58.6699 51.3984 60.1641 53.4404 60.1641ZM57.375 106.383L74.1094 106.383C78.8408 106.383 81.7295 103.494 81.7295 98.7627L81.7295 83.8213C81.7295 79.1396 78.8408 76.2012 74.1094 76.2012L57.375 76.2012C52.6436 76.2012 49.7051 79.1396 49.7051 83.8213L49.7051 98.7627C49.7051 103.494 52.6436 106.383 57.375 106.383ZM93.4336 83.124L117.639 83.124C119.631 83.124 121.125 81.6299 121.125 79.7373C121.125 77.7451 119.631 76.2012 117.639 76.2012L93.4336 76.2012C91.3916 76.2012 89.8975 77.7451 89.8975 79.7373C89.8975 81.6299 91.3916 83.124 93.4336 83.124ZM93.4336 106.383L117.639 106.383C119.631 106.383 121.125 104.889 121.125 102.996C121.125 101.054 119.631 99.5098 117.639 99.5098L93.4336 99.5098C91.3916 99.5098 89.8975 101.054 89.8975 102.996C89.8975 104.889 91.3916 106.383 93.4336 106.383Z" fill="#68CB3A" fill-opacity="0.85"/>
 </g>
</svg>