<svg width="757" height="149" viewBox="0 0 757 149" fill="none" xmlns="http://www.w3.org/2000/svg">
<path d="M131.664 32.24C131.653 32.8267 131.744 33.3173 131.936 33.712C132.128 34.1067 132.389 34.4213 132.72 34.656C133.061 34.8907 133.461 35.0613 133.92 35.168C134.379 35.264 134.869 35.312 135.392 35.312C135.691 35.312 136.016 35.2693 136.368 35.184C136.72 35.0987 137.045 34.9653 137.344 34.784C137.653 34.592 137.909 34.352 138.112 34.064C138.315 33.7653 138.416 33.408 138.416 32.992C138.416 32.672 138.341 32.3947 138.192 32.16C138.053 31.9253 137.867 31.728 137.632 31.568C137.408 31.408 137.157 31.28 136.88 31.184C136.603 31.0773 136.331 30.992 136.064 30.928L133.52 30.304C133.189 30.2187 132.864 30.112 132.544 29.984C132.235 29.856 131.963 29.6853 131.728 29.472C131.493 29.2587 131.301 28.9973 131.152 28.688C131.013 28.3787 130.944 28 130.944 27.552C130.944 27.2747 130.997 26.9493 131.104 26.576C131.211 26.2027 131.408 25.8507 131.696 25.52C131.995 25.1893 132.4 24.912 132.912 24.688C133.424 24.4533 134.08 24.336 134.88 24.336C135.445 24.336 135.984 24.4107 136.496 24.56C137.008 24.7093 137.456 24.9333 137.84 25.232C138.224 25.5307 138.528 25.904 138.752 26.352C138.987 26.7893 139.104 27.3013 139.104 27.888H138.016C137.995 27.4507 137.893 27.072 137.712 26.752C137.541 26.4213 137.312 26.1493 137.024 25.936C136.747 25.712 136.421 25.5467 136.048 25.44C135.685 25.3227 135.301 25.264 134.896 25.264C134.523 25.264 134.16 25.3067 133.808 25.392C133.467 25.4667 133.163 25.5947 132.896 25.776C132.64 25.9467 132.432 26.176 132.272 26.464C132.112 26.752 132.032 27.1093 132.032 27.536C132.032 27.8027 132.075 28.0373 132.16 28.24C132.256 28.432 132.384 28.5973 132.544 28.736C132.704 28.8747 132.885 28.9867 133.088 29.072C133.301 29.1573 133.525 29.2267 133.76 29.28L136.544 29.968C136.949 30.0747 137.328 30.208 137.68 30.368C138.043 30.5173 138.357 30.7093 138.624 30.944C138.901 31.168 139.115 31.4453 139.264 31.776C139.424 32.1067 139.504 32.5067 139.504 32.976C139.504 33.104 139.488 33.2747 139.456 33.488C139.435 33.7013 139.371 33.9307 139.264 34.176C139.168 34.4107 139.024 34.6507 138.832 34.896C138.651 35.1413 138.395 35.3653 138.064 35.568C137.744 35.76 137.344 35.9147 136.864 36.032C136.384 36.16 135.808 36.224 135.136 36.224C134.464 36.224 133.84 36.1493 133.264 36C132.688 35.84 132.197 35.6 131.792 35.28C131.387 34.96 131.072 34.5493 130.848 34.048C130.635 33.5467 130.544 32.944 130.576 32.24H131.664ZM141.23 24.576H142.318V29.536H149.102V24.576H150.19V36H149.102V30.464H142.318V36H141.23V24.576ZM152.576 24.576H153.664V36H152.576V24.576ZM156.043 24.576H163.291V25.504H157.131V29.632H162.603V30.56H157.131V36H156.043V24.576ZM163.42 24.576H172.46V25.504H168.476V36H167.388V25.504H163.42V24.576ZM180.972 28.592H179.34V36H178.332V28.592H176.924V27.744H178.332V26.992C178.332 26.64 178.359 26.3147 178.412 26.016C178.465 25.7173 178.567 25.4613 178.716 25.248C178.865 25.0347 179.068 24.8693 179.324 24.752C179.591 24.6347 179.927 24.576 180.332 24.576C180.481 24.576 180.62 24.5813 180.748 24.592C180.876 24.6027 181.02 24.6187 181.18 24.64V25.504C181.041 25.4827 180.913 25.4667 180.796 25.456C180.679 25.4347 180.561 25.424 180.444 25.424C180.167 25.424 179.953 25.4667 179.804 25.552C179.655 25.6373 179.543 25.7547 179.468 25.904C179.404 26.0427 179.367 26.208 179.356 26.4C179.345 26.592 179.34 26.8 179.34 27.024V27.744H180.972V28.592ZM188.617 36H187.689V34.512H187.657C187.39 35.0667 187.001 35.4933 186.489 35.792C185.987 36.08 185.427 36.224 184.809 36.224C184.286 36.224 183.838 36.1493 183.465 36C183.102 35.8613 182.803 35.6587 182.569 35.392C182.345 35.1253 182.179 34.8 182.073 34.416C181.966 34.032 181.913 33.5947 181.913 33.104V27.744H182.921V33.12C182.942 33.8667 183.113 34.432 183.433 34.816C183.763 35.2 184.329 35.392 185.129 35.392C185.566 35.392 185.939 35.3013 186.249 35.12C186.558 34.928 186.814 34.6773 187.017 34.368C187.219 34.0587 187.369 33.7067 187.465 33.312C187.561 32.9067 187.609 32.496 187.609 32.08V27.744H188.617V36ZM190.507 27.744H191.515V29.168H191.547C191.739 28.6667 192.08 28.2667 192.571 27.968C193.061 27.6587 193.6 27.504 194.187 27.504C194.763 27.504 195.243 27.5787 195.627 27.728C196.021 27.8773 196.336 28.0907 196.571 28.368C196.805 28.6347 196.971 28.9653 197.067 29.36C197.163 29.7547 197.211 30.1973 197.211 30.688V36H196.203V30.848C196.203 30.496 196.171 30.1707 196.107 29.872C196.043 29.5627 195.931 29.296 195.771 29.072C195.611 28.848 195.392 28.672 195.115 28.544C194.848 28.416 194.512 28.352 194.107 28.352C193.701 28.352 193.339 28.4267 193.019 28.576C192.709 28.7147 192.443 28.912 192.219 29.168C192.005 29.4133 191.835 29.712 191.707 30.064C191.589 30.4053 191.525 30.7787 191.515 31.184V36H190.507V27.744ZM204.94 30.336C204.802 29.7173 204.546 29.232 204.172 28.88C203.799 28.528 203.276 28.352 202.604 28.352C202.124 28.352 201.703 28.4533 201.34 28.656C200.978 28.8587 200.674 29.1253 200.428 29.456C200.194 29.7867 200.012 30.1653 199.884 30.592C199.767 31.008 199.708 31.4347 199.708 31.872C199.708 32.3093 199.767 32.7413 199.884 33.168C200.012 33.584 200.194 33.9573 200.428 34.288C200.674 34.6187 200.978 34.8853 201.34 35.088C201.703 35.2907 202.124 35.392 202.604 35.392C202.914 35.392 203.207 35.3333 203.484 35.216C203.762 35.0987 204.007 34.9387 204.22 34.736C204.434 34.5227 204.61 34.272 204.748 33.984C204.887 33.696 204.972 33.3813 205.004 33.04H206.012C205.874 34.0427 205.506 34.8267 204.908 35.392C204.311 35.9467 203.543 36.224 202.604 36.224C201.975 36.224 201.415 36.112 200.924 35.888C200.444 35.6533 200.039 35.3387 199.708 34.944C199.378 34.5493 199.127 34.0907 198.956 33.568C198.786 33.0347 198.7 32.4693 198.7 31.872C198.7 31.2747 198.786 30.7147 198.956 30.192C199.127 29.6587 199.378 29.1947 199.708 28.8C200.039 28.4053 200.444 28.0907 200.924 27.856C201.415 27.6213 201.975 27.504 202.604 27.504C203.49 27.504 204.236 27.7387 204.844 28.208C205.463 28.6773 205.831 29.3867 205.948 30.336H204.94ZM209.013 27.744H210.693V28.592H209.013V34.16C209.013 34.4907 209.056 34.752 209.141 34.944C209.237 35.1253 209.466 35.2267 209.829 35.248C210.117 35.248 210.405 35.232 210.693 35.2V36.048C210.544 36.048 210.394 36.0533 210.245 36.064C210.096 36.0747 209.946 36.08 209.797 36.08C209.125 36.08 208.656 35.952 208.389 35.696C208.122 35.4293 207.994 34.944 208.005 34.24V28.592H206.565V27.744H208.005V25.264H209.013V27.744ZM212.164 24.576H213.172V26.192H212.164V24.576ZM212.164 27.744H213.172V36H212.164V27.744ZM218.589 28.352C218.109 28.352 217.687 28.4533 217.325 28.656C216.962 28.8587 216.658 29.1253 216.413 29.456C216.178 29.7867 215.997 30.1653 215.869 30.592C215.751 31.008 215.693 31.4347 215.693 31.872C215.693 32.3093 215.751 32.7413 215.869 33.168C215.997 33.584 216.178 33.9573 216.413 34.288C216.658 34.6187 216.962 34.8853 217.325 35.088C217.687 35.2907 218.109 35.392 218.589 35.392C219.069 35.392 219.49 35.2907 219.853 35.088C220.215 34.8853 220.514 34.6187 220.749 34.288C220.994 33.9573 221.175 33.584 221.293 33.168C221.421 32.7413 221.485 32.3093 221.485 31.872C221.485 31.4347 221.421 31.008 221.293 30.592C221.175 30.1653 220.994 29.7867 220.749 29.456C220.514 29.1253 220.215 28.8587 219.853 28.656C219.49 28.4533 219.069 28.352 218.589 28.352ZM218.589 27.504C219.218 27.504 219.773 27.6213 220.253 27.856C220.743 28.0907 221.154 28.4053 221.485 28.8C221.815 29.1947 222.066 29.6587 222.237 30.192C222.407 30.7147 222.493 31.2747 222.493 31.872C222.493 32.4693 222.407 33.0347 222.237 33.568C222.066 34.0907 221.815 34.5493 221.485 34.944C221.154 35.3387 220.743 35.6533 220.253 35.888C219.773 36.112 219.218 36.224 218.589 36.224C217.959 36.224 217.399 36.112 216.909 35.888C216.429 35.6533 216.023 35.3387 215.693 34.944C215.362 34.5493 215.111 34.0907 214.941 33.568C214.77 33.0347 214.685 32.4693 214.685 31.872C214.685 31.2747 214.77 30.7147 214.941 30.192C215.111 29.6587 215.362 29.1947 215.693 28.8C216.023 28.4053 216.429 28.0907 216.909 27.856C217.399 27.6213 217.959 27.504 218.589 27.504ZM223.975 27.744H224.983V29.168H225.015C225.207 28.6667 225.549 28.2667 226.039 27.968C226.53 27.6587 227.069 27.504 227.655 27.504C228.231 27.504 228.711 27.5787 229.095 27.728C229.49 27.8773 229.805 28.0907 230.039 28.368C230.274 28.6347 230.439 28.9653 230.535 29.36C230.631 29.7547 230.679 30.1973 230.679 30.688V36H229.671V30.848C229.671 30.496 229.639 30.1707 229.575 29.872C229.511 29.5627 229.399 29.296 229.239 29.072C229.079 28.848 228.861 28.672 228.583 28.544C228.317 28.416 227.981 28.352 227.575 28.352C227.17 28.352 226.807 28.4267 226.487 28.576C226.178 28.7147 225.911 28.912 225.687 29.168C225.474 29.4133 225.303 29.712 225.175 30.064C225.058 30.4053 224.994 30.7787 224.983 31.184V36H223.975V27.744ZM237.529 30.16C237.518 29.8507 237.454 29.584 237.337 29.36C237.22 29.1253 237.06 28.9333 236.857 28.784C236.665 28.6347 236.441 28.528 236.185 28.464C235.929 28.3893 235.657 28.352 235.369 28.352C235.145 28.352 234.916 28.3787 234.681 28.432C234.457 28.4747 234.249 28.5547 234.057 28.672C233.865 28.7787 233.71 28.9227 233.593 29.104C233.476 29.2853 233.417 29.5093 233.417 29.776C233.417 30 233.47 30.192 233.577 30.352C233.694 30.5013 233.838 30.6293 234.009 30.736C234.18 30.8427 234.366 30.9333 234.569 31.008C234.772 31.072 234.958 31.1253 235.129 31.168L236.473 31.472C236.761 31.5147 237.044 31.5947 237.321 31.712C237.609 31.8187 237.86 31.9627 238.073 32.144C238.297 32.3253 238.478 32.5493 238.617 32.816C238.756 33.0827 238.825 33.3973 238.825 33.76C238.825 34.208 238.724 34.592 238.521 34.912C238.318 35.2213 238.057 35.4773 237.737 35.68C237.428 35.872 237.076 36.0107 236.681 36.096C236.286 36.1813 235.897 36.224 235.513 36.224C234.542 36.224 233.753 35.9947 233.145 35.536C232.548 35.0773 232.206 34.3413 232.121 33.328H233.129C233.172 34.0107 233.417 34.528 233.865 34.88C234.324 35.2213 234.889 35.392 235.561 35.392C235.806 35.392 236.057 35.3653 236.313 35.312C236.58 35.2587 236.825 35.168 237.049 35.04C237.273 34.912 237.454 34.752 237.593 34.56C237.742 34.3573 237.817 34.112 237.817 33.824C237.817 33.5787 237.764 33.376 237.657 33.216C237.561 33.0453 237.428 32.9067 237.257 32.8C237.086 32.6827 236.889 32.5867 236.665 32.512C236.452 32.4373 236.233 32.3733 236.009 32.32L234.713 32.032C234.382 31.9467 234.078 31.8507 233.801 31.744C233.524 31.6267 233.278 31.488 233.065 31.328C232.862 31.1573 232.702 30.9547 232.585 30.72C232.468 30.4747 232.409 30.176 232.409 29.824C232.409 29.408 232.5 29.0507 232.681 28.752C232.873 28.4533 233.118 28.2133 233.417 28.032C233.716 27.8507 234.046 27.7173 234.409 27.632C234.782 27.5467 235.15 27.504 235.513 27.504C235.929 27.504 236.313 27.5573 236.665 27.664C237.028 27.7707 237.342 27.936 237.609 28.16C237.886 28.384 238.105 28.6613 238.265 28.992C238.425 29.3227 238.516 29.712 238.537 30.16H237.529ZM244.741 24.576H245.749V29.312H245.781C245.888 29.0133 246.037 28.752 246.229 28.528C246.432 28.304 246.661 28.1173 246.917 27.968C247.173 27.808 247.451 27.6907 247.749 27.616C248.048 27.5413 248.347 27.504 248.645 27.504C249.275 27.504 249.819 27.6213 250.277 27.856C250.747 28.0907 251.136 28.4107 251.445 28.816C251.755 29.2107 251.984 29.6747 252.133 30.208C252.283 30.7307 252.357 31.2853 252.357 31.872C252.357 32.4587 252.283 33.0187 252.133 33.552C251.984 34.0747 251.755 34.5387 251.445 34.944C251.136 35.3387 250.747 35.6533 250.277 35.888C249.819 36.112 249.275 36.224 248.645 36.224C247.973 36.224 247.371 36.0693 246.837 35.76C246.315 35.4507 245.936 35.008 245.701 34.432H245.669V36H244.741V24.576ZM251.349 31.872C251.349 31.4453 251.296 31.024 251.189 30.608C251.093 30.1813 250.933 29.8027 250.709 29.472C250.496 29.1413 250.219 28.8747 249.877 28.672C249.536 28.4587 249.125 28.352 248.645 28.352C248.112 28.352 247.659 28.4587 247.285 28.672C246.923 28.8747 246.624 29.1413 246.389 29.472C246.165 29.8027 246 30.1813 245.893 30.608C245.797 31.024 245.749 31.4453 245.749 31.872C245.749 32.2987 245.797 32.7253 245.893 33.152C246 33.568 246.165 33.9413 246.389 34.272C246.624 34.6027 246.923 34.8747 247.285 35.088C247.659 35.2907 248.112 35.392 248.645 35.392C249.125 35.392 249.536 35.2907 249.877 35.088C250.219 34.8747 250.496 34.6027 250.709 34.272C250.933 33.9413 251.093 33.568 251.189 33.152C251.296 32.7253 251.349 32.2987 251.349 31.872ZM259.865 31.296C259.854 30.912 259.785 30.544 259.657 30.192C259.539 29.84 259.369 29.5307 259.145 29.264C258.921 28.9867 258.649 28.768 258.329 28.608C258.009 28.4373 257.646 28.352 257.241 28.352C256.825 28.352 256.457 28.4373 256.137 28.608C255.817 28.768 255.545 28.9867 255.321 29.264C255.097 29.5307 254.915 29.8453 254.777 30.208C254.649 30.56 254.563 30.9227 254.521 31.296H259.865ZM254.521 32.144C254.521 32.5067 254.569 32.8853 254.665 33.28C254.771 33.664 254.937 34.0107 255.161 34.32C255.385 34.6293 255.667 34.8853 256.009 35.088C256.35 35.2907 256.761 35.392 257.241 35.392C257.977 35.392 258.553 35.2 258.969 34.816C259.385 34.432 259.673 33.92 259.833 33.28H260.841C260.627 34.2187 260.233 34.944 259.657 35.456C259.091 35.968 258.286 36.224 257.241 36.224C256.59 36.224 256.025 36.112 255.545 35.888C255.075 35.6533 254.691 35.3387 254.393 34.944C254.094 34.5387 253.87 34.0747 253.721 33.552C253.582 33.0187 253.513 32.4587 253.513 31.872C253.513 31.328 253.582 30.7947 253.721 30.272C253.87 29.7493 254.094 29.2853 254.393 28.88C254.691 28.464 255.075 28.1333 255.545 27.888C256.025 27.632 256.59 27.504 257.241 27.504C257.902 27.504 258.467 27.6373 258.937 27.904C259.406 28.1707 259.785 28.5227 260.073 28.96C260.371 29.3867 260.585 29.8827 260.713 30.448C260.841 31.0027 260.894 31.568 260.873 32.144H254.521ZM262.21 24.576H263.218V29.168H263.25C263.442 28.6667 263.783 28.2667 264.274 27.968C264.764 27.6587 265.303 27.504 265.89 27.504C266.466 27.504 266.946 27.5787 267.33 27.728C267.724 27.8773 268.039 28.0907 268.274 28.368C268.508 28.6347 268.674 28.9653 268.77 29.36C268.866 29.7547 268.914 30.1973 268.914 30.688V36H267.906V30.848C267.906 30.496 267.874 30.1707 267.81 29.872C267.746 29.5627 267.634 29.296 267.474 29.072C267.314 28.848 267.095 28.672 266.818 28.544C266.551 28.416 266.215 28.352 265.81 28.352C265.404 28.352 265.042 28.4267 264.722 28.576C264.412 28.7147 264.146 28.912 263.922 29.168C263.708 29.4133 263.538 29.712 263.41 30.064C263.292 30.4053 263.228 30.7787 263.218 31.184V36H262.21V24.576ZM270.723 30.272C270.755 29.792 270.857 29.376 271.027 29.024C271.198 28.672 271.427 28.384 271.715 28.16C272.014 27.936 272.361 27.7707 272.755 27.664C273.15 27.5573 273.587 27.504 274.067 27.504C274.43 27.504 274.793 27.5413 275.155 27.616C275.518 27.68 275.843 27.808 276.131 28C276.419 28.192 276.654 28.464 276.835 28.816C277.017 29.1573 277.107 29.6053 277.107 30.16V34.544C277.107 34.9493 277.305 35.152 277.699 35.152C277.817 35.152 277.923 35.1307 278.019 35.088V35.936C277.902 35.9573 277.795 35.9733 277.699 35.984C277.614 35.9947 277.502 36 277.363 36C277.107 36 276.899 35.968 276.739 35.904C276.59 35.8293 276.473 35.728 276.387 35.6C276.302 35.472 276.243 35.3227 276.211 35.152C276.19 34.9707 276.179 34.7733 276.179 34.56H276.147C275.966 34.8267 275.779 35.0667 275.587 35.28C275.406 35.4827 275.198 35.6533 274.963 35.792C274.739 35.9307 274.478 36.0373 274.179 36.112C273.891 36.1867 273.545 36.224 273.139 36.224C272.755 36.224 272.393 36.176 272.051 36.08C271.721 35.9947 271.427 35.856 271.171 35.664C270.926 35.4613 270.729 35.2107 270.579 34.912C270.441 34.6027 270.371 34.24 270.371 33.824C270.371 33.248 270.499 32.8 270.755 32.48C271.011 32.1493 271.347 31.8987 271.763 31.728C272.19 31.5573 272.665 31.44 273.187 31.376C273.721 31.3013 274.259 31.232 274.803 31.168C275.017 31.1467 275.203 31.12 275.363 31.088C275.523 31.056 275.657 31.0027 275.763 30.928C275.87 30.8427 275.95 30.7307 276.003 30.592C276.067 30.4533 276.099 30.272 276.099 30.048C276.099 29.7067 276.041 29.4293 275.923 29.216C275.817 28.992 275.662 28.816 275.459 28.688C275.267 28.56 275.038 28.4747 274.771 28.432C274.515 28.3787 274.238 28.352 273.939 28.352C273.299 28.352 272.777 28.5067 272.371 28.816C271.966 29.1147 271.753 29.6 271.731 30.272H270.723ZM276.099 31.488H276.067C276.003 31.6053 275.881 31.6907 275.699 31.744C275.518 31.7973 275.358 31.8347 275.219 31.856C274.793 31.9307 274.35 32 273.891 32.064C273.443 32.1173 273.033 32.2027 272.659 32.32C272.286 32.4373 271.977 32.608 271.731 32.832C271.497 33.0453 271.379 33.3547 271.379 33.76C271.379 34.016 271.427 34.2453 271.523 34.448C271.63 34.64 271.769 34.8107 271.939 34.96C272.11 35.0987 272.307 35.2053 272.531 35.28C272.755 35.3547 272.985 35.392 273.219 35.392C273.603 35.392 273.971 35.3333 274.323 35.216C274.675 35.0987 274.979 34.928 275.235 34.704C275.502 34.48 275.71 34.208 275.859 33.888C276.019 33.568 276.099 33.2053 276.099 32.8V31.488ZM278.188 27.744H279.308L281.9 34.992H281.932L284.492 27.744H285.532L282.444 36H281.372L278.188 27.744ZM286.539 24.576H287.547V26.192H286.539V24.576ZM286.539 27.744H287.547V36H286.539V27.744ZM292.964 28.352C292.484 28.352 292.062 28.4533 291.7 28.656C291.337 28.8587 291.033 29.1253 290.788 29.456C290.553 29.7867 290.372 30.1653 290.244 30.592C290.126 31.008 290.068 31.4347 290.068 31.872C290.068 32.3093 290.126 32.7413 290.244 33.168C290.372 33.584 290.553 33.9573 290.788 34.288C291.033 34.6187 291.337 34.8853 291.7 35.088C292.062 35.2907 292.484 35.392 292.964 35.392C293.444 35.392 293.865 35.2907 294.228 35.088C294.59 34.8853 294.889 34.6187 295.124 34.288C295.369 33.9573 295.55 33.584 295.668 33.168C295.796 32.7413 295.86 32.3093 295.86 31.872C295.86 31.4347 295.796 31.008 295.668 30.592C295.55 30.1653 295.369 29.7867 295.124 29.456C294.889 29.1253 294.59 28.8587 294.228 28.656C293.865 28.4533 293.444 28.352 292.964 28.352ZM292.964 27.504C293.593 27.504 294.148 27.6213 294.628 27.856C295.118 28.0907 295.529 28.4053 295.86 28.8C296.19 29.1947 296.441 29.6587 296.612 30.192C296.782 30.7147 296.868 31.2747 296.868 31.872C296.868 32.4693 296.782 33.0347 296.612 33.568C296.441 34.0907 296.19 34.5493 295.86 34.944C295.529 35.3387 295.118 35.6533 294.628 35.888C294.148 36.112 293.593 36.224 292.964 36.224C292.334 36.224 291.774 36.112 291.284 35.888C290.804 35.6533 290.398 35.3387 290.068 34.944C289.737 34.5493 289.486 34.0907 289.316 33.568C289.145 33.0347 289.06 32.4693 289.06 31.872C289.06 31.2747 289.145 30.7147 289.316 30.192C289.486 29.6587 289.737 29.1947 290.068 28.8C290.398 28.4053 290.804 28.0907 291.284 27.856C291.774 27.6213 292.334 27.504 292.964 27.504ZM305.054 36H304.126V34.512H304.094C303.828 35.0667 303.438 35.4933 302.926 35.792C302.425 36.08 301.865 36.224 301.246 36.224C300.724 36.224 300.276 36.1493 299.902 36C299.54 35.8613 299.241 35.6587 299.006 35.392C298.782 35.1253 298.617 34.8 298.51 34.416C298.404 34.032 298.35 33.5947 298.35 33.104V27.744H299.358V33.12C299.38 33.8667 299.55 34.432 299.87 34.816C300.201 35.2 300.766 35.392 301.566 35.392C302.004 35.392 302.377 35.3013 302.686 35.12C302.996 34.928 303.252 34.6773 303.454 34.368C303.657 34.0587 303.806 33.7067 303.902 33.312C303.998 32.9067 304.046 32.496 304.046 32.08V27.744H305.054V36ZM306.96 27.744H307.888V29.68H307.92C308.176 29.008 308.571 28.4907 309.104 28.128C309.648 27.7653 310.293 27.6 311.04 27.632V28.64C310.581 28.6187 310.165 28.6827 309.792 28.832C309.419 28.9707 309.093 29.1733 308.816 29.44C308.549 29.7067 308.341 30.0267 308.192 30.4C308.043 30.7627 307.968 31.1627 307.968 31.6V36H306.96V27.744Z" fill="black"/>
<path d="M74.8849 59.4545V60.8182H70.8452V59.4545H74.8849ZM71.7699 66V58.9815C71.7699 58.5071 71.8622 58.1136 72.0469 57.8011C72.2344 57.4886 72.4901 57.2543 72.8139 57.098C73.1378 56.9418 73.5057 56.8636 73.9176 56.8636C74.196 56.8636 74.4503 56.8849 74.6804 56.9276C74.9134 56.9702 75.0866 57.0085 75.2003 57.0426L74.8764 58.4062C74.8054 58.3835 74.7173 58.3622 74.6122 58.3423C74.5099 58.3224 74.4048 58.3125 74.2969 58.3125C74.0298 58.3125 73.8438 58.375 73.7386 58.5C73.6335 58.6222 73.581 58.794 73.581 59.0156V66H71.7699ZM80.1914 63.2131V59.4545H82.0067V66H80.2638V64.8111H80.1957C80.0479 65.1946 79.8022 65.5028 79.4585 65.7358C79.1175 65.9687 78.7013 66.0852 78.2099 66.0852C77.7724 66.0852 77.3874 65.9858 77.055 65.7869C76.7227 65.5881 76.4627 65.3054 76.2752 64.9389C76.0906 64.5724 75.9968 64.1335 75.994 63.6222V59.4545H77.8093V63.2983C77.8121 63.6847 77.9158 63.9901 78.1204 64.2145C78.3249 64.4389 78.5991 64.5511 78.9428 64.5511C79.1616 64.5511 79.3661 64.5014 79.5565 64.402C79.7468 64.2997 79.9002 64.1491 80.0167 63.9503C80.136 63.7514 80.1942 63.5057 80.1914 63.2131ZM85.2741 62.2159V66H83.4588V59.4545H85.1889V60.6094H85.2656C85.4105 60.2287 85.6534 59.9276 85.9943 59.706C86.3352 59.4815 86.7486 59.3693 87.2344 59.3693C87.6889 59.3693 88.0852 59.4688 88.4233 59.6676C88.7614 59.8665 89.0241 60.1506 89.2116 60.5199C89.3991 60.8864 89.4929 61.3239 89.4929 61.8324V66H87.6776V62.1562C87.6804 61.7557 87.5781 61.4432 87.3707 61.2188C87.1634 60.9915 86.8778 60.8778 86.5142 60.8778C86.2699 60.8778 86.054 60.9304 85.8665 61.0355C85.6818 61.1406 85.5369 61.294 85.4318 61.4957C85.3295 61.6946 85.277 61.9347 85.2741 62.2159ZM93.881 66.1278C93.2106 66.1278 92.6339 65.9858 92.1509 65.7017C91.6708 65.4148 91.3015 65.017 91.043 64.5085C90.7873 64 90.6594 63.4148 90.6594 62.7528C90.6594 62.0824 90.7887 61.4943 91.0472 60.9886C91.3086 60.4801 91.6793 60.0838 92.1594 59.7997C92.6396 59.5128 93.2106 59.3693 93.8725 59.3693C94.4435 59.3693 94.9435 59.473 95.3725 59.6804C95.8015 59.8878 96.141 60.179 96.391 60.554C96.641 60.929 96.7788 61.3693 96.8043 61.875H95.0913C95.043 61.5483 94.9151 61.2855 94.7077 61.0866C94.5032 60.8849 94.2347 60.7841 93.9023 60.7841C93.6211 60.7841 93.3754 60.8608 93.1651 61.0142C92.9577 61.1648 92.7958 61.3849 92.6793 61.6747C92.5629 61.9645 92.5046 62.3153 92.5046 62.7273C92.5046 63.1449 92.5614 63.5 92.6751 63.7926C92.7915 64.0852 92.9549 64.3082 93.1651 64.4616C93.3754 64.6151 93.6211 64.6918 93.9023 64.6918C94.1097 64.6918 94.2958 64.6491 94.4606 64.5639C94.6282 64.4787 94.766 64.3551 94.8739 64.1932C94.9847 64.0284 95.0572 63.831 95.0913 63.6009H96.8043C96.7759 64.1009 96.6396 64.5412 96.3952 64.9219C96.1538 65.2997 95.82 65.5952 95.3938 65.8082C94.9677 66.0213 94.4634 66.1278 93.881 66.1278ZM101.448 59.4545V60.8182H97.5064V59.4545H101.448ZM98.4013 57.8864H100.217V63.9886C100.217 64.1562 100.242 64.2869 100.293 64.3807C100.344 64.4716 100.415 64.5355 100.506 64.5724C100.6 64.6094 100.708 64.6278 100.83 64.6278C100.915 64.6278 101.001 64.6207 101.086 64.6065C101.171 64.5895 101.237 64.5767 101.282 64.5682L101.567 65.919C101.477 65.9474 101.349 65.9801 101.184 66.017C101.019 66.0568 100.819 66.081 100.583 66.0895C100.146 66.1065 99.7621 66.0483 99.4325 65.9148C99.1058 65.7812 98.8516 65.5739 98.6697 65.2926C98.4879 65.0114 98.3984 64.6562 98.4013 64.2273V57.8864ZM102.631 66V59.4545H104.446V66H102.631ZM103.543 58.6108C103.273 58.6108 103.041 58.5213 102.848 58.3423C102.658 58.1605 102.562 57.9432 102.562 57.6903C102.562 57.4403 102.658 57.2259 102.848 57.0469C103.041 56.8651 103.273 56.7741 103.543 56.7741C103.813 56.7741 104.043 56.8651 104.233 57.0469C104.426 57.2259 104.523 57.4403 104.523 57.6903C104.523 57.9432 104.426 58.1605 104.233 58.3423C104.043 58.5213 103.813 58.6108 103.543 58.6108ZM108.858 66.1278C108.196 66.1278 107.623 65.9872 107.14 65.706C106.66 65.4219 106.289 65.027 106.028 64.5213C105.767 64.0128 105.636 63.4233 105.636 62.7528C105.636 62.0767 105.767 61.4858 106.028 60.9801C106.289 60.4716 106.66 60.0767 107.14 59.7955C107.623 59.5114 108.196 59.3693 108.858 59.3693C109.52 59.3693 110.091 59.5114 110.571 59.7955C111.054 60.0767 111.426 60.4716 111.687 60.9801C111.949 61.4858 112.079 62.0767 112.079 62.7528C112.079 63.4233 111.949 64.0128 111.687 64.5213C111.426 65.027 111.054 65.4219 110.571 65.706C110.091 65.9872 109.52 66.1278 108.858 66.1278ZM108.866 64.7216C109.167 64.7216 109.419 64.6364 109.62 64.4659C109.822 64.2926 109.974 64.0568 110.076 63.7585C110.181 63.4602 110.234 63.1207 110.234 62.7401C110.234 62.3594 110.181 62.0199 110.076 61.7216C109.974 61.4233 109.822 61.1875 109.62 61.0142C109.419 60.8409 109.167 60.7543 108.866 60.7543C108.562 60.7543 108.306 60.8409 108.099 61.0142C107.895 61.1875 107.74 61.4233 107.635 61.7216C107.532 62.0199 107.481 62.3594 107.481 62.7401C107.481 63.1207 107.532 63.4602 107.635 63.7585C107.74 64.0568 107.895 64.2926 108.099 64.4659C108.306 64.6364 108.562 64.7216 108.866 64.7216ZM115.075 62.2159V66H113.26V59.4545H114.99V60.6094H115.066C115.211 60.2287 115.454 59.9276 115.795 59.706C116.136 59.4815 116.549 59.3693 117.035 59.3693C117.49 59.3693 117.886 59.4688 118.224 59.6676C118.562 59.8665 118.825 60.1506 119.012 60.5199C119.2 60.8864 119.294 61.3239 119.294 61.8324V66H117.478V62.1562C117.481 61.7557 117.379 61.4432 117.172 61.2188C116.964 60.9915 116.679 60.8778 116.315 60.8778C116.071 60.8778 115.855 60.9304 115.667 61.0355C115.483 61.1406 115.338 61.294 115.233 61.4957C115.13 61.6946 115.078 61.9347 115.075 62.2159Z" fill="black"/>
<path d="M138.42 61.6364C138.42 62.5568 138.254 63.3523 137.922 64.0227C137.589 64.6932 137.134 65.2102 136.554 65.5739C135.974 65.9375 135.313 66.1193 134.568 66.1193C133.824 66.1193 133.162 65.9375 132.582 65.5739C132.003 65.2102 131.547 64.6932 131.214 64.0227C130.882 63.3523 130.716 62.5568 130.716 61.6364C130.716 60.7159 130.882 59.9205 131.214 59.25C131.547 58.5795 132.003 58.0625 132.582 57.6989C133.162 57.3352 133.824 57.1534 134.568 57.1534C135.313 57.1534 135.974 57.3352 136.554 57.6989C137.134 58.0625 137.589 58.5795 137.922 59.25C138.254 59.9205 138.42 60.7159 138.42 61.6364ZM137.398 61.6364C137.398 60.8807 137.271 60.2429 137.018 59.723C136.768 59.2031 136.429 58.8097 136 58.5426C135.574 58.2756 135.097 58.142 134.568 58.142C134.04 58.142 133.561 58.2756 133.132 58.5426C132.706 58.8097 132.366 59.2031 132.114 59.723C131.864 60.2429 131.739 60.8807 131.739 61.6364C131.739 62.392 131.864 63.0298 132.114 63.5497C132.366 64.0696 132.706 64.4631 133.132 64.7301C133.561 64.9972 134.04 65.1307 134.568 65.1307C135.097 65.1307 135.574 64.9972 136 64.7301C136.429 64.4631 136.768 64.0696 137.018 63.5497C137.271 63.0298 137.398 62.392 137.398 61.6364ZM147.22 60H146.163C146.101 59.696 145.991 59.429 145.835 59.1989C145.682 58.9688 145.494 58.7756 145.273 58.6193C145.054 58.4602 144.811 58.3409 144.544 58.2614C144.277 58.1818 143.999 58.142 143.709 58.142C143.18 58.142 142.702 58.2756 142.273 58.5426C141.847 58.8097 141.507 59.2031 141.254 59.723C141.004 60.2429 140.879 60.8807 140.879 61.6364C140.879 62.392 141.004 63.0298 141.254 63.5497C141.507 64.0696 141.847 64.4631 142.273 64.7301C142.702 64.9972 143.18 65.1307 143.709 65.1307C143.999 65.1307 144.277 65.0909 144.544 65.0114C144.811 64.9318 145.054 64.8139 145.273 64.6577C145.494 64.4986 145.682 64.304 145.835 64.0739C145.991 63.8409 146.101 63.5739 146.163 63.2727H147.22C147.141 63.7187 146.996 64.1179 146.786 64.4702C146.575 64.8224 146.314 65.1222 146.001 65.3693C145.689 65.6136 145.338 65.7997 144.949 65.9276C144.563 66.0554 144.149 66.1193 143.709 66.1193C142.964 66.1193 142.303 65.9375 141.723 65.5739C141.143 65.2102 140.688 64.6932 140.355 64.0227C140.023 63.3523 139.857 62.5568 139.857 61.6364C139.857 60.7159 140.023 59.9205 140.355 59.25C140.688 58.5795 141.143 58.0625 141.723 57.6989C142.303 57.3352 142.964 57.1534 143.709 57.1534C144.149 57.1534 144.563 57.2173 144.949 57.3452C145.338 57.473 145.689 57.6605 146.001 57.9077C146.314 58.152 146.575 58.4503 146.786 58.8026C146.996 59.152 147.141 59.5511 147.22 60ZM148.451 58.2102V57.2727H154.996V58.2102H152.252V66H151.195V58.2102H148.451ZM159.35 61.1676V62.1051H155.532V61.1676H159.35Z" fill="black"/>
<path d="M199.416 61.6364C199.416 62.5568 199.25 63.3523 198.917 64.0227C198.585 64.6932 198.129 65.2102 197.55 65.5739C196.97 65.9375 196.308 66.1193 195.564 66.1193C194.819 66.1193 194.158 65.9375 193.578 65.5739C192.998 65.2102 192.542 64.6932 192.21 64.0227C191.878 63.3523 191.712 62.5568 191.712 61.6364C191.712 60.7159 191.878 59.9205 192.21 59.25C192.542 58.5795 192.998 58.0625 193.578 57.6989C194.158 57.3352 194.819 57.1534 195.564 57.1534C196.308 57.1534 196.97 57.3352 197.55 57.6989C198.129 58.0625 198.585 58.5795 198.917 59.25C199.25 59.9205 199.416 60.7159 199.416 61.6364ZM198.393 61.6364C198.393 60.8807 198.267 60.2429 198.014 59.723C197.764 59.2031 197.425 58.8097 196.996 58.5426C196.569 58.2756 196.092 58.142 195.564 58.142C195.035 58.142 194.557 58.2756 194.128 58.5426C193.702 58.8097 193.362 59.2031 193.109 59.723C192.859 60.2429 192.734 60.8807 192.734 61.6364C192.734 62.392 192.859 63.0298 193.109 63.5497C193.362 64.0696 193.702 64.4631 194.128 64.7301C194.557 64.9972 195.035 65.1307 195.564 65.1307C196.092 65.1307 196.569 64.9972 196.996 64.7301C197.425 64.4631 197.764 64.0696 198.014 63.5497C198.267 63.0298 198.393 62.392 198.393 61.6364ZM208.216 60H207.159C207.096 59.696 206.987 59.429 206.831 59.1989C206.677 58.9688 206.49 58.7756 206.268 58.6193C206.05 58.4602 205.807 58.3409 205.54 58.2614C205.273 58.1818 204.994 58.142 204.704 58.142C204.176 58.142 203.697 58.2756 203.268 58.5426C202.842 58.8097 202.503 59.2031 202.25 59.723C202 60.2429 201.875 60.8807 201.875 61.6364C201.875 62.392 202 63.0298 202.25 63.5497C202.503 64.0696 202.842 64.4631 203.268 64.7301C203.697 64.9972 204.176 65.1307 204.704 65.1307C204.994 65.1307 205.273 65.0909 205.54 65.0114C205.807 64.9318 206.05 64.8139 206.268 64.6577C206.49 64.4986 206.677 64.304 206.831 64.0739C206.987 63.8409 207.096 63.5739 207.159 63.2727H208.216C208.136 63.7187 207.991 64.1179 207.781 64.4702C207.571 64.8224 207.31 65.1222 206.997 65.3693C206.685 65.6136 206.334 65.7997 205.944 65.9276C205.558 66.0554 205.145 66.1193 204.704 66.1193C203.96 66.1193 203.298 65.9375 202.719 65.5739C202.139 65.2102 201.683 64.6932 201.351 64.0227C201.018 63.3523 200.852 62.5568 200.852 61.6364C200.852 60.7159 201.018 59.9205 201.351 59.25C201.683 58.5795 202.139 58.0625 202.719 57.6989C203.298 57.3352 203.96 57.1534 204.704 57.1534C205.145 57.1534 205.558 57.2173 205.944 57.3452C206.334 57.473 206.685 57.6605 206.997 57.9077C207.31 58.152 207.571 58.4503 207.781 58.8026C207.991 59.152 208.136 59.5511 208.216 60ZM209.446 58.2102V57.2727H215.992V58.2102H213.247V66H212.191V58.2102H209.446ZM219.153 64.4659V58.8409H220.107V64.4659H219.153ZM216.817 62.1307V61.1761H222.442V62.1307H216.817Z" fill="black"/>
<path d="M253.048 66V57.2727H256.099C256.707 57.2727 257.208 57.3778 257.603 57.5881C257.998 57.7955 258.292 58.0753 258.485 58.4276C258.678 58.777 258.775 59.1648 258.775 59.5909C258.775 59.9659 258.708 60.2756 258.575 60.5199C258.444 60.7642 258.271 60.9574 258.055 61.0994C257.842 61.2415 257.61 61.3466 257.36 61.4148V61.5C257.627 61.517 257.896 61.6108 258.165 61.7812C258.435 61.9517 258.661 62.196 258.843 62.5142C259.025 62.8324 259.116 63.2216 259.116 63.6818C259.116 64.1193 259.016 64.5128 258.817 64.8622C258.619 65.2116 258.305 65.4886 257.876 65.6932C257.447 65.8977 256.888 66 256.201 66H253.048ZM254.104 65.0625H256.201C256.891 65.0625 257.381 64.929 257.671 64.6619C257.964 64.392 258.11 64.0653 258.11 63.6818C258.11 63.3864 258.035 63.1136 257.884 62.8636C257.734 62.6108 257.519 62.4091 257.241 62.2585C256.962 62.1051 256.633 62.0284 256.252 62.0284H254.104V65.0625ZM254.104 61.108H256.065C256.383 61.108 256.67 61.0455 256.925 60.9205C257.184 60.7955 257.388 60.6193 257.539 60.392C257.692 60.1648 257.769 59.8977 257.769 59.5909C257.769 59.2074 257.636 58.8821 257.369 58.6151C257.102 58.3452 256.678 58.2102 256.099 58.2102H254.104V61.108ZM260.852 66V57.2727H263.801C264.486 57.2727 265.045 57.3963 265.48 57.6435C265.918 57.8878 266.241 58.2188 266.452 58.6364C266.662 59.054 266.767 59.5199 266.767 60.0341C266.767 60.5483 266.662 61.0156 266.452 61.4361C266.244 61.8565 265.923 62.1918 265.489 62.4418C265.054 62.6889 264.497 62.8125 263.818 62.8125H261.705V61.875H263.784C264.253 61.875 264.629 61.794 264.913 61.6321C265.197 61.4702 265.403 61.2514 265.531 60.9759C265.662 60.6974 265.727 60.3835 265.727 60.0341C265.727 59.6847 265.662 59.3722 265.531 59.0966C265.403 58.821 265.196 58.6051 264.909 58.4489C264.622 58.2898 264.241 58.2102 263.767 58.2102H261.909V66H260.852ZM268.469 57.2727H269.731L272.697 64.517H272.799L275.765 57.2727H277.026V66H276.038V59.3693H275.952L273.225 66H272.271L269.543 59.3693H269.458V66H268.469V57.2727Z" fill="black"/>
<path d="M321.066 60H320.009C319.947 59.696 319.837 59.429 319.681 59.1989C319.528 58.9688 319.34 58.7756 319.118 58.6193C318.9 58.4602 318.657 58.3409 318.39 58.2614C318.123 58.1818 317.844 58.142 317.555 58.142C317.026 58.142 316.547 58.2756 316.118 58.5426C315.692 58.8097 315.353 59.2031 315.1 59.723C314.85 60.2429 314.725 60.8807 314.725 61.6364C314.725 62.392 314.85 63.0298 315.1 63.5497C315.353 64.0696 315.692 64.4631 316.118 64.7301C316.547 64.9972 317.026 65.1307 317.555 65.1307C317.844 65.1307 318.123 65.0909 318.39 65.0114C318.657 64.9318 318.9 64.8139 319.118 64.6577C319.34 64.4986 319.528 64.304 319.681 64.0739C319.837 63.8409 319.947 63.5739 320.009 63.2727H321.066C320.986 63.7187 320.841 64.1179 320.631 64.4702C320.421 64.8224 320.16 65.1222 319.847 65.3693C319.535 65.6136 319.184 65.7997 318.795 65.9276C318.408 66.0554 317.995 66.1193 317.555 66.1193C316.81 66.1193 316.148 65.9375 315.569 65.5739C314.989 65.2102 314.533 64.6932 314.201 64.0227C313.868 63.3523 313.702 62.5568 313.702 61.6364C313.702 60.7159 313.868 59.9205 314.201 59.25C314.533 58.5795 314.989 58.0625 315.569 57.6989C316.148 57.3352 316.81 57.1534 317.555 57.1534C317.995 57.1534 318.408 57.2173 318.795 57.3452C319.184 57.473 319.535 57.6605 319.847 57.9077C320.16 58.152 320.421 58.4503 320.631 58.8026C320.841 59.152 320.986 59.5511 321.066 60ZM322.774 66V57.2727H323.83V61.1591H328.484V57.2727H329.541V66H328.484V62.0966H323.83V66H322.774Z" fill="black"/>
<path d="M375.04 66V57.2727H376.097V61.1591H380.75V57.2727H381.807V66H380.75V62.0966H376.097V66H375.04ZM391.286 61.6364C391.286 62.5568 391.12 63.3523 390.788 64.0227C390.455 64.6932 389.999 65.2102 389.42 65.5739C388.84 65.9375 388.178 66.1193 387.434 66.1193C386.69 66.1193 386.028 65.9375 385.448 65.5739C384.869 65.2102 384.413 64.6932 384.08 64.0227C383.748 63.3523 383.582 62.5568 383.582 61.6364C383.582 60.7159 383.748 59.9205 384.08 59.25C384.413 58.5795 384.869 58.0625 385.448 57.6989C386.028 57.3352 386.69 57.1534 387.434 57.1534C388.178 57.1534 388.84 57.3352 389.42 57.6989C389.999 58.0625 390.455 58.5795 390.788 59.25C391.12 59.9205 391.286 60.7159 391.286 61.6364ZM390.263 61.6364C390.263 60.8807 390.137 60.2429 389.884 59.723C389.634 59.2031 389.295 58.8097 388.866 58.5426C388.44 58.2756 387.962 58.142 387.434 58.142C386.905 58.142 386.427 58.2756 385.998 58.5426C385.572 58.8097 385.232 59.2031 384.979 59.723C384.729 60.2429 384.604 60.8807 384.604 61.6364C384.604 62.392 384.729 63.0298 384.979 63.5497C385.232 64.0696 385.572 64.4631 385.998 64.7301C386.427 64.9972 386.905 65.1307 387.434 65.1307C387.962 65.1307 388.44 64.9972 388.866 64.7301C389.295 64.4631 389.634 64.0696 389.884 63.5497C390.137 63.0298 390.263 62.392 390.263 61.6364ZM393.063 66V57.2727H394.12V65.0625H398.177V66H393.063ZM402.506 66H399.813V57.2727H402.626C403.472 57.2727 404.197 57.4474 404.799 57.7969C405.401 58.1435 405.863 58.642 406.184 59.2926C406.505 59.9403 406.665 60.7159 406.665 61.6193C406.665 62.5284 406.504 63.3111 406.18 63.9673C405.856 64.6207 405.384 65.1236 404.765 65.4759C404.146 65.8253 403.393 66 402.506 66ZM400.87 65.0625H402.438C403.16 65.0625 403.758 64.9233 404.232 64.6449C404.707 64.3665 405.06 63.9702 405.293 63.456C405.526 62.9418 405.643 62.3295 405.643 61.6193C405.643 60.9148 405.528 60.3082 405.298 59.7997C405.067 59.2884 404.724 58.8963 404.266 58.6236C403.809 58.348 403.239 58.2102 402.557 58.2102H400.87V65.0625Z" fill="black"/>
<path d="M436.035 66V57.2727H441.302V58.2102H437.092V61.1591H441.03V62.0966H437.092V65.0625H441.371V66H436.035ZM443.207 66V57.2727H448.44V58.2102H444.264V61.1591H448.048V62.0966H444.264V66H443.207ZM450.25 66V57.2727H455.483V58.2102H451.307V61.1591H455.091V62.0966H451.307V66H450.25ZM457.293 66V57.2727H462.56V58.2102H458.35V61.1591H462.287V62.0966H458.35V65.0625H462.628V66H457.293ZM471.488 60H470.431C470.368 59.696 470.259 59.429 470.103 59.1989C469.949 58.9688 469.762 58.7756 469.54 58.6193C469.322 58.4602 469.079 58.3409 468.812 58.2614C468.545 58.1818 468.266 58.142 467.976 58.142C467.448 58.142 466.969 58.2756 466.54 58.5426C466.114 58.8097 465.775 59.2031 465.522 59.723C465.272 60.2429 465.147 60.8807 465.147 61.6364C465.147 62.392 465.272 63.0298 465.522 63.5497C465.775 64.0696 466.114 64.4631 466.54 64.7301C466.969 64.9972 467.448 65.1307 467.976 65.1307C468.266 65.1307 468.545 65.0909 468.812 65.0114C469.079 64.9318 469.322 64.8139 469.54 64.6577C469.762 64.4986 469.949 64.304 470.103 64.0739C470.259 63.8409 470.368 63.5739 470.431 63.2727H471.488C471.408 63.7187 471.263 64.1179 471.053 64.4702C470.843 64.8224 470.581 65.1222 470.269 65.3693C469.956 65.6136 469.606 65.7997 469.216 65.9276C468.83 66.0554 468.417 66.1193 467.976 66.1193C467.232 66.1193 466.57 65.9375 465.991 65.5739C465.411 65.2102 464.955 64.6932 464.623 64.0227C464.29 63.3523 464.124 62.5568 464.124 61.6364C464.124 60.7159 464.29 59.9205 464.623 59.25C464.955 58.5795 465.411 58.0625 465.991 57.6989C466.57 57.3352 467.232 57.1534 467.976 57.1534C468.417 57.1534 468.83 57.2173 469.216 57.3452C469.606 57.473 469.956 57.6605 470.269 57.9077C470.581 58.152 470.843 58.4503 471.053 58.8026C471.263 59.152 471.408 59.5511 471.488 60ZM472.718 58.2102V57.2727H479.264V58.2102H476.519V66H475.463V58.2102H472.718ZM485.667 59.4545C485.616 59.0227 485.409 58.6875 485.045 58.4489C484.682 58.2102 484.236 58.0909 483.707 58.0909C483.321 58.0909 482.983 58.1534 482.693 58.2784C482.406 58.4034 482.182 58.5753 482.02 58.794C481.861 59.0128 481.781 59.2614 481.781 59.5398C481.781 59.7727 481.836 59.973 481.947 60.1406C482.061 60.3054 482.206 60.4432 482.382 60.554C482.558 60.6619 482.743 60.7514 482.936 60.8224C483.129 60.8906 483.307 60.946 483.469 60.9886L484.355 61.2273C484.582 61.2869 484.835 61.3693 485.113 61.4744C485.395 61.5795 485.663 61.723 485.919 61.9048C486.177 62.0838 486.39 62.3139 486.558 62.5952C486.726 62.8764 486.809 63.2216 486.809 63.6307C486.809 64.1023 486.686 64.5284 486.439 64.9091C486.194 65.2898 485.836 65.5923 485.365 65.8168C484.896 66.0412 484.327 66.1534 483.656 66.1534C483.031 66.1534 482.49 66.0526 482.032 65.8509C481.578 65.6491 481.22 65.3679 480.959 65.0071C480.7 64.6463 480.554 64.2273 480.52 63.75H481.611C481.639 64.0795 481.75 64.3523 481.943 64.5682C482.139 64.7812 482.386 64.9403 482.684 65.0455C482.986 65.1477 483.309 65.1989 483.656 65.1989C484.059 65.1989 484.422 65.1335 484.743 65.0028C485.064 64.8693 485.318 64.6847 485.506 64.4489C485.693 64.2102 485.787 63.9318 485.787 63.6136C485.787 63.3239 485.706 63.0881 485.544 62.9062C485.382 62.7244 485.169 62.5767 484.905 62.4631C484.64 62.3494 484.355 62.25 484.048 62.1648L482.974 61.858C482.292 61.6619 481.753 61.3821 481.355 61.0185C480.957 60.6548 480.758 60.179 480.758 59.5909C480.758 59.1023 480.89 58.6761 481.155 58.3125C481.422 57.946 481.78 57.6619 482.229 57.4602C482.68 57.2557 483.184 57.1534 483.741 57.1534C484.304 57.1534 484.804 57.2543 485.241 57.456C485.679 57.6548 486.025 57.9276 486.281 58.2741C486.54 58.6207 486.676 59.0142 486.69 59.4545H485.667Z" fill="black"/>
<path d="M434.979 68.3864H442.155V69.2045H434.979V68.3864ZM442.15 68.3864H463.412V69.2045H442.15V68.3864ZM463.408 68.3864H479.843V69.2045H463.408V68.3864ZM479.838 68.3864H487.491V69.2045H479.838V68.3864Z" fill="black"/>
<path d="M497.031 66V57.2727H499.98C500.664 57.2727 501.224 57.3963 501.659 57.6435C502.096 57.8878 502.42 58.2188 502.63 58.6364C502.841 59.054 502.946 59.5199 502.946 60.0341C502.946 60.5483 502.841 61.0156 502.63 61.4361C502.423 61.8565 502.102 62.1918 501.667 62.4418C501.233 62.6889 500.676 62.8125 499.997 62.8125H497.883V61.875H499.963C500.432 61.875 500.808 61.794 501.092 61.6321C501.376 61.4702 501.582 61.2514 501.71 60.9759C501.841 60.6974 501.906 60.3835 501.906 60.0341C501.906 59.6847 501.841 59.3722 501.71 59.0966C501.582 58.821 501.375 58.6051 501.088 58.4489C500.801 58.2898 500.42 58.2102 499.946 58.2102H498.088V66H497.031ZM504.648 66V57.2727H505.705V65.0625H509.762V66H504.648ZM512.307 66H511.199L514.403 57.2727H515.494L518.699 66H517.591L514.983 58.6534H514.915L512.307 66ZM512.716 62.5909H517.182V63.5284H512.716V62.5909ZM518.418 57.2727H519.628L522.048 61.3466H522.151L524.571 57.2727H525.781L522.628 62.4034V66H521.571V62.4034L518.418 57.2727Z" fill="black"/>
<path d="M558.027 66V57.2727H560.976C561.658 57.2727 562.217 57.3892 562.655 57.6222C563.092 57.8523 563.416 58.169 563.626 58.5724C563.837 58.9759 563.942 59.4347 563.942 59.9489C563.942 60.4631 563.837 60.919 563.626 61.3168C563.416 61.7145 563.094 62.027 562.659 62.2543C562.224 62.4787 561.669 62.5909 560.993 62.5909H558.607V61.6364H560.959C561.425 61.6364 561.8 61.5682 562.084 61.4318C562.371 61.2955 562.578 61.1023 562.706 60.8523C562.837 60.5994 562.902 60.2983 562.902 59.9489C562.902 59.5994 562.837 59.294 562.706 59.0327C562.575 58.7713 562.367 58.5696 562.08 58.4276C561.793 58.2827 561.413 58.2102 560.942 58.2102H559.084V66H558.027ZM562.135 62.0795L564.283 66H563.055L560.942 62.0795H562.135ZM565.703 66V57.2727H570.97V58.2102H566.76V61.1591H570.697V62.0966H566.76V65.0625H571.038V66H565.703ZM579.897 60H578.841C578.778 59.696 578.669 59.429 578.512 59.1989C578.359 58.9688 578.172 58.7756 577.95 58.6193C577.731 58.4602 577.488 58.3409 577.221 58.2614C576.954 58.1818 576.676 58.142 576.386 58.142C575.858 58.142 575.379 58.2756 574.95 58.5426C574.524 58.8097 574.184 59.2031 573.932 59.723C573.682 60.2429 573.557 60.8807 573.557 61.6364C573.557 62.392 573.682 63.0298 573.932 63.5497C574.184 64.0696 574.524 64.4631 574.95 64.7301C575.379 64.9972 575.858 65.1307 576.386 65.1307C576.676 65.1307 576.954 65.0909 577.221 65.0114C577.488 64.9318 577.731 64.8139 577.95 64.6577C578.172 64.4986 578.359 64.304 578.512 64.0739C578.669 63.8409 578.778 63.5739 578.841 63.2727H579.897C579.818 63.7187 579.673 64.1179 579.463 64.4702C579.253 64.8224 578.991 65.1222 578.679 65.3693C578.366 65.6136 578.015 65.7997 577.626 65.9276C577.24 66.0554 576.826 66.1193 576.386 66.1193C575.642 66.1193 574.98 65.9375 574.4 65.5739C573.821 65.2102 573.365 64.6932 573.032 64.0227C572.7 63.3523 572.534 62.5568 572.534 61.6364C572.534 60.7159 572.7 59.9205 573.032 59.25C573.365 58.5795 573.821 58.0625 574.4 57.6989C574.98 57.3352 575.642 57.1534 576.386 57.1534C576.826 57.1534 577.24 57.2173 577.626 57.3452C578.015 57.473 578.366 57.6605 578.679 57.9077C578.991 58.152 579.253 58.4503 579.463 58.8026C579.673 59.152 579.818 59.5511 579.897 60Z" fill="black"/>
<path d="M624.749 57.2727H625.806V63.0511C625.806 63.6477 625.666 64.1804 625.384 64.6491C625.106 65.1151 624.712 65.483 624.204 65.7528C623.695 66.0199 623.099 66.1534 622.414 66.1534C621.73 66.1534 621.133 66.0199 620.624 65.7528C620.116 65.483 619.721 65.1151 619.44 64.6491C619.161 64.1804 619.022 63.6477 619.022 63.0511V57.2727H620.079V62.9659C620.079 63.392 620.173 63.7713 620.36 64.1037C620.548 64.4332 620.815 64.6932 621.161 64.8835C621.511 65.071 621.928 65.1648 622.414 65.1648C622.9 65.1648 623.318 65.071 623.667 64.8835C624.016 64.6932 624.284 64.4332 624.468 64.1037C624.656 63.7713 624.749 63.392 624.749 62.9659V57.2727ZM634.837 57.2727V66H633.814L629.059 59.1477H628.973V66H627.917V57.2727H628.939L633.712 64.142H633.797V57.2727H634.837ZM639.645 66H636.952V57.2727H639.764C640.611 57.2727 641.335 57.4474 641.938 57.7969C642.54 58.1435 643.002 58.642 643.323 59.2926C643.644 59.9403 643.804 60.7159 643.804 61.6193C643.804 62.5284 643.642 63.3111 643.318 63.9673C642.994 64.6207 642.523 65.1236 641.904 65.4759C641.284 65.8253 640.531 66 639.645 66ZM638.009 65.0625H639.577C640.298 65.0625 640.896 64.9233 641.371 64.6449C641.845 64.3665 642.199 63.9702 642.432 63.456C642.665 62.9418 642.781 62.3295 642.781 61.6193C642.781 60.9148 642.666 60.3082 642.436 59.7997C642.206 59.2884 641.862 58.8963 641.405 58.6236C640.948 58.348 640.378 58.2102 639.696 58.2102H638.009V65.0625ZM652.94 61.6364C652.94 62.5568 652.774 63.3523 652.442 64.0227C652.11 64.6932 651.654 65.2102 651.074 65.5739C650.494 65.9375 649.833 66.1193 649.088 66.1193C648.344 66.1193 647.682 65.9375 647.102 65.5739C646.523 65.2102 646.067 64.6932 645.735 64.0227C645.402 63.3523 645.236 62.5568 645.236 61.6364C645.236 60.7159 645.402 59.9205 645.735 59.25C646.067 58.5795 646.523 58.0625 647.102 57.6989C647.682 57.3352 648.344 57.1534 649.088 57.1534C649.833 57.1534 650.494 57.3352 651.074 57.6989C651.654 58.0625 652.11 58.5795 652.442 59.25C652.774 59.9205 652.94 60.7159 652.94 61.6364ZM651.918 61.6364C651.918 60.8807 651.791 60.2429 651.538 59.723C651.288 59.2031 650.949 58.8097 650.52 58.5426C650.094 58.2756 649.617 58.142 649.088 58.142C648.56 58.142 648.081 58.2756 647.652 58.5426C647.226 58.8097 646.886 59.2031 646.634 59.723C646.384 60.2429 646.259 60.8807 646.259 61.6364C646.259 62.392 646.384 63.0298 646.634 63.5497C646.886 64.0696 647.226 64.4631 647.652 64.7301C648.081 64.9972 648.56 65.1307 649.088 65.1307C649.617 65.1307 650.094 64.9972 650.52 64.7301C650.949 64.4631 651.288 64.0696 651.538 63.5497C651.791 63.0298 651.918 62.392 651.918 61.6364Z" fill="black"/>
<path d="M681.603 66L679.217 57.2727H680.29L682.114 64.3807H682.2L684.058 57.2727H685.251L687.109 64.3807H687.194L689.018 57.2727H690.092L687.705 66H686.614L684.688 59.0455H684.62L682.694 66H681.603ZM691.087 66H689.979L693.183 57.2727H694.274L697.479 66H696.371L693.763 58.6534H693.695L691.087 66ZM691.496 62.5909H695.962V63.5284H691.496V62.5909ZM698.838 66V57.2727H699.895V61.6023H699.997L703.918 57.2727H705.298L701.634 61.2102L705.298 66H704.02L700.986 61.9432L699.895 63.1705V66H698.838ZM706.666 66V57.2727H711.933V58.2102H707.723V61.1591H711.661V62.0966H707.723V65.0625H712.001V66H706.666Z" fill="black"/>
<path d="M97.745 89.4545V90.8182H93.8033V89.4545H97.745ZM94.6982 87.8864H96.5135V93.9886C96.5135 94.1562 96.5391 94.2869 96.5902 94.3807C96.6413 94.4716 96.7124 94.5355 96.8033 94.5724C96.897 94.6094 97.005 94.6278 97.1271 94.6278C97.2124 94.6278 97.2976 94.6207 97.3828 94.6065C97.468 94.5895 97.5334 94.5767 97.5788 94.5682L97.8643 95.919C97.7734 95.9474 97.6456 95.9801 97.4808 96.017C97.3161 96.0568 97.1158 96.081 96.88 96.0895C96.4425 96.1065 96.0589 96.0483 95.7294 95.9148C95.4027 95.7812 95.1484 95.5739 94.9666 95.2926C94.7848 95.0114 94.6953 94.6562 94.6982 94.2273V87.8864ZM100.048 98.4545C99.8182 98.4545 99.6023 98.4361 99.4006 98.3991C99.2017 98.3651 99.0369 98.321 98.9062 98.267L99.3153 96.9119C99.5284 96.9773 99.7202 97.0128 99.8906 97.0185C100.064 97.0241 100.213 96.9844 100.338 96.8991C100.466 96.8139 100.57 96.669 100.649 96.4645L100.756 96.1875L98.4077 89.4545H100.317L101.672 94.2614H101.74L103.108 89.4545H105.03L102.486 96.7074C102.364 97.0597 102.197 97.3665 101.987 97.6278C101.78 97.892 101.517 98.0952 101.199 98.2372C100.881 98.3821 100.497 98.4545 100.048 98.4545ZM105.959 98.4545V89.4545H107.749V90.554H107.83C107.909 90.3778 108.024 90.1989 108.175 90.017C108.328 89.8324 108.527 89.679 108.771 89.5568C109.018 89.4318 109.325 89.3693 109.692 89.3693C110.169 89.3693 110.609 89.4943 111.013 89.7443C111.416 89.9915 111.739 90.3651 111.98 90.8651C112.222 91.3622 112.342 91.9858 112.342 92.7358C112.342 93.4659 112.224 94.0824 111.989 94.5852C111.756 95.0852 111.438 95.4645 111.034 95.723C110.634 95.9787 110.185 96.1065 109.688 96.1065C109.335 96.1065 109.036 96.0483 108.788 95.9318C108.544 95.8153 108.344 95.669 108.188 95.4929C108.031 95.3139 107.912 95.1335 107.83 94.9517H107.774V98.4545H105.959ZM107.736 92.7273C107.736 93.1165 107.79 93.456 107.898 93.7457C108.006 94.0355 108.162 94.2614 108.366 94.4233C108.571 94.5824 108.82 94.6619 109.112 94.6619C109.408 94.6619 109.658 94.581 109.862 94.419C110.067 94.2543 110.222 94.027 110.327 93.7372C110.435 93.4446 110.489 93.108 110.489 92.7273C110.489 92.3494 110.436 92.017 110.331 91.7301C110.226 91.4432 110.071 91.2187 109.866 91.0568C109.662 90.8949 109.411 90.8139 109.112 90.8139C108.817 90.8139 108.567 90.892 108.362 91.0483C108.161 91.2045 108.006 91.4261 107.898 91.7131C107.79 92 107.736 92.3381 107.736 92.7273ZM116.536 96.1278C115.862 96.1278 115.283 95.9915 114.797 95.7188C114.314 95.4432 113.942 95.054 113.68 94.5511C113.419 94.0455 113.288 93.4474 113.288 92.7571C113.288 92.0838 113.419 91.4929 113.68 90.9844C113.942 90.4759 114.31 90.0795 114.784 89.7955C115.261 89.5114 115.821 89.3693 116.463 89.3693C116.895 89.3693 117.297 89.4389 117.669 89.5781C118.044 89.7145 118.371 89.9205 118.649 90.196C118.93 90.4716 119.149 90.8182 119.305 91.2358C119.462 91.6506 119.54 92.1364 119.54 92.6932V93.1918H114.013V92.0668H117.831C117.831 91.8054 117.774 91.5739 117.661 91.3722C117.547 91.1705 117.389 91.0128 117.188 90.8991C116.989 90.7827 116.757 90.7244 116.493 90.7244C116.217 90.7244 115.973 90.7884 115.76 90.9162C115.55 91.0412 115.385 91.2102 115.266 91.4233C115.146 91.6335 115.085 91.8679 115.082 92.1264V93.196C115.082 93.5199 115.142 93.7997 115.261 94.0355C115.384 94.2713 115.555 94.4531 115.777 94.581C115.999 94.7088 116.261 94.7727 116.565 94.7727C116.767 94.7727 116.952 94.7443 117.119 94.6875C117.287 94.6307 117.43 94.5455 117.55 94.4318C117.669 94.3182 117.76 94.179 117.822 94.0142L119.501 94.125C119.416 94.5284 119.241 94.8807 118.977 95.1818C118.716 95.4801 118.378 95.7131 117.963 95.8807C117.551 96.0455 117.075 96.1278 116.536 96.1278Z" fill="black"/>
<path d="M133.972 87.2727V96H132.915V88.3807H132.864L130.733 89.7955V88.7216L132.915 87.2727H133.972Z" fill="black"/>
<path d="M194.76 87.2727V96H193.703V88.3807H193.652L191.521 89.7955V88.7216L193.703 87.2727H194.76Z" fill="black"/>
<path d="M252.48 96V95.233L255.36 92.0795C255.698 91.7102 255.977 91.3892 256.195 91.1165C256.414 90.8409 256.576 90.5824 256.681 90.3409C256.789 90.0966 256.843 89.8409 256.843 89.5739C256.843 89.267 256.769 89.0014 256.622 88.777C256.477 88.5526 256.278 88.3793 256.025 88.2571C255.772 88.1349 255.488 88.0739 255.173 88.0739C254.838 88.0739 254.545 88.1435 254.295 88.2827C254.048 88.419 253.856 88.6108 253.72 88.858C253.586 89.1051 253.519 89.3949 253.519 89.7273H252.514C252.514 89.2159 252.632 88.767 252.867 88.3807C253.103 87.9943 253.424 87.6932 253.83 87.4773C254.24 87.2614 254.698 87.1534 255.207 87.1534C255.718 87.1534 256.171 87.2614 256.566 87.4773C256.961 87.6932 257.271 87.9844 257.495 88.3509C257.72 88.7173 257.832 89.125 257.832 89.5739C257.832 89.8949 257.774 90.2088 257.657 90.5156C257.544 90.8196 257.345 91.1591 257.061 91.5341C256.779 91.9062 256.389 92.3608 255.889 92.8977L253.928 94.9943V95.0625H257.985V96H252.48Z" fill="black"/>
<path d="M313.268 96V95.233L316.148 92.0795C316.486 91.7102 316.765 91.3892 316.984 91.1165C317.202 90.8409 317.364 90.5824 317.469 90.3409C317.577 90.0966 317.631 89.8409 317.631 89.5739C317.631 89.267 317.557 89.0014 317.41 88.777C317.265 88.5526 317.066 88.3793 316.813 88.2571C316.56 88.1349 316.276 88.0739 315.961 88.0739C315.626 88.0739 315.333 88.1435 315.083 88.2827C314.836 88.419 314.644 88.6108 314.508 88.858C314.374 89.1051 314.307 89.3949 314.307 89.7273H313.302C313.302 89.2159 313.42 88.767 313.655 88.3807C313.891 87.9943 314.212 87.6932 314.619 87.4773C315.028 87.2614 315.486 87.1534 315.995 87.1534C316.506 87.1534 316.959 87.2614 317.354 87.4773C317.749 87.6932 318.059 87.9844 318.283 88.3509C318.508 88.7173 318.62 89.125 318.62 89.5739C318.62 89.8949 318.562 90.2088 318.445 90.5156C318.332 90.8196 318.133 91.1591 317.849 91.5341C317.567 91.9062 317.177 92.3608 316.677 92.8977L314.717 94.9943V95.0625H318.773V96H313.268Z" fill="black"/>
<path d="M377.123 87.2727V96H376.067V88.3807H376.015L373.885 89.7955V88.7216L376.067 87.2727H377.123Z" fill="black"/>
<path d="M437.911 87.2727V96H436.854V88.3807H436.803L434.672 89.7955V88.7216L436.854 87.2727H437.911Z" fill="black"/>
<path d="M498.699 87.2727V96H497.642V88.3807H497.591L495.46 89.7955V88.7216L497.642 87.2727H498.699Z" fill="black"/>
<path d="M559.487 87.2727V96H558.43V88.3807H558.379L556.249 89.7955V88.7216L558.43 87.2727H559.487Z" fill="black"/>
<path d="M620.275 87.2727V96H619.218V88.3807H619.167L617.037 89.7955V88.7216L619.218 87.2727H620.275Z" fill="black"/>
<path d="M681.063 87.2727V96H680.006V88.3807H679.955L677.824 89.7955V88.7216L680.006 87.2727H681.063Z" fill="black"/>
<path d="M31.989 117.273V126H30.1737V117.273H31.989ZM36.4006 126.128C35.7386 126.128 35.1662 125.987 34.6832 125.706C34.2031 125.422 33.8324 125.027 33.571 124.521C33.3097 124.013 33.179 123.423 33.179 122.753C33.179 122.077 33.3097 121.486 33.571 120.98C33.8324 120.472 34.2031 120.077 34.6832 119.795C35.1662 119.511 35.7386 119.369 36.4006 119.369C37.0625 119.369 37.6335 119.511 38.1136 119.795C38.5966 120.077 38.9688 120.472 39.2301 120.98C39.4915 121.486 39.6222 122.077 39.6222 122.753C39.6222 123.423 39.4915 124.013 39.2301 124.521C38.9688 125.027 38.5966 125.422 38.1136 125.706C37.6335 125.987 37.0625 126.128 36.4006 126.128ZM36.4091 124.722C36.7102 124.722 36.9616 124.636 37.1634 124.466C37.3651 124.293 37.517 124.057 37.6193 123.759C37.7244 123.46 37.777 123.121 37.777 122.74C37.777 122.359 37.7244 122.02 37.6193 121.722C37.517 121.423 37.3651 121.187 37.1634 121.014C36.9616 120.841 36.7102 120.754 36.4091 120.754C36.1051 120.754 35.8494 120.841 35.642 121.014C35.4375 121.187 35.2827 121.423 35.1776 121.722C35.0753 122.02 35.0241 122.359 35.0241 122.74C35.0241 123.121 35.0753 123.46 35.1776 123.759C35.2827 124.057 35.4375 124.293 35.642 124.466C35.8494 124.636 36.1051 124.722 36.4091 124.722ZM42.6179 122.216V126H40.8026V119.455H42.5327V120.609H42.6094C42.7543 120.229 42.9972 119.928 43.3381 119.706C43.679 119.482 44.0923 119.369 44.5781 119.369C45.0327 119.369 45.429 119.469 45.767 119.668C46.1051 119.866 46.3679 120.151 46.5554 120.52C46.7429 120.886 46.8366 121.324 46.8366 121.832V126H45.0213V122.156C45.0241 121.756 44.9219 121.443 44.7145 121.219C44.5071 120.991 44.2216 120.878 43.858 120.878C43.6136 120.878 43.3977 120.93 43.2102 121.036C43.0256 121.141 42.8807 121.294 42.7756 121.496C42.6733 121.695 42.6207 121.935 42.6179 122.216ZM51.2163 128.591C50.6282 128.591 50.1239 128.51 49.7035 128.348C49.2859 128.189 48.9535 127.972 48.7063 127.696C48.4592 127.42 48.2987 127.111 48.2248 126.767L49.9038 126.541C49.9549 126.672 50.0359 126.794 50.1467 126.908C50.2575 127.021 50.4038 127.112 50.5856 127.18C50.7702 127.251 50.9947 127.287 51.2589 127.287C51.6538 127.287 51.979 127.19 52.2347 126.997C52.4933 126.807 52.6225 126.487 52.6225 126.038V124.841H52.5458C52.4663 125.023 52.3469 125.195 52.1879 125.357C52.0288 125.518 51.8242 125.651 51.5742 125.753C51.3242 125.855 51.0259 125.906 50.6793 125.906C50.1879 125.906 49.7404 125.793 49.337 125.565C48.9364 125.335 48.6168 124.984 48.3782 124.513C48.1424 124.038 48.0245 123.439 48.0245 122.714C48.0245 121.973 48.1452 121.354 48.3867 120.857C48.6282 120.359 48.9492 119.987 49.3498 119.74C49.7532 119.493 50.195 119.369 50.6751 119.369C51.0415 119.369 51.3484 119.432 51.5955 119.557C51.8427 119.679 52.0415 119.832 52.1921 120.017C52.3455 120.199 52.4634 120.378 52.5458 120.554H52.614V119.455H54.4165V126.064C54.4165 126.621 54.2802 127.087 54.0075 127.462C53.7347 127.837 53.3569 128.118 52.8739 128.305C52.3938 128.496 51.8413 128.591 51.2163 128.591ZM51.2546 124.543C51.5472 124.543 51.7944 124.47 51.9961 124.325C52.2006 124.178 52.3569 123.967 52.4648 123.695C52.5756 123.419 52.631 123.089 52.631 122.706C52.631 122.322 52.5771 121.99 52.4691 121.709C52.3612 121.425 52.2049 121.205 52.0004 121.048C51.7958 120.892 51.5472 120.814 51.2546 120.814C50.9563 120.814 50.7049 120.895 50.5004 121.057C50.2958 121.216 50.141 121.437 50.0359 121.722C49.9308 122.006 49.8782 122.334 49.8782 122.706C49.8782 123.084 49.9308 123.411 50.0359 123.686C50.1438 123.959 50.2987 124.17 50.5004 124.321C50.7049 124.469 50.9563 124.543 51.2546 124.543ZM58.6385 128.455V119.455H60.4283V120.554H60.5092C60.5888 120.378 60.7038 120.199 60.8544 120.017C61.0078 119.832 61.2067 119.679 61.451 119.557C61.6982 119.432 62.005 119.369 62.3714 119.369C62.8487 119.369 63.2891 119.494 63.6925 119.744C64.0959 119.991 64.4183 120.365 64.6598 120.865C64.9013 121.362 65.022 121.986 65.022 122.736C65.022 123.466 64.9041 124.082 64.6683 124.585C64.4354 125.085 64.1172 125.464 63.7138 125.723C63.3132 125.979 62.8643 126.107 62.3672 126.107C62.0149 126.107 61.7152 126.048 61.468 125.932C61.2237 125.815 61.0234 125.669 60.8672 125.493C60.7109 125.314 60.5916 125.134 60.5092 124.952H60.4538V128.455H58.6385ZM60.4155 122.727C60.4155 123.116 60.4695 123.456 60.5774 123.746C60.6854 124.036 60.8416 124.261 61.0462 124.423C61.2507 124.582 61.4993 124.662 61.7919 124.662C62.0874 124.662 62.3374 124.581 62.5419 124.419C62.7464 124.254 62.9013 124.027 63.0064 123.737C63.1143 123.445 63.1683 123.108 63.1683 122.727C63.1683 122.349 63.1158 122.017 63.0107 121.73C62.9055 121.443 62.7507 121.219 62.5462 121.057C62.3416 120.895 62.0902 120.814 61.7919 120.814C61.4964 120.814 61.2464 120.892 61.0419 121.048C60.8402 121.205 60.6854 121.426 60.5774 121.713C60.4695 122 60.4155 122.338 60.4155 122.727ZM66.2322 126V119.455H67.9922V120.597H68.0604C68.1797 120.19 68.38 119.884 68.6612 119.676C68.9425 119.466 69.2663 119.361 69.6328 119.361C69.7237 119.361 69.8217 119.366 69.9268 119.378C70.032 119.389 70.1243 119.405 70.2038 119.425V121.036C70.1186 121.01 70.0007 120.987 69.8501 120.967C69.6996 120.947 69.5618 120.938 69.4368 120.938C69.1697 120.938 68.9311 120.996 68.7209 121.112C68.5135 121.226 68.3487 121.385 68.2266 121.589C68.1072 121.794 68.0476 122.03 68.0476 122.297V126H66.2322ZM73.8207 126.128C73.1474 126.128 72.5678 125.991 72.082 125.719C71.5991 125.443 71.2269 125.054 70.9656 124.551C70.7042 124.045 70.5735 123.447 70.5735 122.757C70.5735 122.084 70.7042 121.493 70.9656 120.984C71.2269 120.476 71.5948 120.08 72.0692 119.795C72.5465 119.511 73.1062 119.369 73.7482 119.369C74.18 119.369 74.582 119.439 74.9542 119.578C75.3292 119.714 75.6559 119.92 75.9343 120.196C76.2156 120.472 76.4343 120.818 76.5906 121.236C76.7468 121.651 76.8249 122.136 76.8249 122.693V123.192H71.2979V122.067H75.1161C75.1161 121.805 75.0593 121.574 74.9457 121.372C74.832 121.17 74.6744 121.013 74.4727 120.899C74.2738 120.783 74.0423 120.724 73.7781 120.724C73.5025 120.724 73.2582 120.788 73.0451 120.916C72.8349 121.041 72.6701 121.21 72.5508 121.423C72.4315 121.634 72.3704 121.868 72.3675 122.126V123.196C72.3675 123.52 72.4272 123.8 72.5465 124.036C72.6687 124.271 72.8406 124.453 73.0621 124.581C73.2837 124.709 73.5465 124.773 73.8505 124.773C74.0522 124.773 74.2369 124.744 74.4045 124.688C74.5721 124.631 74.7156 124.545 74.8349 124.432C74.9542 124.318 75.0451 124.179 75.1076 124.014L76.7866 124.125C76.7013 124.528 76.5266 124.881 76.2624 125.182C76.0011 125.48 75.663 125.713 75.2482 125.881C74.8363 126.045 74.3604 126.128 73.8207 126.128ZM83.4556 121.321L81.7937 121.423C81.7653 121.281 81.7042 121.153 81.6104 121.04C81.5167 120.923 81.3931 120.831 81.2397 120.763C81.0891 120.692 80.9087 120.656 80.6985 120.656C80.4173 120.656 80.18 120.716 79.9869 120.835C79.7937 120.952 79.6971 121.108 79.6971 121.304C79.6971 121.46 79.7596 121.592 79.8846 121.7C80.0096 121.808 80.2241 121.895 80.5281 121.96L81.7127 122.199C82.3491 122.33 82.8235 122.54 83.136 122.83C83.4485 123.119 83.6048 123.5 83.6048 123.972C83.6048 124.401 83.4783 124.777 83.2255 125.101C82.9755 125.425 82.6317 125.678 82.1942 125.859C81.7596 126.038 81.2582 126.128 80.69 126.128C79.8235 126.128 79.1332 125.947 78.619 125.587C78.1076 125.223 77.8079 124.729 77.7198 124.104L79.5053 124.01C79.5593 124.274 79.69 124.476 79.8974 124.615C80.1048 124.751 80.3704 124.82 80.6942 124.82C81.0124 124.82 81.2681 124.759 81.4613 124.636C81.6573 124.511 81.7567 124.351 81.7596 124.155C81.7567 123.99 81.6871 123.855 81.5508 123.75C81.4144 123.642 81.2042 123.56 80.9201 123.503L79.7866 123.277C79.1474 123.149 78.6715 122.928 78.359 122.612C78.0494 122.297 77.8945 121.895 77.8945 121.406C77.8945 120.986 78.0082 120.624 78.2354 120.32C78.4656 120.016 78.788 119.781 79.2028 119.616C79.6204 119.452 80.109 119.369 80.6687 119.369C81.4954 119.369 82.146 119.544 82.6204 119.893C83.0977 120.243 83.3761 120.719 83.4556 121.321ZM90.1939 121.321L88.532 121.423C88.5036 121.281 88.4425 121.153 88.3487 121.04C88.255 120.923 88.1314 120.831 87.978 120.763C87.8274 120.692 87.647 120.656 87.4368 120.656C87.1555 120.656 86.9183 120.716 86.7251 120.835C86.532 120.952 86.4354 121.108 86.4354 121.304C86.4354 121.46 86.4979 121.592 86.6229 121.7C86.7479 121.808 86.9624 121.895 87.2663 121.96L88.451 122.199C89.0874 122.33 89.5618 122.54 89.8743 122.83C90.1868 123.119 90.343 123.5 90.343 123.972C90.343 124.401 90.2166 124.777 89.9638 125.101C89.7138 125.425 89.37 125.678 88.9325 125.859C88.4979 126.038 87.9964 126.128 87.4283 126.128C86.5618 126.128 85.8714 125.947 85.3572 125.587C84.8459 125.223 84.5462 124.729 84.4581 124.104L86.2436 124.01C86.2976 124.274 86.4283 124.476 86.6357 124.615C86.843 124.751 87.1087 124.82 87.4325 124.82C87.7507 124.82 88.0064 124.759 88.1996 124.636C88.3956 124.511 88.495 124.351 88.4979 124.155C88.495 123.99 88.4254 123.855 88.2891 123.75C88.1527 123.642 87.9425 123.56 87.6584 123.503L86.5249 123.277C85.8857 123.149 85.4098 122.928 85.0973 122.612C84.7876 122.297 84.6328 121.895 84.6328 121.406C84.6328 120.986 84.7464 120.624 84.9737 120.32C85.2038 120.016 85.5263 119.781 85.9411 119.616C86.3587 119.452 86.8473 119.369 87.407 119.369C88.2337 119.369 88.8842 119.544 89.3587 119.893C89.8359 120.243 90.1143 120.719 90.1939 121.321ZM97.745 119.455V120.818H93.8033V119.455H97.745ZM94.6982 117.886H96.5135V123.989C96.5135 124.156 96.5391 124.287 96.5902 124.381C96.6413 124.472 96.7124 124.536 96.8033 124.572C96.897 124.609 97.005 124.628 97.1271 124.628C97.2124 124.628 97.2976 124.621 97.3828 124.607C97.468 124.589 97.5334 124.577 97.5788 124.568L97.8643 125.919C97.7734 125.947 97.6456 125.98 97.4808 126.017C97.3161 126.057 97.1158 126.081 96.88 126.089C96.4425 126.107 96.0589 126.048 95.7294 125.915C95.4027 125.781 95.1484 125.574 94.9666 125.293C94.7848 125.011 94.6953 124.656 94.6982 124.227V117.886ZM100.048 128.455C99.8182 128.455 99.6023 128.436 99.4006 128.399C99.2017 128.365 99.0369 128.321 98.9062 128.267L99.3153 126.912C99.5284 126.977 99.7202 127.013 99.8906 127.018C100.064 127.024 100.213 126.984 100.338 126.899C100.466 126.814 100.57 126.669 100.649 126.464L100.756 126.188L98.4077 119.455H100.317L101.672 124.261H101.74L103.108 119.455H105.03L102.486 126.707C102.364 127.06 102.197 127.366 101.987 127.628C101.78 127.892 101.517 128.095 101.199 128.237C100.881 128.382 100.497 128.455 100.048 128.455ZM105.959 128.455V119.455H107.749V120.554H107.83C107.909 120.378 108.024 120.199 108.175 120.017C108.328 119.832 108.527 119.679 108.771 119.557C109.018 119.432 109.325 119.369 109.692 119.369C110.169 119.369 110.609 119.494 111.013 119.744C111.416 119.991 111.739 120.365 111.98 120.865C112.222 121.362 112.342 121.986 112.342 122.736C112.342 123.466 112.224 124.082 111.989 124.585C111.756 125.085 111.438 125.464 111.034 125.723C110.634 125.979 110.185 126.107 109.688 126.107C109.335 126.107 109.036 126.048 108.788 125.932C108.544 125.815 108.344 125.669 108.188 125.493C108.031 125.314 107.912 125.134 107.83 124.952H107.774V128.455H105.959ZM107.736 122.727C107.736 123.116 107.79 123.456 107.898 123.746C108.006 124.036 108.162 124.261 108.366 124.423C108.571 124.582 108.82 124.662 109.112 124.662C109.408 124.662 109.658 124.581 109.862 124.419C110.067 124.254 110.222 124.027 110.327 123.737C110.435 123.445 110.489 123.108 110.489 122.727C110.489 122.349 110.436 122.017 110.331 121.73C110.226 121.443 110.071 121.219 109.866 121.057C109.662 120.895 109.411 120.814 109.112 120.814C108.817 120.814 108.567 120.892 108.362 121.048C108.161 121.205 108.006 121.426 107.898 121.713C107.79 122 107.736 122.338 107.736 122.727ZM116.536 126.128C115.862 126.128 115.283 125.991 114.797 125.719C114.314 125.443 113.942 125.054 113.68 124.551C113.419 124.045 113.288 123.447 113.288 122.757C113.288 122.084 113.419 121.493 113.68 120.984C113.942 120.476 114.31 120.08 114.784 119.795C115.261 119.511 115.821 119.369 116.463 119.369C116.895 119.369 117.297 119.439 117.669 119.578C118.044 119.714 118.371 119.92 118.649 120.196C118.93 120.472 119.149 120.818 119.305 121.236C119.462 121.651 119.54 122.136 119.54 122.693V123.192H114.013V122.067H117.831C117.831 121.805 117.774 121.574 117.661 121.372C117.547 121.17 117.389 121.013 117.188 120.899C116.989 120.783 116.757 120.724 116.493 120.724C116.217 120.724 115.973 120.788 115.76 120.916C115.55 121.041 115.385 121.21 115.266 121.423C115.146 121.634 115.085 121.868 115.082 122.126V123.196C115.082 123.52 115.142 123.8 115.261 124.036C115.384 124.271 115.555 124.453 115.777 124.581C115.999 124.709 116.261 124.773 116.565 124.773C116.767 124.773 116.952 124.744 117.119 124.688C117.287 124.631 117.43 124.545 117.55 124.432C117.669 124.318 117.76 124.179 117.822 124.014L119.501 124.125C119.416 124.528 119.241 124.881 118.977 125.182C118.716 125.48 118.378 125.713 117.963 125.881C117.551 126.045 117.075 126.128 116.536 126.128Z" fill="black"/>
<path d="M134.67 121.79V122.727H130.852V121.79H134.67Z" fill="black"/>
<path d="M195.618 121.79V122.727H191.8V121.79H195.618Z" fill="black"/>
<path d="M256.558 121.79V122.727H252.739V121.79H256.558Z" fill="black"/>
<path d="M313.741 126V125.233L316.621 122.08C316.96 121.71 317.238 121.389 317.457 121.116C317.675 120.841 317.837 120.582 317.943 120.341C318.05 120.097 318.104 119.841 318.104 119.574C318.104 119.267 318.031 119.001 317.883 118.777C317.738 118.553 317.539 118.379 317.286 118.257C317.033 118.135 316.749 118.074 316.434 118.074C316.099 118.074 315.806 118.143 315.556 118.283C315.309 118.419 315.117 118.611 314.981 118.858C314.847 119.105 314.781 119.395 314.781 119.727H313.775C313.775 119.216 313.893 118.767 314.129 118.381C314.364 117.994 314.685 117.693 315.092 117.477C315.501 117.261 315.96 117.153 316.468 117.153C316.979 117.153 317.433 117.261 317.827 117.477C318.222 117.693 318.532 117.984 318.756 118.351C318.981 118.717 319.093 119.125 319.093 119.574C319.093 119.895 319.035 120.209 318.918 120.516C318.805 120.82 318.606 121.159 318.322 121.534C318.041 121.906 317.65 122.361 317.15 122.898L315.19 124.994V125.062H319.246V126H313.741Z" fill="black"/>
<path d="M378.45 121.79V122.727H374.632V121.79H378.45Z" fill="black"/>
<path d="M439.395 121.79V122.727H435.577V121.79H439.395Z" fill="black"/>
<path d="M500.341 121.79V122.727H496.523V121.79H500.341Z" fill="black"/>
<path d="M561.284 121.79V122.727H557.466V121.79H561.284Z" fill="black"/>
<path d="M618.463 126V125.233L621.344 122.08C621.682 121.71 621.96 121.389 622.179 121.116C622.398 120.841 622.56 120.582 622.665 120.341C622.773 120.097 622.827 119.841 622.827 119.574C622.827 119.267 622.753 119.001 622.605 118.777C622.46 118.553 622.261 118.379 622.008 118.257C621.756 118.135 621.472 118.074 621.156 118.074C620.821 118.074 620.528 118.143 620.278 118.283C620.031 118.419 619.839 118.611 619.703 118.858C619.57 119.105 619.503 119.395 619.503 119.727H618.497C618.497 119.216 618.615 118.767 618.851 118.381C619.087 117.994 619.408 117.693 619.814 117.477C620.223 117.261 620.682 117.153 621.19 117.153C621.702 117.153 622.155 117.261 622.55 117.477C622.945 117.693 623.254 117.984 623.479 118.351C623.703 118.717 623.815 119.125 623.815 119.574C623.815 119.895 623.757 120.209 623.641 120.516C623.527 120.82 623.328 121.159 623.044 121.534C622.763 121.906 622.372 122.361 621.872 122.898L619.912 124.994V125.062H623.969V126H618.463Z" fill="black"/>
<path d="M682.479 117.273V126H681.422V118.381H681.371L679.24 119.795V118.722L681.422 117.273H682.479Z" fill="black"/>
<line x1="125.5" y1="54" x2="125.5" y2="129" stroke="black"/>
<line x1="29" y1="73.5" x2="757" y2="73.5" stroke="black"/>
</svg>
