<svg xmlns="http://www.w3.org/2000/svg" width="130" height="39"><path fill="#fff" d="M3.632 14 .719 3.818H3.07l1.685 7.075h.085L6.7 3.818h2.013l1.854 7.09h.09l1.685-7.09h2.352L11.78 14H9.682L7.743 7.343h-.08L5.73 14zm12.944 0h-2.307l3.515-10.182h2.774L24.068 14H21.76l-2.55-7.855h-.08zm-.145-4.002h5.45v1.68h-5.45zm9.43-6.18 2.461 7.736h.095l2.465-7.736h2.387L29.759 14h-2.774L23.47 3.818zm8.037 0h2.41l2.323 4.385h.1l2.32-4.385h2.412l-3.714 6.583V14h-2.138v-3.6zm15.562 0V14h-1.233V3.818zm10.546 0V14h-1.193l-5.548-7.994h-.1V14h-1.233V3.818h1.193l5.569 8.014h.099V3.818zM65.616 14h-3.143V3.818h3.281q1.482 0 2.536.612a4 4 0 0 1 1.616 1.745q.561 1.133.561 2.714 0 1.59-.566 2.74a4.04 4.04 0 0 1-1.65 1.76q-1.085.61-2.636.611m-1.91-1.094h1.83q1.263 0 2.093-.487a3 3 0 0 0 1.238-1.387q.407-.9.407-2.143 0-1.233-.402-2.123a2.97 2.97 0 0 0-1.204-1.372q-.8-.482-1.993-.482h-1.969zm15.511-9.088h1.234v6.742q0 1.044-.493 1.864a3.45 3.45 0 0 1-1.377 1.288q-.89.467-2.088.467-1.199 0-2.088-.467a3.5 3.5 0 0 1-1.382-1.288q-.487-.82-.487-1.864V3.818h1.233v6.642q0 .746.328 1.328.328.576.934.91.612.328 1.462.328t1.462-.329a2.3 2.3 0 0 0 .934-.91q.33-.581.329-1.327zm9.264 2.546a1.56 1.56 0 0 0-.726-1.174q-.637-.417-1.561-.417-.675 0-1.183.218a1.9 1.9 0 0 0-.786.602 1.44 1.44 0 0 0-.278.87q0 .408.194.701.198.288.507.482.307.189.646.314.338.12.621.193l1.035.279q.398.105.885.288.491.184.94.502.451.315.745.806.293.491.293 1.208a2.7 2.7 0 0 1-.432 1.491q-.428.666-1.253 1.06-.82.392-1.994.392-1.093 0-1.894-.353-.795-.353-1.253-.984a2.8 2.8 0 0 1-.512-1.467h1.273q.05.577.388.954a2.1 2.1 0 0 0 .865.557q.527.18 1.133.18.706 0 1.268-.23.561-.232.89-.646.328-.417.328-.974 0-.507-.283-.825a2.1 2.1 0 0 0-.746-.517 8 8 0 0 0-1-.348l-1.252-.358q-1.193-.344-1.89-.98-.695-.637-.695-1.665 0-.856.462-1.492.468-.641 1.253-.994a4.2 4.2 0 0 1 1.765-.358q.984 0 1.75.353.765.348 1.213.955.451.606.477 1.377zm2.803-1.452V3.818h7.636v1.094h-3.202V14h-1.233V4.912zm9.54 9.088V3.818h3.44q1.194 0 1.959.408.765.402 1.133 1.109.368.705.368 1.605t-.368 1.596-1.128 1.094q-.76.393-1.944.393h-2.784V8.909h2.744q.816 0 1.313-.239a1.5 1.5 0 0 0 .726-.676q.228-.442.228-1.054 0-.611-.228-1.069a1.56 1.56 0 0 0-.731-.706q-.502-.253-1.328-.253h-2.167V14zm4.792-4.574L108.121 14h-1.432l-2.466-4.574zm5.396-5.608V14h-1.233V3.818zM113.483 14V3.818h6.145v1.094h-4.912v3.44h4.594v1.094h-4.594v3.46h4.991V14zm13.935-7.636a1.56 1.56 0 0 0-.726-1.174q-.636-.417-1.561-.417-.675 0-1.183.218a1.9 1.9 0 0 0-.785.602 1.44 1.44 0 0 0-.279.87q0 .408.194.701.2.288.507.482.309.189.647.314.338.12.621.193l1.034.279q.398.105.885.288.492.184.94.502.452.315.745.806.294.491.294 1.208 0 .825-.433 1.491-.427.666-1.253 1.06-.82.392-1.993.392-1.094 0-1.894-.353-.796-.353-1.253-.984a2.8 2.8 0 0 1-.512-1.467h1.272q.05.577.388.954.343.375.865.557.527.18 1.134.18.705 0 1.267-.23.563-.232.89-.646a1.53 1.53 0 0 0 .329-.974q0-.507-.284-.825a2.1 2.1 0 0 0-.746-.517 8 8 0 0 0-.999-.348l-1.253-.358q-1.193-.344-1.889-.98-.696-.637-.696-1.665 0-.856.462-1.492.468-.641 1.253-.994a4.2 4.2 0 0 1 1.765-.358q.985 0 1.75.353.766.348 1.213.955.453.606.478 1.377z"/><path fill="#084CCF" d="M1.318 32.545q-.017-.942.307-1.517.324-.573.84-.835a2.4 2.4 0 0 1 1.103-.261q.58 0 1.057.256.483.25 1.102.79.42.363.67.51.256.149.558.148.488 0 .772-.352.284-.357.273-1.034h1.227q.018.943-.307 1.517-.318.574-.84.835a2.4 2.4 0 0 1-1.103.262q-.579 0-1.057-.25-.477-.256-1.102-.796a4.6 4.6 0 0 0-.67-.511 1.1 1.1 0 0 0-.557-.148 1 1 0 0 0-.761.324q-.295.318-.285 1.062zm5.587 0q-.017-.942.307-1.517.324-.573.84-.835a2.4 2.4 0 0 1 1.103-.261q.58 0 1.057.256.483.25 1.102.79.42.363.67.51.257.149.557.148.49 0 .773-.352.284-.357.273-1.034h1.227q.017.943-.307 1.517-.318.574-.84.835a2.4 2.4 0 0 1-1.103.262q-.58 0-1.057-.25-.477-.256-1.102-.796a4.6 4.6 0 0 0-.67-.511 1.1 1.1 0 0 0-.557-.148 1 1 0 0 0-.762.324q-.295.318-.284 1.062zm5.587 0q-.018-.942.307-1.517.324-.573.84-.835a2.4 2.4 0 0 1 1.103-.261q.58 0 1.057.256.484.25 1.102.79.42.363.67.51.255.149.557.148.49 0 .773-.352.284-.357.273-1.034H20.4q.017.943-.307 1.517-.318.574-.84.835a2.4 2.4 0 0 1-1.103.262q-.58 0-1.057-.25-.477-.256-1.102-.796a4.6 4.6 0 0 0-.67-.511 1.1 1.1 0 0 0-.557-.148 1 1 0 0 0-.762.324q-.295.318-.284 1.062zm5.587 0q-.018-.942.307-1.517.324-.573.84-.835a2.4 2.4 0 0 1 1.103-.261q.579 0 1.057.256.483.25 1.102.79.42.363.67.51.255.149.557.148.49 0 .773-.352.284-.357.273-1.034h1.227q.017.943-.307 1.517-.318.574-.84.835a2.4 2.4 0 0 1-1.103.262q-.58 0-1.057-.25-.478-.256-1.102-.796a4.6 4.6 0 0 0-.67-.511 1.1 1.1 0 0 0-.557-.148 1 1 0 0 0-.762.324q-.295.318-.284 1.062zm5.587 0q-.018-.942.306-1.517.325-.573.841-.835a2.4 2.4 0 0 1 1.103-.261q.579 0 1.056.256.483.25 1.103.79.42.363.67.51.255.149.557.148.489 0 .773-.352.284-.357.273-1.034h1.227q.017.943-.307 1.517-.318.574-.841.835a2.4 2.4 0 0 1-1.102.262q-.58 0-1.057-.25-.477-.256-1.102-.796a4.6 4.6 0 0 0-.67-.511 1.1 1.1 0 0 0-.558-.148 1 1 0 0 0-.761.324q-.296.318-.284 1.062zm-22.348 6q-.017-.942.307-1.517.324-.573.84-.835a2.4 2.4 0 0 1 1.103-.261q.58 0 1.057.255.483.25 1.102.79.42.364.67.512.256.147.558.147.488 0 .772-.352.284-.358.273-1.034h1.227q.018.944-.307 1.517-.318.574-.84.835a2.4 2.4 0 0 1-1.103.262q-.579 0-1.057-.25-.477-.256-1.102-.796a4.6 4.6 0 0 0-.67-.511 1.1 1.1 0 0 0-.557-.148 1 1 0 0 0-.761.324q-.295.318-.285 1.063zm5.587 0q-.017-.942.307-1.517.324-.573.84-.835a2.4 2.4 0 0 1 1.103-.261q.58 0 1.057.255.483.25 1.102.79.42.364.67.512.257.147.557.147.49 0 .773-.352.284-.358.273-1.034h1.227q.017.944-.307 1.517-.318.574-.84.835a2.4 2.4 0 0 1-1.103.262q-.58 0-1.057-.25-.477-.256-1.102-.796a4.6 4.6 0 0 0-.67-.511 1.1 1.1 0 0 0-.557-.148 1 1 0 0 0-.762.324q-.295.318-.284 1.063zm5.587 0q-.018-.942.307-1.517.324-.573.84-.835a2.4 2.4 0 0 1 1.103-.261q.58 0 1.057.255.484.25 1.102.79.42.364.67.512.255.147.557.147.49 0 .773-.352.284-.358.273-1.034H20.4q.017.944-.307 1.517-.318.574-.84.835a2.4 2.4 0 0 1-1.103.262q-.58 0-1.057-.25-.477-.256-1.102-.796a4.6 4.6 0 0 0-.67-.511 1.1 1.1 0 0 0-.557-.148 1 1 0 0 0-.762.324q-.295.318-.284 1.063zm5.587 0q-.018-.942.307-1.517.324-.573.84-.835a2.4 2.4 0 0 1 1.103-.261q.579 0 1.057.255.483.25 1.102.79.42.364.67.512.255.147.557.147.49 0 .773-.352.284-.358.273-1.034h1.227q.017.944-.307 1.517-.318.574-.84.835a2.4 2.4 0 0 1-1.103.262q-.58 0-1.057-.25-.478-.256-1.102-.796a4.6 4.6 0 0 0-.67-.511 1.1 1.1 0 0 0-.557-.148 1 1 0 0 0-.762.324q-.295.318-.284 1.063zm5.587 0q-.018-.942.306-1.517.325-.573.841-.835a2.4 2.4 0 0 1 1.103-.261q.579 0 1.056.255.483.25 1.103.79.42.364.67.512.255.147.557.147.489 0 .773-.352.284-.358.273-1.034h1.227q.017.944-.307 1.517-.318.574-.841.835a2.4 2.4 0 0 1-1.102.262q-.58 0-1.057-.25-.477-.256-1.102-.796a4.6 4.6 0 0 0-.67-.511 1.1 1.1 0 0 0-.558-.148 1 1 0 0 0-.761.324q-.296.318-.284 1.063z"/></svg>