<svg xmlns="http://www.w3.org/2000/svg" width="123" height="37" fill="none"><path fill="#000" d="M.64 1.38h3.4l3.14 9.24-.46-.2L9.46 3.6l1.34 3.98-4.24 9.1zm7.38 0h2.88l3.62 8.94-.52-.08 2.7-8.86h3.12l-5.68 15.26zM18.697 16 25.337.7h.16l6.64 15.3h-3.36l-4.24-10.76 2.1-1.44-5.08 12.2zm4.54-5.32h4.42l1.02 2.44h-6.34zm11.059-9.4 4.3 10.6-1.68-.34 3.9-10.26h3.44l-6.72 15.4-6.72-15.4zm16.326 10.14-5.42-10.14h3.58l3.8 7.64-.86.06 3.74-7.7h3.58l-5.52 10.14V16h-2.9zM1.9 21.28h2.9V36H1.9zM21.78 36.6 10.62 26.52l.86.48.06 9H8.6V20.7h.12l10.92 10.04-.64-.28-.06-9.18h2.92V36.6zm3.87-.6V21.28h4.4q2.22 0 3.78.66t2.5 1.76a7 7 0 0 1 1.4 2.46q.44 1.36.44 2.74 0 1.64-.6 2.96a6.75 6.75 0 0 1-1.6 2.24 7.3 7.3 0 0 1-2.36 1.42q-1.34.48-2.84.48zm2.9-2.8h1.72q1.1 0 2-.28.9-.3 1.54-.86a3.55 3.55 0 0 0 1-1.4q.36-.86.36-1.96 0-1.44-.48-2.34-.46-.92-1.16-1.42a4 4 0 0 0-1.4-.68q-.72-.2-1.22-.2h-2.36zm15.13-2.64q0 .7.42 1.34t1.1 1.04q.7.4 1.52.4.9 0 1.6-.4a3.06 3.06 0 0 0 1.1-1.04q.42-.64.42-1.34v-9.28h2.86v9.34q0 1.62-.8 2.88a5.7 5.7 0 0 1-2.16 1.96q-1.36.7-3.02.7-1.641 0-3-.7a5.7 5.7 0 0 1-2.14-1.96q-.8-1.26-.8-2.88v-9.34h2.9zm20.377-5.72q-.84-.46-1.72-.76-.861-.3-1.62-.3-.94 0-1.48.38t-.54 1.14q0 .52.4.94.42.4 1.06.72.66.32 1.36.58.639.24 1.26.58.639.32 1.14.82.5.48.8 1.22.3.72.3 1.78a3.95 3.95 0 0 1-.58 2.08q-.58.96-1.7 1.56-1.12.58-2.76.58-.84 0-1.72-.16a10 10 0 0 1-1.7-.52 9.2 9.2 0 0 1-1.62-.9l1.28-2.26q.52.38 1.12.68.62.28 1.24.44t1.14.16 1.04-.14q.54-.16.88-.52.36-.36.36-1 0-.44-.3-.8a2.8 2.8 0 0 0-.78-.66q-.48-.3-1.06-.52a20 20 0 0 1-1.4-.6q-.72-.34-1.36-.82a4.1 4.1 0 0 1-1.02-1.22q-.38-.74-.38-1.8 0-1.28.56-2.22a4.05 4.05 0 0 1 1.62-1.48q1.04-.56 2.4-.62 1.78 0 2.88.42 1.12.42 2 1zm2.8-3.56h9.92v2.8h-3.58V36h-2.9V24.08h-3.44zm17.179 0q1.38 0 2.46.36 1.08.34 1.8 1 .74.64 1.12 1.56.38.9.38 2.04 0 .9-.28 1.8a4.5 4.5 0 0 1-.88 1.64q-.6.74-1.6 1.2-1 .44-2.48.44h-2.08V36h-2.9V21.28zm.5 7.24q.66 0 1.1-.22a1.8 1.8 0 0 0 .68-.56q.26-.34.36-.7.12-.38.12-.7 0-.24-.08-.6a2.2 2.2 0 0 0-.28-.76q-.22-.38-.68-.64-.441-.26-1.2-.26h-2.08v4.44zm2.72 1.8 3.64 5.68h-3.38l-3.72-5.6zm6.03-9.04h2.9V36h-2.9zm6.7 0h10.04v2.8h-7.14v3.14h6.32v2.8h-6.32v3.18h7.42V36h-10.32zm21.18 3.56q-.84-.46-1.72-.76-.86-.3-1.62-.3-.94 0-1.48.38t-.54 1.14q0 .52.4.94.42.4 1.06.72.66.32 1.36.58.64.24 1.26.58.64.32 1.14.82.5.48.8 1.22.3.72.3 1.78 0 1.12-.58 2.08t-1.7 1.56q-1.119.58-2.76.58-.84 0-1.72-.16a10 10 0 0 1-1.7-.52 9.2 9.2 0 0 1-1.62-.9l1.28-2.26q.52.38 1.12.68a7.7 7.7 0 0 0 1.24.44q.621.16 1.14.16.52 0 1.04-.14.54-.16.88-.52.36-.36.36-1 0-.44-.3-.8a2.8 2.8 0 0 0-.78-.66q-.48-.3-1.06-.52-.68-.26-1.4-.6t-1.36-.82a4.1 4.1 0 0 1-1.02-1.22q-.38-.74-.38-1.8 0-1.28.56-2.22a4.05 4.05 0 0 1 1.62-1.48q1.041-.56 2.4-.62 1.78 0 2.88.42 1.12.42 2 1z"/></svg>