<svg xmlns="http://www.w3.org/2000/svg" width="15" height="11" fill="none"><g clip-path="url(#a)"><path fill="#A635FF" fill-opacity=".85" d="M2.732 3.477a.357.357 0 0 1-.36-.363c0-.2.154-.36.36-.36h3.985c.2 0 .359.16.359.36a.36.36 0 0 1-.359.363zm0 1.557a.353.353 0 0 1-.36-.359c0-.205.154-.368.36-.368H5.65c.2 0 .363.163.363.368a.36.36 0 0 1-.363.36zm7.58.238a1.44 1.44 0 0 1-1.441-1.44 1.438 1.438 0 1 1 2.876 0c0 .797-.643 1.44-1.436 1.44M1.812 10.96h10.493c1.207 0 1.818-.61 1.818-1.795V1.8C14.124.611 13.514 0 12.306 0H1.813C.611 0 0 .606 0 1.8v7.364c0 1.194.61 1.795 1.813 1.795"/></g><defs><clipPath id="a"><path fill="#fff" d="M0 0h14.297v10.959H0z"/></clipPath></defs></svg>