<svg xmlns="http://www.w3.org/2000/svg" width="34" height="32" fill="none"><g fill="#68CB3A" fill-opacity=".85" clip-path="url(#a)"><path d="M3.976 20.354q.072.007.155.007h8.29c.587 0 .86.43.86.908v.059c0 1.592 1.24 3.145 3.067 3.145 1.836 0 3.066-1.553 3.066-3.145v-.059c0-.478.283-.908.86-.908h8.31q.084 0 .157-.007c.881-.02 1.633-.259 2.236-.677.141.411.166.899.166 1.514v5.323c0 2.363-1.27 3.623-3.8 3.623H5.362c-2.52 0-3.798-1.25-3.798-3.623V21.19c0-.62.02-1.11.164-1.522.608.423 1.364.664 2.25.685m1.383-1.554h21.983c2.529 0 3.799-1.25 3.799-3.623V9.854c0-1.036-.069-1.71-.645-2.266l-4.541-4.365c-1.318-1.25-2.295-1.67-4.092-1.67H10.84c-1.797 0-2.774.42-4.092 1.67L2.207 7.588c-.586.557-.644 1.23-.644 2.266v5.322c0 2.373 1.279 3.623 3.798 3.623m10.987-5.664c-1.826 0-3.067-1.543-3.067-3.145v-.058c0-.479-.273-.909-.86-.909h-8.29c-.625 0-.83-.293-.332-.771l4.277-4.111c.84-.801 1.406-1.065 2.617-1.065h11.309c1.22 0 1.787.264 2.627 1.065l4.277 4.111c.518.498.284.771-.322.771h-8.31c-.577 0-.86.43-.86.909v.058c0 1.602-1.23 3.145-3.066 3.145"/></g><defs><clipPath id="a"><path fill="#fff" d="M0 0h33.066v31.67H0z"/></clipPath></defs></svg>