{
  "id": 3,
  "name": "Underground",
    "author": "Rein",
    "loops": [
    {
      "length_beats": 4,
      "events": [
        [
          0,
          {
            "note": 36,
            "state": 1,
            "velocity": 100
          }
        ],
        [
          0,
          {
            "note": 42,
            "state": 1,
            "velocity": 88
          }
        ],
        [
          6,
          {
            "note": 36,
            "state": 0,
            "velocity": 64
          }
        ],
        [
          6,
          {
            "note": 42,
            "state": 0,
            "velocity": 64
          }
        ],
        [
          12,
          {
            "note": 42,
            "state": 1,
            "velocity": 88
          }
        ],
        [
          18,
          {
            "note": 38,
            "state": 1,
            "velocity": 100
          }
        ],
        [
          18,
          {
            "note": 42,
            "state": 0,
            "velocity": 64
          }
        ],
        [
          18,
          {
            "note": 42,
            "state": 1,
            "velocity": 88
          }
        ],
        [
          18,
          {
            "note": 43,
            "state": 1,
            "velocity": 99
          }
        ],
        [
          24,
          {
            "note": 38,
            "state": 0,
            "velocity": 64
          }
        ],
        [
          24,
          {
            "note": 42,
            "state": 0,
            "velocity": 64
          }
        ],
        [
          24,
          {
            "note": 42,
            "state": 1,
            "velocity": 88
          }
        ],
        [
          24,
          {
            "note": 43,
            "state": 0,
            "velocity": 64
          }
        ],
        [
          30,
          {
            "note": 42,
            "state": 0,
            "velocity": 64
          }
        ],
        [
          36,
          {
            "note": 42,
            "state": 1,
            "velocity": 88
          }
        ],
        [
          36,
          {
            "note": 43,
            "state": 1,
            "velocity": 99
          }
        ],
        [
          42,
          {
            "note": 42,
            "state": 0,
            "velocity": 64
          }
        ],
        [
          42,
          {
            "note": 43,
            "state": 0,
            "velocity": 64
          }
        ],
        [
          48,
          {
            "note": 42,
            "state": 1,
            "velocity": 88
          }
        ],
        [
          54,
          {
            "note": 42,
            "state": 0,
            "velocity": 64
          }
        ],
        [
          60,
          {
            "note": 36,
            "state": 1,
            "velocity": 100
          }
        ],
        [
          60,
          {
            "note": 42,
            "state": 1,
            "velocity": 88
          }
        ],
        [
          60,
          {
            "note": 45,
            "state": 1,
            "velocity": 99
          }
        ],
        [
          66,
          {
            "note": 36,
            "state": 0,
            "velocity": 64
          }
        ],
        [
          66,
          {
            "note": 42,
            "state": 0,
            "velocity": 64
          }
        ],
        [
          66,
          {
            "note": 45,
            "state": 0,
            "velocity": 64
          }
        ],
        [
          72,
          {
            "note": 38,
            "state": 1,
            "velocity": 100
          }
        ],
        [
          72,
          {
            "note": 42,
            "state": 1,
            "velocity": 88
          }
        ],
        [
          78,
          {
            "note": 38,
            "state": 0,
            "velocity": 64
          }
        ],
        [
          78,
          {
            "note": 42,
            "state": 0,
            "velocity": 64
          }
        ],
        [
          78,
          {
            "note": 43,
            "state": 1,
            "velocity": 68
          }
        ],
        [
          84,
          {
            "note": 42,
            "state": 1,
            "velocity": 88
          }
        ],
        [
          84,
          {
            "note": 43,
            "state": 0,
            "velocity": 64
          }
        ],
        [
          90,
          {
            "note": 42,
            "state": 0,
            "velocity": 64
          }
        ]
      ]
    },
    {
      "length_beats": 4,
      "events": [
        [
          0,
          {
            "note": 36,
            "state": 1,
            "velocity": 100
          }
        ],
        [
          0,
          {
            "note": 42,
            "state": 1,
            "velocity": 88
          }
        ],
        [
          6,
          {
            "note": 36,
            "state": 0,
            "velocity": 64
          }
        ],
        [
          6,
          {
            "note": 38,
            "state": 1,
            "velocity": 88
          }
        ],
        [
          6,
          {
            "note": 42,
            "state": 0,
            "velocity": 64
          }
        ],
        [
          12,
          {
            "note": 38,
            "state": 0,
            "velocity": 64
          }
        ],
        [
          12,
          {
            "note": 42,
            "state": 1,
            "velocity": 88
          }
        ],
        [
          18,
          {
            "note": 36,
            "state": 1,
            "velocity": 88
          }
        ],
        [
          18,
          {
            "note": 42,
            "state": 0,
            "velocity": 64
          }
        ],
        [
          18,
          {
            "note": 42,
            "state": 1,
            "velocity": 88
          }
        ],
        [
          18,
          {
            "note": 43,
            "state": 1,
            "velocity": 99
          }
        ],
        [
          24,
          {
            "note": 36,
            "state": 0,
            "velocity": 64
          }
        ],
        [
          24,
          {
            "note": 38,
            "state": 1,
            "velocity": 88
          }
        ],
        [
          24,
          {
            "note": 42,
            "state": 0,
            "velocity": 64
          }
        ],
        [
          24,
          {
            "note": 42,
            "state": 1,
            "velocity": 88
          }
        ],
        [
          24,
          {
            "note": 43,
            "state": 0,
            "velocity": 64
          }
        ],
        [
          30,
          {
            "note": 38,
            "state": 0,
            "velocity": 64
          }
        ],
        [
          30,
          {
            "note": 42,
            "state": 0,
            "velocity": 64
          }
        ],
        [
          36,
          {
            "note": 36,
            "state": 1,
            "velocity": 88
          }
        ],
        [
          36,
          {
            "note": 42,
            "state": 1,
            "velocity": 88
          }
        ],
        [
          36,
          {
            "note": 43,
            "state": 1,
            "velocity": 99
          }
        ],
        [
          42,
          {
            "note": 36,
            "state": 0,
            "velocity": 64
          }
        ],
        [
          42,
          {
            "note": 36,
            "state": 1,
            "velocity": 88
          }
        ],
        [
          42,
          {
            "note": 42,
            "state": 0,
            "velocity": 64
          }
        ],
        [
          42,
          {
            "note": 43,
            "state": 0,
            "velocity": 64
          }
        ],
        [
          48,
          {
            "note": 36,
            "state": 0,
            "velocity": 64
          }
        ],
        [
          48,
          {
            "note": 42,
            "state": 1,
            "velocity": 88
          }
        ],
        [
          54,
          {
            "note": 42,
            "state": 0,
            "velocity": 64
          }
        ],
        [
          60,
          {
            "note": 36,
            "state": 1,
            "velocity": 88
          }
        ],
        [
          60,
          {
            "note": 42,
            "state": 1,
            "velocity": 88
          }
        ],
        [
          60,
          {
            "note": 45,
            "state": 1,
            "velocity": 99
          }
        ],
        [
          66,
          {
            "note": 36,
            "state": 0,
            "velocity": 64
          }
        ],
        [
          66,
          {
            "note": 42,
            "state": 0,
            "velocity": 64
          }
        ],
        [
          66,
          {
            "note": 45,
            "state": 0,
            "velocity": 64
          }
        ],
        [
          72,
          {
            "note": 38,
            "state": 1,
            "velocity": 88
          }
        ],
        [
          72,
          {
            "note": 42,
            "state": 1,
            "velocity": 88
          }
        ],
        [
          78,
          {
            "note": 38,
            "state": 0,
            "velocity": 64
          }
        ],
        [
          78,
          {
            "note": 42,
            "state": 0,
            "velocity": 64
          }
        ],
        [
          78,
          {
            "note": 43,
            "state": 1,
            "velocity": 68
          }
        ],
        [
          84,
          {
            "note": 42,
            "state": 1,
            "velocity": 88
          }
        ],
        [
          84,
          {
            "note": 43,
            "state": 0,
            "velocity": 64
          }
        ],
        [
          90,
          {
            "note": 42,
            "state": 0,
            "velocity": 64
          }
        ]
      ]
    },
    {
      "length_beats": 4,
      "events": [
        [
          0,
          {
            "note": 36,
            "state": 1,
            "velocity": 88
          }
        ],
        [
          0,
          {
            "note": 40,
            "state": 1,
            "velocity": 88
          }
        ],
        [
          6,
          {
            "note": 36,
            "state": 0,
            "velocity": 64
          }
        ],
        [
          6,
          {
            "note": 40,
            "state": 0,
            "velocity": 64
          }
        ],
        [
          12,
          {
            "note": 43,
            "state": 1,
            "velocity": 88
          }
        ],
        [
          18,
          {
            "note": 43,
            "state": 0,
            "velocity": 64
          }
        ],
        [
          18,
          {
            "note": 43,
            "state": 1,
            "velocity": 88
          }
        ],
        [
          24,
          {
            "note": 36,
            "state": 1,
            "velocity": 88
          }
        ],
        [
          24,
          {
            "note": 40,
            "state": 1,
            "velocity": 88
          }
        ],
        [
          24,
          {
            "note": 43,
            "state": 0,
            "velocity": 64
          }
        ],
        [
          30,
          {
            "note": 36,
            "state": 0,
            "velocity": 64
          }
        ],
        [
          30,
          {
            "note": 40,
            "state": 0,
            "velocity": 64
          }
        ],
        [
          36,
          {
            "note": 37,
            "state": 1,
            "velocity": 20
          }
        ],
        [
          36,
          {
            "note": 43,
            "state": 1,
            "velocity": 88
          }
        ],
        [
          42,
          {
            "note": 37,
            "state": 0,
            "velocity": 64
          }
        ],
        [
          42,
          {
            "note": 43,
            "state": 0,
            "velocity": 64
          }
        ],
        [
          48,
          {
            "note": 36,
            "state": 1,
            "velocity": 88
          }
        ],
        [
          48,
          {
            "note": 37,
            "state": 1,
            "velocity": 88
          }
        ],
        [
          48,
          {
            "note": 40,
            "state": 1,
            "velocity": 88
          }
        ],
        [
          48,
          {
            "note": 47,
            "state": 1,
            "velocity": 88
          }
        ],
        [
          54,
          {
            "note": 36,
            "state": 0,
            "velocity": 64
          }
        ],
        [
          54,
          {
            "note": 37,
            "state": 0,
            "velocity": 64
          }
        ],
        [
          54,
          {
            "note": 40,
            "state": 0,
            "velocity": 64
          }
        ],
        [
          54,
          {
            "note": 47,
            "state": 0,
            "velocity": 64
          }
        ],
        [
          60,
          {
            "note": 37,
            "state": 1,
            "velocity": 20
          }
        ],
        [
          66,
          {
            "note": 37,
            "state": 0,
            "velocity": 64
          }
        ],
        [
          66,
          {
            "note": 47,
            "state": 1,
            "velocity": 88
          }
        ],
        [
          72,
          {
            "note": 36,
            "state": 1,
            "velocity": 88
          }
        ],
        [
          72,
          {
            "note": 37,
            "state": 1,
            "velocity": 88
          }
        ],
        [
          72,
          {
            "note": 40,
            "state": 1,
            "velocity": 88
          }
        ],
        [
          72,
          {
            "note": 47,
            "state": 0,
            "velocity": 64
          }
        ],
        [
          78,
          {
            "note": 36,
            "state": 0,
            "velocity": 64
          }
        ],
        [
          78,
          {
            "note": 37,
            "state": 0,
            "velocity": 64
          }
        ],
        [
          78,
          {
            "note": 40,
            "state": 0,
            "velocity": 64
          }
        ],
        [
          84,
          {
            "note": 37,
            "state": 1,
            "velocity": 23
          }
        ],
        [
          84,
          {
            "note": 47,
            "state": 1,
            "velocity": 88
          }
        ],
        [
          90,
          {
            "note": 37,
            "state": 0,
            "velocity": 64
          }
        ],
        [
          90,
          {
            "note": 47,
            "state": 0,
            "velocity": 64
          }
        ]
      ]
    },
    {
      "length_beats": 4,
      "events": [
        [
          0,
          {
            "note": 36,
            "state": 1,
            "velocity": 88
          }
        ],
        [
          0,
          {
            "note": 40,
            "state": 1,
            "velocity": 88
          }
        ],
        [
          6,
          {
            "note": 36,
            "state": 0,
            "velocity": 64
          }
        ],
        [
          6,
          {
            "note": 40,
            "state": 0,
            "velocity": 64
          }
        ],
        [
          24,
          {
            "note": 36,
            "state": 1,
            "velocity": 88
          }
        ],
        [
          24,
          {
            "note": 38,
            "state": 1,
            "velocity": 52
          }
        ],
        [
          24,
          {
            "note": 40,
            "state": 1,
            "velocity": 88
          }
        ],
        [
          30,
          {
            "note": 36,
            "state": 0,
            "velocity": 64
          }
        ],
        [
          30,
          {
            "note": 38,
            "state": 0,
            "velocity": 64
          }
        ],
        [
          30,
          {
            "note": 40,
            "state": 0,
            "velocity": 64
          }
        ],
        [
          36,
          {
            "note": 37,
            "state": 1,
            "velocity": 20
          }
        ],
        [
          42,
          {
            "note": 37,
            "state": 0,
            "velocity": 64
          }
        ],
        [
          48,
          {
            "note": 36,
            "state": 1,
            "velocity": 88
          }
        ],
        [
          48,
          {
            "note": 37,
            "state": 1,
            "velocity": 88
          }
        ],
        [
          48,
          {
            "note": 40,
            "state": 1,
            "velocity": 88
          }
        ],
        [
          54,
          {
            "note": 36,
            "state": 0,
            "velocity": 64
          }
        ],
        [
          54,
          {
            "note": 37,
            "state": 0,
            "velocity": 64
          }
        ],
        [
          54,
          {
            "note": 40,
            "state": 0,
            "velocity": 64
          }
        ],
        [
          60,
          {
            "note": 37,
            "state": 1,
            "velocity": 20
          }
        ],
        [
          66,
          {
            "note": 37,
            "state": 0,
            "velocity": 64
          }
        ],
        [
          72,
          {
            "note": 36,
            "state": 1,
            "velocity": 88
          }
        ],
        [
          72,
          {
            "note": 37,
            "state": 1,
            "velocity": 88
          }
        ],
        [
          72,
          {
            "note": 38,
            "state": 1,
            "velocity": 52
          }
        ],
        [
          72,
          {
            "note": 40,
            "state": 1,
            "velocity": 88
          }
        ],
        [
          78,
          {
            "note": 36,
            "state": 0,
            "velocity": 64
          }
        ],
        [
          78,
          {
            "note": 37,
            "state": 0,
            "velocity": 64
          }
        ],
        [
          78,
          {
            "note": 38,
            "state": 0,
            "velocity": 64
          }
        ],
        [
          78,
          {
            "note": 40,
            "state": 0,
            "velocity": 64
          }
        ],
        [
          84,
          {
            "note": 37,
            "state": 1,
            "velocity": 23
          }
        ],
        [
          84,
          {
            "note": 43,
            "state": 1,
            "velocity": 88
          }
        ],
        [
          90,
          {
            "note": 37,
            "state": 0,
            "velocity": 64
          }
        ],
        [
          90,
          {
            "note": 43,
            "state": 0,
            "velocity": 64
          }
        ],
        [
          90,
          {
            "note": 43,
            "state": 1,
            "velocity": 88
          }
        ],
        [
          96,
          {
            "note": 43,
            "state": 0,
            "velocity": 64
          }
        ]
      ]
    },
    {
      "length_beats": 4,
      "events": [
        [
          0,
          {
            "note": 36,
            "state": 1,
            "velocity": 88
          }
        ],
        [
          0,
          {
            "note": 40,
            "state": 1,
            "velocity": 33
          }
        ],
        [
          6,
          {
            "note": 36,
            "state": 0,
            "velocity": 64
          }
        ],
        [
          6,
          {
            "note": 40,
            "state": 0,
            "velocity": 64
          }
        ],
        [
          6,
          {
            "note": 40,
            "state": 1,
            "velocity": 63
          }
        ],
        [
          12,
          {
            "note": 40,
            "state": 0,
            "velocity": 64
          }
        ],
        [
          12,
          {
            "note": 40,
            "state": 1,
            "velocity": 42
          }
        ],
        [
          18,
          {
            "note": 40,
            "state": 0,
            "velocity": 64
          }
        ],
        [
          18,
          {
            "note": 40,
            "state": 1,
            "velocity": 77
          }
        ],
        [
          24,
          {
            "note": 39,
            "state": 1,
            "velocity": 88
          }
        ],
        [
          24,
          {
            "note": 40,
            "state": 0,
            "velocity": 64
          }
        ],
        [
          24,
          {
            "note": 40,
            "state": 1,
            "velocity": 33
          }
        ],
        [
          30,
          {
            "note": 39,
            "state": 0,
            "velocity": 64
          }
        ],
        [
          30,
          {
            "note": 40,
            "state": 0,
            "velocity": 64
          }
        ],
        [
          30,
          {
            "note": 40,
            "state": 1,
            "velocity": 63
          }
        ],
        [
          36,
          {
            "note": 40,
            "state": 0,
            "velocity": 64
          }
        ],
        [
          36,
          {
            "note": 40,
            "state": 1,
            "velocity": 42
          }
        ],
        [
          42,
          {
            "note": 39,
            "state": 1,
            "velocity": 88
          }
        ],
        [
          42,
          {
            "note": 40,
            "state": 0,
            "velocity": 64
          }
        ],
        [
          42,
          {
            "note": 40,
            "state": 1,
            "velocity": 77
          }
        ],
        [
          48,
          {
            "note": 39,
            "state": 0,
            "velocity": 64
          }
        ],
        [
          48,
          {
            "note": 40,
            "state": 0,
            "velocity": 64
          }
        ],
        [
          48,
          {
            "note": 40,
            "state": 1,
            "velocity": 33
          }
        ],
        [
          54,
          {
            "note": 40,
            "state": 0,
            "velocity": 64
          }
        ],
        [
          54,
          {
            "note": 40,
            "state": 1,
            "velocity": 63
          }
        ],
        [
          60,
          {
            "note": 36,
            "state": 1,
            "velocity": 88
          }
        ],
        [
          60,
          {
            "note": 40,
            "state": 0,
            "velocity": 64
          }
        ],
        [
          60,
          {
            "note": 40,
            "state": 1,
            "velocity": 42
          }
        ],
        [
          66,
          {
            "note": 36,
            "state": 0,
            "velocity": 64
          }
        ],
        [
          66,
          {
            "note": 40,
            "state": 0,
            "velocity": 64
          }
        ],
        [
          66,
          {
            "note": 40,
            "state": 1,
            "velocity": 77
          }
        ],
        [
          72,
          {
            "note": 39,
            "state": 1,
            "velocity": 88
          }
        ],
        [
          72,
          {
            "note": 40,
            "state": 0,
            "velocity": 64
          }
        ],
        [
          72,
          {
            "note": 43,
            "state": 1,
            "velocity": 32
          }
        ],
        [
          78,
          {
            "note": 39,
            "state": 0,
            "velocity": 64
          }
        ],
        [
          78,
          {
            "note": 43,
            "state": 0,
            "velocity": 64
          }
        ],
        [
          78,
          {
            "note": 43,
            "state": 1,
            "velocity": 61
          }
        ],
        [
          84,
          {
            "note": 43,
            "state": 0,
            "velocity": 64
          }
        ],
        [
          84,
          {
            "note": 43,
            "state": 1,
            "velocity": 41
          }
        ],
        [
          90,
          {
            "note": 43,
            "state": 0,
            "velocity": 64
          }
        ],
        [
          90,
          {
            "note": 43,
            "state": 1,
            "velocity": 74
          }
        ],
        [
          96,
          {
            "note": 43,
            "state": 0,
            "velocity": 64
          }
        ]
      ]
    },
    {
      "length_beats": 4,
      "events": [
        [
          0,
          {
            "note": 36,
            "state": 1,
            "velocity": 88
          }
        ],
        [
          0,
          {
            "note": 42,
            "state": 1,
            "velocity": 88
          }
        ],
        [
          0,
          {
            "note": 45,
            "state": 1,
            "velocity": 88
          }
        ],
        [
          2,
          {
            "note": 45,
            "state": 0,
            "velocity": 64
          }
        ],
        [
          6,
          {
            "note": 36,
            "state": 0,
            "velocity": 64
          }
        ],
        [
          6,
          {
            "note": 42,
            "state": 0,
            "velocity": 64
          }
        ],
        [
          6,
          {
            "note": 42,
            "state": 1,
            "velocity": 88
          }
        ],
        [
          12,
          {
            "note": 42,
            "state": 0,
            "velocity": 64
          }
        ],
        [
          12,
          {
            "note": 42,
            "state": 1,
            "velocity": 88
          }
        ],
        [
          18,
          {
            "note": 36,
            "state": 1,
            "velocity": 88
          }
        ],
        [
          18,
          {
            "note": 42,
            "state": 0,
            "velocity": 64
          }
        ],
        [
          18,
          {
            "note": 42,
            "state": 1,
            "velocity": 88
          }
        ],
        [
          24,
          {
            "note": 36,
            "state": 0,
            "velocity": 64
          }
        ],
        [
          24,
          {
            "note": 42,
            "state": 0,
            "velocity": 64
          }
        ],
        [
          24,
          {
            "note": 42,
            "state": 1,
            "velocity": 88
          }
        ],
        [
          30,
          {
            "note": 42,
            "state": 0,
            "velocity": 64
          }
        ],
        [
          30,
          {
            "note": 42,
            "state": 1,
            "velocity": 88
          }
        ],
        [
          36,
          {
            "note": 36,
            "state": 1,
            "velocity": 88
          }
        ],
        [
          36,
          {
            "note": 42,
            "state": 0,
            "velocity": 64
          }
        ],
        [
          36,
          {
            "note": 42,
            "state": 1,
            "velocity": 88
          }
        ],
        [
          42,
          {
            "note": 36,
            "state": 0,
            "velocity": 64
          }
        ],
        [
          42,
          {
            "note": 42,
            "state": 0,
            "velocity": 64
          }
        ],
        [
          42,
          {
            "note": 42,
            "state": 1,
            "velocity": 88
          }
        ],
        [
          48,
          {
            "note": 38,
            "state": 1,
            "velocity": 88
          }
        ],
        [
          48,
          {
            "note": 42,
            "state": 0,
            "velocity": 64
          }
        ],
        [
          48,
          {
            "note": 43,
            "state": 1,
            "velocity": 88
          }
        ],
        [
          48,
          {
            "note": 44,
            "state": 1,
            "velocity": 88
          }
        ],
        [
          54,
          {
            "note": 38,
            "state": 0,
            "velocity": 64
          }
        ],
        [
          54,
          {
            "note": 43,
            "state": 0,
            "velocity": 64
          }
        ],
        [
          54,
          {
            "note": 43,
            "state": 1,
            "velocity": 88
          }
        ],
        [
          54,
          {
            "note": 44,
            "state": 0,
            "velocity": 64
          }
        ],
        [
          54,
          {
            "note": 44,
            "state": 1,
            "velocity": 88
          }
        ],
        [
          60,
          {
            "note": 43,
            "state": 0,
            "velocity": 64
          }
        ],
        [
          60,
          {
            "note": 43,
            "state": 1,
            "velocity": 88
          }
        ],
        [
          60,
          {
            "note": 44,
            "state": 0,
            "velocity": 64
          }
        ],
        [
          60,
          {
            "note": 44,
            "state": 1,
            "velocity": 88
          }
        ],
        [
          66,
          {
            "note": 36,
            "state": 1,
            "velocity": 88
          }
        ],
        [
          66,
          {
            "note": 43,
            "state": 0,
            "velocity": 64
          }
        ],
        [
          66,
          {
            "note": 43,
            "state": 1,
            "velocity": 88
          }
        ],
        [
          66,
          {
            "note": 44,
            "state": 0,
            "velocity": 64
          }
        ],
        [
          66,
          {
            "note": 44,
            "state": 1,
            "velocity": 88
          }
        ],
        [
          72,
          {
            "note": 36,
            "state": 0,
            "velocity": 64
          }
        ],
        [
          72,
          {
            "note": 38,
            "state": 1,
            "velocity": 88
          }
        ],
        [
          72,
          {
            "note": 43,
            "state": 0,
            "velocity": 64
          }
        ],
        [
          72,
          {
            "note": 43,
            "state": 1,
            "velocity": 88
          }
        ],
        [
          72,
          {
            "note": 44,
            "state": 0,
            "velocity": 64
          }
        ],
        [
          72,
          {
            "note": 44,
            "state": 1,
            "velocity": 88
          }
        ],
        [
          78,
          {
            "note": 38,
            "state": 0,
            "velocity": 64
          }
        ],
        [
          78,
          {
            "note": 43,
            "state": 0,
            "velocity": 64
          }
        ],
        [
          78,
          {
            "note": 43,
            "state": 1,
            "velocity": 88
          }
        ],
        [
          78,
          {
            "note": 44,
            "state": 0,
            "velocity": 64
          }
        ],
        [
          78,
          {
            "note": 44,
            "state": 1,
            "velocity": 88
          }
        ],
        [
          84,
          {
            "note": 36,
            "state": 1,
            "velocity": 88
          }
        ],
        [
          84,
          {
            "note": 43,
            "state": 0,
            "velocity": 64
          }
        ],
        [
          84,
          {
            "note": 43,
            "state": 1,
            "velocity": 88
          }
        ],
        [
          84,
          {
            "note": 44,
            "state": 0,
            "velocity": 64
          }
        ],
        [
          84,
          {
            "note": 44,
            "state": 1,
            "velocity": 88
          }
        ],
        [
          90,
          {
            "note": 36,
            "state": 0,
            "velocity": 64
          }
        ],
        [
          90,
          {
            "note": 43,
            "state": 0,
            "velocity": 64
          }
        ],
        [
          90,
          {
            "note": 43,
            "state": 1,
            "velocity": 88
          }
        ],
        [
          90,
          {
            "note": 44,
            "state": 0,
            "velocity": 64
          }
        ],
        [
          90,
          {
            "note": 44,
            "state": 1,
            "velocity": 88
          }
        ],
        [
          96,
          {
            "note": 43,
            "state": 0,
            "velocity": 64
          }
        ],
        [
          96,
          {
            "note": 44,
            "state": 0,
            "velocity": 64
          }
        ]
      ]
    },
    {
      "length_beats": 2,
      "events": [
        [
          0,
          {
            "note": 36,
            "state": 1,
            "velocity": 88
          }
        ],
        [
          0,
          {
            "note": 42,
            "state": 1,
            "velocity": 8
          }
        ],
        [
          6,
          {
            "note": 36,
            "state": 0,
            "velocity": 64
          }
        ],
        [
          6,
          {
            "note": 36,
            "state": 1,
            "velocity": 44
          }
        ],
        [
          6,
          {
            "note": 42,
            "state": 0,
            "velocity": 64
          }
        ],
        [
          6,
          {
            "note": 42,
            "state": 1,
            "velocity": 24
          }
        ],
        [
          12,
          {
            "note": 36,
            "state": 0,
            "velocity": 64
          }
        ],
        [
          12,
          {
            "note": 42,
            "state": 0,
            "velocity": 64
          }
        ],
        [
          12,
          {
            "note": 42,
            "state": 1,
            "velocity": 48
          }
        ],
        [
          18,
          {
            "note": 36,
            "state": 1,
            "velocity": 88
          }
        ],
        [
          18,
          {
            "note": 42,
            "state": 0,
            "velocity": 64
          }
        ],
        [
          18,
          {
            "note": 42,
            "state": 1,
            "velocity": 19
          }
        ],
        [
          24,
          {
            "note": 36,
            "state": 0,
            "velocity": 64
          }
        ],
        [
          24,
          {
            "note": 39,
            "state": 1,
            "velocity": 88
          }
        ],
        [
          24,
          {
            "note": 42,
            "state": 0,
            "velocity": 64
          }
        ],
        [
          24,
          {
            "note": 42,
            "state": 1,
            "velocity": 38
          }
        ],
        [
          30,
          {
            "note": 39,
            "state": 0,
            "velocity": 64
          }
        ],
        [
          30,
          {
            "note": 42,
            "state": 0,
            "velocity": 64
          }
        ],
        [
          30,
          {
            "note": 42,
            "state": 1,
            "velocity": 60
          }
        ],
        [
          36,
          {
            "note": 42,
            "state": 0,
            "velocity": 64
          }
        ],
        [
          36,
          {
            "note": 42,
            "state": 1,
            "velocity": 60
          }
        ],
        [
          42,
          {
            "note": 42,
            "state": 0,
            "velocity": 64
          }
        ],
        [
          42,
          {
            "note": 42,
            "state": 1,
            "velocity": 60
          }
        ],
        [
          48,
          {
            "note": 42,
            "state": 0,
            "velocity": 64
          }
        ]
      ]
    },
    {
      "length_beats": 4,
      "events": [
        [
          0,
          {
            "note": 36,
            "state": 1,
            "velocity": 88
          }
        ],
        [
          0,
          {
            "note": 50,
            "state": 1,
            "velocity": 88
          }
        ],
        [
          6,
          {
            "note": 36,
            "state": 0,
            "velocity": 64
          }
        ],
        [
          6,
          {
            "note": 50,
            "state": 0,
            "velocity": 64
          }
        ],
        [
          12,
          {
            "note": 51,
            "state": 1,
            "velocity": 88
          }
        ],
        [
          18,
          {
            "note": 51,
            "state": 0,
            "velocity": 64
          }
        ],
        [
          24,
          {
            "note": 36,
            "state": 1,
            "velocity": 88
          }
        ],
        [
          30,
          {
            "note": 36,
            "state": 0,
            "velocity": 64
          }
        ],
        [
          48,
          {
            "note": 36,
            "state": 1,
            "velocity": 88
          }
        ],
        [
          54,
          {
            "note": 36,
            "state": 0,
            "velocity": 64
          }
        ],
        [
          60,
          {
            "note": 48,
            "state": 1,
            "velocity": 88
          }
        ],
        [
          66,
          {
            "note": 48,
            "state": 0,
            "velocity": 64
          }
        ],
        [
          72,
          {
            "note": 36,
            "state": 1,
            "velocity": 88
          }
        ],
        [
          78,
          {
            "note": 36,
            "state": 0,
            "velocity": 64
          }
        ]
      ]
    },
    {
      "length_beats": 4,
      "events": [
        [
          0,
          {
            "note": 36,
            "state": 1,
            "velocity": 88
          }
        ],
        [
          0,
          {
            "note": 43,
            "state": 1,
            "velocity": 88
          }
        ],
        [
          0,
          {
            "note": 44,
            "state": 1,
            "velocity": 88
          }
        ],
        [
          6,
          {
            "note": 36,
            "state": 0,
            "velocity": 64
          }
        ],
        [
          6,
          {
            "note": 43,
            "state": 0,
            "velocity": 64
          }
        ],
        [
          6,
          {
            "note": 44,
            "state": 0,
            "velocity": 64
          }
        ],
        [
          12,
          {
            "note": 44,
            "state": 1,
            "velocity": 47
          }
        ],
        [
          18,
          {
            "note": 43,
            "state": 1,
            "velocity": 77
          }
        ],
        [
          18,
          {
            "note": 44,
            "state": 0,
            "velocity": 64
          }
        ],
        [
          18,
          {
            "note": 44,
            "state": 1,
            "velocity": 88
          }
        ],
        [
          24,
          {
            "note": 36,
            "state": 1,
            "velocity": 88
          }
        ],
        [
          24,
          {
            "note": 38,
            "state": 1,
            "velocity": 88
          }
        ],
        [
          24,
          {
            "note": 43,
            "state": 0,
            "velocity": 64
          }
        ],
        [
          24,
          {
            "note": 44,
            "state": 0,
            "velocity": 64
          }
        ],
        [
          30,
          {
            "note": 36,
            "state": 0,
            "velocity": 64
          }
        ],
        [
          30,
          {
            "note": 38,
            "state": 0,
            "velocity": 64
          }
        ],
        [
          36,
          {
            "note": 43,
            "state": 1,
            "velocity": 88
          }
        ],
        [
          36,
          {
            "note": 44,
            "state": 1,
            "velocity": 88
          }
        ],
        [
          42,
          {
            "note": 43,
            "state": 0,
            "velocity": 64
          }
        ],
        [
          42,
          {
            "note": 44,
            "state": 0,
            "velocity": 64
          }
        ],
        [
          48,
          {
            "note": 36,
            "state": 1,
            "velocity": 88
          }
        ],
        [
          54,
          {
            "note": 36,
            "state": 0,
            "velocity": 64
          }
        ],
        [
          60,
          {
            "note": 43,
            "state": 1,
            "velocity": 87
          }
        ],
        [
          60,
          {
            "note": 44,
            "state": 1,
            "velocity": 39
          }
        ],
        [
          66,
          {
            "note": 43,
            "state": 0,
            "velocity": 64
          }
        ],
        [
          66,
          {
            "note": 44,
            "state": 0,
            "velocity": 64
          }
        ],
        [
          66,
          {
            "note": 44,
            "state": 1,
            "velocity": 88
          }
        ],
        [
          72,
          {
            "note": 36,
            "state": 1,
            "velocity": 88
          }
        ],
        [
          72,
          {
            "note": 38,
            "state": 1,
            "velocity": 88
          }
        ],
        [
          72,
          {
            "note": 44,
            "state": 0,
            "velocity": 64
          }
        ],
        [
          78,
          {
            "note": 36,
            "state": 0,
            "velocity": 64
          }
        ],
        [
          78,
          {
            "note": 38,
            "state": 0,
            "velocity": 64
          }
        ],
        [
          78,
          {
            "note": 43,
            "state": 1,
            "velocity": 88
          }
        ],
        [
          84,
          {
            "note": 43,
            "state": 0,
            "velocity": 64
          }
        ],
        [
          84,
          {
            "note": 44,
            "state": 1,
            "velocity": 88
          }
        ],
        [
          90,
          {
            "note": 44,
            "state": 0,
            "velocity": 64
          }
        ]
      ]
    },
    {
      "length_beats": 4,
      "events": [
        [
          0,
          {
            "note": 36,
            "state": 1,
            "velocity": 88
          }
        ],
        [
          0,
          {
            "note": 43,
            "state": 1,
            "velocity": 88
          }
        ],
        [
          0,
          {
            "note": 44,
            "state": 1,
            "velocity": 88
          }
        ],
        [
          6,
          {
            "note": 36,
            "state": 0,
            "velocity": 64
          }
        ],
        [
          6,
          {
            "note": 43,
            "state": 0,
            "velocity": 64
          }
        ],
        [
          6,
          {
            "note": 44,
            "state": 0,
            "velocity": 64
          }
        ],
        [
          12,
          {
            "note": 44,
            "state": 1,
            "velocity": 47
          }
        ],
        [
          18,
          {
            "note": 36,
            "state": 1,
            "velocity": 90
          }
        ],
        [
          18,
          {
            "note": 43,
            "state": 1,
            "velocity": 77
          }
        ],
        [
          18,
          {
            "note": 44,
            "state": 0,
            "velocity": 64
          }
        ],
        [
          18,
          {
            "note": 44,
            "state": 1,
            "velocity": 88
          }
        ],
        [
          24,
          {
            "note": 36,
            "state": 0,
            "velocity": 64
          }
        ],
        [
          24,
          {
            "note": 38,
            "state": 1,
            "velocity": 88
          }
        ],
        [
          24,
          {
            "note": 43,
            "state": 0,
            "velocity": 64
          }
        ],
        [
          24,
          {
            "note": 44,
            "state": 0,
            "velocity": 64
          }
        ],
        [
          30,
          {
            "note": 38,
            "state": 0,
            "velocity": 64
          }
        ],
        [
          36,
          {
            "note": 43,
            "state": 1,
            "velocity": 88
          }
        ],
        [
          36,
          {
            "note": 44,
            "state": 1,
            "velocity": 88
          }
        ],
        [
          42,
          {
            "note": 43,
            "state": 0,
            "velocity": 64
          }
        ],
        [
          42,
          {
            "note": 44,
            "state": 0,
            "velocity": 64
          }
        ],
        [
          48,
          {
            "note": 36,
            "state": 1,
            "velocity": 88
          }
        ],
        [
          54,
          {
            "note": 36,
            "state": 0,
            "velocity": 64
          }
        ],
        [
          56,
          {
            "note": 36,
            "state": 1,
            "velocity": 81
          }
        ],
        [
          56,
          {
            "note": 43,
            "state": 1,
            "velocity": 87
          }
        ],
        [
          56,
          {
            "note": 44,
            "state": 1,
            "velocity": 39
          }
        ],
        [
          60,
          {
            "note": 36,
            "state": 0,
            "velocity": 64
          }
        ],
        [
          62,
          {
            "note": 43,
            "state": 0,
            "velocity": 64
          }
        ],
        [
          62,
          {
            "note": 44,
            "state": 0,
            "velocity": 64
          }
        ],
        [
          64,
          {
            "note": 36,
            "state": 1,
            "velocity": 40
          }
        ],
        [
          64,
          {
            "note": 44,
            "state": 1,
            "velocity": 88
          }
        ],
        [
          68,
          {
            "note": 36,
            "state": 0,
            "velocity": 64
          }
        ],
        [
          70,
          {
            "note": 44,
            "state": 0,
            "velocity": 64
          }
        ],
        [
          72,
          {
            "note": 36,
            "state": 1,
            "velocity": 88
          }
        ],
        [
          72,
          {
            "note": 38,
            "state": 1,
            "velocity": 88
          }
        ],
        [
          72,
          {
            "note": 39,
            "state": 1,
            "velocity": 88
          }
        ],
        [
          78,
          {
            "note": 36,
            "state": 0,
            "velocity": 64
          }
        ],
        [
          78,
          {
            "note": 38,
            "state": 0,
            "velocity": 64
          }
        ],
        [
          78,
          {
            "note": 43,
            "state": 1,
            "velocity": 88
          }
        ],
        [
          80,
          {
            "note": 39,
            "state": 0,
            "velocity": 64
          }
        ],
        [
          84,
          {
            "note": 43,
            "state": 0,
            "velocity": 64
          }
        ],
        [
          84,
          {
            "note": 44,
            "state": 1,
            "velocity": 88
          }
        ],
        [
          90,
          {
            "note": 44,
            "state": 0,
            "velocity": 64
          }
        ]
      ]
    },
    {
      "length_beats": 4,
      "events": [
        [
          0,
          {
            "note": 36,
            "state": 1,
            "velocity": 100
          }
        ],
        [
          0,
          {
            "note": 42,
            "state": 1,
            "velocity": 88
          }
        ],
        [
          6,
          {
            "note": 36,
            "state": 0,
            "velocity": 64
          }
        ],
        [
          6,
          {
            "note": 42,
            "state": 0,
            "velocity": 64
          }
        ],
        [
          6,
          {
            "note": 42,
            "state": 1,
            "velocity": 40
          }
        ],
        [
          12,
          {
            "note": 42,
            "state": 0,
            "velocity": 64
          }
        ],
        [
          12,
          {
            "note": 42,
            "state": 1,
            "velocity": 19
          }
        ],
        [
          18,
          {
            "note": 36,
            "state": 1,
            "velocity": 88
          }
        ],
        [
          18,
          {
            "note": 42,
            "state": 0,
            "velocity": 64
          }
        ],
        [
          24,
          {
            "note": 36,
            "state": 0,
            "velocity": 64
          }
        ],
        [
          24,
          {
            "note": 38,
            "state": 1,
            "velocity": 88
          }
        ],
        [
          30,
          {
            "note": 38,
            "state": 0,
            "velocity": 64
          }
        ],
        [
          36,
          {
            "note": 36,
            "state": 1,
            "velocity": 88
          }
        ],
        [
          36,
          {
            "note": 43,
            "state": 1,
            "velocity": 88
          }
        ],
        [
          42,
          {
            "note": 36,
            "state": 0,
            "velocity": 64
          }
        ],
        [
          42,
          {
            "note": 36,
            "state": 1,
            "velocity": 88
          }
        ],
        [
          42,
          {
            "note": 43,
            "state": 0,
            "velocity": 64
          }
        ],
        [
          42,
          {
            "note": 43,
            "state": 1,
            "velocity": 88
          }
        ],
        [
          48,
          {
            "note": 36,
            "state": 0,
            "velocity": 64
          }
        ],
        [
          48,
          {
            "note": 42,
            "state": 1,
            "velocity": 88
          }
        ],
        [
          48,
          {
            "note": 43,
            "state": 0,
            "velocity": 64
          }
        ],
        [
          54,
          {
            "note": 42,
            "state": 0,
            "velocity": 64
          }
        ],
        [
          54,
          {
            "note": 42,
            "state": 1,
            "velocity": 27
          }
        ],
        [
          60,
          {
            "note": 36,
            "state": 1,
            "velocity": 60
          }
        ],
        [
          60,
          {
            "note": 42,
            "state": 0,
            "velocity": 64
          }
        ],
        [
          60,
          {
            "note": 42,
            "state": 1,
            "velocity": 88
          }
        ],
        [
          66,
          {
            "note": 36,
            "state": 0,
            "velocity": 64
          }
        ],
        [
          66,
          {
            "note": 42,
            "state": 0,
            "velocity": 64
          }
        ],
        [
          72,
          {
            "note": 38,
            "state": 1,
            "velocity": 88
          }
        ],
        [
          78,
          {
            "note": 38,
            "state": 0,
            "velocity": 64
          }
        ]
      ]
    },
    {
      "length_beats": 4,
      "events": [
        [
          0,
          {
            "note": 43,
            "state": 1,
            "velocity": 40
          }
        ],
        [
          6,
          {
            "note": 43,
            "state": 0,
            "velocity": 64
          }
        ],
        [
          18,
          {
            "note": 45,
            "state": 1,
            "velocity": 40
          }
        ],
        [
          24,
          {
            "note": 45,
            "state": 0,
            "velocity": 64
          }
        ],
        [
          36,
          {
            "note": 47,
            "state": 1,
            "velocity": 40
          }
        ],
        [
          42,
          {
            "note": 47,
            "state": 0,
            "velocity": 64
          }
        ],
        [
          48,
          {
            "note": 43,
            "state": 1,
            "velocity": 40
          }
        ],
        [
          54,
          {
            "note": 43,
            "state": 0,
            "velocity": 64
          }
        ],
        [
          66,
          {
            "note": 47,
            "state": 1,
            "velocity": 40
          }
        ],
        [
          72,
          {
            "note": 47,
            "state": 0,
            "velocity": 64
          }
        ],
        [
          84,
          {
            "note": 45,
            "state": 1,
            "velocity": 40
          }
        ],
        [
          90,
          {
            "note": 45,
            "state": 0,
            "velocity": 64
          }
        ]
      ]
    },
    {
      "length_beats": 4,
      "events": [
        [
          0,
          {
            "note": 36,
            "state": 1,
            "velocity": 100
          }
        ],
        [
          6,
          {
            "note": 36,
            "state": 0,
            "velocity": 64
          }
        ],
        [
          12,
          {
            "note": 36,
            "state": 1,
            "velocity": 100
          }
        ],
        [
          18,
          {
            "note": 36,
            "state": 0,
            "velocity": 64
          }
        ],
        [
          24,
          {
            "note": 38,
            "state": 1,
            "velocity": 9
          }
        ],
        [
          30,
          {
            "note": 38,
            "state": 0,
            "velocity": 64
          }
        ],
        [
          30,
          {
            "note": 38,
            "state": 1,
            "velocity": 24
          }
        ],
        [
          36,
          {
            "note": 38,
            "state": 0,
            "velocity": 64
          }
        ],
        [
          36,
          {
            "note": 38,
            "state": 1,
            "velocity": 46
          }
        ],
        [
          42,
          {
            "note": 38,
            "state": 0,
            "velocity": 64
          }
        ],
        [
          42,
          {
            "note": 38,
            "state": 1,
            "velocity": 65
          }
        ],
        [
          48,
          {
            "note": 38,
            "state": 0,
            "velocity": 64
          }
        ],
        [
          60,
          {
            "note": 36,
            "state": 1,
            "velocity": 100
          }
        ],
        [
          66,
          {
            "note": 36,
            "state": 0,
            "velocity": 64
          }
        ],
        [
          72,
          {
            "note": 38,
            "state": 1,
            "velocity": 70
          }
        ],
        [
          78,
          {
            "note": 38,
            "state": 0,
            "velocity": 64
          }
        ],
        [
          84,
          {
            "note": 40,
            "state": 1,
            "velocity": 61
          }
        ],
        [
          90,
          {
            "note": 40,
            "state": 0,
            "velocity": 64
          }
        ],
        [
          90,
          {
            "note": 40,
            "state": 1,
            "velocity": 61
          }
        ],
        [
          96,
          {
            "note": 40,
            "state": 0,
            "velocity": 64
          }
        ]
      ]
    },
    {
      "length_beats": 4,
      "events": [
        [
          0,
          {
            "note": 36,
            "state": 1,
            "velocity": 40
          }
        ],
        [
          6,
          {
            "note": 36,
            "state": 0,
            "velocity": 64
          }
        ],
        [
          24,
          {
            "note": 37,
            "state": 1,
            "velocity": 40
          }
        ],
        [
          24,
          {
            "note": 38,
            "state": 1,
            "velocity": 40
          }
        ],
        [
          24,
          {
            "note": 39,
            "state": 1,
            "velocity": 40
          }
        ],
        [
          24,
          {
            "note": 40,
            "state": 1,
            "velocity": 40
          }
        ],
        [
          24,
          {
            "note": 41,
            "state": 1,
            "velocity": 40
          }
        ],
        [
          24,
          {
            "note": 42,
            "state": 1,
            "velocity": 40
          }
        ],
        [
          24,
          {
            "note": 43,
            "state": 1,
            "velocity": 40
          }
        ],
        [
          24,
          {
            "note": 44,
            "state": 1,
            "velocity": 40
          }
        ],
        [
          24,
          {
            "note": 45,
            "state": 1,
            "velocity": 40
          }
        ],
        [
          24,
          {
            "note": 46,
            "state": 1,
            "velocity": 40
          }
        ],
        [
          24,
          {
            "note": 47,
            "state": 1,
            "velocity": 40
          }
        ],
        [
          24,
          {
            "note": 48,
            "state": 1,
            "velocity": 40
          }
        ],
        [
          24,
          {
            "note": 49,
            "state": 1,
            "velocity": 40
          }
        ],
        [
          24,
          {
            "note": 50,
            "state": 1,
            "velocity": 40
          }
        ],
        [
          24,
          {
            "note": 51,
            "state": 1,
            "velocity": 40
          }
        ],
        [
          30,
          {
            "note": 37,
            "state": 0,
            "velocity": 64
          }
        ],
        [
          30,
          {
            "note": 38,
            "state": 0,
            "velocity": 64
          }
        ],
        [
          30,
          {
            "note": 39,
            "state": 0,
            "velocity": 64
          }
        ],
        [
          30,
          {
            "note": 40,
            "state": 0,
            "velocity": 64
          }
        ],
        [
          30,
          {
            "note": 41,
            "state": 0,
            "velocity": 64
          }
        ],
        [
          30,
          {
            "note": 42,
            "state": 0,
            "velocity": 64
          }
        ],
        [
          30,
          {
            "note": 43,
            "state": 0,
            "velocity": 64
          }
        ],
        [
          30,
          {
            "note": 44,
            "state": 0,
            "velocity": 64
          }
        ],
        [
          30,
          {
            "note": 45,
            "state": 0,
            "velocity": 64
          }
        ],
        [
          30,
          {
            "note": 46,
            "state": 0,
            "velocity": 64
          }
        ],
        [
          30,
          {
            "note": 47,
            "state": 0,
            "velocity": 64
          }
        ],
        [
          30,
          {
            "note": 48,
            "state": 0,
            "velocity": 64
          }
        ],
        [
          30,
          {
            "note": 49,
            "state": 0,
            "velocity": 64
          }
        ],
        [
          30,
          {
            "note": 50,
            "state": 0,
            "velocity": 64
          }
        ],
        [
          30,
          {
            "note": 51,
            "state": 0,
            "velocity": 64
          }
        ],
        [
          36,
          {
            "note": 36,
            "state": 1,
            "velocity": 40
          }
        ],
        [
          42,
          {
            "note": 36,
            "state": 0,
            "velocity": 64
          }
        ],
        [
          60,
          {
            "note": 36,
            "state": 1,
            "velocity": 40
          }
        ],
        [
          66,
          {
            "note": 36,
            "state": 0,
            "velocity": 64
          }
        ],
        [
          84,
          {
            "note": 36,
            "state": 1,
            "velocity": 40
          }
        ],
        [
          90,
          {
            "note": 36,
            "state": 0,
            "velocity": 64
          }
        ]
      ]
    },
    {
      "length_beats": 4,
      "events": [
        [
          0,
          {
            "note": 36,
            "state": 1,
            "velocity": 100
          }
        ],
        [
          0,
          {
            "note": 40,
            "state": 1,
            "velocity": 100
          }
        ],
        [
          0,
          {
            "note": 49,
            "state": 1,
            "velocity": 40
          }
        ],
        [
          6,
          {
            "note": 36,
            "state": 0,
            "velocity": 64
          }
        ],
        [
          6,
          {
            "note": 40,
            "state": 0,
            "velocity": 64
          }
        ],
        [
          12,
          {
            "note": 40,
            "state": 1,
            "velocity": 100
          }
        ],
        [
          14,
          {
            "note": 38,
            "state": 1,
            "velocity": 1
          }
        ],
        [
          14,
          {
            "note": 38,
            "state": 0,
            "velocity": 64
          }
        ],
        [
          15,
          {
            "note": 38,
            "state": 1,
            "velocity": 11
          }
        ],
        [
          16,
          {
            "note": 38,
            "state": 0,
            "velocity": 64
          }
        ],
        [
          16,
          {
            "note": 38,
            "state": 1,
            "velocity": 22
          }
        ],
        [
          18,
          {
            "note": 38,
            "state": 0,
            "velocity": 64
          }
        ],
        [
          18,
          {
            "note": 38,
            "state": 1,
            "velocity": 40
          }
        ],
        [
          18,
          {
            "note": 40,
            "state": 0,
            "velocity": 64
          }
        ],
        [
          19,
          {
            "note": 38,
            "state": 0,
            "velocity": 64
          }
        ],
        [
          20,
          {
            "note": 38,
            "state": 1,
            "velocity": 40
          }
        ],
        [
          20,
          {
            "note": 38,
            "state": 0,
            "velocity": 64
          }
        ],
        [
          21,
          {
            "note": 38,
            "state": 1,
            "velocity": 43
          }
        ],
        [
          22,
          {
            "note": 38,
            "state": 0,
            "velocity": 64
          }
        ],
        [
          22,
          {
            "note": 38,
            "state": 1,
            "velocity": 43
          }
        ],
        [
          24,
          {
            "note": 38,
            "state": 0,
            "velocity": 64
          }
        ],
        [
          24,
          {
            "note": 38,
            "state": 1,
            "velocity": 97
          }
        ],
        [
          24,
          {
            "note": 40,
            "state": 1,
            "velocity": 100
          }
        ],
        [
          24,
          {
            "note": 49,
            "state": 0,
            "velocity": 64
          }
        ],
        [
          27,
          {
            "note": 38,
            "state": 0,
            "velocity": 64
          }
        ],
        [
          30,
          {
            "note": 40,
            "state": 0,
            "velocity": 64
          }
        ],
        [
          36,
          {
            "note": 40,
            "state": 1,
            "velocity": 100
          }
        ],
        [
          42,
          {
            "note": 40,
            "state": 0,
            "velocity": 64
          }
        ],
        [
          48,
          {
            "note": 40,
            "state": 1,
            "velocity": 83
          }
        ],
        [
          54,
          {
            "note": 40,
            "state": 0,
            "velocity": 64
          }
        ],
        [
          56,
          {
            "note": 40,
            "state": 1,
            "velocity": 83
          }
        ],
        [
          60,
          {
            "note": 36,
            "state": 1,
            "velocity": 101
          }
        ],
        [
          60,
          {
            "note": 40,
            "state": 0,
            "velocity": 64
          }
        ],
        [
          63,
          {
            "note": 36,
            "state": 0,
            "velocity": 64
          }
        ],
        [
          64,
          {
            "note": 40,
            "state": 1,
            "velocity": 83
          }
        ],
        [
          68,
          {
            "note": 40,
            "state": 0,
            "velocity": 64
          }
        ],
        [
          69,
          {
            "note": 38,
            "state": 1,
            "velocity": 28
          }
        ],
        [
          70,
          {
            "note": 38,
            "state": 0,
            "velocity": 64
          }
        ],
        [
          70,
          {
            "note": 38,
            "state": 1,
            "velocity": 28
          }
        ],
        [
          72,
          {
            "note": 38,
            "state": 0,
            "velocity": 64
          }
        ],
        [
          72,
          {
            "note": 38,
            "state": 1,
            "velocity": 63
          }
        ],
        [
          72,
          {
            "note": 40,
            "state": 1,
            "velocity": 83
          }
        ],
        [
          75,
          {
            "note": 38,
            "state": 0,
            "velocity": 64
          }
        ],
        [
          76,
          {
            "note": 38,
            "state": 1,
            "velocity": 46
          }
        ],
        [
          78,
          {
            "note": 38,
            "state": 0,
            "velocity": 64
          }
        ],
        [
          78,
          {
            "note": 40,
            "state": 0,
            "velocity": 64
          }
        ],
        [
          80,
          {
            "note": 40,
            "state": 1,
            "velocity": 83
          }
        ],
        [
          82,
          {
            "note": 38,
            "state": 1,
            "velocity": 26
          }
        ],
        [
          84,
          {
            "note": 38,
            "state": 0,
            "velocity": 64
          }
        ],
        [
          84,
          {
            "note": 40,
            "state": 0,
            "velocity": 64
          }
        ],
        [
          88,
          {
            "note": 40,
            "state": 1,
            "velocity": 83
          }
        ],
        [
          90,
          {
            "note": 38,
            "state": 1,
            "velocity": 26
          }
        ],
        [
          92,
          {
            "note": 38,
            "state": 0,
            "velocity": 64
          }
        ],
        [
          92,
          {
            "note": 40,
            "state": 0,
            "velocity": 64
          }
        ]
      ]
    }
  ]
}