<svg xmlns="http://www.w3.org/2000/svg" width="119.332" height="96.472"><path fill="#fff" fill-opacity=".85" d="M119.332 48.21c0-1.344-.548-2.589-1.644-3.635L74.906 1.743C73.611.448 72.416 0 71.121 0c-2.69 0-4.781 1.992-4.781 4.682 0 1.295.448 2.54 1.345 3.436l17.431 17.68 23.259 21.467 1.146-2.84-19.574-1.045H4.781C1.992 43.38 0 45.372 0 48.21c0 2.79 1.992 4.832 4.781 4.832h85.166l19.574-1.096-1.146-2.789-23.259 21.466-17.431 17.63c-.847.897-1.345 2.192-1.345 3.487 0 2.69 2.092 4.682 4.781 4.682 1.295 0 2.44-.498 3.536-1.494l43.031-43.131c1.096-.996 1.644-2.241 1.644-3.586"/></svg>